<?xml version="1.0" encoding="UTF-8" standalone="no"?>
<!-- Created with Inkscape (http://www.inkscape.org/) -->

<svg
   width="241.45682mm"
   height="123.4507mm"
   viewBox="0 0 241.45681 123.4507"
   version="1.1"
   id="svg1"
   xml:space="preserve"
   inkscape:version="1.3.2 (091e20ef0f, 2023-11-25)"
   sodipodi:docname="current_gpu_usage.svg"
   xmlns:inkscape="http://www.inkscape.org/namespaces/inkscape"
   xmlns:sodipodi="http://sodipodi.sourceforge.net/DTD/sodipodi-0.dtd"
   xmlns="http://www.w3.org/2000/svg"
   xmlns:svg="http://www.w3.org/2000/svg"><sodipodi:namedview
     id="namedview1"
     pagecolor="#ffffff"
     bordercolor="#000000"
     borderopacity="0.25"
     inkscape:showpageshadow="2"
     inkscape:pageopacity="0.0"
     inkscape:pagecheckerboard="0"
     inkscape:deskcolor="#d1d1d1"
     inkscape:document-units="mm"
     showguides="false"
     inkscape:zoom="2.0283687"
     inkscape:cx="310.10141"
     inkscape:cy="195.47728"
     inkscape:window-width="2560"
     inkscape:window-height="1011"
     inkscape:window-x="0"
     inkscape:window-y="0"
     inkscape:window-maximized="1"
     inkscape:current-layer="layer1" /><defs
     id="defs1"><marker
       style="overflow:visible"
       id="Triangle"
       refX="0"
       refY="0"
       orient="auto-start-reverse"
       inkscape:stockid="Triangle arrow"
       markerWidth="1"
       markerHeight="1"
       viewBox="0 0 1 1"
       inkscape:isstock="true"
       inkscape:collect="always"
       preserveAspectRatio="xMidYMid"><path
         transform="scale(0.5)"
         style="fill:context-stroke;fill-rule:evenodd;stroke:context-stroke;stroke-width:1pt"
         d="M 5.77,0 -2.88,5 V -5 Z"
         id="path135" /></marker><marker
       style="overflow:visible"
       id="Triangle-8"
       refX="0"
       refY="0"
       orient="auto-start-reverse"
       inkscape:stockid="Triangle arrow"
       markerWidth="1"
       markerHeight="1"
       viewBox="0 0 1 1"
       inkscape:isstock="true"
       inkscape:collect="always"
       preserveAspectRatio="xMidYMid"><path
         transform="scale(0.5)"
         style="fill:context-stroke;fill-rule:evenodd;stroke:context-stroke;stroke-width:1pt"
         d="M 5.77,0 -2.88,5 V -5 Z"
         id="path135-7" /></marker><marker
       style="overflow:visible"
       id="Triangle-3"
       refX="0"
       refY="0"
       orient="auto-start-reverse"
       inkscape:stockid="Triangle arrow"
       markerWidth="1"
       markerHeight="1"
       viewBox="0 0 1 1"
       inkscape:isstock="true"
       inkscape:collect="always"
       preserveAspectRatio="xMidYMid"><path
         transform="scale(0.5)"
         style="fill:context-stroke;fill-rule:evenodd;stroke:context-stroke;stroke-width:1pt"
         d="M 5.77,0 -2.88,5 V -5 Z"
         id="path135-75" /></marker></defs><g
     inkscape:label="Layer 1"
     inkscape:groupmode="layer"
     id="layer1"
     transform="translate(43.649261,-62.514408)"><rect
       style="fill:#191919;fill-opacity:1;stroke-width:1.57738;paint-order:markers stroke fill"
       id="rect1"
       width="241.45682"
       height="123.4507"
       x="-43.649261"
       y="62.514408" /><g
       enable-background="new"
       transform="matrix(2.1428571,0,0,2.1428571,-175.69885,-501.47452)"
       id="g2"
       style="fill:#ffffff"><path
         d="m 132.5,285 a 0.50005,0.50005 0 0 0 -0.5,0.5 v 13 a 0.50005,0.50005 0 0 0 0.5,0.5 h 13 a 0.50005,0.50005 0 0 0 0.5,-0.5 v -13 a 0.50005,0.50005 0 0 0 -0.5,-0.5 z m 0.5,1 h 12 v 12 h -12 z"
         opacity="0.5"
         id="path1" /><path
         d="m 139,287 c -2.75493,0 -5,2.24492 -5,5 0,2.75508 2.24507,5 5,5 2.75493,0 5,-2.24492 5,-5 0,-2.75508 -2.24507,-5 -5,-5 z m 0,1.09961 c 2.1604,0 3.90039,1.73975 3.90039,3.90039 0,2.16064 -1.73999,3.90039 -3.90039,3.90039 -2.1604,0 -3.90039,-1.73975 -3.90039,-3.90039 0,-2.16064 1.73999,-3.90039 3.90039,-3.90039 z"
         id="path2" /></g><g
       enable-background="new"
       fill-rule="evenodd"
       transform="matrix(2.1428478,0,0,2.1428478,-850.69455,-996.79971)"
       id="g3"
       style="fill:#ffffff"><path
         d="m 451.5,536 a 0.50005,0.50005 0 0 0 -0.5,0.5 v 9 a 0.50005,0.50005 0 0 0 0.5,0.5 h 9 a 0.50005,0.50005 0 0 0 0.5,-0.5 v -9 a 0.50005,0.50005 0 0 0 -0.5,-0.5 z m 0.5,1 h 8 v 8 h -8 z"
         id="path1-1" /><path
         d="M 449.49219,537.99219 A 0.50005,0.50005 0 0 0 449,538.5 v 9 a 0.50005,0.50005 0 0 0 0.5,0.5 h 9 a 0.50005,0.50005 0 1 0 0,-1 H 450 v -8.5 a 0.50005,0.50005 0 0 0 -0.50781,-0.50781 z m -2,2 A 0.50005,0.50005 0 0 0 447,540.5 v 9 a 0.50005,0.50005 0 0 0 0.5,0.5 h 9 a 0.50005,0.50005 0 1 0 0,-1 H 448 v -8.5 a 0.50005,0.50005 0 0 0 -0.50781,-0.50781 z"
         opacity="0.6"
         id="path2-2" /><path
         d="m 460.48438,536 c -0.12717,0.004 -0.248,0.0564 -0.3379,0.14648 l -9,9 c -0.31479,0.315 -0.0918,0.85335 0.35352,0.85352 h 9 c 0.27613,-3e-5 0.49997,-0.22387 0.5,-0.5 v -9 c 1.1e-4,-0.28235 -0.23341,-0.50879 -0.51562,-0.5 z"
         id="path3" /></g><path
       d="m 112.51543,66.713429 a 1.0715357,1.0000919 0 1 0 0,1.999984 h 6.42857 a 1.0715357,1.0000919 0 1 0 0,-1.999984 z m -4.28571,3.999967 c -0.59171,6e-5 -1.07137,0.447737 -1.07143,0.999993 v 23.999806 c 6e-5,0.55225 0.47972,0.99993 1.07143,0.99999 h 14.99999 c 1.44892,0.02 1.44892,-2.0191 0,-1.99998 h -13.92857 v -1.99999 h 5.37388 c 0.59171,0 1.07137,-0.447732 1.07143,-0.99999 V 76.713348 h 19.26898 v 4.999957 c 0,1.049993 -0.31747,1.757206 -0.82451,2.230441 -0.50702,0.473257 -1.2648,0.769536 -2.38978,0.769536 h -2.14286 c -0.5917,5.9e-5 -1.07136,0.447735 -1.07143,0.999993 v 4.999958 H 118.944 c -1.44891,-0.01997 -1.44891,2.019102 0,1.999982 h 10.71428 c 0.59171,0 1.07137,-0.447732 1.07143,-0.99999 v -4.999958 h 1.07143 c 1.5536,0 2.93867,-0.45366 3.90487,-1.35545 0.96617,-0.901795 1.45228,-2.194522 1.45228,-3.644512 v -5.999949 c 0,-0.552256 -0.47973,-0.999932 -1.07143,-0.999992 h -11.78572 v -2.999975 c -6e-5,-0.552256 -0.47972,-0.999933 -1.07143,-0.999993 z m 1.07142,1.999984 h 12.85714 v 1.999984 h -12.85714 z m 8.57143,5.999952 v 1.999985 h 2.14286 v -1.999985 z m 4.28571,0 v 1.999985 h 2.14286 v -1.999985 z m 4.28572,0 v 1.999985 h 2.14285 v -1.999985 z m 4.28571,0 v 1.999985 h 2.14286 v -1.999985 z"
       id="path1-2"
       style="fill:#ffffff;stroke-width:2.07019" /><text
       xml:space="preserve"
       style="font-weight:bold;font-size:8.46667px;font-family:'FiraCode Nerd Font';-inkscape-font-specification:'FiraCode Nerd Font Bold';fill:#191919;fill-opacity:1;stroke-width:0.958585;paint-order:markers stroke fill"
       x="142.96954"
       y="84.932831"
       id="text1"><tspan
         sodipodi:role="line"
         id="tspan1"
         style="fill:#ffffff;stroke-width:0.958585"
         x="142.96954"
         y="84.932831">Render</tspan></text><text
       xml:space="preserve"
       style="font-weight:bold;font-size:8.46667px;font-family:'FiraCode Nerd Font';-inkscape-font-specification:'FiraCode Nerd Font Bold';fill:#ffffff;fill-opacity:1;stroke-width:0.958585;paint-order:markers stroke fill"
       x="143.36899"
       y="122.38686"
       id="text2"><tspan
         sodipodi:role="line"
         id="tspan2"
         style="stroke-width:0.958585"
         x="143.36899"
         y="122.38686">Subdivion</tspan><tspan
         sodipodi:role="line"
         style="stroke-width:0.958585"
         x="143.36899"
         y="132.9702"
         id="tspan3">Surface</tspan></text><text
       xml:space="preserve"
       style="font-weight:bold;font-size:8.46667px;font-family:'FiraCode Nerd Font';-inkscape-font-specification:'FiraCode Nerd Font Bold';fill:#ffffff;fill-opacity:1;stroke-width:0.958585;paint-order:markers stroke fill"
       x="143.17795"
       y="166.97766"
       id="text4"><tspan
         sodipodi:role="line"
         id="tspan4"
         style="stroke-width:0.958585"
         x="143.17795"
         y="166.97766">Compositor</tspan></text><text
       xml:space="preserve"
       style="font-weight:bold;font-size:11.2889px;font-family:'FiraCode Nerd Font';-inkscape-font-specification:'FiraCode Nerd Font Bold';fill:#ffffff;fill-opacity:1;stroke-width:0.958585;paint-order:markers stroke fill"
       x="-39.468082"
       y="128.82478"
       id="text5"><tspan
         sodipodi:role="line"
         id="tspan5"
         style="font-size:11.2889px;stroke-width:0.958585"
         x="-39.468082"
         y="128.82478">Scene Evaluation</tspan></text><path
       style="fill:#f9f9f9;fill-opacity:1;stroke:#f9f9f9;stroke-width:0.958585;marker-end:url(#Triangle);paint-order:markers stroke fill"
       d="M 75.376436,119.45789 101.31543,93.170856"
       id="path5"
       sodipodi:nodetypes="cc" /><path
       style="fill:#f9f9f9;fill-opacity:1;stroke:#f9f9f9;stroke-width:0.958585;marker-end:url(#Triangle-8);paint-order:markers stroke fill"
       d="m 75.012694,126.42144 25.179376,0"
       id="path5-2"
       sodipodi:nodetypes="cc" /><path
       style="fill:#f9f9f9;fill-opacity:1;stroke:#f9f9f9;stroke-width:0.958585;marker-end:url(#Triangle-3);paint-order:markers stroke fill"
       d="m 75.012694,133.11783 26.421856,27.14106"
       id="path5-22"
       sodipodi:nodetypes="cc" /><text
       xml:space="preserve"
       style="font-weight:bold;font-size:8.46667px;font-family:'FiraCode Nerd Font';-inkscape-font-specification:'FiraCode Nerd Font Bold';fill:#dba667;fill-opacity:1;stroke:#f9f9f9;stroke-width:0.958585;paint-order:markers stroke fill"
       x="-12.227892"
       y="158.32675"
       id="text6"><tspan
         sodipodi:role="line"
         id="tspan6"
         style="font-size:8.46667px;stroke:none;stroke-width:0.958585;fill:#dba667;fill-opacity:1"
         x="-12.227892"
         y="158.32675">Geometry Nodes</tspan></text><path
       style="fill:none;fill-opacity:1;stroke:#ffffff;stroke-width:0.958585;paint-order:markers stroke fill"
       d="m -28.700978,149.8088 c 0,-8.4059 42.537665,-5.26626 42.537665,-14.85476"
       id="path6"
       sodipodi:nodetypes="cc" /><path
       style="fill:none;fill-opacity:1;stroke:#ffffff;stroke-width:0.958585;paint-order:markers stroke fill"
       d="m 62.019512,150.41263 c 0,-9.21265 -42.661991,-5.32131 -42.661991,-15.45859"
       id="path7"
       sodipodi:nodetypes="cc" /><g
       enable-background="new"
       transform="matrix(0.75185817,0,0,0.75185817,-298.2655,-268.8933)"
       id="g4"
       style="fill:#dba667;fill-opacity:1"><path
         d="m 373.21906,563.36205 c -2.04533,0 -3.71335,1.66802 -3.71335,3.71335 0,2.04534 1.66802,3.71336 3.71335,3.71336 2.04534,0 3.71336,-1.66802 3.71336,-3.71336 0,-2.04533 -1.66802,-3.71335 -3.71336,-3.71335 z"
         id="path1-12"
         style="fill:#dba667;fill-opacity:1" /><path
         d="m 364.3828,556.88974 c -0.8999,0 -1.63379,0.73389 -1.63379,1.6338 0,0.89988 0.73389,1.6338 1.63379,1.6338 0.89991,0 1.6338,-0.7339 1.6338,-1.6338 0,-0.8999 -0.73389,-1.6338 -1.6338,-1.6338 z"
         opacity="0.6"
         id="path2-9"
         style="fill:#dba667;fill-opacity:1" /><path
         d="m 366.50464,561.82783 c -1.31395,0 -2.38552,1.07155 -2.38552,2.3855 0,1.31395 1.07157,2.38555 2.38552,2.38555 1.31396,0 2.38553,-1.07158 2.38553,-2.38555 0,-1.31395 -1.07157,-2.3855 -2.38553,-2.3855 z"
         opacity="0.85"
         id="path3-3"
         style="fill:#dba667;fill-opacity:1" /><path
         d="m 368.88012,557.69285 c -1.06196,0 -1.928,0.86602 -1.928,1.92801 0,1.06192 0.86604,1.92798 1.928,1.92798 1.06195,0 1.92801,-0.86606 1.92801,-1.92798 0,-1.06195 -0.86606,-1.92801 -1.92801,-1.92801 z"
         opacity="0.6"
         id="path4"
         style="fill:#dba667;fill-opacity:1" /></g></g></svg>
