<?xml version="1.0" encoding="UTF-8" standalone="no"?>
<!-- Created with Inkscape (http://www.inkscape.org/) -->

<svg
   width="241.45682mm"
   height="123.4507mm"
   viewBox="0 0 241.45681 123.4507"
   version="1.1"
   id="svg1"
   xml:space="preserve"
   inkscape:version="1.3.2 (091e20ef0f, 2023-11-25)"
   sodipodi:docname="current_gpu_usage_no_fonts.svg"
   xmlns:inkscape="http://www.inkscape.org/namespaces/inkscape"
   xmlns:sodipodi="http://sodipodi.sourceforge.net/DTD/sodipodi-0.dtd"
   xmlns="http://www.w3.org/2000/svg"
   xmlns:svg="http://www.w3.org/2000/svg"><sodipodi:namedview
     id="namedview1"
     pagecolor="#ffffff"
     bordercolor="#000000"
     borderopacity="0.25"
     inkscape:showpageshadow="2"
     inkscape:pageopacity="0.0"
     inkscape:pagecheckerboard="0"
     inkscape:deskcolor="#d1d1d1"
     inkscape:document-units="mm"
     showguides="false"
     inkscape:zoom="2.0283687"
     inkscape:cx="310.10141"
     inkscape:cy="195.47728"
     inkscape:window-width="2560"
     inkscape:window-height="1011"
     inkscape:window-x="0"
     inkscape:window-y="0"
     inkscape:window-maximized="1"
     inkscape:current-layer="layer1" /><defs
     id="defs1"><marker
       style="overflow:visible"
       id="Triangle"
       refX="0"
       refY="0"
       orient="auto-start-reverse"
       inkscape:stockid="Triangle arrow"
       markerWidth="1"
       markerHeight="1"
       viewBox="0 0 1 1"
       inkscape:isstock="true"
       inkscape:collect="always"
       preserveAspectRatio="xMidYMid"><path
         transform="scale(0.5)"
         style="fill:context-stroke;fill-rule:evenodd;stroke:context-stroke;stroke-width:1pt"
         d="M 5.77,0 -2.88,5 V -5 Z"
         id="path135" /></marker><marker
       style="overflow:visible"
       id="Triangle-8"
       refX="0"
       refY="0"
       orient="auto-start-reverse"
       inkscape:stockid="Triangle arrow"
       markerWidth="1"
       markerHeight="1"
       viewBox="0 0 1 1"
       inkscape:isstock="true"
       inkscape:collect="always"
       preserveAspectRatio="xMidYMid"><path
         transform="scale(0.5)"
         style="fill:context-stroke;fill-rule:evenodd;stroke:context-stroke;stroke-width:1pt"
         d="M 5.77,0 -2.88,5 V -5 Z"
         id="path135-7" /></marker><marker
       style="overflow:visible"
       id="Triangle-3"
       refX="0"
       refY="0"
       orient="auto-start-reverse"
       inkscape:stockid="Triangle arrow"
       markerWidth="1"
       markerHeight="1"
       viewBox="0 0 1 1"
       inkscape:isstock="true"
       inkscape:collect="always"
       preserveAspectRatio="xMidYMid"><path
         transform="scale(0.5)"
         style="fill:context-stroke;fill-rule:evenodd;stroke:context-stroke;stroke-width:1pt"
         d="M 5.77,0 -2.88,5 V -5 Z"
         id="path135-75" /></marker></defs><g
     inkscape:label="Layer 1"
     inkscape:groupmode="layer"
     id="layer1"
     transform="translate(43.649261,-62.514408)"><path
       id="rect1"
       style="fill:#191919;stroke-width:1.57738;paint-order:markers stroke fill"
       d="M -43.649261,62.514408 H 197.80756 V 185.96511 H -43.649261 Z" /><g
       enable-background="new"
       transform="matrix(2.1428571,0,0,2.1428571,-175.69885,-501.47452)"
       id="g2"
       style="fill:#ffffff"><path
         d="m 132.5,285 a 0.50005,0.50005 0 0 0 -0.5,0.5 v 13 a 0.50005,0.50005 0 0 0 0.5,0.5 h 13 a 0.50005,0.50005 0 0 0 0.5,-0.5 v -13 a 0.50005,0.50005 0 0 0 -0.5,-0.5 z m 0.5,1 h 12 v 12 h -12 z"
         opacity="0.5"
         id="path1" /><path
         d="m 139,287 c -2.75493,0 -5,2.24492 -5,5 0,2.75508 2.24507,5 5,5 2.75493,0 5,-2.24492 5,-5 0,-2.75508 -2.24507,-5 -5,-5 z m 0,1.09961 c 2.1604,0 3.90039,1.73975 3.90039,3.90039 0,2.16064 -1.73999,3.90039 -3.90039,3.90039 -2.1604,0 -3.90039,-1.73975 -3.90039,-3.90039 0,-2.16064 1.73999,-3.90039 3.90039,-3.90039 z"
         id="path2" /></g><g
       enable-background="new"
       fill-rule="evenodd"
       transform="matrix(2.1428478,0,0,2.1428478,-850.69455,-996.79971)"
       id="g3"
       style="fill:#ffffff"><path
         d="m 451.5,536 a 0.50005,0.50005 0 0 0 -0.5,0.5 v 9 a 0.50005,0.50005 0 0 0 0.5,0.5 h 9 a 0.50005,0.50005 0 0 0 0.5,-0.5 v -9 a 0.50005,0.50005 0 0 0 -0.5,-0.5 z m 0.5,1 h 8 v 8 h -8 z"
         id="path1-1" /><path
         d="M 449.49219,537.99219 A 0.50005,0.50005 0 0 0 449,538.5 v 9 a 0.50005,0.50005 0 0 0 0.5,0.5 h 9 a 0.50005,0.50005 0 1 0 0,-1 H 450 v -8.5 a 0.50005,0.50005 0 0 0 -0.50781,-0.50781 z m -2,2 A 0.50005,0.50005 0 0 0 447,540.5 v 9 a 0.50005,0.50005 0 0 0 0.5,0.5 h 9 a 0.50005,0.50005 0 1 0 0,-1 H 448 v -8.5 a 0.50005,0.50005 0 0 0 -0.50781,-0.50781 z"
         opacity="0.6"
         id="path2-2" /><path
         d="m 460.48438,536 c -0.12717,0.004 -0.248,0.0564 -0.3379,0.14648 l -9,9 c -0.31479,0.315 -0.0918,0.85335 0.35352,0.85352 h 9 c 0.27613,-3e-5 0.49997,-0.22387 0.5,-0.5 v -9 c 1.1e-4,-0.28235 -0.23341,-0.50879 -0.51562,-0.5 z"
         id="path3" /></g><path
       d="m 112.51543,66.713429 a 1.0715357,1.0000919 0 1 0 0,1.999984 h 6.42857 a 1.0715357,1.0000919 0 1 0 0,-1.999984 z m -4.28571,3.999967 c -0.59171,6e-5 -1.07137,0.447737 -1.07143,0.999993 v 23.999806 c 6e-5,0.55225 0.47972,0.99993 1.07143,0.99999 h 14.99999 c 1.44892,0.02 1.44892,-2.0191 0,-1.99998 h -13.92857 v -1.99999 h 5.37388 c 0.59171,0 1.07137,-0.447732 1.07143,-0.99999 V 76.713348 h 19.26898 v 4.999957 c 0,1.049993 -0.31747,1.757206 -0.82451,2.230441 -0.50702,0.473257 -1.2648,0.769536 -2.38978,0.769536 h -2.14286 c -0.5917,5.9e-5 -1.07136,0.447735 -1.07143,0.999993 v 4.999958 H 118.944 c -1.44891,-0.01997 -1.44891,2.019102 0,1.999982 h 10.71428 c 0.59171,0 1.07137,-0.447732 1.07143,-0.99999 v -4.999958 h 1.07143 c 1.5536,0 2.93867,-0.45366 3.90487,-1.35545 0.96617,-0.901795 1.45228,-2.194522 1.45228,-3.644512 v -5.999949 c 0,-0.552256 -0.47973,-0.999932 -1.07143,-0.999992 h -11.78572 v -2.999975 c -6e-5,-0.552256 -0.47972,-0.999933 -1.07143,-0.999993 z m 1.07142,1.999984 h 12.85714 v 1.999984 h -12.85714 z m 8.57143,5.999952 v 1.999985 h 2.14286 v -1.999985 z m 4.28571,0 v 1.999985 h 2.14286 v -1.999985 z m 4.28572,0 v 1.999985 h 2.14285 v -1.999985 z m 4.28571,0 v 1.999985 h 2.14286 v -1.999985 z"
       id="path1-2"
       style="fill:#ffffff;stroke-width:2.07019" /><path
       style="font-weight:bold;font-size:8.46667px;font-family:'FiraCode Nerd Font';-inkscape-font-specification:'FiraCode Nerd Font Bold';fill:#ffffff;stroke-width:0.958585;paint-order:markers stroke fill"
       d="m 147.84548,80.742915 q 0,0.64694 -0.3517,1.050735 -0.35169,0.399453 -0.85535,0.59918 l 1.57611,2.540001 h -1.61084 l -1.30257,-2.301198 h -0.40379 v 2.301198 h -1.42414 v -6.017849 h 1.89306 q 1.22875,0 1.85399,0.447214 0.62523,0.447214 0.62523,1.380719 z m -1.46756,0 q 0,-0.434189 -0.25617,-0.629573 -0.25183,-0.199727 -0.75115,-0.199727 h -0.47326 v 1.741095 h 0.52971 q 0.46458,0 0.70773,-0.217094 0.24314,-0.217094 0.24314,-0.694701 z m 3.59942,2.28383 q 0.0695,0.564444 0.36906,0.811932 0.29959,0.243145 0.73812,0.243145 0.31696,0 0.61221,-0.104205 0.29525,-0.104205 0.56879,-0.277881 l 0.55142,0.746804 q -0.32565,0.27788 -0.79023,0.455898 -0.46024,0.178017 -1.05073,0.178017 -0.79022,0 -1.32428,-0.312616 -0.53405,-0.316957 -0.80324,-0.868376 -0.2692,-0.551419 -0.2692,-1.26783 0,-0.681675 0.26051,-1.237436 0.26051,-0.560103 0.75983,-0.890086 0.50366,-0.334325 1.22875,-0.334325 0.65997,0 1.14192,0.282223 0.48629,0.282222 0.75114,0.811931 0.2692,0.52971 0.2692,1.272172 0,0.117231 -0.009,0.251829 -0.004,0.134598 -0.0174,0.238804 z m 0.85101,-1.93648 q -0.36906,0 -0.59483,0.264855 -0.22578,0.264855 -0.27354,0.846667 h 1.69333 q -0.004,-0.503658 -0.19538,-0.80759 -0.19105,-0.303932 -0.62958,-0.303932 z m 3.16958,3.842566 v -4.611079 h 1.19836 l 0.0955,0.534052 q 0.30828,-0.347351 0.65128,-0.516684 0.34301,-0.169334 0.78154,-0.169334 0.5905,0 0.92917,0.360376 0.33866,0.360377 0.33866,1.016001 v 3.386668 h -1.37203 v -2.991557 q 0,-0.425504 -0.0955,-0.590496 -0.0912,-0.169333 -0.34735,-0.169333 -0.2171,0 -0.41682,0.13894 -0.19539,0.13894 -0.39077,0.386427 v 3.226019 z m 7.83276,-6.586635 1.37204,0.143282 v 6.443353 H 161.987 l -0.0695,-0.508 q -0.19104,0.269196 -0.508,0.464581 -0.31696,0.191043 -0.76852,0.191043 -0.57312,0 -0.95087,-0.308274 -0.3734,-0.308273 -0.5601,-0.859692 -0.18236,-0.555761 -0.18236,-1.298223 0,-0.712069 0.22144,-1.263488 0.22143,-0.551419 0.63391,-0.864034 0.41248,-0.316958 0.98127,-0.316958 0.62089,0 1.04639,0.425505 z m -0.67733,2.826565 q -0.35604,0 -0.57313,0.338667 -0.2171,0.334325 -0.2171,1.111522 0,0.568786 0.0912,0.885743 0.0912,0.312616 0.25183,0.438531 0.16065,0.125914 0.36906,0.125914 0.23012,0 0.41682,-0.143282 0.19105,-0.143282 0.33867,-0.390769 v -1.988582 q -0.14328,-0.178017 -0.30393,-0.277881 -0.16065,-0.09986 -0.3734,-0.09986 z m 4.45477,1.853984 q 0.0695,0.564444 0.36906,0.811932 0.29959,0.243145 0.73812,0.243145 0.31696,0 0.61221,-0.104205 0.29525,-0.104205 0.56878,-0.277881 l 0.55142,0.746804 q -0.32564,0.27788 -0.79022,0.455898 -0.46024,0.178017 -1.05074,0.178017 -0.79022,0 -1.32427,-0.312616 -0.53405,-0.316957 -0.80325,-0.868376 -0.26919,-0.551419 -0.26919,-1.26783 0,-0.681675 0.26051,-1.237436 0.26051,-0.560103 0.75983,-0.890086 0.50366,-0.334325 1.22875,-0.334325 0.65997,0 1.14192,0.282223 0.48629,0.282222 0.75114,0.811931 0.2692,0.52971 0.2692,1.272172 0,0.117231 -0.009,0.251829 -0.004,0.134598 -0.0174,0.238804 z m 0.85101,-1.93648 q -0.36906,0 -0.59484,0.264855 -0.22577,0.264855 -0.27354,0.846667 h 1.69334 q -0.004,-0.503658 -0.19539,-0.80759 -0.19104,-0.303932 -0.62957,-0.303932 z m 3.213,3.842566 V 84.012352 H 170.28 v -2.778805 h -0.60786 v -0.911795 h 1.65425 l 0.25183,1.03771 q 0.24749,-0.594838 0.62958,-0.885744 0.38642,-0.290906 0.94218,-0.290906 0.23447,0 0.41683,0.03908 0.18235,0.03473 0.343,0.09986 l -0.25617,1.927796 h -0.85969 v -0.851009 q -0.39077,0.06947 -0.68602,0.425504 -0.29524,0.351693 -0.45589,0.868377 v 1.319932 h 0.91179 v 0.920479 z"
       id="text1"
       aria-label="Render" /><g
       id="text2"
       style="font-weight:bold;font-size:8.46667px;font-family:'FiraCode Nerd Font';-inkscape-font-specification:'FiraCode Nerd Font Bold';fill:#ffffff;stroke-width:0.958585;paint-order:markers stroke fill"
       aria-label="Subdivion&#10;Surface"><path
         d="m 148.30137,120.6284 q 0,0.5601 -0.29525,0.98995 -0.29091,0.42985 -0.83799,0.67299 -0.54707,0.24315 -1.31559,0.24315 -0.851,0 -1.42847,-0.24749 -0.57313,-0.25183 -0.95088,-0.62089 l 0.72076,-0.79891 q 0.33432,0.29091 0.73812,0.45156 0.40379,0.15631 0.88574,0.15631 0.44721,0 0.72509,-0.19104 0.27788,-0.19539 0.27788,-0.54708 0,-0.32998 -0.23446,-0.51669 -0.23012,-0.1867 -0.85969,-0.37774 -1.05508,-0.3213 -1.50229,-0.75549 -0.44287,-0.43853 -0.44287,-1.12454 0,-0.55142 0.30393,-0.94219 0.30827,-0.39077 0.82496,-0.59484 0.51668,-0.20841 1.13757,-0.20841 0.69904,0 1.23309,0.20407 0.53406,0.19972 0.92482,0.57313 l -0.67299,0.77285 q -0.30393,-0.25617 -0.65562,-0.37774 -0.35169,-0.12592 -0.71641,-0.12592 -0.40814,0 -0.65563,0.15197 -0.24748,0.14762 -0.24748,0.43853 0,0.19104 0.10854,0.3213 0.10855,0.13025 0.37775,0.24749 0.26919,0.11288 0.7468,0.26485 0.56879,0.17368 0.97258,0.41682 0.40814,0.2388 0.62089,0.60352 0.2171,0.36472 0.2171,0.92048 z m 2.25778,-2.85262 v 3.15655 q 0,0.33433 0.12157,0.46024 0.12592,0.12592 0.34735,0.12592 0.21275,0 0.42551,-0.1346 0.21275,-0.1346 0.35603,-0.36472 v -3.24339 h 1.37204 v 4.61108 h -1.19836 l -0.0608,-0.53839 q -0.23446,0.33867 -0.61655,0.51234 -0.38208,0.17368 -0.7989,0.17368 -0.66865,0 -0.9943,-0.38643 -0.32564,-0.39077 -0.32564,-1.04639 v -3.32589 z m 5.21026,0.47327 q 0.21709,-0.28656 0.52103,-0.4559 0.30827,-0.16933 0.65996,-0.16933 0.89009,0 1.29388,0.65997 0.40814,0.65996 0.40814,1.78451 0,0.71207 -0.21275,1.27217 -0.20841,0.55576 -0.62089,0.87706 -0.41248,0.31696 -1.01166,0.31696 -0.72509,0 -1.14191,-0.56445 l -0.0521,0.41682 h -1.21572 v -6.44335 l 1.37203,-0.14328 z m 0.67733,3.2868 q 0.36472,0 0.57747,-0.33432 0.21276,-0.33867 0.21276,-1.11586 0,-0.57313 -0.0912,-0.88575 -0.0868,-0.31696 -0.25183,-0.43853 -0.16065,-0.12591 -0.37775,-0.12591 -0.23012,0 -0.41247,0.14328 -0.18236,0.14328 -0.33433,0.39077 v 1.94516 q 0.13026,0.20407 0.29091,0.31262 0.16065,0.10854 0.38642,0.10854 z m 5.7834,-5.73562 1.37203,0.14328 v 6.44335 h -1.21573 l -0.0695,-0.508 q -0.19104,0.2692 -0.508,0.46458 -0.31695,0.19105 -0.76851,0.19105 -0.57313,0 -0.95087,-0.30828 -0.3734,-0.30827 -0.56011,-0.85969 -0.18235,-0.55576 -0.18235,-1.29822 0,-0.71207 0.22143,-1.26349 0.22144,-0.55142 0.63392,-0.86403 0.41248,-0.31696 0.98126,-0.31696 0.62089,0 1.0464,0.4255 z m -0.67734,2.82656 q -0.35603,0 -0.57313,0.33867 -0.21709,0.33433 -0.21709,1.11152 0,0.56879 0.0912,0.88575 0.0912,0.31261 0.25183,0.43853 0.16065,0.12591 0.36906,0.12591 0.23012,0 0.41682,-0.14328 0.19104,-0.14328 0.33867,-0.39077 v -1.98858 q -0.14329,-0.17802 -0.30394,-0.27788 -0.16065,-0.0999 -0.3734,-0.0999 z m 5.25368,-3.26509 q 0.35604,0 0.58181,0.22143 0.22578,0.22144 0.22578,0.55142 0,0.32999 -0.22578,0.55576 -0.22577,0.22144 -0.58181,0.22144 -0.36037,0 -0.59049,-0.22144 -0.22578,-0.22577 -0.22578,-0.55576 0,-0.32998 0.22578,-0.55142 0.23012,-0.22143 0.59049,-0.22143 z m 0.8293,2.41408 v 3.67324 h 1.17231 v 0.93784 h -3.85125 v -0.93784 h 1.30691 v -2.73539 h -1.26349 v -0.93785 z m 6.74295,0 -1.53703,4.61108 h -1.61518 l -1.55439,-4.61108 h 1.48058 l 0.89877,3.56035 0.93785,-3.56035 z m 2.84828,-2.41408 q 0.35603,0 0.58181,0.22143 0.22578,0.22144 0.22578,0.55142 0,0.32999 -0.22578,0.55576 -0.22578,0.22144 -0.58181,0.22144 -0.36038,0 -0.5905,-0.22144 -0.22578,-0.22577 -0.22578,-0.55576 0,-0.32998 0.22578,-0.55142 0.23012,-0.22143 0.5905,-0.22143 z m 0.8293,2.41408 v 3.67324 h 1.1723 v 0.93784 h -3.85124 v -0.93784 h 1.3069 v -2.73539 h -1.26349 v -0.93785 z m 4.38964,-0.15196 q 0.71207,0 1.21139,0.30393 0.49931,0.30393 0.76417,0.85535 0.26485,0.54708 0.26485,1.2852 0,1.15494 -0.59049,1.81056 -0.5905,0.65563 -1.64992,0.65563 -1.05942,0 -1.64991,-0.64694 -0.5905,-0.64694 -0.5905,-1.81057 0,-0.73378 0.26486,-1.28519 0.26919,-0.55142 0.76851,-0.8597 0.50366,-0.30827 1.20704,-0.30827 z m 0,1.01166 q -0.42116,0 -0.62523,0.34735 -0.19972,0.34301 -0.19972,1.09415 0,0.76417 0.19972,1.10718 0.20407,0.34301 0.62523,0.34301 0.42117,0 0.62089,-0.34301 0.20407,-0.34301 0.20407,-1.11586 0,-0.74681 -0.20407,-1.08981 -0.19972,-0.34301 -0.62089,-0.34301 z m 3.213,3.75138 v -4.61108 h 1.19836 l 0.0955,0.53406 q 0.30827,-0.34735 0.65128,-0.51669 0.34301,-0.16933 0.78154,-0.16933 0.5905,0 0.92916,0.36038 0.33867,0.36037 0.33867,1.016 v 3.38666 h -1.37203 v -2.99155 q 0,-0.42551 -0.0955,-0.5905 -0.0912,-0.16933 -0.34736,-0.16933 -0.21709,0 -0.41682,0.13894 -0.19538,0.13894 -0.39077,0.38643 v 3.22601 z"
         id="path8" /><path
         d="m 148.30137,131.21174 q 0,0.5601 -0.29525,0.98995 -0.29091,0.42984 -0.83799,0.67299 -0.54707,0.24315 -1.31559,0.24315 -0.851,0 -1.42847,-0.24749 -0.57313,-0.25183 -0.95088,-0.62089 l 0.72076,-0.79891 q 0.33432,0.29091 0.73812,0.45156 0.40379,0.15631 0.88574,0.15631 0.44721,0 0.72509,-0.19105 0.27788,-0.19538 0.27788,-0.54707 0,-0.32999 -0.23446,-0.51669 -0.23012,-0.1867 -0.85969,-0.37774 -1.05508,-0.3213 -1.50229,-0.75549 -0.44287,-0.43853 -0.44287,-1.12455 0,-0.55142 0.30393,-0.94218 0.30827,-0.39077 0.82496,-0.59484 0.51668,-0.20841 1.13757,-0.20841 0.69904,0 1.23309,0.20407 0.53406,0.19972 0.92482,0.57312 l -0.67299,0.77286 q -0.30393,-0.25617 -0.65562,-0.37775 -0.35169,-0.12591 -0.71641,-0.12591 -0.40814,0 -0.65563,0.15197 -0.24748,0.14762 -0.24748,0.43853 0,0.19104 0.10854,0.3213 0.10855,0.13025 0.37775,0.24748 0.26919,0.11289 0.7468,0.26486 0.56879,0.17367 0.97258,0.41682 0.40814,0.2388 0.62089,0.60352 0.2171,0.36472 0.2171,0.92048 z m 2.25778,-2.85262 v 3.15655 q 0,0.33433 0.12157,0.46024 0.12592,0.12591 0.34735,0.12591 0.21275,0 0.42551,-0.13459 0.21275,-0.1346 0.35603,-0.36472 v -3.24339 h 1.37204 v 4.61108 h -1.19836 l -0.0608,-0.53839 q -0.23446,0.33866 -0.61655,0.51234 -0.38208,0.17368 -0.7989,0.17368 -0.66865,0 -0.9943,-0.38643 -0.32564,-0.39077 -0.32564,-1.0464 v -3.32588 z m 3.88164,4.61108 v -0.92048 h 0.60787 v -2.7788 h -0.60787 v -0.9118 h 1.65426 l 0.25183,1.03771 q 0.24749,-0.59484 0.62957,-0.88574 0.38643,-0.29091 0.94219,-0.29091 0.23446,0 0.41682,0.0391 0.18236,0.0347 0.34301,0.0999 l -0.25617,1.9278 h -0.85969 v -0.85101 q -0.39077,0.0695 -0.68602,0.4255 -0.29525,0.3517 -0.4559,0.86838 v 1.31993 h 0.9118 v 0.92048 z m 8.10196,-6.58663 q 0.50366,0 0.89009,0.0825 0.38642,0.0782 0.69036,0.20841 l -0.37775,0.89443 q -0.2388,-0.0912 -0.49063,-0.13026 -0.25183,-0.0434 -0.49932,-0.0434 -0.40813,0 -0.58615,0.14763 -0.17368,0.14762 -0.17368,0.49063 v 0.61655 h 1.50229 l -0.15196,0.95087 h -1.35033 v 3.3693 h -1.36335 v -3.3693 h -0.96824 v -0.95087 h 0.96824 v -0.66865 q 0,-0.4559 0.2171,-0.81628 0.21709,-0.36037 0.6426,-0.56878 0.4255,-0.21275 1.05073,-0.21275 z m 6.15679,5.25802 q 0,0.26051 0.0695,0.37774 0.0738,0.11723 0.23447,0.17802 l -0.28223,0.90311 q -0.40813,-0.0391 -0.69036,-0.17802 -0.27788,-0.14328 -0.43853,-0.42985 -0.26485,0.31696 -0.67733,0.47327 -0.41248,0.15197 -0.84233,0.15197 -0.71206,0 -1.13757,-0.4038 -0.42116,-0.40814 -0.42116,-1.04639 0,-0.75115 0.58615,-1.15929 0.5905,-0.40813 1.6586,-0.40813 h 0.62089 v -0.17368 q 0,-0.70772 -0.91179,-0.70772 -0.22144,0 -0.56879,0.0651 -0.34735,0.0608 -0.6947,0.17802 l -0.31696,-0.91179 q 0.44721,-0.16934 0.92916,-0.25618 0.48629,-0.0868 0.86838,-0.0868 1.02903,0 1.51966,0.42116 0.49497,0.41682 0.49497,1.20704 z m -2.15357,0.49497 q 0.22144,0 0.46458,-0.13026 0.24315,-0.13459 0.36906,-0.37774 v -0.7468 h -0.33867 q -0.57312,0 -0.84232,0.17801 -0.2692,0.17368 -0.2692,0.51235 0,0.26485 0.16065,0.41682 0.16499,0.14762 0.4559,0.14762 z m 5.92667,-0.0999 q 0.28222,0 0.52971,-0.10855 0.25183,-0.11289 0.49932,-0.28656 l 0.6122,0.86837 q -0.30393,0.26051 -0.74246,0.43419 -0.43419,0.17368 -0.97258,0.17368 -0.74246,0 -1.27651,-0.30394 -0.53405,-0.30827 -0.82062,-0.85101 -0.28656,-0.54707 -0.28656,-1.26782 0,-0.72076 0.2909,-1.28086 0.29525,-0.56444 0.83364,-0.88574 0.54274,-0.3213 1.2852,-0.3213 0.52537,0 0.93351,0.14762 0.41248,0.14328 0.75548,0.42985 l -0.59483,0.82495 q -0.23447,-0.16499 -0.49498,-0.25617 -0.26051,-0.0912 -0.54273,-0.0912 -0.46458,0 -0.75115,0.32999 -0.28222,0.32564 -0.28222,1.10284 0,0.508 0.1346,0.80324 0.1346,0.29091 0.36471,0.41682 0.23447,0.12158 0.52537,0.12158 z m 3.95546,-0.97258 q 0.0695,0.56444 0.36906,0.81193 0.29959,0.24314 0.73812,0.24314 0.31696,0 0.61221,-0.1042 0.29524,-0.10421 0.56878,-0.27788 l 0.55142,0.7468 q -0.32564,0.27788 -0.79022,0.4559 -0.46024,0.17802 -1.05074,0.17802 -0.79022,0 -1.32427,-0.31262 -0.53405,-0.31696 -0.80325,-0.86838 -0.2692,-0.55142 -0.2692,-1.26783 0,-0.68167 0.26052,-1.23743 0.26051,-0.56011 0.75983,-0.89009 0.50366,-0.33432 1.22875,-0.33432 0.65997,0 1.14191,0.28222 0.4863,0.28222 0.75115,0.81193 0.2692,0.52971 0.2692,1.27217 0,0.11723 -0.009,0.25183 -0.004,0.1346 -0.0174,0.23881 z m 0.85101,-1.93648 q -0.36906,0 -0.59484,0.26485 -0.22578,0.26486 -0.27354,0.84667 h 1.69334 q -0.004,-0.50366 -0.19539,-0.80759 -0.19104,-0.30393 -0.62957,-0.30393 z"
         id="path9" /></g><path
       d="m 146.28674,160.80785 q 0.64694,0 1.09849,0.17367 0.4559,0.16934 0.83364,0.48195 l -0.69904,0.84233 q -0.24749,-0.20407 -0.54708,-0.3213 -0.29959,-0.12158 -0.65128,-0.12158 -0.37774,0 -0.69036,0.2171 -0.31261,0.21275 -0.49932,0.67733 -0.1867,0.46024 -0.1867,1.19836 0,1.08547 0.39077,1.58045 0.39511,0.49063 1.01166,0.49063 0.45156,0 0.75115,-0.16933 0.29959,-0.16934 0.55142,-0.36906 l 0.64694,0.82495 q -0.33867,0.33433 -0.83364,0.57313 -0.49498,0.23881 -1.19402,0.23881 -0.81628,0 -1.45019,-0.36038 -0.62957,-0.36472 -0.98995,-1.0681 -0.35603,-0.70773 -0.35603,-1.7411 0,-1.00732 0.36906,-1.7107 0.3734,-0.70339 1.01165,-1.0681 0.63826,-0.36906 1.43283,-0.36906 z m 4.7066,1.40677 q 0.71207,0 1.21138,0.30393 0.49932,0.30393 0.76418,0.85535 0.26485,0.54708 0.26485,1.2852 0,1.15494 -0.5905,1.81056 -0.59049,0.65563 -1.64991,0.65563 -1.05942,0 -1.64992,-0.64695 -0.59049,-0.64694 -0.59049,-1.81056 0,-0.73378 0.26485,-1.2852 0.2692,-0.55142 0.76852,-0.85969 0.50365,-0.30827 1.20704,-0.30827 z m 0,1.01166 q -0.42116,0 -0.62523,0.34735 -0.19973,0.343 -0.19973,1.09415 0,0.76417 0.19973,1.10718 0.20407,0.34301 0.62523,0.34301 0.42116,0 0.62089,-0.34301 0.20407,-0.34301 0.20407,-1.11586 0,-0.74681 -0.20407,-1.08982 -0.19973,-0.343 -0.62089,-0.343 z m 6.62137,-1.01166 q 0.49064,0 0.7251,0.3213 0.2388,0.31695 0.2388,1.02902 v 3.41272 h -1.17665 v -3.25641 q 0,-0.24315 -0.0478,-0.34301 -0.0434,-0.0999 -0.18236,-0.0999 -0.10855,0 -0.22578,0.0651 -0.11289,0.0608 -0.25183,0.23446 v 3.39969 h -0.96389 v -3.25641 q 0,-0.24315 -0.0478,-0.34301 -0.0434,-0.0999 -0.18236,-0.0999 -0.10855,0 -0.22578,0.0651 -0.11289,0.0608 -0.25183,0.23446 v 3.39969 h -1.19402 v -4.61108 h 1.00732 l 0.0912,0.44722 q 0.21709,-0.29525 0.43853,-0.44722 0.22143,-0.15196 0.52537,-0.15196 0.26051,0 0.44287,0.13459 0.1867,0.13026 0.26485,0.41248 0.20841,-0.24314 0.46024,-0.39511 0.25183,-0.15196 0.55576,-0.15196 z m 4.35492,0 q 0.60352,0 0.97258,0.29959 0.36906,0.29959 0.53839,0.84666 0.17368,0.54708 0.17368,1.29823 0,0.71206 -0.20842,1.27217 -0.20841,0.55576 -0.60352,0.87706 -0.39511,0.31696 -0.95955,0.31696 -0.67299,0 -1.09416,-0.48195 v 2.11449 l -1.37203,0.14328 v -6.53453 h 1.21573 l 0.0608,0.51669 q 0.28222,-0.36038 0.61655,-0.51235 0.33432,-0.1563 0.65997,-0.1563 z m -0.42551,1.01166 q -0.2388,0 -0.42116,0.14328 -0.18236,0.14328 -0.33433,0.39077 v 1.94516 q 0.14329,0.21275 0.29959,0.31262 0.16065,0.0999 0.37775,0.0999 0.36471,0 0.56878,-0.32998 0.20407,-0.33433 0.20407,-1.11153 0,-0.57312 -0.0825,-0.88574 -0.0825,-0.31696 -0.23881,-0.43853 -0.15631,-0.12591 -0.3734,-0.12591 z m 5.08001,-1.01166 q 0.71207,0 1.21138,0.30393 0.49932,0.30393 0.76417,0.85535 0.26486,0.54708 0.26486,1.2852 0,1.15494 -0.5905,1.81056 -0.59049,0.65563 -1.64991,0.65563 -1.05942,0 -1.64992,-0.64695 -0.59049,-0.64694 -0.59049,-1.81056 0,-0.73378 0.26485,-1.2852 0.2692,-0.55142 0.76851,-0.85969 0.50366,-0.30827 1.20705,-0.30827 z m 0,1.01166 q -0.42117,0 -0.62523,0.34735 -0.19973,0.343 -0.19973,1.09415 0,0.76417 0.19973,1.10718 0.20406,0.34301 0.62523,0.34301 0.42116,0 0.62089,-0.34301 0.20406,-0.34301 0.20406,-1.11586 0,-0.74681 -0.20406,-1.08982 -0.19973,-0.343 -0.62089,-0.343 z m 5.06263,2.91774 q 0.34301,0 0.55142,-0.10855 0.21276,-0.10854 0.21276,-0.32564 0,-0.14762 -0.0825,-0.24749 -0.0825,-0.0999 -0.31696,-0.19104 -0.23446,-0.0912 -0.6947,-0.21709 -0.63391,-0.16934 -1.03337,-0.48629 -0.39511,-0.31696 -0.39511,-0.92917 0,-0.61654 0.51234,-1.02034 0.51669,-0.40379 1.48927,-0.40379 0.61655,0 1.07245,0.16065 0.46023,0.1563 0.79456,0.39945 l -0.54708,0.80759 q -0.28656,-0.17802 -0.61654,-0.28222 -0.32999,-0.10855 -0.66431,-0.10855 -0.65997,0 -0.65997,0.35603 0,0.11724 0.0825,0.20407 0.0868,0.0825 0.3213,0.17368 0.23446,0.0868 0.68601,0.21709 0.44722,0.12592 0.7772,0.29091 0.33433,0.16499 0.51668,0.44287 0.18236,0.27354 0.18236,0.72509 0,0.50366 -0.29959,0.84667 -0.29959,0.33867 -0.79456,0.508 -0.49498,0.16934 -1.08547,0.16934 -0.66865,0 -1.18099,-0.19105 -0.51235,-0.19104 -0.87272,-0.50366 l 0.69036,-0.77285 q 0.26919,0.20841 0.60786,0.34735 0.34301,0.13894 0.7468,0.13894 z m 5.34921,-6.19152 q 0.35603,0 0.58181,0.22143 0.22578,0.22144 0.22578,0.55142 0,0.32998 -0.22578,0.55576 -0.22578,0.22144 -0.58181,0.22144 -0.36038,0 -0.5905,-0.22144 -0.22578,-0.22578 -0.22578,-0.55576 0,-0.32998 0.22578,-0.55142 0.23012,-0.22143 0.5905,-0.22143 z m 0.8293,2.41408 v 3.67323 h 1.1723 v 0.93785 h -3.85124 v -0.93785 h 1.3069 v -2.73538 h -1.26349 v -0.93785 z m 6.54322,4.34188 q -0.2692,0.17368 -0.65129,0.29525 -0.38208,0.12158 -0.85969,0.12158 -0.90311,0 -1.34164,-0.46024 -0.43853,-0.46459 -0.43853,-1.25915 v -2.09279 h -0.96824 v -0.94653 h 0.96824 v -0.99863 l 1.37203,-0.16499 v 1.16362 h 1.48493 l -0.1346,0.94653 h -1.35033 v 2.09279 q 0,0.34301 0.15631,0.49063 0.15631,0.14763 0.49932,0.14763 0.24314,0 0.44287,-0.0565 0.20407,-0.0608 0.36472,-0.15196 z m 3.05669,-4.49384 q 0.71206,0 1.21138,0.30393 0.49932,0.30393 0.76417,0.85535 0.26486,0.54708 0.26486,1.2852 0,1.15494 -0.5905,1.81056 -0.5905,0.65563 -1.64991,0.65563 -1.05942,0 -1.64992,-0.64695 -0.5905,-0.64694 -0.5905,-1.81056 0,-0.73378 0.26486,-1.2852 0.2692,-0.55142 0.76851,-0.85969 0.50366,-0.30827 1.20705,-0.30827 z m 0,1.01166 q -0.42117,0 -0.62524,0.34735 -0.19972,0.343 -0.19972,1.09415 0,0.76417 0.19972,1.10718 0.20407,0.34301 0.62524,0.34301 0.42116,0 0.62088,-0.34301 0.20407,-0.34301 0.20407,-1.11586 0,-0.74681 -0.20407,-1.08982 -0.19972,-0.343 -0.62088,-0.343 z m 3.25641,3.75138 v -0.92048 h 0.60786 v -2.7788 h -0.60786 v -0.9118 h 1.65426 l 0.25183,1.03771 q 0.24748,-0.59484 0.62957,-0.88574 0.38643,-0.29091 0.94219,-0.29091 0.23446,0 0.41682,0.0391 0.18236,0.0347 0.34301,0.0999 l -0.25617,1.9278 h -0.8597 v -0.85101 q -0.39077,0.0695 -0.68601,0.4255 -0.29525,0.3517 -0.4559,0.86838 v 1.31993 h 0.91179 v 0.92048 z"
       id="text4"
       style="font-weight:bold;font-size:8.46667px;font-family:'FiraCode Nerd Font';-inkscape-font-specification:'FiraCode Nerd Font Bold';fill:#ffffff;stroke-width:0.958585;paint-order:markers stroke fill"
       aria-label="Compositor" /><path
       d="m -32.891574,126.48017 q 0,0.7468 -0.393665,1.31993 -0.387875,0.57313 -1.117311,0.89732 -0.729437,0.3242 -1.754122,0.3242 -1.134679,0 -1.90464,-0.32999 -0.764171,-0.33577 -1.26783,-0.82785 l 0.961004,-1.06521 q 0.445767,0.38788 0.98416,0.60208 0.538394,0.20841 1.180993,0.20841 0.596285,0 0.966793,-0.25473 0.370507,-0.26051 0.370507,-0.72943 0,-0.43998 -0.312615,-0.68892 -0.306827,-0.24893 -1.146258,-0.50366 -1.406771,-0.4284 -2.003056,-1.00731 -0.590496,-0.58471 -0.590496,-1.4994 0,-0.73523 0.405242,-1.25625 0.411032,-0.52103 1.099944,-0.79312 0.688913,-0.27788 1.516765,-0.27788 0.932058,0 1.644127,0.27209 0.71207,0.2663 1.233096,0.76417 l -0.897323,1.03048 q -0.405243,-0.34157 -0.874166,-0.50366 -0.468924,-0.16789 -0.955215,-0.16789 -0.544183,0 -0.874166,0.20262 -0.329983,0.19683 -0.329983,0.58471 0,0.25472 0.144729,0.4284 0.14473,0.17367 0.503659,0.32998 0.358929,0.15052 0.995739,0.35314 0.758382,0.23157 1.296776,0.55576 0.544183,0.31841 0.827853,0.8047 0.289459,0.48629 0.289459,1.22731 z m 4.440305,1.09994 q 0.376297,0 0.70628,-0.14473 0.335773,-0.15052 0.665756,-0.38209 l 0.816274,1.15784 q -0.405242,0.34735 -0.989949,0.57892 -0.578918,0.23157 -1.296777,0.23157 -0.989949,0 -1.702018,-0.40525 -0.71207,-0.41103 -1.094155,-1.13468 -0.382086,-0.72943 -0.382086,-1.69044 0,-0.961 0.387875,-1.7078 0.393664,-0.7526 1.111522,-1.181 0.723648,-0.4284 1.713597,-0.4284 0.700491,0 1.244674,0.19684 0.549972,0.19104 1.007317,0.57312 l -0.793117,1.09995 q -0.312616,-0.21999 -0.659967,-0.34156 -0.347351,-0.12158 -0.723647,-0.12158 -0.619442,0 -1.001528,0.43998 -0.376297,0.43419 -0.376297,1.47045 0,0.67734 0.179465,1.071 0.179464,0.38788 0.486291,0.55576 0.312615,0.1621 0.70049,0.1621 z m 5.273948,-1.29678 q 0.09263,0.7526 0.49208,1.08258 0.399454,0.32419 0.984161,0.32419 0.42261,0 0.816274,-0.13894 0.393664,-0.13894 0.758383,-0.3705 l 0.735226,0.99574 q -0.434189,0.3705 -1.053631,0.60786 -0.613653,0.23736 -1.400982,0.23736 -1.05363,0 -1.765699,-0.41683 -0.71207,-0.42261 -1.070999,-1.15783 -0.358929,-0.73523 -0.358929,-1.69044 0,-0.9089 0.347351,-1.64992 0.347351,-0.7468 1.013106,-1.18678 0.671545,-0.44577 1.638338,-0.44577 0.879956,0 1.522554,0.3763 0.648389,0.3763 1.001529,1.08258 0.358929,0.70628 0.358929,1.69623 0,0.1563 -0.01158,0.33577 -0.0058,0.17946 -0.02316,0.3184 z m 1.134679,-2.58197 q -0.49208,0 -0.793117,0.35314 -0.301038,0.35314 -0.364719,1.12889 h 2.25778 q -0.0058,-0.67155 -0.260513,-1.07679 -0.254724,-0.40524 -0.839431,-0.40524 z m 4.226105,5.12342 v -6.14811 h 1.597814 l 0.127362,0.71207 q 0.411032,-0.46313 0.868377,-0.68891 0.457345,-0.22578 1.042052,-0.22578 0.787329,0 1.238885,0.48051 0.451556,0.4805 0.451556,1.35466 v 4.51556 h -1.829381 v -3.98874 q 0,-0.56734 -0.127362,-0.78733 -0.121573,-0.22578 -0.463134,-0.22578 -0.289459,0 -0.555762,0.18526 -0.260513,0.18525 -0.521026,0.51523 v 4.30136 z m 8.5332571,-2.54145 q 0.092627,0.7526 0.4920803,1.08258 0.3994534,0.32419 0.9841605,0.32419 0.4226101,0 0.8162743,-0.13894 0.3936643,-0.13894 0.7583826,-0.3705 l 0.7352258,0.99574 q -0.4341885,0.3705 -1.0536307,0.60786 -0.6136531,0.23736 -1.4009815,0.23736 -1.0536307,0 -1.7656998,-0.41683 -0.7120686,-0.42261 -1.0709986,-1.15783 -0.358929,-0.73523 -0.358929,-1.69044 0,-0.9089 0.347351,-1.64992 0.347351,-0.7468 1.0131065,-1.18678 0.6715448,-0.44577 1.6383378,-0.44577 0.8799553,0 1.5225543,0.3763 0.6483881,0.3763 1.001528,1.08258 0.3589292,0.70628 0.3589292,1.69623 0,0.1563 -0.011578,0.33577 -0.00579,0.17946 -0.023157,0.3184 z m 1.1346792,-2.58197 q -0.4920803,0 -0.7931176,0.35314 -0.3010374,0.35314 -0.3647183,1.12889 h 2.25778 q -0.00579,-0.67155 -0.260513,-1.07679 -0.254724,-0.40524 -0.8394311,-0.40524 z m 13.3382779,-1.54571 v 1.9278 h 2.7788063 v 1.33151 H 5.1896772 v 2.04937 h 3.351935 v 1.36045 H 3.2908263 v -8.0238 h 5.2449968 l -0.191043,1.35467 z m 10.5826268,0.52102 -2.04937,6.14811 h -2.153575 l -2.0725262,-6.14811 h 1.9741102 l 1.19836,4.74713 1.250463,-4.74713 z m 6.32179,4.37662 q 0,0.34736 0.09263,0.50366 0.09842,0.15631 0.312616,0.23736 l -0.376296,1.20415 q -0.544183,-0.0521 -0.92048,-0.23736 -0.370508,-0.19104 -0.584707,-0.57313 -0.35314,0.42261 -0.903112,0.63102 -0.549972,0.20263 -1.123101,0.20263 -0.949426,0 -1.516765,-0.5384 -0.561551,-0.54418 -0.561551,-1.39519 0,-1.00153 0.78154,-1.54571 0.787328,-0.54418 2.211466,-0.54418 h 0.827853 v -0.23157 q 0,-0.94364 -1.215728,-0.94364 -0.295248,0 -0.758382,0.0868 -0.463135,0.0811 -0.926269,0.23736 l -0.42261,-1.21573 q 0.596285,-0.22578 1.238884,-0.34156 0.648388,-0.11579 1.157836,-0.11579 1.372036,0 2.026213,0.56155 0.659967,0.55576 0.659967,1.6094 z m -2.871434,0.65997 q 0.295249,0 0.619443,-0.17367 0.324194,-0.17947 0.49208,-0.50366 v -0.99574 h -0.451556 q -0.764172,0 -1.123101,0.23735 -0.358929,0.23157 -0.358929,0.68313 0,0.35314 0.2142,0.55576 0.219988,0.19683 0.607863,0.19683 z m 7.850134,-7.47962 v 6.65756 q 0,0.3705 0.20841,0.5326 0.2142,0.15631 0.584708,0.15631 0.237356,0 0.457345,-0.0521 0.219989,-0.0579 0.411032,-0.13315 l 0.439977,1.22151 q -0.312615,0.1621 -0.752593,0.28367 -0.439978,0.12158 -1.024685,0.12158 -1.111522,0 -1.632549,-0.63681 -0.521026,-0.6426 -0.521026,-1.71939 V 121.4841 H 23.4314 v -1.25046 z m 5.569197,2.44303 v 4.20874 q 0,0.44576 0.162097,0.61365 0.167886,0.16789 0.463134,0.16789 0.28367,0 0.56734,-0.17947 0.28367,-0.17946 0.474712,-0.48629 v -4.32452 h 1.829381 v 6.14811 h -1.597813 l -0.08105,-0.71785 q -0.312616,0.45155 -0.822063,0.68312 -0.509448,0.23157 -1.065209,0.23157 -0.891534,0 -1.325723,-0.51524 -0.434188,-0.52103 -0.434188,-1.39519 v -4.43452 z m 10.293167,4.37662 q 0,0.34736 0.09263,0.50366 0.09842,0.15631 0.312616,0.23736 l -0.376297,1.20415 q -0.544183,-0.0521 -0.92048,-0.23736 -0.370507,-0.19104 -0.584707,-0.57313 -0.35314,0.42261 -0.903112,0.63102 -0.549972,0.20263 -1.123101,0.20263 -0.949425,0 -1.516765,-0.5384 -0.56155,-0.54418 -0.56155,-1.39519 0,-1.00153 0.781539,-1.54571 0.787329,-0.54418 2.211467,-0.54418 h 0.827852 v -0.23157 q 0,-0.94364 -1.215727,-0.94364 -0.295248,0 -0.758383,0.0868 -0.463134,0.0811 -0.926269,0.23736 l -0.42261,-1.21573 q 0.596286,-0.22578 1.238885,-0.34156 0.648388,-0.11579 1.157836,-0.11579 1.372035,0 2.026213,0.56155 0.659966,0.55576 0.659966,1.6094 z m -2.871433,0.65997 q 0.295248,0 0.619442,-0.17367 0.324194,-0.17947 0.49208,-0.50366 v -0.99574 h -0.451556 q -0.764171,0 -1.1231,0.23735 -0.35893,0.23157 -0.35893,0.68313 0,0.35314 0.2142,0.55576 0.219989,0.19683 0.607864,0.19683 z m 10.177376,0.75259 q -0.358929,0.23157 -0.868377,0.39367 -0.509448,0.1621 -1.146257,0.1621 -1.20415,0 -1.788857,-0.61366 -0.584707,-0.61944 -0.584707,-1.67886 v -2.79038 h -1.290987 v -1.26205 h 1.290987 v -1.33151 l 1.829381,-0.21999 v 1.5515 h 1.979899 l -0.179464,1.26205 h -1.800435 v 2.79038 q 0,0.45735 0.20841,0.65418 0.208411,0.19683 0.665756,0.19683 0.324194,0 0.590496,-0.0753 0.272092,-0.0811 0.486291,-0.20262 z m 4.06401,-9.00796 q 0.474713,0 0.77575,0.29525 0.301037,0.29525 0.301037,0.73522 0,0.43998 -0.301037,0.74102 -0.301037,0.29525 -0.77575,0.29525 -0.480502,0 -0.787328,-0.29525 -0.301038,-0.30104 -0.301038,-0.74102 0,-0.43997 0.301038,-0.73522 0.306826,-0.29525 0.787328,-0.29525 z m 1.105733,3.21878 v 4.89765 h 1.563079 v 1.25046 h -5.135002 v -1.25046 h 1.742543 v -3.64718 h -1.684652 v -1.25047 z m 5.852867,-0.20262 q 0.949425,0 1.615181,0.40525 0.665756,0.40524 1.018896,1.14046 0.35314,0.72944 0.35314,1.7136 0,1.53992 -0.787329,2.41409 -0.787328,0.87417 -2.199888,0.87417 -1.41256,0 -2.199888,-0.86259 -0.787329,-0.86259 -0.787329,-2.41409 0,-0.97837 0.35314,-1.7136 0.358929,-0.73522 1.024685,-1.14626 0.671545,-0.41103 1.609392,-0.41103 z m 0,1.34888 q -0.561551,0 -0.833642,0.46314 -0.266302,0.45734 -0.266302,1.45887 0,1.0189 0.266302,1.47624 0.272091,0.45735 0.833642,0.45735 0.56155,0 0.827853,-0.45735 0.272091,-0.45734 0.272091,-1.48782 0,-0.99574 -0.272091,-1.45308 -0.266303,-0.45735 -0.827853,-0.45735 z m 4.283999,5.00185 v -6.14811 h 1.597813 l 0.127362,0.71207 q 0.411032,-0.46313 0.868377,-0.68891 0.457345,-0.22578 1.042053,-0.22578 0.787328,0 1.238884,0.48051 0.451556,0.4805 0.451556,1.35466 v 4.51556 h -1.829381 v -3.98874 q 0,-0.56734 -0.127362,-0.78733 -0.121572,-0.22578 -0.463134,-0.22578 -0.289459,0 -0.555761,0.18526 -0.260513,0.18525 -0.521026,0.51523 v 4.30136 z"
       id="text5"
       style="font-weight:bold;font-size:11.2889px;font-family:'FiraCode Nerd Font';-inkscape-font-specification:'FiraCode Nerd Font Bold';fill:#ffffff;stroke-width:0.958585;paint-order:markers stroke fill"
       aria-label="Scene Evaluation" /><path
       style="fill:#f9f9f9;fill-opacity:1;stroke:#f9f9f9;stroke-width:0.958585;marker-end:url(#Triangle);paint-order:markers stroke fill"
       d="M 75.376436,119.45789 101.31543,93.170856"
       id="path5"
       sodipodi:nodetypes="cc" /><path
       style="fill:#f9f9f9;fill-opacity:1;stroke:#f9f9f9;stroke-width:0.958585;marker-end:url(#Triangle-8);paint-order:markers stroke fill"
       d="m 75.012694,126.42144 25.179376,0"
       id="path5-2"
       sodipodi:nodetypes="cc" /><path
       style="fill:#f9f9f9;fill-opacity:1;stroke:#f9f9f9;stroke-width:0.958585;marker-end:url(#Triangle-3);paint-order:markers stroke fill"
       d="m 75.012694,133.11783 26.421856,27.14106"
       id="path5-22"
       sodipodi:nodetypes="cc" /><path
       style="font-weight:bold;font-size:8.46667px;font-family:'FiraCode Nerd Font';-inkscape-font-specification:'FiraCode Nerd Font Bold';fill:#dba667;stroke-width:0.958585;paint-order:markers stroke fill"
       d="m -9.4013267,158.47438 q -1.2808553,0 -1.9581893,-0.80759 -0.672991,-0.81194 -0.672991,-2.36199 0,-1.02468 0.373402,-1.72373 0.373401,-0.70338 1.007316,-1.06376 0.633915,-0.36037 1.4154538,-0.36037 0.6599661,0 1.1115218,0.20407 0.4515558,0.20406 0.8032482,0.53839 l -0.7468037,0.77285 q -0.2735386,-0.24314 -0.5253677,-0.36037 -0.2518292,-0.11723 -0.5731285,-0.11723 -0.403795,0 -0.7207524,0.21709 -0.3126155,0.21275 -0.4949745,0.68168 -0.182359,0.46458 -0.182359,1.22007 0,0.78588 0.125914,1.25046 0.130257,0.46458 0.39077,0.66865 0.2605128,0.19972 0.659966,0.19972 0.2127522,0 0.3994531,-0.0478 0.1867009,-0.0521 0.3473506,-0.1346 v -1.37637 h -0.7554875 l -0.1389402,-0.99863 h 2.2404111 v 2.99155 q -0.4515557,0.27788 -0.9725816,0.44287 -0.5166839,0.165 -1.1332312,0.165 z m 4.1812363,-2.05371 q 0.06947,0.56444 0.3690599,0.81193 0.2995899,0.24314 0.73812,0.24314 0.3169574,0 0.6122054,-0.1042 0.2952479,-0.10421 0.5687865,-0.27788 l 0.551419,0.7468 q -0.3256411,0.27788 -0.7902225,0.4559 -0.4602395,0.17802 -1.0507355,0.17802 -0.7902225,0 -1.324274,-0.31262 -0.5340515,-0.31696 -0.8032482,-0.86838 -0.2691967,-0.55142 -0.2691967,-1.26783 0,-0.68167 0.260513,-1.23743 0.2605129,-0.5601 0.7598293,-0.89009 0.5036583,-0.33432 1.2287526,-0.33432 0.6599661,0 1.141915,0.28222 0.4862908,0.28222 0.7511456,0.81193 0.2691967,0.52971 0.2691967,1.27217 0,0.11723 -0.00868,0.25183 -0.00434,0.1346 -0.017367,0.23881 z m 0.8510088,-1.93648 q -0.3690599,0 -0.5948378,0.26485 -0.2257779,0.26486 -0.2735386,0.84667 h 1.693334 q -0.00434,-0.50366 -0.1953847,-0.80759 -0.1910428,-0.30393 -0.6295729,-0.30393 z m 5.16684352,-0.92048 q 0.71206868,0 1.21138508,0.30393 0.4993165,0.30393 0.7641713,0.85535 0.2648548,0.54708 0.2648548,1.2852 0,1.15494 -0.590496,1.81056 -0.590496,0.65563 -1.64991518,0.65563 -1.05941923,0 -1.64991519,-0.64694 -0.59049593,-0.64695 -0.59049593,-1.81057 0,-0.73378 0.2648548,-1.2852 0.26919666,-0.55142 0.7685131,-0.85969 0.50365832,-0.30827 1.20704322,-0.30827 z m 0,1.01166 q -0.42116256,0 -0.62523102,0.34735 -0.19972658,0.343 -0.19972658,1.09415 0,0.76417 0.19972658,1.10718 0.20406846,0.34301 0.62523102,0.34301 0.42116258,0 0.62088918,-0.34301 0.2040684,-0.34301 0.2040684,-1.11586 0,-0.74681 -0.2040684,-1.08982 -0.1997266,-0.343 -0.62088918,-0.343 z m 6.62137398,-1.01166 q 0.4906327,0 0.7250943,0.3213 0.2388035,0.31695 0.2388035,1.02902 v 3.41272 h -1.17665 v -3.25641 q 0,-0.24315 -0.047761,-0.34301 -0.043419,-0.0999 -0.1823591,-0.0999 -0.108547,0 -0.2257779,0.0651 -0.1128889,0.0608 -0.2518291,0.23446 v 3.39969 H 5.5347591 v -3.25641 q 0,-0.24315 -0.047761,-0.34301 -0.043419,-0.0999 -0.1823591,-0.0999 -0.108547,0 -0.2257778,0.0651 -0.112889,0.0608 -0.2518292,0.23446 v 3.39969 H 3.6330147 v -4.61108 h 1.0073167 l 0.091179,0.44722 q 0.2170941,-0.29525 0.4385301,-0.44722 0.221436,-0.15196 0.5253677,-0.15196 0.2605129,0 0.442872,0.1346 0.1867009,0.13025 0.2648548,0.41247 0.2084103,-0.24314 0.4602395,-0.39511 0.2518291,-0.15196 0.5557609,-0.15196 z m 2.9915601,2.85696 q 0.06947,0.56444 0.36906,0.81193 0.29959,0.24314 0.73812,0.24314 0.316958,0 0.612206,-0.1042 0.295248,-0.10421 0.568786,-0.27788 l 0.551419,0.7468 q -0.325641,0.27788 -0.790222,0.4559 -0.46024,0.17802 -1.050736,0.17802 -0.790222,0 -1.324274,-0.31262 -0.5340512,-0.31696 -0.8032479,-0.86838 -0.2691967,-0.55142 -0.2691967,-1.26783 0,-0.68167 0.2605129,-1.23743 0.260513,-0.5601 0.7598297,-0.89009 0.503658,-0.33432 1.228752,-0.33432 0.659966,0 1.141915,0.28222 0.486291,0.28222 0.751146,0.81193 0.269197,0.52971 0.269197,1.27217 0,0.11723 -0.0087,0.25183 -0.0043,0.1346 -0.01737,0.23881 z m 0.851009,-1.93648 q -0.36906,0 -0.594838,0.26485 -0.225777,0.26486 -0.273538,0.84667 h 1.693334 q -0.0043,-0.50366 -0.195385,-0.80759 -0.191043,-0.30393 -0.629573,-0.30393 z m 7.320417,3.57337 q -0.269196,0.17367 -0.651282,0.29524 -0.382086,0.12158 -0.859693,0.12158 -0.903111,0 -1.341641,-0.46024 -0.43853,-0.46459 -0.43853,-1.25915 v -2.09279 h -0.96824 v -0.94653 h 0.96824 v -0.99863 l 1.372034,-0.16499 v 1.16362 h 1.484924 l -0.134598,0.94653 H 16.66301 v 2.09279 q 0,0.34301 0.156308,0.49063 0.156308,0.14763 0.499317,0.14763 0.243145,0 0.442872,-0.0564 0.204068,-0.0608 0.364718,-0.15196 z m 1.102842,0.26919 v -0.92048 h 0.607864 v -2.7788 h -0.607864 v -0.9118 h 1.654257 l 0.251829,1.03771 q 0.247488,-0.59484 0.629573,-0.88574 0.386428,-0.29091 0.942189,-0.29091 0.234461,0 0.41682,0.0391 0.182359,0.0347 0.343009,0.0999 l -0.256171,1.9278 h -0.859693 v -0.85101 q -0.390769,0.0695 -0.686017,0.4255 -0.295248,0.3517 -0.455898,0.86838 v 1.31993 h 0.911796 v 0.92048 z m 9.526093,-4.61108 -1.537026,4.61108 q -0.303932,0.91614 -0.920479,1.39375 -0.612205,0.4776 -1.662941,0.53839 l -0.156308,-0.96824 q 0.455898,-0.0564 0.733778,-0.16933 0.282223,-0.11289 0.451556,-0.30828 0.173676,-0.19104 0.29959,-0.48629 h -0.468923 l -1.463214,-4.61108 h 1.450188 l 0.894428,3.73402 0.972581,-3.73402 z m 8.484045,4.61108 -1.584787,-4.8412 q 0.03908,0.25617 0.09118,0.65997 0.0521,0.39945 0.08684,0.89009 0.03908,0.49063 0.03908,1.02034 v 2.2708 h -1.211385 v -6.01785 h 1.775829 l 1.537027,4.81515 q -0.06947,-0.41248 -0.143283,-1.05508 -0.07381,-0.6426 -0.07381,-1.45453 v -2.30554 h 1.211386 v 6.01785 z m 4.784758,-4.76304 q 0.712069,0 1.211385,0.30393 0.499317,0.30393 0.764172,0.85535 0.264854,0.54708 0.264854,1.2852 0,1.15494 -0.590496,1.81056 -0.590495,0.65563 -1.649915,0.65563 -1.059419,0 -1.649915,-0.64694 -0.590496,-0.64695 -0.590496,-1.81057 0,-0.73378 0.264855,-1.2852 0.269197,-0.55142 0.768513,-0.85969 0.503658,-0.30827 1.207043,-0.30827 z m 0,1.01166 q -0.421162,0 -0.625231,0.34735 -0.199726,0.343 -0.199726,1.09415 0,0.76417 0.199726,1.10718 0.204069,0.34301 0.625231,0.34301 0.421163,0 0.620889,-0.34301 0.204069,-0.34301 0.204069,-1.11586 0,-0.74681 -0.204069,-1.08982 -0.199726,-0.343 -0.620889,-0.343 z m 5.835494,-2.83525 1.372034,0.14328 v 6.44335 h -1.215727 l -0.06947,-0.508 q -0.191043,0.2692 -0.508,0.46458 -0.316957,0.19105 -0.768513,0.19105 -0.573128,0 -0.950872,-0.30828 -0.373402,-0.30827 -0.560103,-0.85969 -0.182359,-0.55576 -0.182359,-1.29822 0,-0.71207 0.221436,-1.26349 0.221436,-0.55142 0.633915,-0.86404 0.412478,-0.31695 0.981265,-0.31695 0.620889,0 1.046394,0.4255 z m -0.677334,2.82656 q -0.356034,0 -0.573128,0.33867 -0.217095,0.33432 -0.217095,1.11152 0,0.56879 0.09118,0.88574 0.09118,0.31262 0.251829,0.43853 0.16065,0.12592 0.36906,0.12592 0.23012,0 0.416821,-0.14328 0.191043,-0.14329 0.338667,-0.39077 v -1.98858 q -0.143282,-0.17802 -0.303932,-0.27788 -0.16065,-0.0999 -0.373402,-0.0999 z m 4.454775,1.85399 q 0.06947,0.56444 0.36906,0.81193 0.29959,0.24314 0.73812,0.24314 0.316957,0 0.612205,-0.1042 0.295248,-0.10421 0.568787,-0.27788 l 0.551419,0.7468 q -0.325641,0.27788 -0.790223,0.4559 -0.460239,0.17802 -1.050735,0.17802 -0.790223,0 -1.324274,-0.31262 -0.534052,-0.31696 -0.803249,-0.86838 -0.269196,-0.55142 -0.269196,-1.26783 0,-0.68167 0.260513,-1.23743 0.260513,-0.5601 0.759829,-0.89009 0.503658,-0.33432 1.228753,-0.33432 0.659966,0 1.141915,0.28222 0.48629,0.28222 0.751145,0.81193 0.269197,0.52971 0.269197,1.27217 0,0.11723 -0.0087,0.25183 -0.0043,0.1346 -0.01737,0.23881 z m 0.851009,-1.93648 q -0.36906,0 -0.594838,0.26485 -0.225778,0.26486 -0.273539,0.84667 h 1.693334 q -0.0043,-0.50366 -0.195384,-0.80759 -0.191043,-0.30393 -0.629573,-0.30393 z m 5.019223,3.00892 q 0.343009,0 0.551419,-0.10855 0.212752,-0.10854 0.212752,-0.32564 0,-0.14762 -0.0825,-0.24749 -0.0825,-0.0999 -0.316958,-0.19104 -0.234462,-0.0912 -0.694701,-0.21709 -0.633915,-0.16934 -1.033368,-0.48629 -0.395111,-0.31696 -0.395111,-0.92917 0,-0.61654 0.512342,-1.02034 0.516684,-0.40379 1.489265,-0.40379 0.616548,0 1.072445,0.16065 0.46024,0.1563 0.794565,0.39945 l -0.547077,0.80759 q -0.286565,-0.17802 -0.616548,-0.28222 -0.329983,-0.10855 -0.664308,-0.10855 -0.659966,0 -0.659966,0.35603 0,0.11724 0.0825,0.20407 0.08684,0.0825 0.321299,0.17368 0.234462,0.0868 0.686018,0.21709 0.447214,0.12592 0.777197,0.29091 0.334324,0.16499 0.516684,0.44287 0.182359,0.27354 0.182359,0.7251 0,0.50365 -0.29959,0.84666 -0.29959,0.33867 -0.794565,0.508 -0.494974,0.16934 -1.08547,0.16934 -0.66865,0 -1.180992,-0.19105 -0.512342,-0.19104 -0.872718,-0.50366 l 0.690359,-0.77285 q 0.269197,0.20841 0.607863,0.34735 0.343009,0.13894 0.746804,0.13894 z"
       id="text6"
       aria-label="Geometry Nodes" /><path
       style="fill:none;fill-opacity:1;stroke:#ffffff;stroke-width:0.958585;paint-order:markers stroke fill"
       d="m -28.700978,149.8088 c 0,-8.4059 42.537665,-5.26626 42.537665,-14.85476"
       id="path6"
       sodipodi:nodetypes="cc" /><path
       style="fill:none;fill-opacity:1;stroke:#ffffff;stroke-width:0.958585;paint-order:markers stroke fill"
       d="m 62.019512,150.41263 c 0,-9.21265 -42.661991,-5.32131 -42.661991,-15.45859"
       id="path7"
       sodipodi:nodetypes="cc" /><g
       enable-background="new"
       transform="matrix(0.75185817,0,0,0.75185817,-298.2655,-268.8933)"
       id="g4"
       style="fill:#dba667;fill-opacity:1"><path
         d="m 373.21906,563.36205 c -2.04533,0 -3.71335,1.66802 -3.71335,3.71335 0,2.04534 1.66802,3.71336 3.71335,3.71336 2.04534,0 3.71336,-1.66802 3.71336,-3.71336 0,-2.04533 -1.66802,-3.71335 -3.71336,-3.71335 z"
         id="path1-12"
         style="fill:#dba667;fill-opacity:1" /><path
         d="m 364.3828,556.88974 c -0.8999,0 -1.63379,0.73389 -1.63379,1.6338 0,0.89988 0.73389,1.6338 1.63379,1.6338 0.89991,0 1.6338,-0.7339 1.6338,-1.6338 0,-0.8999 -0.73389,-1.6338 -1.6338,-1.6338 z"
         opacity="0.6"
         id="path2-9"
         style="fill:#dba667;fill-opacity:1" /><path
         d="m 366.50464,561.82783 c -1.31395,0 -2.38552,1.07155 -2.38552,2.3855 0,1.31395 1.07157,2.38555 2.38552,2.38555 1.31396,0 2.38553,-1.07158 2.38553,-2.38555 0,-1.31395 -1.07157,-2.3855 -2.38553,-2.3855 z"
         opacity="0.85"
         id="path3-3"
         style="fill:#dba667;fill-opacity:1" /><path
         d="m 368.88012,557.69285 c -1.06196,0 -1.928,0.86602 -1.928,1.92801 0,1.06192 0.86604,1.92798 1.928,1.92798 1.06195,0 1.92801,-0.86606 1.92801,-1.92798 0,-1.06195 -0.86606,-1.92801 -1.92801,-1.92801 z"
         opacity="0.6"
         id="path4"
         style="fill:#dba667;fill-opacity:1" /></g></g></svg>
