<?xml version="1.0" encoding="UTF-8" standalone="no"?>
<!-- Created with Inkscape (http://www.inkscape.org/) -->

<svg
   width="139.51341mm"
   height="82.804344mm"
   viewBox="0 0 139.51341 82.804344"
   version="1.1"
   id="svg1"
   xml:space="preserve"
   inkscape:version="1.3.2 (091e20ef0f, 2023-11-25)"
   sodipodi:docname="jit_pipeline_no_fonts.svg"
   xmlns:inkscape="http://www.inkscape.org/namespaces/inkscape"
   xmlns:sodipodi="http://sodipodi.sourceforge.net/DTD/sodipodi-0.dtd"
   xmlns="http://www.w3.org/2000/svg"
   xmlns:svg="http://www.w3.org/2000/svg"><sodipodi:namedview
     id="namedview1"
     pagecolor="#ffffff"
     bordercolor="#000000"
     borderopacity="0.25"
     inkscape:showpageshadow="2"
     inkscape:pageopacity="0.0"
     inkscape:pagecheckerboard="0"
     inkscape:deskcolor="#d1d1d1"
     inkscape:document-units="mm"
     inkscape:zoom="2.0283687"
     inkscape:cx="352.007"
     inkscape:cy="163.43182"
     inkscape:window-width="2560"
     inkscape:window-height="1011"
     inkscape:window-x="0"
     inkscape:window-y="0"
     inkscape:window-maximized="1"
     inkscape:current-layer="layer1" /><defs
     id="defs1"><marker
       style="overflow:visible"
       id="marker6"
       refX="0"
       refY="0"
       orient="auto-start-reverse"
       inkscape:stockid="Triangle arrow"
       markerWidth="1"
       markerHeight="1"
       viewBox="0 0 1 1"
       inkscape:isstock="true"
       inkscape:collect="always"
       preserveAspectRatio="xMidYMid"><path
         transform="scale(0.5)"
         style="fill:context-stroke;fill-rule:evenodd;stroke:context-stroke;stroke-width:1pt"
         d="M 5.77,0 -2.88,5 V -5 Z"
         id="path6" /></marker><marker
       style="overflow:visible"
       id="Triangle"
       refX="0"
       refY="0"
       orient="auto-start-reverse"
       inkscape:stockid="Triangle arrow"
       markerWidth="1"
       markerHeight="1"
       viewBox="0 0 1 1"
       inkscape:isstock="true"
       inkscape:collect="always"
       preserveAspectRatio="xMidYMid"><path
         transform="scale(0.5)"
         style="fill:context-stroke;fill-rule:evenodd;stroke:context-stroke;stroke-width:1pt"
         d="M 5.77,0 -2.88,5 V -5 Z"
         id="path135" /></marker></defs><g
     inkscape:label="Layer 1"
     inkscape:groupmode="layer"
     id="layer1"
     transform="translate(-18.748566,-103.42483)"><path
       id="rect1"
       style="fill:#191919;stroke-width:0.650473;paint-order:markers stroke fill"
       d="M 18.748566,103.42483 H 158.26198 v 82.80434 H 18.748566 Z" /><path
       d="m 101.64165,116.18883 v -6.01785 h 1.42414 v 4.8933 h 2.60947 l -0.14762,1.12455 z m 5.21026,0 v -6.01785 h 1.42414 v 4.8933 h 2.60947 l -0.14762,1.12455 z m 7.03386,-1.11152 1.13323,-4.90633 h 1.45887 l -1.73675,6.01785 h -1.76281 l -1.72807,-6.01785 h 1.51098 z m 7.2987,-4.90633 0.33867,6.01785 h -1.24178 l -0.0738,-2.57474 q -0.013,-0.47761 -0.009,-0.8293 0.009,-0.35169 0.0304,-0.67299 0.0217,-0.32564 0.0521,-0.72944 l -0.67733,3.78178 h -1.07679 l -0.72943,-3.78178 q 0.0347,0.37775 0.0564,0.71207 0.0217,0.32999 0.0261,0.6947 0.009,0.36472 0,0.84667 l -0.0434,2.55303 h -1.22007 l 0.33867,-6.01785 h 1.46321 l 0.66865,3.89033 0.63392,-3.89033 z m 10.25988,0 v 1.04205 h -1.24178 v 3.9294 h 1.24178 v 1.0464 h -3.9077 v -1.0464 h 1.24178 v -3.9294 h -1.24178 v -1.04205 z m 5.52722,1.82793 q 0,0.64694 -0.35169,1.05074 -0.3517,0.39945 -0.85536,0.59918 l 1.57611,2.54 h -1.61084 l -1.30256,-2.3012 h -0.4038 v 2.3012 h -1.42414 v -6.01785 h 1.89306 q 1.22876,0 1.85399,0.44721 0.62523,0.44722 0.62523,1.38072 z m -1.46756,0 q 0,-0.43419 -0.25617,-0.62957 -0.25183,-0.19973 -0.75114,-0.19973 h -0.47327 v 1.7411 h 0.52971 q 0.46458,0 0.70773,-0.2171 0.24314,-0.21709 0.24314,-0.6947 z"
       id="text2"
       style="font-weight:bold;font-size:8.46667px;font-family:'FiraCode Nerd Font';-inkscape-font-specification:'FiraCode Nerd Font Bold';fill:#ffffff;stroke-width:0.958585;paint-order:markers stroke fill"
       aria-label="LLVM IR" /><g
       id="text2-5"
       style="font-weight:bold;font-size:8.46667px;font-family:'FiraCode Nerd Font';-inkscape-font-specification:'FiraCode Nerd Font Bold';text-align:center;text-anchor:middle;fill:#ffffff;stroke-width:0.958585;paint-order:markers stroke fill"
       aria-label="Optimized&#10;Machine Code"><path
         d="m 101.18358,166.75836 q 0,0.95521 -0.27354,1.66728 -0.27354,0.70773 -0.81193,1.10284 -0.534055,0.39077 -1.324277,0.39077 -0.785881,0 -1.324274,-0.38209 -0.538394,-0.38643 -0.811932,-1.09415 -0.273539,-0.70773 -0.273539,-1.68465 0,-0.95522 0.273539,-1.66295 0.273538,-0.70772 0.811932,-1.09849 0.538393,-0.39511 1.324274,-0.39511 0.790222,0 1.324277,0.38208 0.53839,0.38209 0.81193,1.08982 0.27354,0.70772 0.27354,1.68465 z m -1.458875,0 q 0,-1.11153 -0.221436,-1.61518 -0.221436,-0.50366 -0.729436,-0.50366 -0.508,0 -0.729436,0.508 -0.221436,0.50366 -0.221436,1.61084 0,1.11152 0.225777,1.61518 0.225778,0.50365 0.725095,0.50365 0.521026,0 0.733778,-0.508 0.217094,-0.51234 0.217094,-1.61083 z m 4.815155,-1.74978 q 0.60352,0 0.97258,0.29959 0.36906,0.29959 0.53839,0.84666 0.17368,0.54708 0.17368,1.29823 0,0.71207 -0.20841,1.27217 -0.20841,0.55576 -0.60353,0.87706 -0.39511,0.31696 -0.95955,0.31696 -0.67299,0 -1.09416,-0.48195 v 2.11449 l -1.37203,0.14329 v -6.53454 h 1.21573 l 0.0608,0.51669 q 0.28222,-0.36038 0.61655,-0.51235 0.33432,-0.1563 0.65997,-0.1563 z m -0.42551,1.01166 q -0.2388,0 -0.42116,0.14328 -0.18236,0.14328 -0.33433,0.39077 v 1.94516 q 0.14329,0.21275 0.29959,0.31262 0.16065,0.0999 0.37775,0.0999 0.36472,0 0.56878,-0.32998 0.20407,-0.33433 0.20407,-1.11153 0,-0.57312 -0.0825,-0.88574 -0.0825,-0.31696 -0.23881,-0.43853 -0.1563,-0.12591 -0.3734,-0.12591 z m 7.23358,3.48219 q -0.2692,0.17367 -0.65128,0.29524 -0.38209,0.12158 -0.85969,0.12158 -0.90312,0 -1.34165,-0.46024 -0.43853,-0.46459 -0.43853,-1.25915 v -2.09279 h -0.96824 v -0.94653 h 0.96824 v -0.99863 l 1.37204,-0.16499 v 1.16362 h 1.48492 l -0.1346,0.94653 h -1.35032 v 2.09279 q 0,0.34301 0.15631,0.49063 0.1563,0.14763 0.49931,0.14763 0.24315,0 0.44288,-0.0565 0.20406,-0.0608 0.36471,-0.15196 z m 3.04801,-6.75597 q 0.35603,0 0.58181,0.22143 0.22578,0.22144 0.22578,0.55142 0,0.32998 -0.22578,0.55576 -0.22578,0.22144 -0.58181,0.22144 -0.36038,0 -0.5905,-0.22144 -0.22578,-0.22578 -0.22578,-0.55576 0,-0.32998 0.22578,-0.55142 0.23012,-0.22143 0.5905,-0.22143 z m 0.8293,2.41408 v 3.67324 h 1.1723 v 0.93784 h -3.85125 v -0.93784 h 1.30691 v -2.73539 h -1.26349 v -0.93785 z m 5.80075,-0.15196 q 0.49064,0 0.7251,0.3213 0.2388,0.31695 0.2388,1.02902 v 3.41272 h -1.17665 v -3.25641 q 0,-0.24315 -0.0478,-0.34301 -0.0434,-0.0999 -0.18236,-0.0999 -0.10855,0 -0.22578,0.0651 -0.11289,0.0608 -0.25183,0.23446 v 3.39969 h -0.96389 v -3.25641 q 0,-0.24315 -0.0478,-0.34301 -0.0434,-0.0999 -0.18236,-0.0999 -0.10855,0 -0.22578,0.0651 -0.11289,0.0608 -0.25183,0.23446 v 3.39969 h -1.19402 v -4.61108 h 1.00732 l 0.0912,0.44722 q 0.21709,-0.29525 0.43853,-0.44722 0.22143,-0.15196 0.52537,-0.15196 0.26051,0 0.44287,0.1346 0.1867,0.13025 0.26485,0.41247 0.20841,-0.24314 0.46024,-0.39511 0.25183,-0.15196 0.55576,-0.15196 z m 3.79047,-2.26212 q 0.35603,0 0.58181,0.22143 0.22578,0.22144 0.22578,0.55142 0,0.32998 -0.22578,0.55576 -0.22578,0.22144 -0.58181,0.22144 -0.36038,0 -0.5905,-0.22144 -0.22577,-0.22578 -0.22577,-0.55576 0,-0.32998 0.22577,-0.55142 0.23012,-0.22143 0.5905,-0.22143 z m 0.8293,2.41408 v 3.67324 h 1.17231 v 0.93784 h -3.85125 v -0.93784 h 1.30691 v -2.73539 h -1.26349 v -0.93785 z m 4.02927,3.57337 h 2.30988 l -0.13025,1.03771 h -3.79915 v -0.96824 l 2.28817,-2.60947 h -2.09713 v -1.03337 h 3.69494 v 0.9639 z m 4.76305,-0.86837 q 0.0695,0.56444 0.36906,0.81193 0.29959,0.24314 0.73812,0.24314 0.31696,0 0.6122,-0.1042 0.29525,-0.10421 0.56879,-0.27788 l 0.55142,0.7468 q -0.32564,0.27788 -0.79022,0.4559 -0.46024,0.17802 -1.05074,0.17802 -0.79022,0 -1.32427,-0.31262 -0.53405,-0.31696 -0.80325,-0.86838 -0.2692,-0.55142 -0.2692,-1.26783 0,-0.68167 0.26052,-1.23743 0.26051,-0.5601 0.75983,-0.89009 0.50365,-0.33432 1.22875,-0.33432 0.65996,0 1.14191,0.28222 0.48629,0.28222 0.75115,0.81193 0.26919,0.52971 0.26919,1.27217 0,0.11723 -0.009,0.25183 -0.004,0.1346 -0.0174,0.23881 z m 0.85101,-1.93648 q -0.36906,0 -0.59484,0.26485 -0.22578,0.26486 -0.27354,0.84667 h 1.69334 q -0.004,-0.50366 -0.19539,-0.80759 -0.19104,-0.30393 -0.62957,-0.30393 z m 5.79207,-2.74407 1.37204,0.14328 v 6.44335 h -1.21573 l -0.0695,-0.508 q -0.19104,0.2692 -0.508,0.46458 -0.31696,0.19105 -0.76851,0.19105 -0.57313,0 -0.95088,-0.30828 -0.3734,-0.30827 -0.5601,-0.85969 -0.18236,-0.55576 -0.18236,-1.29822 0,-0.71207 0.22144,-1.26349 0.22143,-0.55142 0.63391,-0.86404 0.41248,-0.31695 0.98127,-0.31695 0.62089,0 1.04639,0.4255 z m -0.67733,2.82656 q -0.35604,0 -0.57313,0.33867 -0.21709,0.33432 -0.21709,1.11152 0,0.56879 0.0912,0.88574 0.0912,0.31262 0.25182,0.43853 0.16065,0.12592 0.36906,0.12592 0.23012,0 0.41683,-0.14328 0.19104,-0.14329 0.33866,-0.39077 v -1.98858 q -0.14328,-0.17802 -0.30393,-0.27788 -0.16065,-0.0999 -0.3734,-0.0999 z"
         id="path8" /><path
         d="m 93.072936,174.33711 0.338667,6.01785 h -1.241779 l -0.07381,-2.57474 q -0.01303,-0.4776 -0.0087,-0.8293 0.0087,-0.35169 0.03039,-0.67299 0.02171,-0.32564 0.0521,-0.72943 l -0.677333,3.78178 h -1.076787 l -0.729436,-3.78178 q 0.03473,0.37774 0.05644,0.71206 0.02171,0.32999 0.02605,0.69471 0.0087,0.36471 0,0.84666 l -0.04342,2.55303 h -1.220069 l 0.338667,-6.01785 h 1.463214 l 0.66865,3.89033 0.633915,-3.89033 z m 4.980143,4.68923 q 0,0.26052 0.06947,0.37775 0.07381,0.11723 0.234461,0.17801 l -0.282222,0.90312 q -0.408137,-0.0391 -0.690359,-0.17802 -0.277881,-0.14328 -0.43853,-0.42985 -0.264855,0.31696 -0.677334,0.47327 -0.412479,0.15196 -0.842325,0.15196 -0.712069,0 -1.137573,-0.40379 -0.421163,-0.40814 -0.421163,-1.0464 0,-0.75114 0.586154,-1.15928 0.590496,-0.40813 1.658599,-0.40813 h 0.620889 v -0.17368 q 0,-0.70773 -0.911795,-0.70773 -0.221436,0 -0.568786,0.0651 -0.347351,0.0608 -0.694702,0.17802 l -0.316957,-0.9118 q 0.447214,-0.16933 0.929163,-0.25617 0.486291,-0.0868 0.868376,-0.0868 1.029026,0 1.519659,0.42117 0.494975,0.41682 0.494975,1.20704 z m -2.153574,0.49498 q 0.221436,0 0.464581,-0.13026 0.243146,-0.1346 0.36906,-0.37774 v -0.74681 H 96.39448 q -0.573129,0 -0.842326,0.17802 -0.269196,0.17368 -0.269196,0.51234 0,0.26486 0.160649,0.41682 0.164992,0.14763 0.455898,0.14763 z m 5.926675,-0.0999 q 0.28222,0 0.52971,-0.10854 0.25183,-0.11289 0.49931,-0.28657 l 0.61221,0.86838 q -0.30393,0.26051 -0.74246,0.43419 -0.43419,0.17367 -0.97258,0.17367 -0.74247,0 -1.27652,-0.30393 -0.534049,-0.30827 -0.820613,-0.85101 -0.286564,-0.54707 -0.286564,-1.26783 0,-0.72075 0.290906,-1.28085 0.295248,-0.56445 0.833641,-0.88575 0.54274,-0.3213 1.2852,-0.3213 0.52536,0 0.9335,0.14763 0.41248,0.14328 0.75549,0.42984 l -0.59484,0.82496 q -0.23446,-0.16499 -0.49497,-0.25617 -0.26052,-0.0912 -0.54274,-0.0912 -0.46458,0 -0.75114,0.32998 -0.28223,0.32565 -0.28223,1.10284 0,0.508 0.1346,0.80325 0.1346,0.29091 0.36472,0.41682 0.23446,0.12157 0.52537,0.12157 z m 4.13782,-5.64444 v 2.42277 q 0.57747,-0.60787 1.35466,-0.60787 0.61655,0 0.94219,0.36038 0.32564,0.36038 0.32564,1.016 v 3.38667 h -1.37203 v -3.00458 q 0,-0.41682 -0.0955,-0.58182 -0.0912,-0.16499 -0.34735,-0.16499 -0.2171,0 -0.41683,0.15197 -0.19538,0.14762 -0.39076,0.40814 v 3.19128 h -1.37204 v -6.44335 z m 5.8268,-0.44722 q 0.35604,0 0.58182,0.22144 0.22577,0.22144 0.22577,0.55142 0,0.32998 -0.22577,0.55576 -0.22578,0.22144 -0.58182,0.22144 -0.36037,0 -0.59049,-0.22144 -0.22578,-0.22578 -0.22578,-0.55576 0,-0.32998 0.22578,-0.55142 0.23012,-0.22144 0.59049,-0.22144 z m 0.8293,2.41409 v 3.67323 h 1.17231 v 0.93785 h -3.85125 v -0.93785 h 1.30691 v -2.73538 h -1.26349 v -0.93785 z m 2.39239,4.61108 v -4.61108 h 1.19835 l 0.0955,0.53405 q 0.30827,-0.34735 0.65128,-0.51668 0.34301,-0.16934 0.78154,-0.16934 0.59049,0 0.92916,0.36038 0.33867,0.36038 0.33867,1.016 v 3.38667 h -1.37204 v -2.99156 q 0,-0.4255 -0.0955,-0.59049 -0.0912,-0.16934 -0.34735,-0.16934 -0.21709,0 -0.41682,0.13894 -0.19539,0.13894 -0.39077,0.38643 v 3.22602 z m 6.39993,-1.90609 q 0.0695,0.56445 0.36906,0.81193 0.29959,0.24315 0.73812,0.24315 0.31696,0 0.61221,-0.1042 0.29525,-0.10421 0.56878,-0.27789 l 0.55142,0.74681 q -0.32564,0.27788 -0.79022,0.4559 -0.46024,0.17801 -1.05073,0.17801 -0.79023,0 -1.32428,-0.31261 -0.53405,-0.31696 -0.80325,-0.86838 -0.26919,-0.55142 -0.26919,-1.26783 0,-0.68167 0.26051,-1.23743 0.26051,-0.56011 0.75983,-0.89009 0.50366,-0.33433 1.22875,-0.33433 0.65997,0 1.14192,0.28223 0.48629,0.28222 0.75114,0.81193 0.2692,0.52971 0.2692,1.27217 0,0.11723 -0.009,0.25183 -0.004,0.1346 -0.0174,0.2388 z m 0.85101,-1.93648 q -0.36906,0 -0.59484,0.26486 -0.22577,0.26485 -0.27353,0.84667 h 1.69333 q -0.004,-0.50366 -0.19539,-0.80759 -0.19104,-0.30394 -0.62957,-0.30394 z m 10.88077,-2.32725 q 0.64694,0 1.09849,0.17368 0.4559,0.16933 0.83364,0.48195 l -0.69904,0.84232 q -0.24749,-0.20406 -0.54708,-0.3213 -0.29959,-0.12157 -0.65128,-0.12157 -0.37774,0 -0.69036,0.2171 -0.31261,0.21275 -0.49931,0.67733 -0.18671,0.46024 -0.18671,1.19836 0,1.08547 0.39077,1.58044 0.39512,0.49064 1.01166,0.49064 0.45156,0 0.75115,-0.16934 0.29959,-0.16933 0.55142,-0.36906 l 0.64694,0.82496 q -0.33867,0.33433 -0.83364,0.57313 -0.49498,0.2388 -1.19402,0.2388 -0.81628,0 -1.45019,-0.36037 -0.62957,-0.36472 -0.98995,-1.06811 -0.35603,-0.70772 -0.35603,-1.74109 0,-1.00732 0.36906,-1.7107 0.3734,-0.70339 1.01166,-1.06811 0.63825,-0.36906 1.43282,-0.36906 z m 4.7066,1.40677 q 0.71207,0 1.21139,0.30394 0.49931,0.30393 0.76417,0.85535 0.26485,0.54707 0.26485,1.28519 0,1.15494 -0.59049,1.81057 -0.5905,0.65562 -1.64992,0.65562 -1.05942,0 -1.64992,-0.64694 -0.59049,-0.64694 -0.59049,-1.81056 0,-0.73378 0.26485,-1.2852 0.2692,-0.55142 0.76852,-0.85969 0.50366,-0.30828 1.20704,-0.30828 z m 0,1.01166 q -0.42116,0 -0.62523,0.34735 -0.19973,0.34301 -0.19973,1.09416 0,0.76417 0.19973,1.10718 0.20407,0.34301 0.62523,0.34301 0.42116,0 0.62089,-0.34301 0.20407,-0.34301 0.20407,-1.11587 0,-0.7468 -0.20407,-1.08981 -0.19973,-0.34301 -0.62089,-0.34301 z m 5.83549,-2.83525 1.37204,0.14329 v 6.44335 h -1.21573 l -0.0695,-0.508 q -0.19104,0.2692 -0.508,0.46458 -0.31696,0.19104 -0.76851,0.19104 -0.57313,0 -0.95087,-0.30827 -0.37341,-0.30827 -0.56011,-0.85969 -0.18236,-0.55576 -0.18236,-1.29823 0,-0.71206 0.22144,-1.26348 0.22144,-0.55142 0.63391,-0.86404 0.41248,-0.31696 0.98127,-0.31696 0.62089,0 1.04639,0.42551 z m -0.67733,2.82657 q -0.35603,0 -0.57313,0.33867 -0.21709,0.33432 -0.21709,1.11152 0,0.56878 0.0912,0.88574 0.0912,0.31262 0.25183,0.43853 0.16065,0.12592 0.36906,0.12592 0.23012,0 0.41682,-0.14329 0.19104,-0.14328 0.33866,-0.39076 v -1.98859 q -0.14328,-0.17801 -0.30393,-0.27788 -0.16065,-0.0999 -0.3734,-0.0999 z m 4.45477,1.85398 q 0.0695,0.56445 0.36906,0.81193 0.29959,0.24315 0.73812,0.24315 0.31696,0 0.61221,-0.1042 0.29525,-0.10421 0.56879,-0.27789 l 0.55142,0.74681 q -0.32565,0.27788 -0.79023,0.4559 -0.46024,0.17801 -1.05073,0.17801 -0.79023,0 -1.32428,-0.31261 -0.53405,-0.31696 -0.80324,-0.86838 -0.2692,-0.55142 -0.2692,-1.26783 0,-0.68167 0.26051,-1.23743 0.26051,-0.56011 0.75983,-0.89009 0.50366,-0.33433 1.22875,-0.33433 0.65997,0 1.14192,0.28223 0.48629,0.28222 0.75114,0.81193 0.2692,0.52971 0.2692,1.27217 0,0.11723 -0.009,0.25183 -0.004,0.1346 -0.0174,0.2388 z m 0.85101,-1.93648 q -0.36906,0 -0.59483,0.26486 -0.22578,0.26485 -0.27354,0.84667 h 1.69333 q -0.004,-0.50366 -0.19538,-0.80759 -0.19105,-0.30394 -0.62958,-0.30394 z"
         id="path9" /></g><path
       d="m 23.506926,111.61682 v 1.59347 h 2.110155 v 1.02034 h -2.110155 v 2.38804 h -1.428479 v -6.01785 h 3.955454 l -0.147624,1.016 z m 5.440382,-2.02332 q 0.356034,0 0.581812,0.22144 0.225778,0.22143 0.225778,0.55142 0,0.32998 -0.225778,0.55576 -0.225778,0.22143 -0.581812,0.22143 -0.360376,0 -0.590496,-0.22143 -0.225778,-0.22578 -0.225778,-0.55576 0,-0.32999 0.225778,-0.55142 0.23012,-0.22144 0.590496,-0.22144 z m 0.829299,2.41409 v 3.67323 h 1.172309 v 0.93785 h -3.85125 v -0.93785 h 1.306907 v -2.73538 h -1.263488 v -0.93785 z m 3.582057,2.70499 q 0.06947,0.56445 0.36906,0.81193 0.29959,0.24315 0.73812,0.24315 0.316957,0 0.612205,-0.10421 0.295248,-0.1042 0.568787,-0.27788 l 0.551419,0.74681 q -0.325641,0.27788 -0.790223,0.45589 -0.460239,0.17802 -1.050735,0.17802 -0.790223,0 -1.324274,-0.31261 -0.534052,-0.31696 -0.803248,-0.86838 -0.269197,-0.55142 -0.269197,-1.26783 0,-0.68168 0.260513,-1.23744 0.260513,-0.5601 0.759829,-0.89008 0.503659,-0.33433 1.228753,-0.33433 0.659966,0 1.141915,0.28223 0.486291,0.28222 0.751145,0.81193 0.269197,0.52971 0.269197,1.27217 0,0.11723 -0.0087,0.25183 -0.0043,0.1346 -0.01737,0.2388 z m 0.851009,-1.93648 q -0.36906,0 -0.594838,0.26486 -0.225778,0.26485 -0.273539,0.84666 h 1.693334 q -0.0043,-0.50365 -0.195384,-0.80759 -0.191043,-0.30393 -0.629573,-0.30393 z m 5.57498,-2.60079 v 4.99317 q 0,0.27788 0.156308,0.39945 0.16065,0.11723 0.43853,0.11723 0.178017,0 0.343009,-0.0391 0.164991,-0.0434 0.308273,-0.0999 l 0.329983,0.91614 q -0.234461,0.12157 -0.564444,0.21275 -0.329983,0.0912 -0.768513,0.0912 -0.833642,0 -1.224411,-0.47761 -0.390769,-0.48194 -0.390769,-1.28953 v -3.88599 h -1.35901 v -0.93785 z m 5.427357,-0.14328 1.372034,0.14328 v 6.44336 h -1.215727 l -0.06947,-0.508 q -0.191043,0.26919 -0.508,0.46458 -0.316957,0.19104 -0.768513,0.19104 -0.573128,0 -0.950872,-0.30827 -0.373402,-0.30828 -0.560103,-0.85969 Q 42.329,115.04256 42.329,114.3001 q 0,-0.71207 0.221436,-1.26349 0.221436,-0.55141 0.633915,-0.86403 0.412479,-0.31696 0.981265,-0.31696 0.620889,0 1.046394,0.42551 z m -0.677334,2.82657 q -0.356034,0 -0.573128,0.33866 -0.217094,0.33433 -0.217094,1.11153 0,0.56878 0.09118,0.88574 0.09118,0.31262 0.251829,0.43853 0.16065,0.12591 0.36906,0.12591 0.23012,0 0.416821,-0.14328 0.191043,-0.14328 0.338667,-0.39077 v -1.98858 q -0.143282,-0.17802 -0.303932,-0.27788 -0.16065,-0.0999 -0.373402,-0.0999 z"
       id="text3"
       style="font-weight:bold;font-size:8.46667px;font-family:'FiraCode Nerd Font';-inkscape-font-specification:'FiraCode Nerd Font Bold';fill:#ffffff;stroke-width:0.958585;paint-order:markers stroke fill"
       aria-label="Field" /><path
       style="fill:#ffffff;fill-opacity:1;stroke:#ffffff;stroke-width:0.959;stroke-dasharray:none;marker-end:url(#Triangle);paint-order:markers stroke fill"
       d="m 52.140735,113.17989 42.894075,1e-5"
       id="path4" /><path
       style="fill:#ffffff;fill-opacity:1;stroke:#ffffff;stroke-width:1.23663;stroke-dasharray:none;marker-end:url(#marker6);paint-order:markers stroke fill"
       d="m 119.49114,120.97168 v 31.32931"
       id="path5"
       sodipodi:nodetypes="cc" /><path
       style="font-weight:bold;font-size:8.46667px;font-family:'FiraCode Nerd Font';-inkscape-font-specification:'FiraCode Nerd Font Bold';text-align:center;text-anchor:middle;fill:#ffffff;stroke-width:0.959;paint-order:markers stroke fill"
       d="m 123.2971,134.05484 v -6.01785 h 1.42414 v 4.8933 h 2.60947 l -0.14763,1.12455 z m 5.21026,0 v -6.01785 h 1.42414 v 4.8933 h 2.60947 l -0.14762,1.12455 z m 7.03385,-1.11152 1.13324,-4.90633 h 1.45887 l -1.73675,6.01785 h -1.76281 l -1.72807,-6.01785 h 1.51098 z m 7.29871,-4.90633 0.33867,6.01785 h -1.24178 l -0.0738,-2.57474 q -0.013,-0.4776 -0.009,-0.8293 0.009,-0.35169 0.0304,-0.67299 0.0217,-0.32564 0.0521,-0.72943 l -0.67733,3.78178 h -1.07679 l -0.72944,-3.78178 q 0.0347,0.37774 0.0565,0.71207 0.0217,0.32998 0.026,0.6947 0.009,0.36471 0,0.84666 l -0.0434,2.55303 h -1.22007 l 0.33867,-6.01785 h 1.46321 l 0.66865,3.89033 0.63392,-3.89033 z"
       id="text7"
       aria-label="LLVM" /><path
       style="font-weight:bold;font-size:8.46667px;font-family:'FiraCode Nerd Font';-inkscape-font-specification:'FiraCode Nerd Font Bold';text-align:center;text-anchor:middle;fill:#dba667;stroke-width:0.959;paint-order:markers stroke fill"
       d="m 126.18446,138.10223 v 1.78451 h 1.74977 v 1.05942 h -1.74977 v 1.78451 h -1.14626 v -1.78451 h -1.7411 v -1.05942 h 1.7411 v -1.78451 z m 10.55512,0.0999 v 4.92804 h -1.42414 v -4.92804 h -1.68899 v -1.08981 h 4.87159 l -0.14762,1.08981 z m 4.49819,-2.09713 q 0.35604,0 0.58181,0.22144 0.22578,0.22143 0.22578,0.55142 0,0.32998 -0.22578,0.55576 -0.22577,0.22143 -0.58181,0.22143 -0.36037,0 -0.59049,-0.22143 -0.22578,-0.22578 -0.22578,-0.55576 0,-0.32999 0.22578,-0.55142 0.23012,-0.22144 0.59049,-0.22144 z m 0.8293,2.41409 v 3.67323 h 1.17231 v 0.93785 h -3.85125 v -0.93785 h 1.30691 v -2.73539 h -1.26349 v -0.93784 z m 5.80076,-0.15197 q 0.49063,0 0.72509,0.3213 0.23881,0.31696 0.23881,1.02903 v 3.41272 h -1.17665 v -3.25641 q 0,-0.24315 -0.0478,-0.34301 -0.0434,-0.0999 -0.18236,-0.0999 -0.10855,0 -0.22578,0.0651 -0.11289,0.0608 -0.25183,0.23446 v 3.3997 h -0.9639 v -3.25641 q 0,-0.24315 -0.0478,-0.34301 -0.0434,-0.0999 -0.18236,-0.0999 -0.10854,0 -0.22577,0.0651 -0.11289,0.0608 -0.25183,0.23446 v 3.3997 h -1.19402 v -4.61108 h 1.00732 l 0.0912,0.44721 q 0.21709,-0.29525 0.43853,-0.44721 0.22143,-0.15197 0.52536,-0.15197 0.26052,0 0.44288,0.1346 0.1867,0.13026 0.26485,0.41248 0.20841,-0.24315 0.46024,-0.39511 0.25183,-0.15197 0.55576,-0.15197 z m 2.99156,2.85696 q 0.0695,0.56445 0.36906,0.81193 0.29959,0.24315 0.73812,0.24315 0.31696,0 0.61221,-0.10421 0.29524,-0.1042 0.56878,-0.27788 l 0.55142,0.74681 q -0.32564,0.27788 -0.79022,0.45589 -0.46024,0.17802 -1.05074,0.17802 -0.79022,0 -1.32427,-0.31261 -0.53405,-0.31696 -0.80325,-0.86838 -0.2692,-0.55142 -0.2692,-1.26783 0,-0.68168 0.26052,-1.23744 0.26051,-0.5601 0.75983,-0.89008 0.50366,-0.33433 1.22875,-0.33433 0.65997,0 1.14191,0.28222 0.4863,0.28223 0.75115,0.81194 0.2692,0.52971 0.2692,1.27217 0,0.11723 -0.009,0.25183 -0.004,0.1346 -0.0174,0.2388 z m 0.85101,-1.93648 q -0.36906,0 -0.59484,0.26486 -0.22578,0.26485 -0.27354,0.84666 h 1.69334 q -0.004,-0.50366 -0.19539,-0.80759 -0.19104,-0.30393 -0.62957,-0.30393 z"
       id="text8"
       aria-label="+ Time" /></g></svg>
