<?xml version="1.0" encoding="UTF-8" standalone="no"?>
<!-- Created with Inkscape (http://www.inkscape.org/) -->

<svg
   width="301.2532mm"
   height="92.653778mm"
   viewBox="0 0 301.2532 92.653781"
   version="1.1"
   id="svg1"
   inkscape:version="1.3.2 (091e20ef0f, 2023-11-25)"
   sodipodi:docname="lazy_threading_no_fonts.svg"
   xmlns:inkscape="http://www.inkscape.org/namespaces/inkscape"
   xmlns:sodipodi="http://sodipodi.sourceforge.net/DTD/sodipodi-0.dtd"
   xmlns:xlink="http://www.w3.org/1999/xlink"
   xmlns="http://www.w3.org/2000/svg"
   xmlns:svg="http://www.w3.org/2000/svg">
  <sodipodi:namedview
     id="namedview1"
     pagecolor="#ffffff"
     bordercolor="#000000"
     borderopacity="0.25"
     inkscape:showpageshadow="2"
     inkscape:pageopacity="0.0"
     inkscape:pagecheckerboard="0"
     inkscape:deskcolor="#d1d1d1"
     inkscape:document-units="mm"
     inkscape:zoom="0.71713665"
     inkscape:cx="248.90654"
     inkscape:cy="219.62341"
     inkscape:window-width="2560"
     inkscape:window-height="1011"
     inkscape:window-x="0"
     inkscape:window-y="0"
     inkscape:window-maximized="1"
     inkscape:current-layer="layer1-3" />
  <defs
     id="defs1">
    <marker
       style="overflow:visible"
       id="Triangle"
       refX="0"
       refY="0"
       orient="auto-start-reverse"
       inkscape:stockid="Triangle arrow"
       markerWidth="1"
       markerHeight="1"
       viewBox="0 0 1 1"
       inkscape:isstock="true"
       inkscape:collect="always"
       preserveAspectRatio="xMidYMid">
      <path
         transform="scale(0.5)"
         style="fill:context-stroke;fill-rule:evenodd;stroke:context-stroke;stroke-width:1pt"
         d="M 5.77,0 -2.88,5 V -5 Z"
         id="path135" />
    </marker>
    <pattern
       inkscape:collect="always"
       xlink:href="#stripes-grid-87-0"
       preserveAspectRatio="xMidYMid"
       id="pattern8-65-7"
       patternTransform="matrix(0.56568542,0.56568542,-0.56568542,0.56568542,-35.468819,0.083542)"
       x="0"
       y="0"
       width="3.6" />
    <pattern
       patternUnits="userSpaceOnUse"
       width="3"
       height="10"
       patternTransform="scale(2)"
       preserveAspectRatio="xMidYMid"
       id="stripes-grid-87-0"
       style="fill:#484848"
       x="0"
       y="0"
       inkscape:label="Stripes grid"
       inkscape:collect="always"
       inkscape:isstock="true">
      <rect
         style="stroke:none"
         x="0"
         y="0"
         width="2"
         height="10"
         id="rect134-4-9-8" />
    </pattern>
  </defs>
  <g
     inkscape:label="Layer 1"
     inkscape:groupmode="layer"
     id="layer1"
     transform="translate(46.500204,-99.21208)">
    <g
       inkscape:label="Layer 1"
       inkscape:groupmode="layer"
       id="layer1-3"
       transform="translate(-17.216961,0.489197)">
      <path
         id="rect1"
         style="fill:#191919;stroke-width:1.01109;paint-order:markers stroke fill"
         d="M -29.283243,98.722883 H 271.96995 V 191.37666 H -29.283243 Z" />
      <g
         id="g7-1-9"
         transform="matrix(1.61063,0.00220311,-0.00220311,1.61063,-77.099902,-112.05707)">
        <path
           id="rect2-4-6-0-5-5-8-3-1-3-4-8"
           style="fill:url(#pattern8-65-7);fill-opacity:1;stroke:none;stroke-width:0.462;stroke-dasharray:none;stroke-opacity:1;paint-order:markers stroke fill"
           transform="matrix(0.99999998,-2.1407068e-4,5.8665466e-4,0.99999983,25.423113,-9.4452643e-4)"
           d="m 52.725717,154.64921 14.463961,0.0225 c 0.88915,5e-5 1.60992,0.72086 1.60992,1.61001 v 3.61662 c 0,0.79027 -0.64066,1.4309 -1.43093,1.43085 l -14.642951,-0.0225 z"
           sodipodi:nodetypes="ccccccc" />
        <path
           id="rect2-4-6-0-5-5-8-3-1-0-7"
           style="fill:#ffffff;stroke-width:0.461903;paint-order:markers stroke fill"
           transform="matrix(1.0209117,-2.1407068e-4,5.989226e-4,0.99999983,-1.4685337,0)"
           d="m 71.493491,154.65226 6.655337,-0.003 v 6.65746 l -6.72953,0.003 a 1.2846997,1.2846997 44.985703 0 1 -1.285341,-1.2847 v -4.01259 a 1.3602126,1.3602126 134.9857 0 1 1.359534,-1.36021 z"
           sodipodi:nodetypes="ccccc" />
      </g>
      <path
         d="m 23.638486,111.23948 v 10.58298 h -3.058339 v -10.58298 h -3.627116 v -2.34037 h 10.461758 l -0.317023,2.34037 z m 8.335847,-3.54319 v 5.2029 q 1.240119,-1.30539 2.909152,-1.30539 1.324037,0 2.023353,0.77391 0.699315,0.77391 0.699315,2.18187 v 7.27288 h -2.946449 v -6.45235 q 0,-0.89513 -0.205132,-1.24945 -0.195809,-0.35432 -0.745937,-0.35432 -0.46621,0 -0.895123,0.32635 -0.41959,0.31702 -0.839179,0.87648 v 6.85329 h -2.946449 v -13.83712 z m 8.335847,14.12617 v -1.97674 h 1.305389 v -5.96749 H 40.31018 v -1.95808 h 3.552522 l 0.540804,2.22849 q 0.53148,-1.27742 1.35201,-1.90214 0.829854,-0.62472 2.023352,-0.62472 0.503507,0 0.895124,0.0839 0.391616,0.0746 0.736612,0.21446 l -0.550128,4.13995 h -1.846193 v -1.82755 q -0.839178,0.14919 -1.473224,0.91378 -0.634046,0.75526 -0.979042,1.86484 v 2.83455 H 46.5201 v 1.97674 z m 13.650645,-4.09333 q 0.149187,1.21215 0.792557,1.74363 0.64337,0.52215 1.585115,0.52215 0.680667,0 1.314713,-0.22378 0.634046,-0.22378 1.221471,-0.59675 l 1.184174,1.60377 q -0.699316,0.59674 -1.697006,0.97904 -0.988365,0.38229 -2.256457,0.38229 -1.697006,0 -2.843883,-0.67134 -1.146877,-0.68067 -1.724978,-1.86484 -0.5781,-1.18418 -0.5781,-2.72267 0,-1.4639 0.559452,-2.6574 0.559452,-1.20282 1.631736,-1.91146 1.081608,-0.71797 2.63875,-0.71797 1.417279,0 2.452266,0.60608 1.044311,0.60607 1.613087,1.74362 0.578101,1.13756 0.578101,2.732 0,0.25175 -0.01865,0.5408 -0.0093,0.28905 -0.0373,0.51283 z m 1.827544,-4.15859 q -0.792558,0 -1.277416,0.56877 -0.484859,0.56878 -0.587425,1.81822 h 3.63644 q -0.0093,-1.08161 -0.41959,-1.7343 -0.410265,-0.65269 -1.352009,-0.65269 z m 15.142515,5.39871 q 0,0.55945 0.149187,0.81121 0.158512,0.25175 0.503508,0.38229 l -0.606074,1.93943 q -0.876475,-0.0839 -1.482548,-0.38229 -0.596749,-0.3077 -0.941745,-0.9231 -0.568777,0.68067 -1.454576,1.01634 -0.885799,0.32635 -1.808896,0.32635 -1.529169,0 -2.442941,-0.86715 -0.904448,-0.87648 -0.904448,-2.24714 0,-1.61308 1.258767,-2.48956 1.268092,-0.87647 3.561847,-0.87647 h 1.333361 v -0.37297 q 0,-1.51985 -1.958083,-1.51985 -0.475535,0 -1.221471,0.13987 -0.745936,0.13054 -1.491873,0.38229 l -0.680667,-1.95808 q 0.960393,-0.36365 1.99538,-0.55013 1.044311,-0.18649 1.864841,-0.18649 2.209837,0 3.263472,0.90445 1.062959,0.89513 1.062959,2.59213 z m -4.624805,1.06296 q 0.475534,0 0.99769,-0.27973 0.522155,-0.28905 0.792557,-0.8112 v -1.60377 h -0.727288 q -1.230795,0 -1.808896,0.3823 -0.5781,0.37296 -0.5781,1.10025 0,0.56878 0.344995,0.89513 0.35432,0.31702 0.979042,0.31702 z m 13.109838,-12.35457 2.946449,0.3077 v 13.83712 h -2.610777 l -0.149188,-1.09094 q -0.410265,0.57811 -1.090931,0.99769 -0.680667,0.41027 -1.650385,0.41027 -1.230795,0 -2.042001,-0.66202 -0.801881,-0.66202 -1.202822,-1.84619 -0.391617,-1.1935 -0.391617,-2.78794 0,-1.52917 0.475535,-2.71334 0.475534,-1.18418 1.361334,-1.85552 0.885799,-0.68067 2.10727,-0.68067 1.333361,0 2.247133,0.91378 z m -1.454576,6.07005 q -0.764584,0 -1.230795,0.72729 -0.46621,0.71797 -0.46621,2.387 0,1.22147 0.195808,1.90214 0.195809,0.67134 0.540804,0.94174 0.344996,0.2704 0.792558,0.2704 0.494183,0 0.895123,-0.30769 0.410265,-0.3077 0.727288,-0.83918 v -4.27049 q -0.307698,-0.38229 -0.652694,-0.59675 -0.344996,-0.21446 -0.801882,-0.21446 z m 27.170749,5.84628 v 2.22849 h -8.401111 v -2.22849 h 3.114285 v -7.79503 l -2.657399,1.6597 -1.249443,-2.02335 4.167918,-2.53618 h 2.61078 v 10.69486 z"
         id="text1"
         style="font-weight:bold;font-size:18.1822px;font-family:'FiraCode Nerd Font';-inkscape-font-specification:'FiraCode Nerd Font Bold';text-align:center;text-anchor:middle;fill:#ffffff;stroke-width:1.70566;stroke-linecap:round;stroke-linejoin:bevel;paint-order:markers stroke fill"
         aria-label="Thread 1" />
      <path
         d="m 177.76376,111.23948 v 10.58298 h -3.05834 v -10.58298 h -3.62711 v -2.34037 h 10.46175 l -0.31702,2.34037 z m 8.33585,-3.54319 v 5.2029 q 1.24012,-1.30539 2.90915,-1.30539 1.32404,0 2.02335,0.77391 0.69932,0.77391 0.69932,2.18187 v 7.27288 h -2.94645 v -6.45235 q 0,-0.89513 -0.20513,-1.24945 -0.19581,-0.35432 -0.74594,-0.35432 -0.46621,0 -0.89512,0.32635 -0.41959,0.31702 -0.83918,0.87648 v 6.85329 h -2.94645 v -13.83712 z m 8.33584,14.12617 v -1.97674 h 1.30539 v -5.96749 h -1.30539 v -1.95808 h 3.55253 l 0.5408,2.22849 q 0.53148,-1.27742 1.35201,-1.90214 0.82985,-0.62472 2.02335,-0.62472 0.50351,0 0.89513,0.0839 0.39161,0.0746 0.73661,0.21446 l -0.55013,4.13995 h -1.84619 v -1.82755 q -0.83918,0.14919 -1.47323,0.91378 -0.63404,0.75526 -0.97904,1.86484 v 2.83455 h 1.95809 v 1.97674 z m 13.65065,-4.09333 q 0.14919,1.21215 0.79256,1.74363 0.64337,0.52215 1.58511,0.52215 0.68067,0 1.31471,-0.22378 0.63405,-0.22378 1.22148,-0.59675 l 1.18417,1.60377 q -0.69932,0.59674 -1.69701,0.97904 -0.98836,0.38229 -2.25645,0.38229 -1.69701,0 -2.84389,-0.67134 -1.14687,-0.68067 -1.72497,-1.86484 -0.5781,-1.18418 -0.5781,-2.72267 0,-1.4639 0.55945,-2.6574 0.55945,-1.20282 1.63173,-1.91146 1.08161,-0.71797 2.63875,-0.71797 1.41728,0 2.45227,0.60608 1.04431,0.60607 1.61309,1.74362 0.5781,1.13756 0.5781,2.732 0,0.25175 -0.0186,0.5408 -0.009,0.28905 -0.0373,0.51283 z m 1.82754,-4.15859 q -0.79255,0 -1.27741,0.56877 -0.48486,0.56878 -0.58743,1.81822 h 3.63644 q -0.009,-1.08161 -0.41959,-1.7343 -0.41026,-0.65269 -1.35201,-0.65269 z m 15.14252,5.39871 q 0,0.55945 0.14919,0.81121 0.15851,0.25175 0.5035,0.38229 l -0.60607,1.93943 q -0.87648,-0.0839 -1.48255,-0.38229 -0.59675,-0.3077 -0.94174,-0.9231 -0.56878,0.68067 -1.45458,1.01634 -0.8858,0.32635 -1.8089,0.32635 -1.52916,0 -2.44294,-0.86715 -0.90444,-0.87648 -0.90444,-2.24714 0,-1.61308 1.25876,-2.48956 1.26809,-0.87647 3.56185,-0.87647 h 1.33336 v -0.37297 q 0,-1.51985 -1.95808,-1.51985 -0.47554,0 -1.22147,0.13987 -0.74594,0.13054 -1.49188,0.38229 l -0.68066,-1.95808 q 0.96039,-0.36365 1.99538,-0.55013 1.04431,-0.18649 1.86484,-0.18649 2.20983,0 3.26347,0.90445 1.06296,0.89513 1.06296,2.59213 z m -4.62481,1.06296 q 0.47554,0 0.99769,-0.27973 0.52216,-0.28905 0.79256,-0.8112 v -1.60377 h -0.72729 q -1.23079,0 -1.80889,0.3823 -0.5781,0.37296 -0.5781,1.10025 0,0.56878 0.34499,0.89513 0.35432,0.31702 0.97904,0.31702 z m 13.10984,-12.35457 2.94645,0.3077 v 13.83712 h -2.61078 l -0.14918,-1.09094 q -0.41027,0.57811 -1.09094,0.99769 -0.68066,0.41027 -1.65038,0.41027 -1.2308,0 -2.042,-0.66202 -0.80188,-0.66202 -1.20282,-1.84619 -0.39162,-1.1935 -0.39162,-2.78794 0,-1.52917 0.47553,-2.71334 0.47554,-1.18418 1.36134,-1.85552 0.8858,-0.68067 2.10727,-0.68067 1.33336,0 2.24713,0.91378 z m -1.45457,6.07005 q -0.76459,0 -1.2308,0.72729 -0.46621,0.71797 -0.46621,2.387 0,1.22147 0.19581,1.90214 0.19581,0.67134 0.5408,0.94174 0.345,0.2704 0.79256,0.2704 0.49418,0 0.89512,-0.30769 0.41027,-0.3077 0.72729,-0.83918 v -4.27049 q -0.3077,-0.38229 -0.65269,-0.59675 -0.345,-0.21446 -0.80188,-0.21446 z m 22.04243,-5.17493 q 1.47322,0 2.46159,0.51283 0.99769,0.51283 1.49187,1.36134 0.50351,0.83917 0.50351,1.82754 0,0.78323 -0.2704,1.53849 -0.26108,0.74594 -0.86715,1.58512 -0.60608,0.82985 -1.61309,1.84619 -0.99769,1.01634 -2.47091,2.33105 h 5.51992 l -0.31702,2.24714 h -8.58759 v -2.08863 q 1.59444,-1.53849 2.66672,-2.64807 1.08161,-1.10958 1.72498,-1.91146 0.65269,-0.81121 0.93242,-1.43593 0.27973,-0.62472 0.27973,-1.20282 0,-0.78323 -0.45689,-1.24012 -0.44756,-0.45689 -1.27742,-0.45689 -0.73661,0 -1.27741,0.3077 -0.54081,0.3077 -1.04431,0.99769 l -1.8089,-1.36133 q 0.72729,-1.00702 1.79025,-1.60377 1.06296,-0.60607 2.6201,-0.60607 z"
         id="text1-7"
         style="font-weight:bold;font-size:18.1822px;font-family:'FiraCode Nerd Font';-inkscape-font-specification:'FiraCode Nerd Font Bold';text-align:center;text-anchor:middle;fill:#ffffff;stroke-width:1.70566;stroke-linecap:round;stroke-linejoin:bevel;paint-order:markers stroke fill"
         aria-label="Thread 2" />
      <path
         d="m -23.190608,137.17155 12.445334,-0.008 c 1.0137307,-6.4e-4 1.8300153,0.81495 1.8302081,1.82869 l 0.00133,6.55853 c 1.928e-4,1.01374 -0.8157681,1.83037 -1.8295001,1.83104 l -12.445334,0.008 c -1.013747,6.5e-4 -1.829998,-0.81495 -1.830208,-1.82868 l -0.0012,-6.55854 c -2.09e-4,-1.01373 0.815736,-1.83036 1.829483,-1.83103 z"
         style="fill:#ffffff;stroke-width:0.429523;paint-order:markers stroke fill"
         id="path1" />
      <g
         id="g6"
         transform="matrix(1.6106315,0,0,1.6106315,8.5657159,-59.398735)">
        <path
           id="rect6"
           style="fill:#4d4d4d;stroke-width:1.059;stroke-linecap:round;stroke-linejoin:bevel;paint-order:markers stroke fill"
           d="m 50.885389,121.1303 h 27.099673 c 0.621586,0 1.121996,0.50041 1.121996,1.122 v 6.2915 c 0,0.62158 -0.50041,1.12199 -1.121996,1.12199 H 50.885389 c -0.621586,0 -1.121996,-0.50041 -1.121996,-1.12199 v -6.2915 c 0,-0.62159 0.50041,-1.122 1.121996,-1.122 z" />
        <path
           d="m 52.258768,122.33073 2.912522,-0.005 c 0.6294,-4e-4 1.136206,0.50598 1.13633,1.13538 l 8e-4,4.07203 c 1.23e-4,0.6294 -0.50649,1.13643 -1.13589,1.13684 l -2.912522,0.005 c -0.62941,4e-4 -1.1362,-0.50598 -1.13633,-1.13538 l -7.9e-4,-4.07203 c -1.3e-4,-0.6294 0.50647,-1.13643 1.13588,-1.13684 z"
           style="fill:#ffffff;stroke-width:0.26668;paint-order:markers stroke fill"
           id="path1-3"
           sodipodi:nodetypes="ccssccccc" />
        <path
           d="m 59.916757,122.33073 6.494414,-0.005 c 0.6294,-4e-4 1.136207,0.50598 1.13633,1.13538 l 8e-4,4.07203 c 1.24e-4,0.6294 -0.50649,1.13643 -1.13589,1.13684 l -6.494414,0.005 c -0.62941,4e-4 -1.1362,-0.50598 -1.13633,-1.13538 l -7.9e-4,-4.07203 c -1.3e-4,-0.6294 0.50647,-1.13643 1.13588,-1.13684 z"
           style="fill:#ffffff;stroke-width:0.26668;paint-order:markers stroke fill"
           id="path1-3-6"
           sodipodi:nodetypes="ccssccccc" />
        <path
           d="m 71.156638,122.33073 5.400733,-0.005 c 0.6294,-4e-4 1.136206,0.50598 1.13633,1.13538 l 8e-4,4.07203 c 1.23e-4,0.6294 -0.50649,1.13643 -1.13589,1.13684 l -5.400733,0.005 c -0.62941,4e-4 -1.1362,-0.50598 -1.13633,-1.13538 l -7.9e-4,-4.07203 c -1.3e-4,-0.6294 0.50647,-1.13643 1.13588,-1.13684 z"
           style="fill:#ffffff;stroke-width:0.26668;paint-order:markers stroke fill"
           id="path1-3-6-7"
           sodipodi:nodetypes="ccssccccc" />
      </g>
      <path
         d="m -3.1020758,137.17155 5.6365932,-0.008 c 1.0137331,-6.4e-4 1.8300172,0.81495 1.8302105,1.82869 l 0.00129,6.55853 c 1.933e-4,1.01374 -0.8157687,1.83037 -1.8295018,1.83104 l -5.6365932,0.008 c -1.0137476,6.5e-4 -1.8299995,-0.81495 -1.8302089,-1.82868 l -0.00127,-6.55854 c -2.094e-4,-1.01373 0.8157365,-1.83036 1.8294841,-1.83103 z"
         style="fill:#ffffff;stroke-width:0.429523;paint-order:markers stroke fill"
         id="path1-9"
         sodipodi:nodetypes="ccccccccc" />
      <path
         d="m 10.177718,137.17155 19.667282,-0.008 c 1.013731,-6.4e-4 1.830016,0.81495 1.830209,1.82869 l 0.0013,6.55853 c 1.93e-4,1.01374 -0.81577,1.83037 -1.829501,1.83104 l -19.667282,0.008 c -1.0137478,6.5e-4 -1.8299998,-0.81495 -1.8302091,-1.82868 l -0.00127,-6.55854 c -2.093e-4,-1.01373 0.8157365,-1.83036 1.8294851,-1.83103 z"
         style="fill:#ffffff;stroke-width:0.429523;paint-order:markers stroke fill"
         id="path1-9-4"
         sodipodi:nodetypes="ccccccccc" />
      <path
         id="rect3"
         style="fill:#ffffff;stroke:none;stroke-width:1.70566;stroke-linecap:round;stroke-linejoin:bevel;paint-order:markers stroke fill"
         d="m 48.863342,148.82083 -7.427594,7.42842 H 30.620621 c -1.370828,0 -2.474477,1.10366 -2.474477,2.47449 v 23.43741 c 0,1.37081 1.103649,2.47447 2.474477,2.47447 h 56.168905 c 1.37083,0 2.474479,-1.10366 2.474479,-2.47447 v -23.43741 c 0,-1.37083 -1.103649,-2.47449 -2.474479,-2.47449 H 56.291772 Z"
         sodipodi:nodetypes="ccsssssssscc" />
      <g
         id="text4"
         style="font-weight:bold;font-size:11.3639px;font-family:'FiraCode Nerd Font';-inkscape-font-specification:'FiraCode Nerd Font Bold';text-align:end;text-anchor:end;fill:#ffffff;stroke-width:1.70566;stroke-linecap:round;stroke-linejoin:bevel;paint-order:markers stroke fill"
         aria-label="I need&#10;a while.">
        <path
           style="text-align:center;text-anchor:middle;fill:#000000"
           d="m 44.739125,159.58356 v 1.39864 h -1.666706 v 5.27401 h 1.666706 v 1.40447 h -5.244877 v -1.40447 h 1.666705 v -5.27401 h -1.666705 v -1.39864 z m 8.683195,8.07712 v -6.18896 h 1.608429 l 0.128209,0.7168 q 0.413762,-0.46621 0.874146,-0.69349 0.460383,-0.22728 1.048975,-0.22728 0.792559,0 1.247115,0.4837 0.454556,0.48369 0.454556,1.36366 v 4.54557 h -1.841534 v -4.01525 q 0,-0.57111 -0.128208,-0.79256 -0.122381,-0.22728 -0.466212,-0.22728 -0.291382,0 -0.559453,0.18649 -0.262244,0.18648 -0.524488,0.51866 v 4.32994 z m 8.589948,-2.55834 q 0.09324,0.75759 0.495349,1.08977 0.402107,0.32635 0.990699,0.32635 0.425418,0 0.821698,-0.13987 0.396279,-0.13986 0.763421,-0.37297 l 0.74011,1.00236 q -0.437073,0.37297 -1.060631,0.6119 -0.61773,0.23893 -1.410289,0.23893 -1.060631,0 -1.77743,-0.41959 -0.7168,-0.42541 -1.078114,-1.16552 -0.361314,-0.74011 -0.361314,-1.70167 0,-0.91494 0.349659,-1.66088 0.349658,-0.75177 1.019837,-1.19467 0.676006,-0.44873 1.649222,-0.44873 0.885802,0 1.53267,0.3788 0.652696,0.3788 1.008182,1.08977 0.361314,0.71097 0.361314,1.7075 0,0.15734 -0.01166,0.338 -0.0058,0.18066 -0.02331,0.32052 z m 1.142217,-2.59913 q -0.495349,0 -0.798386,0.35549 -0.303038,0.35548 -0.367142,1.13639 h 2.27278 q -0.0058,-0.67601 -0.262244,-1.08394 -0.256416,-0.40794 -0.845008,-0.40794 z m 5.850958,2.59913 q 0.09324,0.75759 0.49535,1.08977 0.402107,0.32635 0.990699,0.32635 0.425418,0 0.821697,-0.13987 0.39628,-0.13986 0.763421,-0.37297 l 0.740111,1.00236 q -0.437074,0.37297 -1.060631,0.6119 -0.61773,0.23893 -1.410289,0.23893 -1.060631,0 -1.777431,-0.41959 -0.7168,-0.42541 -1.078113,-1.16552 -0.361314,-0.74011 -0.361314,-1.70167 0,-0.91494 0.349658,-1.66088 0.349659,-0.75177 1.019837,-1.19467 0.676007,-0.44873 1.649223,-0.44873 0.885801,0 1.53267,0.3788 0.652695,0.3788 1.008181,1.08977 0.361314,0.71097 0.361314,1.7075 0,0.15734 -0.01165,0.338 -0.0058,0.18066 -0.02331,0.32052 z m 1.142218,-2.59913 q -0.49535,0 -0.798387,0.35549 -0.303037,0.35548 -0.367141,1.13639 h 2.27278 q -0.0058,-0.67601 -0.262244,-1.08394 -0.256416,-0.40794 -0.845008,-0.40794 z m 7.774079,-3.68307 1.841535,0.19232 v 8.64822 h -1.63174 l -0.09324,-0.68184 q -0.256416,0.36131 -0.681834,0.62356 -0.425418,0.25641 -1.031492,0.25641 -0.769249,0 -1.276254,-0.41376 -0.501177,-0.41376 -0.751765,-1.15387 -0.244761,-0.74594 -0.244761,-1.74247 0,-0.95573 0.297209,-1.69584 0.29721,-0.74011 0.850836,-1.1597 0.553626,-0.42542 1.317047,-0.42542 0.833352,0 1.404461,0.57111 z m -0.909112,3.7938 q -0.477866,0 -0.769248,0.45455 -0.291382,0.44873 -0.291382,1.49188 0,0.76342 0.12238,1.18884 0.122381,0.41959 0.338003,0.58859 0.215623,0.169 0.49535,0.169 0.308865,0 0.559453,-0.19231 0.256417,-0.19231 0.454556,-0.52449 v -2.66906 q -0.192312,-0.23893 -0.407935,-0.37297 -0.215622,-0.13403 -0.501177,-0.13403 z"
           id="path2" />
        <path
           style="text-align:center;text-anchor:middle;fill:#000000"
           d="m 37.652708,180.08229 q 0,0.34966 0.09324,0.50701 0.09907,0.15734 0.314693,0.23893 l -0.378797,1.21215 q -0.547798,-0.0524 -0.926595,-0.23893 -0.372969,-0.19232 -0.588591,-0.57694 -0.355486,0.42542 -0.909112,0.63521 -0.553626,0.20397 -1.130563,0.20397 -0.955733,0 -1.526842,-0.54197 -0.565281,-0.5478 -0.565281,-1.40446 0,-1.00818 0.786732,-1.55598 0.792559,-0.5478 2.226159,-0.5478 h 0.833352 v -0.23311 q 0,-0.9499 -1.223804,-0.9499 -0.29721,0 -0.763421,0.0874 -0.466212,0.0816 -0.932423,0.23894 l -0.425418,-1.22381 q 0.600247,-0.22728 1.247115,-0.34383 0.652696,-0.11655 1.165529,-0.11655 1.381151,0 2.039674,0.56528 0.664351,0.55945 0.664351,1.62008 z m -2.89051,0.66435 q 0.29721,0 0.623558,-0.17483 0.326348,-0.18065 0.495349,-0.507 v -1.00236 h -0.454556 q -0.769248,0 -1.130562,0.23894 -0.361314,0.2331 -0.361314,0.68766 0,0.35549 0.215623,0.55945 0.22145,0.19814 0.611902,0.19814 z m 16.92348,1.11891 h -2.033846 l -0.530316,-4.16094 -0.553626,4.16094 H 46.569009 L 45.65407,175.6766 h 1.684188 l 0.402107,5.0409 0.652696,-4.26 h 1.550153 l 0.582764,4.26 0.413762,-5.0409 h 1.625912 z m 3.578176,-8.82888 v 3.25183 q 0.775077,-0.81587 1.818224,-0.81587 0.827525,0 1.264598,0.48369 0.437074,0.4837 0.437074,1.36367 v 4.54556 h -1.841535 v -4.03273 q 0,-0.55945 -0.128208,-0.7809 -0.122381,-0.22145 -0.466211,-0.22145 -0.291383,0 -0.559454,0.20397 -0.262244,0.19814 -0.524488,0.54779 v 4.28332 H 53.42232 v -8.64822 z m 7.820701,-0.60024 q 0.477866,0 0.780904,0.29721 0.303037,0.29721 0.303037,0.74011 0,0.4429 -0.303037,0.74594 -0.303038,0.2972 -0.780904,0.2972 -0.483694,0 -0.792559,-0.2972 -0.303038,-0.30304 -0.303038,-0.74594 0,-0.4429 0.303038,-0.74011 0.308865,-0.29721 0.792559,-0.29721 z m 1.113079,3.24017 v 4.93018 h 1.573463 v 1.25877 H 60.60198 v -1.25877 h 1.75412 v -3.67141 h -1.695844 v -1.25877 z m 6.43955,-2.45927 v 6.70179 q 0,0.37297 0.209795,0.53614 0.215623,0.15735 0.588592,0.15735 0.238933,0 0.460383,-0.0524 0.221451,-0.0583 0.413763,-0.13404 l 0.442901,1.22964 q -0.314693,0.16317 -0.757594,0.28555 -0.4429,0.12238 -1.031492,0.12238 -1.118907,0 -1.643395,-0.64104 -0.524488,-0.64687 -0.524488,-1.73081 v -5.21574 h -1.824051 v -1.25877 z m 5.361432,6.08989 q 0.09324,0.75759 0.49535,1.08976 0.402107,0.32635 0.990699,0.32635 0.425417,0 0.821697,-0.13986 0.39628,-0.13986 0.763421,-0.37297 l 0.74011,1.00235 q -0.437073,0.37297 -1.06063,0.61191 -0.61773,0.23893 -1.410289,0.23893 -1.060631,0 -1.777431,-0.41959 -0.7168,-0.42542 -1.078114,-1.16553 -0.361313,-0.74011 -0.361313,-1.70167 0,-0.91494 0.349658,-1.66088 0.349659,-0.75176 1.019837,-1.19466 0.676007,-0.44873 1.649223,-0.44873 0.885801,0 1.532669,0.37879 0.652696,0.3788 1.008182,1.08977 0.361314,0.71098 0.361314,1.7075 0,0.15735 -0.01165,0.33801 -0.0058,0.18065 -0.02331,0.32052 z m 1.142218,-2.59913 q -0.49535,0 -0.798387,0.35548 -0.303037,0.35549 -0.367141,1.13639 h 2.27278 q -0.0058,-0.676 -0.262244,-1.08394 -0.256417,-0.40793 -0.845008,-0.40793 z m 5.635335,4.05604 q 0,-0.35549 0.174829,-0.64687 0.174829,-0.29721 0.472039,-0.47204 0.29721,-0.18066 0.652696,-0.18066 0.361314,0 0.652696,0.18066 0.297209,0.17483 0.472039,0.47204 0.174829,0.29138 0.174829,0.64687 0,0.34965 -0.174829,0.64686 -0.17483,0.29721 -0.472039,0.47204 -0.291382,0.18066 -0.652696,0.18066 -0.355486,0 -0.652696,-0.18066 -0.29721,-0.17483 -0.472039,-0.47204 -0.174829,-0.29721 -0.174829,-0.64686 z"
           id="path4" />
      </g>
      <path
         style="fill:#ffffff;stroke-width:0.195444"
         d="m 205.85149,155.27455 c -0.36168,-0.0926 -0.66474,-0.32128 -0.83529,-0.63071 l -0.14496,-0.26313 -0.0391,-2.06624 c -0.0213,-1.13648 -0.033,-2.87434 -0.0253,-3.86196 l 0.0145,-1.79569 0.12934,-0.27576 c 0.16354,-0.34878 0.28858,-0.44789 1.47111,-1.16602 1.78035,-1.08112 2.20551,-1.35881 2.17136,-1.41814 -0.17888,-0.31109 -2.2066,-3.36311 -2.23439,-3.36328 -0.0213,-9e-5 -0.037,0.59425 -0.037,1.32084 0,1.29364 -0.001,1.32448 -0.1121,1.48749 -0.0618,0.0916 -0.16686,0.19422 -0.23363,0.22795 -0.0928,0.047 -0.7624,0.0617 -2.83082,0.0621 l -2.70931,7.9e-4 -0.26709,-0.13544 c -0.18361,-0.093 -0.31327,-0.20438 -0.41473,-0.35668 -0.13528,-0.20296 -0.14752,-0.25655 -0.14752,-0.64295 0,-0.37663 0.0145,-0.44318 0.134,-0.62456 0.0736,-0.11161 0.23983,-0.26505 0.36897,-0.34098 l 0.23481,-0.13803 1.87946,-0.0145 1.87948,-0.0145 0.0145,-1.75658 c 0.0145,-1.72975 0.0164,-1.7606 0.13191,-2.01589 0.0708,-0.1564 0.21829,-0.35155 0.37212,-0.49197 0.22772,-0.2079 2.87308,-2.00442 3.33494,-2.26487 0.47567,-0.26825 0.47821,-0.26843 3.62092,-0.29251 3.20833,-0.0245 3.18141,-0.0267 3.46428,0.27162 0.07,0.0738 0.53795,0.8077 1.03968,1.63059 0.99751,1.63609 1.07013,1.80511 0.96135,2.23706 -0.11709,0.46499 -0.66217,0.86756 -1.17204,0.86555 -0.33982,-0.001 -0.60928,-0.12015 -0.848,-0.37434 -0.0984,-0.10483 -0.42662,-0.58884 -0.72947,-1.07588 -0.73029,-1.17456 -0.74507,-1.19542 -0.88735,-1.25328 -0.0813,-0.033 -0.7346,-0.0376 -1.93022,-0.0145 l -1.80724,0.0366 1.47723,2.37925 c 1.53384,2.47043 1.71995,2.79326 1.81597,3.14984 0.0836,0.31028 0.0729,0.88769 -0.0237,1.21866 -0.198,0.68698 -0.62023,1.22756 -1.53747,1.96865 -0.60797,0.49124 -0.93426,0.70564 -2.00524,1.31765 -0.70352,0.402 -1.35107,0.78391 -1.43901,0.84867 l -0.15994,0.11774 -3.7e-4,3.28139 -4e-4,3.28136 -0.11628,0.246 c -0.14254,0.30162 -0.32558,0.47867 -0.63707,0.6164 -0.29437,0.13031 -0.85011,0.1678 -1.19113,0.0806 z m 7.8536,-4.71419 c -0.0923,-0.0635 -0.20862,-0.17063 -0.25867,-0.23837 -0.0682,-0.092 -1.32654,-3.02641 -1.61631,-3.76888 -0.0349,-0.0899 0.0241,-0.15688 0.44112,-0.49939 0.75515,-0.62044 1.24762,-1.24621 1.53052,-1.94484 0.11403,-0.2817 0.11613,-0.28349 0.17983,-0.16188 0.0635,0.12127 1.19802,2.77339 1.26057,2.94691 0.0416,0.115 -0.069,0.15318 1.92681,-0.66741 2.03633,-0.83714 2.13849,-0.87337 2.46349,-0.87337 0.49133,0 1.00149,0.3458 1.24145,0.84145 0.13965,0.28839 0.21145,0.84874 0.14754,1.14894 -0.0628,0.2939 -0.30156,0.60174 -0.58088,0.74858 -0.12176,0.064 -1.53324,0.65998 -3.13659,1.32434 -3.18296,1.31886 -3.29362,1.35404 -3.59886,1.14394 z m -13.17957,-2.20648 c -0.70838,-0.14964 -1.24613,-0.80589 -1.24955,-1.52485 -0.001,-0.34765 0.35543,-2.12579 0.47226,-2.35174 0.0916,-0.17699 0.21664,-0.28535 0.43573,-0.37683 0.26162,-0.10916 1.87888,-0.10872 2.14076,3.8e-4 0.19186,0.0802 0.38407,0.23739 0.45816,0.37481 0.0812,0.15075 0.44436,2.01215 0.44846,2.29891 0.008,0.61155 -0.30905,1.13912 -0.85765,1.42421 -0.32389,0.16826 -0.34613,0.17249 -0.98392,0.18596 -0.35892,0.008 -0.74785,-0.008 -0.86425,-0.0309 z m -0.15365,-7.93876 c -0.17559,-0.30692 -0.19069,-0.48345 -0.0529,-0.62127 0.0909,-0.0909 0.16402,-0.0984 0.95171,-0.0984 0.76418,0 0.86182,0.01 0.93475,0.0899 0.12112,0.13384 0.0984,0.34612 -0.0675,0.63569 l -0.14817,0.25829 h -0.73334 -0.73335 z m 3.58776,-4.89893 c -1.47801,-0.27534 -2.49168,-1.73063 -2.19355,-3.1493 0.27449,-1.30606 1.36057,-2.21958 2.63306,-2.21474 1.1225,0.004 2.18094,0.74365 2.56934,1.79484 0.091,0.24647 0.10905,0.39668 0.10905,0.91013 0,0.51347 -0.0189,0.66369 -0.10905,0.91015 -0.29501,0.7984 -0.96755,1.43067 -1.77367,1.66744 -0.32758,0.0963 -0.93942,0.13659 -1.23518,0.0813 z"
         id="path3" />
      <path
         style="fill:none;stroke:#ffffff;stroke-width:1.70566;stroke-linecap:round;stroke-linejoin:bevel;marker-end:url(#Triangle);paint-order:markers stroke fill"
         d="m 194.55965,140.19647 c -26.10739,-4.49892 -51.60224,-10.31871 -53.75953,7.65276 -2.02035,16.83076 24.94096,26.3217 47.22063,18.87898"
         id="path6"
         sodipodi:nodetypes="cac" />
    </g>
  </g>
</svg>
