<?xml version="1.0" encoding="UTF-8" standalone="no"?><!DOCTYPE svg PUBLIC "-//W3C//DTD SVG 1.1//EN" "http://www.w3.org/Graphics/SVG/1.1/DTD/svg11.dtd"><!-- Generated by graphviz version 2.40.1 (20161225.0304)
 --><!-- Title: %0 Pages: 1 --><svg xmlns="http://www.w3.org/2000/svg" xmlns:xlink="http://www.w3.org/1999/xlink" width="641pt" height="225pt" viewBox="0.00 0.00 641.00 225.00">
<g id="graph0" class="graph" transform="scale(1 1) rotate(0) translate(4 221)">
<title>%0</title>
<!-- <polygon fill="#ffffff" stroke="transparent" points="-4,4 -4,-221 637,-221 637,4 -4,4"/> -->
<g id="clust1" class="cluster">
<title>cluster_139766616482688</title>
<polygon fill="#fefcd9" stroke="#000000" points="8,-8 8,-129 309,-129 309,-8 8,-8"/>
<text text-anchor="middle" x="158.5" y="-112.4" font-family="Times,serif" font-size="14.00" fill="#000000">NodeGroup / Group</text>
</g>
<!-- 139766616398080 -->
<g id="node1" class="node">
<title>139766616398080</title>
<polygon fill="#ffffff" stroke="#000000" points="301,-217 201,-217 201,-137 301,-137 301,-217"/>
<text text-anchor="start" x="216.5908" y="-196.4" font-family="Times,serif" font-weight="bold" font-size="14.00" fill="#000000">Group Input</text>
<text text-anchor="start" x="232.0224" y="-172.4" font-family="Times,serif" font-size="14.00" fill="#000000">Geometry</text>
<text text-anchor="start" x="233.967" y="-149.4" font-family="Times,serif" font-size="14.00" fill="#000000">No Name</text>
</g>
<!-- 139766616396544 -->
<g id="node2" class="node">
<title>139766616396544</title>
<polygon fill="#ffffff" stroke="#000000" points="487,-191 337,-191 337,-65 487,-65 487,-191"/>
<text text-anchor="start" x="378.3566" y="-170.4" font-family="Times,serif" font-weight="bold" font-size="14.00" fill="#000000">Set Position</text>
<text text-anchor="start" x="349.5112" y="-146.4" font-family="Times,serif" font-size="14.00" fill="#000000">Geometry</text>
<text text-anchor="start" x="418.5112" y="-146.4" font-family="Times,serif" font-size="14.00" fill="#000000">Geometry</text>
<text text-anchor="start" x="350" y="-123.4" font-family="Times,serif" font-size="14.00" fill="#000000">Selection</text>
<text text-anchor="start" x="350" y="-100.4" font-family="Times,serif" font-size="14.00" fill="#000000">Position</text>
<text text-anchor="start" x="350" y="-77.4" font-family="Times,serif" font-size="14.00" fill="#000000">Offset</text>
</g>
<!-- 139766616398080&#45;&gt;139766616396544 -->
<g id="edge1" class="edge">
<title>139766616398080:e-&gt;139766616396544:w</title>
<path fill="none" stroke="#000000" d="M290,-177C314.4975,-177 318.8801,-157.4476 338.0345,-152.254"/>
<polygon fill="#000000" stroke="#000000" points="338.5153,-155.7212 348,-151 337.6412,-148.776 338.5153,-155.7212"/>
</g>
<!-- 139766616397312 -->
<g id="node3" class="node">
<title>139766616397312</title>
<polygon fill="#ffffff" stroke="#000000" points="633,-191 523,-191 523,-111 633,-111 633,-191"/>
<text text-anchor="start" x="538.9225" y="-170.4" font-family="Times,serif" font-weight="bold" font-size="14.00" fill="#000000">Group Output</text>
<text text-anchor="start" x="536" y="-146.4" font-family="Times,serif" font-size="14.00" fill="#000000">Geometry</text>
<text text-anchor="start" x="536" y="-123.4" font-family="Times,serif" font-size="14.00" fill="#000000">No Name</text>
</g>
<!-- 139766616396544&#45;&gt;139766616397312 -->
<g id="edge3" class="edge">
<title>139766616396544:e-&gt;139766616397312:w</title>
<path fill="none" stroke="#000000" d="M476,-151C497.9514,-151 505.883,-151 523.6723,-151"/>
<polygon fill="#000000" stroke="#000000" points="524,-154.5001 534,-151 524,-147.5001 524,-154.5001"/>
</g>
<!-- 139766616395776 -->
<g id="node4" class="node">
<title>139766616395776</title>
<polygon fill="#ffffff" stroke="#000000" points="165,-96 16,-96 16,-16 165,-16 165,-96"/>
<text text-anchor="start" x="32.3001" y="-75.4" font-family="Times,serif" font-weight="bold" font-size="14.00" fill="#000000">White Noise Texture</text>
<text text-anchor="start" x="29.5" y="-51.4" font-family="Times,serif" font-size="14.00" fill="#000000">Vector</text>
<text text-anchor="start" x="119.0736" y="-51.4" font-family="Times,serif" font-size="14.00" fill="#000000">Value</text>
<text text-anchor="start" x="120.6122" y="-28.4" font-family="Times,serif" font-size="14.00" fill="#000000">Color</text>
</g>
<!-- 139766616398848 -->
<g id="node5" class="node">
<title>139766616398848</title>
<polygon fill="#ffffff" stroke="#000000" points="301,-96 201,-96 201,-16 301,-16 301,-96"/>
<text text-anchor="start" x="216.5852" y="-75.4" font-family="Times,serif" font-weight="bold" font-size="14.00" fill="#000000">Color Ramp</text>
<text text-anchor="start" x="214" y="-51.4" font-family="Times,serif" font-size="14.00" fill="#000000">Fac</text>
<text text-anchor="start" x="256.1122" y="-51.4" font-family="Times,serif" font-size="14.00" fill="#000000">Color</text>
<text text-anchor="start" x="253.7882" y="-28.4" font-family="Times,serif" font-size="14.00" fill="#000000">Alpha</text>
</g>
<!-- 139766616395776&#45;&gt;139766616398848 -->
<g id="edge2" class="edge">
<title>139766616395776:e-&gt;139766616398848:w</title>
<path fill="none" stroke="#000000" d="M154.5,-56C176.2622,-56 184.1254,-56 201.7614,-56"/>
<polygon fill="#000000" stroke="#000000" points="202,-59.5001 212,-56 202,-52.5001 202,-59.5001"/>
</g>
<!-- 139766616398848&#45;&gt;139766616396544 -->
<g id="edge4" class="edge">
<title>139766616398848:e-&gt;139766616396544:w</title>
<path fill="none" stroke="#000000" d="M290,-56C314.4975,-56 318.8801,-75.5524 338.0345,-80.746"/>
<polygon fill="#000000" stroke="#000000" points="337.6412,-84.224 348,-82 338.5153,-77.2788 337.6412,-84.224"/>
</g>
</g>
</svg>
