<?xml version="1.0" encoding="UTF-8" standalone="no"?>
<!-- Generated by graphviz version 2.40.1 (20161225.0304)
 -->

<!-- Title: %0 Pages: 1 -->

<svg
   width="641pt"
   height="225pt"
   viewBox="0.00 0.00 641.00 225.00"
   version="1.1"
   id="svg23"
   sodipodi:docname="node_group.svg"
   inkscape:version="1.3.2 (091e20ef0f, 2023-11-25)"
   xmlns:inkscape="http://www.inkscape.org/namespaces/inkscape"
   xmlns:sodipodi="http://sodipodi.sourceforge.net/DTD/sodipodi-0.dtd"
   xmlns="http://www.w3.org/2000/svg"
   xmlns:svg="http://www.w3.org/2000/svg">
  <defs
     id="defs23" />
  <sodipodi:namedview
     id="namedview23"
     pagecolor="#ffffff"
     bordercolor="#000000"
     borderopacity="0.25"
     inkscape:showpageshadow="2"
     inkscape:pageopacity="0.0"
     inkscape:pagecheckerboard="0"
     inkscape:deskcolor="#d1d1d1"
     inkscape:document-units="pt"
     inkscape:zoom="1.9726989"
     inkscape:cx="427.33333"
     inkscape:cy="149.79478"
     inkscape:window-width="2560"
     inkscape:window-height="1011"
     inkscape:window-x="0"
     inkscape:window-y="0"
     inkscape:window-maximized="1"
     inkscape:current-layer="node1" />
  <g
     id="graph0"
     class="graph"
     transform="scale(1 1) rotate(0) translate(4 221)">
    <title
       id="title1">%0</title>
    <!-- <polygon fill="#ffffff" stroke="transparent" points="-4,4 -4,-221 637,-221 637,4 -4,4"/> -->
    <g
       id="clust1"
       class="cluster">
      <title
         id="title2">cluster_139766616482688</title>
      <path
         id="polygon2"
         style="fill:#fefcd9;stroke:#000000"
         d="M 8,-8 V -129 H 309 V -8 Z" />
      <path
         d="m 112.27899,-121.668 h -3.29 v 0.266 c 1.12,0.07 1.302,0.308 1.344,1.792 v 4.718 l -5.39,-6.776 h -2.394 v 0.266 c 0.602,0 0.798,0.112 1.358,0.77 v 6.174 c -0.028,1.484 -0.21,1.722 -1.358,1.792 v 0.266 h 3.29 v -0.266 c -1.078,-0.056 -1.288,-0.35 -1.316,-1.792 v -5.488 l 6.188,7.7 h 0.238 v -7.364 c 0.042,-1.456 0.224,-1.694 1.33,-1.792 z m 3.416,2.828 c -1.834,0 -3.094,1.344 -3.094,3.276 0,1.904 1.302,3.304 3.066,3.304 1.764,0 3.108,-1.47 3.108,-3.416 0,-1.848 -1.288,-3.164 -3.08,-3.164 z m -0.182,0.392 c 1.176,0 2.002,1.344 2.002,3.262 0,1.596 -0.63,2.534 -1.68,2.534 -0.546,0 -1.064,-0.336 -1.358,-0.896 -0.392,-0.728 -0.616,-1.708 -0.616,-2.702 0,-1.33 0.644,-2.198 1.652,-2.198 z m 10.556,5.236 c -0.182,0.014 -0.266,0.014 -0.322,0.014 -0.49,0 -0.616,-0.154 -0.616,-0.798 v -7.938 l -0.07,-0.028 c -0.658,0.224 -1.134,0.378 -2.058,0.616 v 0.224 c 0.112,-0.014 0.182,-0.014 0.308,-0.014 0.518,0 0.644,0.14 0.644,0.714 v 2.184 c -0.532,-0.448 -0.91,-0.602 -1.47,-0.602 -1.61,0 -2.912,1.582 -2.912,3.57 0,1.792 1.036,3.01 2.59,3.01 0.784,0 1.316,-0.28 1.792,-0.938 v 0.896 l 0.056,0.042 2.058,-0.728 z m -2.114,-0.616 c 0,0.098 -0.098,0.266 -0.238,0.42 -0.238,0.28 -0.602,0.42 -1.008,0.42 -1.176,0 -1.932,-1.12 -1.932,-2.856 0,-1.568 0.686,-2.604 1.75,-2.604 0.756,0 1.428,0.658 1.428,1.4 z m 7.952,-0.868 c -0.672,1.064 -1.274,1.47 -2.17,1.47 -0.798,0 -1.4,-0.406 -1.806,-1.204 -0.252,-0.532 -0.35,-0.98 -0.378,-1.848 h 4.312 c -0.112,-0.91 -0.252,-1.316 -0.602,-1.764 -0.42,-0.504 -1.064,-0.798 -1.792,-0.798 -0.7,0 -1.358,0.252 -1.89,0.728 -0.658,0.574 -1.036,1.568 -1.036,2.716 0,1.932 1.008,3.136 2.618,3.136 1.33,0 2.38,-0.826 2.968,-2.338 z m -4.326,-2.03 c 0.154,-1.092 0.63,-1.61 1.484,-1.61 0.854,0 1.19,0.392 1.372,1.61 z m 14.756,-0.63 h -3.57 v 0.252 c 1.092,0.07 1.204,0.182 1.232,1.246 v 2.268 c 0,0.448 -0.84,0.826 -1.862,0.826 -2.282,0 -3.682,-1.596 -3.682,-4.2 0,-1.316 0.392,-2.59 1.008,-3.276 0.602,-0.686 1.484,-1.064 2.436,-1.064 0.784,0 1.484,0.266 2.016,0.77 0.42,0.406 0.644,0.77 0.994,1.624 h 0.322 l -0.112,-2.954 h -0.308 c -0.084,0.28 -0.336,0.462 -0.63,0.462 -0.14,0 -0.364,-0.042 -0.616,-0.14 -0.63,-0.21 -1.288,-0.322 -1.918,-0.322 -2.786,0 -4.788,2.058 -4.788,4.914 0,1.372 0.378,2.422 1.162,3.248 0.924,0.966 2.282,1.498 3.822,1.498 1.218,0 2.954,-0.49 3.514,-0.98 v -2.842 c 0.028,-0.854 0.182,-1.022 0.98,-1.078 z m 0.252,4.956 h 3.36 v -0.21 c -0.938,-0.028 -1.162,-0.224 -1.19,-1.05 v -3.15 c 0,-0.448 0.588,-1.148 0.98,-1.148 0.084,0 0.21,0.07 0.364,0.21 0.21,0.21 0.378,0.28 0.56,0.28 0.336,0 0.546,-0.238 0.546,-0.63 0,-0.462 -0.294,-0.742 -0.77,-0.742 -0.588,0 -0.98,0.308 -1.68,1.316 v -1.288 l -0.07,-0.028 c -0.784,0.308 -1.288,0.504 -2.072,0.756 v 0.224 c 0.196,-0.042 0.322,-0.056 0.49,-0.056 0.35,0 0.476,0.224 0.476,0.84 v 3.5 c -0.028,0.728 -0.112,0.812 -0.994,0.966 z m 7.98001,-6.44 c -1.834,0 -3.094,1.344 -3.094,3.276 0,1.904 1.302,3.304 3.066,3.304 1.764,0 3.108,-1.47 3.108,-3.416 0,-1.848 -1.288,-3.164 -3.08,-3.164 z m -0.182,0.392 c 1.176,0 2.002,1.344 2.002,3.262 0,1.596 -0.63,2.534 -1.68,2.534 -0.546,0 -1.064,-0.336 -1.358,-0.896 -0.392,-0.728 -0.616,-1.708 -0.616,-2.702 0,-1.33 0.644,-2.198 1.652,-2.198 z m 10.388,5.348 h -0.07 c -0.686,-0.028 -0.784,-0.14 -0.798,-0.798 v -4.802 h -2.212 v 0.238 c 0.868,0.042 1.036,0.182 1.036,0.882 v 3.29 c 0,0.392 -0.07,0.588 -0.266,0.742 -0.378,0.308 -0.812,0.476 -1.232,0.476 -0.546,0 -0.994,-0.476 -0.994,-1.064 v -4.564 h -2.044 v 0.196 c 0.658,0.028 0.854,0.224 0.868,0.896 v 3.528 c 0,1.106 0.672,1.82 1.694,1.82 0.518,0 1.064,-0.224 1.442,-0.602 l 0.602,-0.602 v 1.162 l 0.056,0.028 c 0.7,-0.28 1.204,-0.434 1.918,-0.63 z m 0.364,3.738 h 3.388 v -0.252 c -1.05,-0.014 -1.218,-0.154 -1.232,-1.05 v -2.198 c 0.504,0.462 0.826,0.602 1.414,0.602 1.666,0 2.94,-1.568 2.94,-3.598 0,-1.736 -0.98,-2.982 -2.338,-2.982 -0.784,0 -1.4,0.336 -2.016,1.106 v -1.078 l -0.084,-0.028 c -0.756,0.294 -1.246,0.476 -2.016,0.714 v 0.224 c 0.126,-0.014 0.21,-0.014 0.35,-0.014 0.476,0 0.574,0.14 0.574,0.798 v 6.552 c 0,0.742 -0.154,0.882 -0.98,0.966 z m 2.156,-7.714 c 0,-0.42 0.784,-0.924 1.428,-0.924 1.036,0 1.722,1.064 1.722,2.702 0,1.54 -0.686,2.59 -1.694,2.59 -0.658,0 -1.456,-0.504 -1.456,-0.924 z m 12.292,-4.788 h -0.938 l -3.206,9.66 h 0.952 z m 13.3,4.508 h -3.57 v 0.252 c 1.092,0.07 1.204,0.182 1.232,1.246 v 2.268 c 0,0.448 -0.84,0.826 -1.862,0.826 -2.282,0 -3.682,-1.596 -3.682,-4.2 0,-1.316 0.392,-2.59 1.008,-3.276 0.602,-0.686 1.484,-1.064 2.436,-1.064 0.784,0 1.484,0.266 2.016,0.77 0.42,0.406 0.644,0.77 0.994,1.624 h 0.322 l -0.112,-2.954 h -0.308 c -0.084,0.28 -0.336,0.462 -0.63,0.462 -0.14,0 -0.364,-0.042 -0.616,-0.14 -0.63,-0.21 -1.288,-0.322 -1.918,-0.322 -2.786,0 -4.788,2.058 -4.788,4.914 0,1.372 0.378,2.422 1.162,3.248 0.924,0.966 2.282,1.498 3.822,1.498 1.218,0 2.954,-0.49 3.514,-0.98 v -2.842 c 0.028,-0.854 0.182,-1.022 0.98,-1.078 z m 0.252,4.956 h 3.36 v -0.21 c -0.938,-0.028 -1.162,-0.224 -1.19,-1.05 v -3.15 c 0,-0.448 0.588,-1.148 0.98,-1.148 0.084,0 0.21,0.07 0.364,0.21 0.21,0.21 0.378,0.28 0.56,0.28 0.336,0 0.546,-0.238 0.546,-0.63 0,-0.462 -0.294,-0.742 -0.77,-0.742 -0.588,0 -0.98,0.308 -1.68,1.316 v -1.288 l -0.07,-0.028 c -0.784,0.308 -1.288,0.504 -2.072,0.756 v 0.224 c 0.196,-0.042 0.322,-0.056 0.49,-0.056 0.35,0 0.476,0.224 0.476,0.84 v 3.5 c -0.028,0.728 -0.112,0.812 -0.994,0.966 z m 7.98001,-6.44 c -1.834,0 -3.094,1.344 -3.094,3.276 0,1.904 1.302,3.304 3.066,3.304 1.764,0 3.108,-1.47 3.108,-3.416 0,-1.848 -1.288,-3.164 -3.08,-3.164 z m -0.182,0.392 c 1.176,0 2.002,1.344 2.002,3.262 0,1.596 -0.63,2.534 -1.68,2.534 -0.546,0 -1.064,-0.336 -1.358,-0.896 -0.392,-0.728 -0.616,-1.708 -0.616,-2.702 0,-1.33 0.644,-2.198 1.652,-2.198 z m 10.388,5.348 h -0.07 c -0.686,-0.028 -0.784,-0.14 -0.798,-0.798 v -4.802 h -2.212 v 0.238 c 0.868,0.042 1.036,0.182 1.036,0.882 v 3.29 c 0,0.392 -0.07,0.588 -0.266,0.742 -0.378,0.308 -0.812,0.476 -1.232,0.476 -0.546,0 -0.994,-0.476 -0.994,-1.064 v -4.564 h -2.044 v 0.196 c 0.658,0.028 0.854,0.224 0.868,0.896 v 3.528 c 0,1.106 0.672,1.82 1.694,1.82 0.518,0 1.064,-0.224 1.442,-0.602 l 0.602,-0.602 v 1.162 l 0.056,0.028 c 0.7,-0.28 1.204,-0.434 1.918,-0.63 z m 0.364,3.738 h 3.388 v -0.252 c -1.05,-0.014 -1.218,-0.154 -1.232,-1.05 v -2.198 c 0.504,0.462 0.826,0.602 1.414,0.602 1.666,0 2.94,-1.568 2.94,-3.598 0,-1.736 -0.98,-2.982 -2.338,-2.982 -0.784,0 -1.4,0.336 -2.016,1.106 v -1.078 l -0.084,-0.028 c -0.756,0.294 -1.246,0.476 -2.016,0.714 v 0.224 c 0.126,-0.014 0.21,-0.014 0.35,-0.014 0.476,0 0.574,0.14 0.574,0.798 v 6.552 c 0,0.742 -0.154,0.882 -0.98,0.966 z m 2.156,-7.714 c 0,-0.42 0.784,-0.924 1.428,-0.924 1.036,0 1.722,1.064 1.722,2.702 0,1.54 -0.686,2.59 -1.694,2.59 -0.658,0 -1.456,-0.504 -1.456,-0.924 z"
         id="text2"
         style="font-size:14px;font-family:Times, serif;text-anchor:middle"
         aria-label="NodeGroup / Group" />
    </g>
    <!-- 139766616398080 -->
    <g
       id="node1"
       class="node">
      <title
         id="title3">139766616398080</title>
      <path
         id="polygon3"
         style="fill:#ffffff;stroke:#000000"
         d="M 301,-217 H 201 v 80 h 100 z" />
      <path
         d="m 227.16081,-200.41799 h -4.802 v 0.35 c 1.176,0.056 1.386,0.196 1.414,0.98 v 1.47 c 0,0.714 -0.406,1.022 -1.344,1.022 -0.882,0 -1.47,-0.266 -1.932,-0.868 -0.616,-0.784 -0.91,-1.988 -0.91,-3.668 0,-2.94 0.882,-4.48 2.576,-4.48 0.658,0 1.26,0.252 1.862,0.784 0.602,0.532 0.938,1.022 1.414,2.072 h 0.35 v -3.276 h -0.378 c -0.21,0.504 -0.336,0.644 -0.63,0.644 -0.126,0 -0.322,-0.056 -0.63,-0.196 -0.798,-0.336 -1.484,-0.49 -2.156,-0.49 -2.8,0 -4.886,2.142 -4.886,5.04 0,2.884 2.044,4.9 4.984,4.9 1.442,0 2.954,-0.336 3.864,-0.868 v -1.778 c 0.028,-1.022 0.182,-1.19 1.204,-1.288 z m 4.45199,3.682 c -0.854,-0.042 -1.008,-0.224 -1.022,-1.106 v -2.646 c 0,-0.728 0.392,-1.33 0.854,-1.33 0.112,0 0.238,0.098 0.392,0.322 0.266,0.378 0.476,0.504 0.84,0.504 0.518,0 0.882,-0.392 0.882,-0.924 0,-0.644 -0.476,-1.106 -1.134,-1.106 -0.7,0 -1.232,0.364 -1.89,1.316 v -1.148 h -2.646 v 0.336 c 0.588,0.07 0.742,0.238 0.756,0.826 v 4.116 c -0.014,0.588 -0.154,0.742 -0.756,0.84 v 0.336 h 3.724 z m 5.44601,-6.286 c -1.792,0 -3.164,1.47 -3.164,3.374 0,2.002 1.316,3.444 3.164,3.444 1.82,0 3.15,-1.442 3.15,-3.402 0,-1.974 -1.344,-3.416 -3.15,-3.416 z m 0.014,0.434 c 0.812,0 1.078,0.77 1.078,3.066 0,2.156 -0.28,2.884 -1.092,2.884 -0.826,0 -1.106,-0.714 -1.106,-2.772 0,-2.45 0.252,-3.178 1.12,-3.178 z m 10.99,5.586 c -0.602,-0.028 -0.77,-0.21 -0.784,-0.812 v -5.04 h -2.814 v 0.336 c 0.686,0.042 0.854,0.21 0.868,0.826 v 3.962 c -0.462,0.462 -0.742,0.616 -1.148,0.616 -0.574,0 -0.784,-0.28 -0.784,-0.994 v -4.746 h -2.632 v 0.336 c 0.574,0.112 0.672,0.238 0.686,0.826 v 3.528 c 0,1.232 0.7,1.96 1.862,1.96 0.728,0 1.218,-0.224 2.03,-0.924 v 0.91 c 0.602,-0.21 0.938,-0.266 1.848,-0.364 l 0.868,-0.098 z m 4.354,3.178 c -0.84,-0.028 -1.064,-0.294 -1.092,-1.26 v -1.974 c 0.672,0.658 1.022,0.84 1.652,0.84 1.582,0 2.688,-1.456 2.688,-3.528 0,-1.96 -1.05,-3.276 -2.604,-3.276 -0.826,0 -1.33,0.322 -1.764,1.134 v -0.966 h -2.674 v 0.336 c 0.616,0.084 0.756,0.238 0.756,0.826 v 7.014 c -0.014,0.588 -0.126,0.7 -0.784,0.812 v 0.336 h 3.822 z m -1.092,-7.42 c 0,-0.098 0.126,-0.322 0.294,-0.504 0.28,-0.308 0.602,-0.476 0.91,-0.476 0.728,0 1.064,0.84 1.064,2.674 0,1.736 -0.378,2.562 -1.19,2.562 -0.462,0 -0.868,-0.322 -1.078,-0.854 z m 13.46799,4.494 c -1.036,-0.056 -1.316,-0.252 -1.33,-0.994 v -6.776 c 0.014,-0.742 0.322,-0.966 1.33,-0.994 v -0.35 h -4.9 v 0.35 c 0.98,0.042 1.274,0.266 1.302,0.994 v 6.776 c -0.028,0.714 -0.28,0.924 -1.302,0.994 v 0.35 h 4.9 z m 7.812,0.014 c -0.518,-0.028 -0.7,-0.238 -0.686,-0.798 v -3.514 c 0,-1.204 -0.742,-1.974 -1.89,-1.974 -0.84,0 -1.484,0.392 -2.002,1.218 v -1.05 h -2.674 v 0.336 c 0.616,0.098 0.728,0.224 0.742,0.826 v 4.116 c -0.014,0.602 -0.126,0.728 -0.742,0.84 v 0.336 h 3.374 v -0.336 c -0.504,-0.056 -0.686,-0.28 -0.686,-0.798 v -3.738 c 0,-0.042 0.098,-0.196 0.238,-0.336 0.308,-0.308 0.644,-0.476 0.966,-0.476 0.49,0 0.728,0.378 0.728,1.162 v 3.388 c -0.014,0.532 -0.196,0.756 -0.658,0.798 v 0.336 h 3.29 z m 4.10199,2.912 c -0.84,-0.028 -1.064,-0.294 -1.092,-1.26 v -1.974 c 0.672,0.658 1.022,0.84 1.652,0.84 1.582,0 2.688,-1.456 2.688,-3.528 0,-1.96 -1.05,-3.276 -2.604,-3.276 -0.826,0 -1.33,0.322 -1.764,1.134 v -0.966 h -2.674 v 0.336 c 0.616,0.084 0.756,0.238 0.756,0.826 v 7.014 c -0.014,0.588 -0.126,0.7 -0.784,0.812 v 0.336 h 3.822 z m -1.092,-7.42 c 0,-0.098 0.126,-0.322 0.294,-0.504 0.28,-0.308 0.602,-0.476 0.91,-0.476 0.728,0 1.064,0.84 1.064,2.674 0,1.736 -0.378,2.562 -1.19,2.562 -0.462,0 -0.868,-0.322 -1.078,-0.854 z m 12.306,4.242 c -0.602,-0.028 -0.77,-0.21 -0.784,-0.812 v -5.04 h -2.814 v 0.336 c 0.686,0.042 0.854,0.21 0.868,0.826 v 3.962 c -0.462,0.462 -0.742,0.616 -1.148,0.616 -0.574,0 -0.784,-0.28 -0.784,-0.994 v -4.746 h -2.632 v 0.336 c 0.574,0.112 0.672,0.238 0.686,0.826 v 3.528 c 0,1.232 0.7,1.96 1.862,1.96 0.728,0 1.218,-0.224 2.03,-0.924 v 0.91 c 0.602,-0.21 0.938,-0.266 1.848,-0.364 l 0.868,-0.098 z m 4.53599,-5.852 h -1.316 v -2.366 h -0.35 c -0.854,1.204 -1.414,1.834 -2.324,2.604 v 0.378 h 0.728 v 4.536 c 0,0.91 0.602,1.47 1.568,1.47 0.938,0 1.498,-0.42 2.072,-1.568 l -0.35,-0.154 c -0.28,0.532 -0.504,0.728 -0.798,0.728 -0.392,0 -0.546,-0.238 -0.546,-0.798 v -4.214 h 1.316 z"
         id="text3"
         style="font-weight:bold;font-size:14px;font-family:Times, serif"
         aria-label="Group Input" />
      <path
         d="m 241.9484,-177.35599 h -3.57 v 0.252 c 1.092,0.07 1.204,0.182 1.232,1.246 v 2.268 c 0,0.448 -0.84,0.826 -1.862,0.826 -2.282,0 -3.682,-1.596 -3.682,-4.2 0,-1.316 0.392,-2.59 1.008,-3.276 0.602,-0.686 1.484,-1.064 2.436,-1.064 0.784,0 1.484,0.266 2.016,0.77 0.42,0.406 0.644,0.77 0.994,1.624 h 0.322 l -0.112,-2.954 h -0.308 c -0.084,0.28 -0.336,0.462 -0.63,0.462 -0.14,0 -0.364,-0.042 -0.616,-0.14 -0.63,-0.21 -1.288,-0.322 -1.918,-0.322 -2.786,0 -4.788,2.058 -4.788,4.914 0,1.372 0.378,2.422 1.162,3.248 0.924,0.966 2.282,1.498 3.822,1.498 1.218,0 2.954,-0.49 3.514,-0.98 v -2.842 c 0.028,-0.854 0.182,-1.022 0.98,-1.078 z m 5.92201,2.66 c -0.672,1.064 -1.274,1.47 -2.17,1.47 -0.798,0 -1.4,-0.406 -1.806,-1.204 -0.252,-0.532 -0.35,-0.98 -0.378,-1.848 h 4.312 c -0.112,-0.91 -0.252,-1.316 -0.602,-1.764 -0.42,-0.504 -1.064,-0.798 -1.792,-0.798 -0.7,0 -1.358,0.252 -1.89,0.728 -0.658,0.574 -1.036,1.568 -1.036,2.716 0,1.932 1.008,3.136 2.618,3.136 1.33,0 2.38,-0.826 2.968,-2.338 z m -4.326,-2.03 c 0.154,-1.092 0.63,-1.61 1.484,-1.61 0.854,0 1.19,0.392 1.372,1.61 z m 8.33001,-2.114 c -1.834,0 -3.094,1.344 -3.094,3.276 0,1.904 1.302,3.304 3.066,3.304 1.764,0 3.108,-1.47 3.108,-3.416 0,-1.848 -1.288,-3.164 -3.08,-3.164 z m -0.182,0.392 c 1.176,0 2.002,1.344 2.002,3.262 0,1.596 -0.63,2.534 -1.68,2.534 -0.546,0 -1.064,-0.336 -1.358,-0.896 -0.392,-0.728 -0.616,-1.708 -0.616,-2.702 0,-1.33 0.644,-2.198 1.652,-2.198 z m 3.906,6.048 h 3.108 v -0.21 c -0.714,-0.014 -0.938,-0.168 -0.952,-0.728 v -3.948 c 0,-0.028 0.112,-0.168 0.21,-0.266 0.35,-0.322 0.952,-0.56 1.442,-0.56 0.616,0 0.924,0.49 0.924,1.47 v 3.038 c -0.028,0.798 -0.168,0.952 -0.952,0.994 v 0.21 h 3.136 v -0.21 c -0.784,0 -0.98,-0.224 -1.008,-1.12 v -3.528 c 0.42,-0.602 0.868,-0.854 1.526,-0.854 0.798,0 1.05,0.378 1.05,1.54 v 2.954 c -0.028,0.826 -0.112,0.924 -0.924,1.008 v 0.21 h 3.066 v -0.21 l -0.364,-0.028 c -0.448,-0.07 -0.602,-0.28 -0.602,-0.826 v -2.884 c 0,-1.652 -0.546,-2.492 -1.624,-2.492 -0.812,0 -1.526,0.364 -2.282,1.176 -0.252,-0.798 -0.728,-1.176 -1.484,-1.176 -0.63,0 -1.008,0.182 -2.17,1.078 v -1.05 l -0.098,-0.028 c -0.742,0.266 -1.218,0.42 -1.96,0.63 v 0.238 c 0.168,-0.042 0.294,-0.056 0.448,-0.056 0.364,0 0.49,0.224 0.49,0.896 v 3.542 c -0.028,0.784 -0.21,0.98 -0.98,0.98 z m 16.37999,-2.296 c -0.672,1.064 -1.274,1.47 -2.17,1.47 -0.798,0 -1.4,-0.406 -1.806,-1.204 -0.252,-0.532 -0.35,-0.98 -0.378,-1.848 h 4.312 c -0.112,-0.91 -0.252,-1.316 -0.602,-1.764 -0.42,-0.504 -1.064,-0.798 -1.792,-0.798 -0.7,0 -1.358,0.252 -1.89,0.728 -0.658,0.574 -1.036,1.568 -1.036,2.716 0,1.932 1.008,3.136 2.618,3.136 1.33,0 2.38,-0.826 2.968,-2.338 z m -4.326,-2.03 c 0.154,-1.092 0.63,-1.61 1.484,-1.61 0.854,0 1.19,0.392 1.372,1.61 z m 8.274,-1.974 h -1.414 v -1.624 c 0,-0.14 -0.028,-0.182 -0.098,-0.182 -0.812,1.176 -1.232,1.652 -1.638,1.89 -0.154,0.098 -0.238,0.182 -0.238,0.266 0,0.042 0.014,0.07 0.056,0.098 h 0.742 v 4.214 c 0,1.176 0.42,1.778 1.246,1.778 0.686,0 1.218,-0.336 1.68,-1.064 l -0.182,-0.154 c -0.308,0.364 -0.532,0.49 -0.84,0.49 -0.518,0 -0.728,-0.378 -0.728,-1.26 v -4.004 h 1.414 z m 0.54599,6.3 h 3.36 v -0.21 c -0.938,-0.028 -1.162,-0.224 -1.19,-1.05 v -3.15 c 0,-0.448 0.588,-1.148 0.98,-1.148 0.084,0 0.21,0.07 0.364,0.21 0.21,0.21 0.378,0.28 0.56,0.28 0.336,0 0.546,-0.238 0.546,-0.63 0,-0.462 -0.294,-0.742 -0.77,-0.742 -0.588,0 -0.98,0.308 -1.68,1.316 v -1.288 l -0.07,-0.028 c -0.784,0.308 -1.288,0.504 -2.072,0.756 v 0.224 c 0.196,-0.042 0.322,-0.056 0.49,-0.056 0.35,0 0.476,0.224 0.476,0.84 v 3.5 c -0.028,0.728 -0.112,0.812 -0.994,0.966 z m 11.50799,-6.3 h -1.89 v 0.21 c 0.448,0 0.672,0.126 0.672,0.35 0,0.056 -0.014,0.14 -0.056,0.238 l -1.358,3.864 -1.61,-3.542 c -0.084,-0.196 -0.14,-0.392 -0.14,-0.532 0,-0.252 0.21,-0.35 0.812,-0.378 v -0.21 h -2.884 v 0.196 c 0.364,0.056 0.602,0.21 0.714,0.448 l 1.596,3.444 c 0.168,0.378 0.182,0.392 0.252,0.532 0.392,0.7 0.616,1.218 0.616,1.428 0,0.224 -0.322,1.078 -0.56,1.512 -0.21,0.35 -0.504,0.616 -0.7,0.616 -0.084,0 -0.21,-0.028 -0.364,-0.098 -0.252,-0.098 -0.504,-0.154 -0.728,-0.154 -0.336,0 -0.602,0.266 -0.602,0.616 0,0.462 0.434,0.812 1.036,0.812 0.952,0 1.596,-0.77 2.366,-2.8 l 2.156,-5.712 c 0.182,-0.448 0.336,-0.588 0.672,-0.63 z"
         id="text4"
         style="font-size:14px;font-family:Times, serif"
         aria-label="Geometry" />
      <path
         d="m 243.865,-158.66799 h -3.29 v 0.266 c 1.12,0.07 1.302,0.308 1.344,1.792 v 4.718 l -5.39,-6.776 h -2.394 v 0.266 c 0.602,0 0.798,0.112 1.358,0.77 v 6.174 c -0.028,1.484 -0.21,1.722 -1.358,1.792 v 0.266 h 3.29 v -0.266 c -1.078,-0.056 -1.288,-0.35 -1.316,-1.792 v -5.488 l 6.188,7.7 h 0.238 v -7.364 c 0.042,-1.456 0.224,-1.694 1.33,-1.792 z m 3.416,2.828 c -1.834,0 -3.094,1.344 -3.094,3.276 0,1.904 1.302,3.304 3.066,3.304 1.764,0 3.108,-1.47 3.108,-3.416 0,-1.848 -1.288,-3.164 -3.08,-3.164 z m -0.182,0.392 c 1.176,0 2.002,1.344 2.002,3.262 0,1.596 -0.63,2.534 -1.68,2.534 -0.546,0 -1.064,-0.336 -1.358,-0.896 -0.392,-0.728 -0.616,-1.708 -0.616,-2.702 0,-1.33 0.644,-2.198 1.652,-2.198 z m 17.08,-3.22 h -3.29 v 0.266 c 1.12,0.07 1.302,0.308 1.344,1.792 v 4.718 l -5.39,-6.776 h -2.394 v 0.266 c 0.602,0 0.798,0.112 1.358,0.77 v 6.174 c -0.028,1.484 -0.21,1.722 -1.358,1.792 v 0.266 h 3.29 v -0.266 c -1.078,-0.056 -1.288,-0.35 -1.316,-1.792 v -5.488 l 6.188,7.7 h 0.238 v -7.364 c 0.042,-1.456 0.224,-1.694 1.33,-1.792 z m 6.04801,8.344 c -0.238,0.196 -0.406,0.266 -0.616,0.266 -0.322,0 -0.42,-0.196 -0.42,-0.812 v -2.73 c 0,-0.728 -0.07,-1.134 -0.28,-1.47 -0.308,-0.504 -0.91,-0.77 -1.736,-0.77 -1.316,0 -2.352,0.686 -2.352,1.568 0,0.322 0.266,0.602 0.602,0.602 0.336,0 0.63,-0.28 0.63,-0.588 0,-0.056 -0.014,-0.126 -0.028,-0.224 -0.028,-0.126 -0.042,-0.238 -0.042,-0.336 0,-0.378 0.448,-0.686 1.008,-0.686 0.686,0 1.064,0.406 1.064,1.162 v 0.854 c -2.142,0.854 -2.394,0.98 -2.996,1.512 -0.308,0.28 -0.504,0.756 -0.504,1.218 0,0.882 0.616,1.498 1.47,1.498 0.616,0 1.19,-0.294 2.044,-1.022 0.07,0.742 0.322,1.022 0.896,1.022 0.476,0 0.77,-0.168 1.26,-0.7 z m -2.17,-0.798 c 0,0.42 -0.07,0.574 -0.364,0.742 -0.35,0.196 -0.728,0.308 -1.022,0.308 -0.49,0 -0.882,-0.476 -0.882,-1.078 v -0.056 c 0.014,-0.84 0.63,-1.372 2.268,-1.946 z m 2.422,1.722 h 3.108 v -0.21 c -0.714,-0.014 -0.938,-0.168 -0.952,-0.728 v -3.948 c 0,-0.028 0.112,-0.168 0.21,-0.266 0.35,-0.322 0.952,-0.56 1.442,-0.56 0.616,0 0.924,0.49 0.924,1.47 v 3.038 c -0.028,0.798 -0.168,0.952 -0.952,0.994 v 0.21 h 3.136 v -0.21 c -0.784,0 -0.98,-0.224 -1.008,-1.12 v -3.528 c 0.42,-0.602 0.868,-0.854 1.526,-0.854 0.798,0 1.05,0.378 1.05,1.54 v 2.954 c -0.028,0.826 -0.112,0.924 -0.924,1.008 v 0.21 h 3.066 v -0.21 l -0.364,-0.028 c -0.448,-0.07 -0.602,-0.28 -0.602,-0.826 v -2.884 c 0,-1.652 -0.546,-2.492 -1.624,-2.492 -0.812,0 -1.526,0.364 -2.282,1.176 -0.252,-0.798 -0.728,-1.176 -1.484,-1.176 -0.63,0 -1.008,0.182 -2.17,1.078 v -1.05 l -0.098,-0.028 c -0.742,0.266 -1.218,0.42 -1.96,0.63 v 0.238 c 0.168,-0.042 0.294,-0.056 0.448,-0.056 0.364,0 0.49,0.224 0.49,0.896 v 3.542 c -0.028,0.784 -0.21,0.98 -0.98,0.98 z m 16.38,-2.296 c -0.672,1.064 -1.274,1.47 -2.17,1.47 -0.798,0 -1.4,-0.406 -1.806,-1.204 -0.252,-0.532 -0.35,-0.98 -0.378,-1.848 h 4.312 c -0.112,-0.91 -0.252,-1.316 -0.602,-1.764 -0.42,-0.504 -1.064,-0.798 -1.792,-0.798 -0.7,0 -1.358,0.252 -1.89,0.728 -0.658,0.574 -1.036,1.568 -1.036,2.716 0,1.932 1.008,3.136 2.618,3.136 1.33,0 2.38,-0.826 2.968,-2.338 z m -4.326,-2.03 c 0.154,-1.092 0.63,-1.61 1.484,-1.61 0.854,0 1.19,0.392 1.372,1.61 z"
         id="text5"
         style="font-size:14px;font-family:Times, serif"
         aria-label="No Name" />
    </g>
    <!-- 139766616396544 -->
    <g
       id="node2"
       class="node">
      <title
         id="title5">139766616396544</title>
      <path
         id="polygon5"
         style="fill:#ffffff;stroke:#000000"
         d="M 487,-191 H 337 v 126 h 150 z" />
      <path
         d="m 385.1326,-177.04999 v -3.038 h -0.42 c -0.112,0.378 -0.196,0.476 -0.448,0.476 -0.126,0 -0.294,-0.042 -0.588,-0.14 -0.644,-0.238 -1.092,-0.322 -1.638,-0.322 -1.904,0 -3.066,1.078 -3.066,2.856 0,1.218 0.728,2.1 2.394,2.898 l 0.938,0.448 c 1.232,0.588 1.568,0.952 1.568,1.694 0,0.966 -0.686,1.582 -1.764,1.582 -0.826,0 -1.512,-0.35 -2.044,-1.036 -0.378,-0.518 -0.574,-0.98 -0.812,-1.96 h -0.406 v 3.458 h 0.406 c 0.084,-0.364 0.196,-0.476 0.42,-0.476 0.112,0 0.266,0.042 0.574,0.14 0.686,0.238 1.204,0.336 1.82,0.336 2.072,0 3.472,-1.19 3.472,-2.954 0,-1.05 -0.63,-2.1 -1.54,-2.548 l -2.058,-1.022 c -1.134,-0.56 -1.442,-0.91 -1.442,-1.582 0,-0.868 0.588,-1.4 1.54,-1.4 0.63,0 1.218,0.266 1.722,0.784 0.476,0.49 0.7,0.896 0.98,1.806 z m 6.63599,4.9 c -0.574,0.686 -0.994,0.938 -1.596,0.938 -0.546,0 -0.952,-0.252 -1.246,-0.742 -0.252,-0.448 -0.364,-0.91 -0.42,-1.876 h 3.528 c -0.084,-1.176 -0.294,-1.834 -0.742,-2.366 -0.448,-0.546 -1.106,-0.826 -1.89,-0.826 -1.736,0 -2.912,1.386 -2.912,3.43 0,2.044 1.148,3.388 2.884,3.388 1.134,0 1.82,-0.434 2.73,-1.75 z m -3.332,-2.198 c 0.042,-1.68 0.294,-2.24 0.98,-2.24 0.658,0 0.868,0.476 0.896,2.03 v 0.21 z m 8.05,-2.506 h -1.316 v -2.366 h -0.35 c -0.854,1.204 -1.414,1.834 -2.324,2.604 v 0.378 h 0.728 v 4.536 c 0,0.91 0.602,1.47 1.568,1.47 0.938,0 1.498,-0.42 2.072,-1.568 l -0.35,-0.154 c -0.28,0.532 -0.504,0.728 -0.798,0.728 -0.392,0 -0.546,-0.238 -0.546,-0.798 v -4.214 h 1.316 z m 4.11601,6.454 h 4.676 v -0.35 c -1.092,-0.126 -1.204,-0.252 -1.232,-1.288 v -2.604 c 1.89,-0.014 2.366,-0.07 2.982,-0.308 1.134,-0.434 1.75,-1.274 1.75,-2.366 0,-1.624 -1.33,-2.548 -3.668,-2.548 h -4.508 v 0.35 c 0.952,0.07 1.148,0.28 1.176,1.288 v 6.188 c -0.014,0.868 -0.21,1.176 -0.84,1.232 -0.042,0 -0.182,0.028 -0.336,0.056 z m 3.444,-8.484 c 0,-0.322 0.238,-0.49 0.7,-0.49 1.162,0 1.624,0.616 1.624,2.128 0,0.882 -0.168,1.414 -0.532,1.736 -0.336,0.28 -0.798,0.378 -1.792,0.378 z m 7.99401,1.862 c -1.792,0 -3.164,1.47 -3.164,3.374 0,2.002 1.316,3.444 3.164,3.444 1.82,0 3.15,-1.442 3.15,-3.402 0,-1.974 -1.344,-3.416 -3.15,-3.416 z m 0.014,0.434 c 0.812,0 1.078,0.77 1.078,3.066 0,2.156 -0.28,2.884 -1.092,2.884 -0.826,0 -1.106,-0.714 -1.106,-2.772 0,-2.45 0.252,-3.178 1.12,-3.178 z m 8.232,1.624 v -2.03 h -0.308 c -0.084,0.21 -0.168,0.28 -0.35,0.28 -0.084,0 -0.21,-0.028 -0.434,-0.098 -0.448,-0.154 -0.77,-0.21 -1.092,-0.21 -1.274,0 -2.198,0.868 -2.198,2.044 0,0.924 0.574,1.568 1.988,2.17 0.966,0.42 1.344,0.77 1.344,1.218 0,0.546 -0.42,0.91 -1.05,0.91 -0.98,0 -1.624,-0.63 -1.918,-1.848 h -0.392 v 2.31 h 0.35 c 0.154,-0.308 0.238,-0.392 0.364,-0.392 0.07,0 0.182,0.028 0.322,0.084 0.406,0.168 1.106,0.322 1.512,0.322 1.274,0 2.156,-0.868 2.156,-2.128 0,-0.994 -0.532,-1.596 -1.932,-2.184 -0.952,-0.406 -1.344,-0.756 -1.344,-1.232 0,-0.462 0.392,-0.812 0.924,-0.812 0.378,0 0.742,0.154 1.05,0.448 0.294,0.28 0.448,0.532 0.658,1.148 z m 4.256,4.228 c -0.476,-0.056 -0.658,-0.266 -0.658,-0.798 v -5.32 h -2.688 v 0.336 c 0.616,0.112 0.728,0.238 0.742,0.826 v 4.116 c -0.014,0.588 -0.112,0.7 -0.742,0.84 v 0.336 h 3.346 z m -1.638,-9.338 c -0.602,0 -1.092,0.49 -1.092,1.078 0,0.63 0.462,1.092 1.078,1.092 0.616,0 1.092,-0.462 1.092,-1.078 0,-0.616 -0.476,-1.092 -1.078,-1.092 z m 6.22999,3.22 h -1.316 v -2.366 h -0.35 c -0.854,1.204 -1.414,1.834 -2.324,2.604 v 0.378 h 0.728 v 4.536 c 0,0.91 0.602,1.47 1.568,1.47 0.938,0 1.498,-0.42 2.072,-1.568 l -0.35,-0.154 c -0.28,0.532 -0.504,0.728 -0.798,0.728 -0.392,0 -0.546,-0.238 -0.546,-0.798 v -4.214 h 1.316 z m 3.99002,6.118 c -0.476,-0.056 -0.658,-0.266 -0.658,-0.798 v -5.32 h -2.688 v 0.336 c 0.616,0.112 0.728,0.238 0.742,0.826 v 4.116 c -0.014,0.588 -0.112,0.7 -0.742,0.84 v 0.336 h 3.346 z m -1.638,-9.338 c -0.602,0 -1.092,0.49 -1.092,1.078 0,0.63 0.462,1.092 1.078,1.092 0.616,0 1.092,-0.462 1.092,-1.078 0,-0.616 -0.476,-1.092 -1.078,-1.092 z m 5.474,3.052 c -1.792,0 -3.164,1.47 -3.164,3.374 0,2.002 1.316,3.444 3.164,3.444 1.82,0 3.15,-1.442 3.15,-3.402 0,-1.974 -1.344,-3.416 -3.15,-3.416 z m 0.014,0.434 c 0.812,0 1.078,0.77 1.078,3.066 0,2.156 -0.28,2.884 -1.092,2.884 -0.826,0 -1.106,-0.714 -1.106,-2.772 0,-2.45 0.252,-3.178 1.12,-3.178 z m 11.018,5.852 c -0.518,-0.028 -0.7,-0.238 -0.686,-0.798 v -3.514 c 0,-1.204 -0.742,-1.974 -1.89,-1.974 -0.84,0 -1.484,0.392 -2.002,1.218 v -1.05 h -2.674 v 0.336 c 0.616,0.098 0.728,0.224 0.742,0.826 v 4.116 c -0.014,0.602 -0.126,0.728 -0.742,0.84 v 0.336 h 3.374 v -0.336 c -0.504,-0.056 -0.686,-0.28 -0.686,-0.798 v -3.738 c 0,-0.042 0.098,-0.196 0.238,-0.336 0.308,-0.308 0.644,-0.476 0.966,-0.476 0.49,0 0.728,0.378 0.728,1.162 v 3.388 c -0.014,0.532 -0.196,0.756 -0.658,0.798 v 0.336 h 3.29 z"
         id="text6"
         style="font-weight:bold;font-size:14px;font-family:Times, serif"
         aria-label="Set Position" />
      <path
         d="m 359.4372,-151.35599 h -3.57 v 0.252 c 1.092,0.07 1.204,0.182 1.232,1.246 v 2.268 c 0,0.448 -0.84,0.826 -1.862,0.826 -2.282,0 -3.682,-1.596 -3.682,-4.2 0,-1.316 0.392,-2.59 1.008,-3.276 0.602,-0.686 1.484,-1.064 2.436,-1.064 0.784,0 1.484,0.266 2.016,0.77 0.42,0.406 0.644,0.77 0.994,1.624 h 0.322 l -0.112,-2.954 h -0.308 c -0.084,0.28 -0.336,0.462 -0.63,0.462 -0.14,0 -0.364,-0.042 -0.616,-0.14 -0.63,-0.21 -1.288,-0.322 -1.918,-0.322 -2.786,0 -4.788,2.058 -4.788,4.914 0,1.372 0.378,2.422 1.162,3.248 0.924,0.966 2.282,1.498 3.822,1.498 1.218,0 2.954,-0.49 3.514,-0.98 v -2.842 c 0.028,-0.854 0.182,-1.022 0.98,-1.078 z m 5.92201,2.66 c -0.672,1.064 -1.274,1.47 -2.17,1.47 -0.798,0 -1.4,-0.406 -1.806,-1.204 -0.252,-0.532 -0.35,-0.98 -0.378,-1.848 h 4.312 c -0.112,-0.91 -0.252,-1.316 -0.602,-1.764 -0.42,-0.504 -1.064,-0.798 -1.792,-0.798 -0.7,0 -1.358,0.252 -1.89,0.728 -0.658,0.574 -1.036,1.568 -1.036,2.716 0,1.932 1.008,3.136 2.618,3.136 1.33,0 2.38,-0.826 2.968,-2.338 z m -4.326,-2.03 c 0.154,-1.092 0.63,-1.61 1.484,-1.61 0.854,0 1.19,0.392 1.372,1.61 z m 8.33001,-2.114 c -1.834,0 -3.094,1.344 -3.094,3.276 0,1.904 1.302,3.304 3.066,3.304 1.764,0 3.108,-1.47 3.108,-3.416 0,-1.848 -1.288,-3.164 -3.08,-3.164 z m -0.182,0.392 c 1.176,0 2.002,1.344 2.002,3.262 0,1.596 -0.63,2.534 -1.68,2.534 -0.546,0 -1.064,-0.336 -1.358,-0.896 -0.392,-0.728 -0.616,-1.708 -0.616,-2.702 0,-1.33 0.644,-2.198 1.652,-2.198 z m 3.906,6.048 h 3.108 v -0.21 c -0.714,-0.014 -0.938,-0.168 -0.952,-0.728 v -3.948 c 0,-0.028 0.112,-0.168 0.21,-0.266 0.35,-0.322 0.952,-0.56 1.442,-0.56 0.616,0 0.924,0.49 0.924,1.47 v 3.038 c -0.028,0.798 -0.168,0.952 -0.952,0.994 v 0.21 h 3.136 v -0.21 c -0.784,0 -0.98,-0.224 -1.008,-1.12 v -3.528 c 0.42,-0.602 0.868,-0.854 1.526,-0.854 0.798,0 1.05,0.378 1.05,1.54 v 2.954 c -0.028,0.826 -0.112,0.924 -0.924,1.008 v 0.21 h 3.066 v -0.21 l -0.364,-0.028 c -0.448,-0.07 -0.602,-0.28 -0.602,-0.826 v -2.884 c 0,-1.652 -0.546,-2.492 -1.624,-2.492 -0.812,0 -1.526,0.364 -2.282,1.176 -0.252,-0.798 -0.728,-1.176 -1.484,-1.176 -0.63,0 -1.008,0.182 -2.17,1.078 v -1.05 l -0.098,-0.028 c -0.742,0.266 -1.218,0.42 -1.96,0.63 v 0.238 c 0.168,-0.042 0.294,-0.056 0.448,-0.056 0.364,0 0.49,0.224 0.49,0.896 v 3.542 c -0.028,0.784 -0.21,0.98 -0.98,0.98 z m 16.37999,-2.296 c -0.672,1.064 -1.274,1.47 -2.17,1.47 -0.798,0 -1.4,-0.406 -1.806,-1.204 -0.252,-0.532 -0.35,-0.98 -0.378,-1.848 h 4.312 c -0.112,-0.91 -0.252,-1.316 -0.602,-1.764 -0.42,-0.504 -1.064,-0.798 -1.792,-0.798 -0.7,0 -1.358,0.252 -1.89,0.728 -0.658,0.574 -1.036,1.568 -1.036,2.716 0,1.932 1.008,3.136 2.618,3.136 1.33,0 2.38,-0.826 2.968,-2.338 z m -4.326,-2.03 c 0.154,-1.092 0.63,-1.61 1.484,-1.61 0.854,0 1.19,0.392 1.372,1.61 z m 8.274,-1.974 h -1.414 v -1.624 c 0,-0.14 -0.028,-0.182 -0.098,-0.182 -0.812,1.176 -1.232,1.652 -1.638,1.89 -0.154,0.098 -0.238,0.182 -0.238,0.266 0,0.042 0.014,0.07 0.056,0.098 h 0.742 v 4.214 c 0,1.176 0.42,1.778 1.246,1.778 0.686,0 1.218,-0.336 1.68,-1.064 l -0.182,-0.154 c -0.308,0.364 -0.532,0.49 -0.84,0.49 -0.518,0 -0.728,-0.378 -0.728,-1.26 v -4.004 h 1.414 z m 0.54599,6.3 h 3.36 v -0.21 c -0.938,-0.028 -1.162,-0.224 -1.19,-1.05 v -3.15 c 0,-0.448 0.588,-1.148 0.98,-1.148 0.084,0 0.21,0.07 0.364,0.21 0.21,0.21 0.378,0.28 0.56,0.28 0.336,0 0.546,-0.238 0.546,-0.63 0,-0.462 -0.294,-0.742 -0.77,-0.742 -0.588,0 -0.98,0.308 -1.68,1.316 v -1.288 l -0.07,-0.028 c -0.784,0.308 -1.288,0.504 -2.072,0.756 v 0.224 c 0.196,-0.042 0.322,-0.056 0.49,-0.056 0.35,0 0.476,0.224 0.476,0.84 v 3.5 c -0.028,0.728 -0.112,0.812 -0.994,0.966 z m 11.50799,-6.3 h -1.89 v 0.21 c 0.448,0 0.672,0.126 0.672,0.35 0,0.056 -0.014,0.14 -0.056,0.238 l -1.358,3.864 -1.61,-3.542 c -0.084,-0.196 -0.14,-0.392 -0.14,-0.532 0,-0.252 0.21,-0.35 0.812,-0.378 v -0.21 h -2.884 v 0.196 c 0.364,0.056 0.602,0.21 0.714,0.448 l 1.596,3.444 c 0.168,0.378 0.182,0.392 0.252,0.532 0.392,0.7 0.616,1.218 0.616,1.428 0,0.224 -0.322,1.078 -0.56,1.512 -0.21,0.35 -0.504,0.616 -0.7,0.616 -0.084,0 -0.21,-0.028 -0.364,-0.098 -0.252,-0.098 -0.504,-0.154 -0.728,-0.154 -0.336,0 -0.602,0.266 -0.602,0.616 0,0.462 0.434,0.812 1.036,0.812 0.952,0 1.596,-0.77 2.366,-2.8 l 2.156,-5.712 c 0.182,-0.448 0.336,-0.588 0.672,-0.63 z"
         id="text7"
         style="font-size:14px;font-family:Times, serif"
         aria-label="Geometry" />
      <path
         d="m 428.4372,-151.35599 h -3.57 v 0.252 c 1.092,0.07 1.204,0.182 1.232,1.246 v 2.268 c 0,0.448 -0.84,0.826 -1.862,0.826 -2.282,0 -3.682,-1.596 -3.682,-4.2 0,-1.316 0.392,-2.59 1.008,-3.276 0.602,-0.686 1.484,-1.064 2.436,-1.064 0.784,0 1.484,0.266 2.016,0.77 0.42,0.406 0.644,0.77 0.994,1.624 h 0.322 l -0.112,-2.954 h -0.308 c -0.084,0.28 -0.336,0.462 -0.63,0.462 -0.14,0 -0.364,-0.042 -0.616,-0.14 -0.63,-0.21 -1.288,-0.322 -1.918,-0.322 -2.786,0 -4.788,2.058 -4.788,4.914 0,1.372 0.378,2.422 1.162,3.248 0.924,0.966 2.282,1.498 3.822,1.498 1.218,0 2.954,-0.49 3.514,-0.98 v -2.842 c 0.028,-0.854 0.182,-1.022 0.98,-1.078 z m 5.92201,2.66 c -0.672,1.064 -1.274,1.47 -2.17,1.47 -0.798,0 -1.4,-0.406 -1.806,-1.204 -0.252,-0.532 -0.35,-0.98 -0.378,-1.848 h 4.312 c -0.112,-0.91 -0.252,-1.316 -0.602,-1.764 -0.42,-0.504 -1.064,-0.798 -1.792,-0.798 -0.7,0 -1.358,0.252 -1.89,0.728 -0.658,0.574 -1.036,1.568 -1.036,2.716 0,1.932 1.008,3.136 2.618,3.136 1.33,0 2.38,-0.826 2.968,-2.338 z m -4.326,-2.03 c 0.154,-1.092 0.63,-1.61 1.484,-1.61 0.854,0 1.19,0.392 1.372,1.61 z m 8.33001,-2.114 c -1.834,0 -3.094,1.344 -3.094,3.276 0,1.904 1.302,3.304 3.066,3.304 1.764,0 3.108,-1.47 3.108,-3.416 0,-1.848 -1.288,-3.164 -3.08,-3.164 z m -0.182,0.392 c 1.176,0 2.002,1.344 2.002,3.262 0,1.596 -0.63,2.534 -1.68,2.534 -0.546,0 -1.064,-0.336 -1.358,-0.896 -0.392,-0.728 -0.616,-1.708 -0.616,-2.702 0,-1.33 0.644,-2.198 1.652,-2.198 z m 3.906,6.048 h 3.108 v -0.21 c -0.714,-0.014 -0.938,-0.168 -0.952,-0.728 v -3.948 c 0,-0.028 0.112,-0.168 0.21,-0.266 0.35,-0.322 0.952,-0.56 1.442,-0.56 0.616,0 0.924,0.49 0.924,1.47 v 3.038 c -0.028,0.798 -0.168,0.952 -0.952,0.994 v 0.21 h 3.136 v -0.21 c -0.784,0 -0.98,-0.224 -1.008,-1.12 v -3.528 c 0.42,-0.602 0.868,-0.854 1.526,-0.854 0.798,0 1.05,0.378 1.05,1.54 v 2.954 c -0.028,0.826 -0.112,0.924 -0.924,1.008 v 0.21 h 3.066 v -0.21 l -0.364,-0.028 c -0.448,-0.07 -0.602,-0.28 -0.602,-0.826 v -2.884 c 0,-1.652 -0.546,-2.492 -1.624,-2.492 -0.812,0 -1.526,0.364 -2.282,1.176 -0.252,-0.798 -0.728,-1.176 -1.484,-1.176 -0.63,0 -1.008,0.182 -2.17,1.078 v -1.05 l -0.098,-0.028 c -0.742,0.266 -1.218,0.42 -1.96,0.63 v 0.238 c 0.168,-0.042 0.294,-0.056 0.448,-0.056 0.364,0 0.49,0.224 0.49,0.896 v 3.542 c -0.028,0.784 -0.21,0.98 -0.98,0.98 z m 16.37999,-2.296 c -0.672,1.064 -1.274,1.47 -2.17,1.47 -0.798,0 -1.4,-0.406 -1.806,-1.204 -0.252,-0.532 -0.35,-0.98 -0.378,-1.848 h 4.312 c -0.112,-0.91 -0.252,-1.316 -0.602,-1.764 -0.42,-0.504 -1.064,-0.798 -1.792,-0.798 -0.7,0 -1.358,0.252 -1.89,0.728 -0.658,0.574 -1.036,1.568 -1.036,2.716 0,1.932 1.008,3.136 2.618,3.136 1.33,0 2.38,-0.826 2.968,-2.338 z m -4.326,-2.03 c 0.154,-1.092 0.63,-1.61 1.484,-1.61 0.854,0 1.19,0.392 1.372,1.61 z m 8.274,-1.974 h -1.414 v -1.624 c 0,-0.14 -0.028,-0.182 -0.098,-0.182 -0.812,1.176 -1.232,1.652 -1.638,1.89 -0.154,0.098 -0.238,0.182 -0.238,0.266 0,0.042 0.014,0.07 0.056,0.098 h 0.742 v 4.214 c 0,1.176 0.42,1.778 1.246,1.778 0.686,0 1.218,-0.336 1.68,-1.064 l -0.182,-0.154 c -0.308,0.364 -0.532,0.49 -0.84,0.49 -0.518,0 -0.728,-0.378 -0.728,-1.26 v -4.004 h 1.414 z m 0.54599,6.3 h 3.36 v -0.21 c -0.938,-0.028 -1.162,-0.224 -1.19,-1.05 v -3.15 c 0,-0.448 0.588,-1.148 0.98,-1.148 0.084,0 0.21,0.07 0.364,0.21 0.21,0.21 0.378,0.28 0.56,0.28 0.336,0 0.546,-0.238 0.546,-0.63 0,-0.462 -0.294,-0.742 -0.77,-0.742 -0.588,0 -0.98,0.308 -1.68,1.316 v -1.288 l -0.07,-0.028 c -0.784,0.308 -1.288,0.504 -2.072,0.756 v 0.224 c 0.196,-0.042 0.322,-0.056 0.49,-0.056 0.35,0 0.476,0.224 0.476,0.84 v 3.5 c -0.028,0.728 -0.112,0.812 -0.994,0.966 z m 11.50799,-6.3 h -1.89 v 0.21 c 0.448,0 0.672,0.126 0.672,0.35 0,0.056 -0.014,0.14 -0.056,0.238 l -1.358,3.864 -1.61,-3.542 c -0.084,-0.196 -0.14,-0.392 -0.14,-0.532 0,-0.252 0.21,-0.35 0.812,-0.378 v -0.21 h -2.884 v 0.196 c 0.364,0.056 0.602,0.21 0.714,0.448 l 1.596,3.444 c 0.168,0.378 0.182,0.392 0.252,0.532 0.392,0.7 0.616,1.218 0.616,1.428 0,0.224 -0.322,1.078 -0.56,1.512 -0.21,0.35 -0.504,0.616 -0.7,0.616 -0.084,0 -0.21,-0.028 -0.364,-0.098 -0.252,-0.098 -0.504,-0.154 -0.728,-0.154 -0.336,0 -0.602,0.266 -0.602,0.616 0,0.462 0.434,0.812 1.036,0.812 0.952,0 1.596,-0.77 2.366,-2.8 l 2.156,-5.712 c 0.182,-0.448 0.336,-0.588 0.672,-0.63 z"
         id="text8"
         style="font-size:14px;font-family:Times, serif"
         aria-label="Geometry" />
      <path
         d="m 356.258,-132.864 h -0.294 c -0.056,0.308 -0.21,0.476 -0.448,0.476 -0.14,0 -0.378,-0.056 -0.616,-0.168 -0.518,-0.196 -1.036,-0.308 -1.498,-0.308 -0.588,0 -1.204,0.238 -1.666,0.644 -0.49,0.434 -0.742,1.022 -0.742,1.75 0,1.12 0.616,1.904 2.184,2.73 1.008,0.546 1.736,1.106 2.086,1.638 0.126,0.182 0.196,0.476 0.196,0.826 0,0.924 -0.7,1.568 -1.722,1.568 -1.26,0 -2.128,-0.77 -2.828,-2.478 h -0.322 l 0.42,2.968 h 0.308 c 0.014,-0.266 0.182,-0.462 0.392,-0.462 0.154,0 0.392,0.056 0.658,0.154 0.532,0.21 1.106,0.322 1.652,0.322 1.624,0 2.856,-1.106 2.856,-2.562 0,-1.148 -0.77,-2.044 -2.618,-3.052 -1.47,-0.798 -2.058,-1.414 -2.058,-2.184 0,-0.77 0.588,-1.288 1.456,-1.288 0.63,0 1.218,0.266 1.708,0.77 0.434,0.448 0.63,0.812 0.854,1.638 h 0.35 z m 7.09799,7.168 c -0.672,1.064 -1.274,1.47 -2.17,1.47 -0.798,0 -1.4,-0.406 -1.806,-1.204 -0.252,-0.532 -0.35,-0.98 -0.378,-1.848 h 4.312 c -0.112,-0.91 -0.252,-1.316 -0.602,-1.764 -0.42,-0.504 -1.064,-0.798 -1.792,-0.798 -0.7,0 -1.358,0.252 -1.89,0.728 -0.658,0.574 -1.036,1.568 -1.036,2.716 0,1.932 1.008,3.136 2.618,3.136 1.33,0 2.38,-0.826 2.968,-2.338 z m -4.326,-2.03 c 0.154,-1.092 0.63,-1.61 1.484,-1.61 0.854,0 1.19,0.392 1.372,1.61 z m 4.81602,4.326 h 3.304 v -0.21 c -0.882,-0.042 -1.036,-0.182 -1.05,-0.966 v -8.358 l -0.056,-0.028 c -0.714,0.224 -1.232,0.378 -2.226,0.616 v 0.224 h 0.084 c 0.154,-0.014 0.322,-0.028 0.434,-0.028 0.448,0 0.588,0.196 0.588,0.854 v 6.678 c -0.014,0.756 -0.21,0.952 -1.078,1.008 z m 9.30999,-2.296 c -0.672,1.064 -1.274,1.47 -2.17,1.47 -0.798,0 -1.4,-0.406 -1.806,-1.204 -0.252,-0.532 -0.35,-0.98 -0.378,-1.848 h 4.312 c -0.112,-0.91 -0.252,-1.316 -0.602,-1.764 -0.42,-0.504 -1.064,-0.798 -1.792,-0.798 -0.7,0 -1.358,0.252 -1.89,0.728 -0.658,0.574 -1.036,1.568 -1.036,2.716 0,1.932 1.008,3.136 2.618,3.136 1.33,0 2.38,-0.826 2.968,-2.338 z m -4.326,-2.03 c 0.154,-1.092 0.63,-1.61 1.484,-1.61 0.854,0 1.19,0.392 1.372,1.61 z m 10.40201,2.142 c -0.672,0.98 -1.176,1.316 -1.974,1.316 -1.288,0 -2.17,-1.12 -2.17,-2.73 0,-1.456 0.77,-2.436 1.904,-2.436 0.504,0 0.686,0.14 0.826,0.672 l 0.084,0.308 c 0.112,0.406 0.364,0.644 0.672,0.644 0.364,0 0.658,-0.266 0.658,-0.588 0,-0.784 -0.98,-1.442 -2.156,-1.442 -0.686,0 -1.4,0.28 -1.974,0.784 -0.7,0.616 -1.092,1.568 -1.092,2.688 0,1.806 1.106,3.108 2.66,3.108 0.63,0 1.19,-0.224 1.694,-0.658 0.378,-0.322 0.644,-0.714 1.064,-1.54 z m 4.018,-4.116 h -1.414 v -1.624 c 0,-0.14 -0.028,-0.182 -0.098,-0.182 -0.812,1.176 -1.232,1.652 -1.638,1.89 -0.154,0.098 -0.238,0.182 -0.238,0.266 0,0.042 0.014,0.07 0.056,0.098 h 0.742 v 4.214 c 0,1.176 0.42,1.778 1.246,1.778 0.686,0 1.218,-0.336 1.68,-1.064 l -0.182,-0.154 c -0.308,0.364 -0.532,0.49 -0.84,0.49 -0.518,0 -0.728,-0.378 -0.728,-1.26 v -4.004 h 1.414 z m 0.63001,6.3 h 3.318 v -0.21 c -0.924,-0.07 -1.022,-0.196 -1.036,-1.218 v -4.97 l -0.056,-0.042 -2.17,0.77 v 0.21 l 0.112,-0.014 c 0.168,-0.028 0.336,-0.042 0.476,-0.042 0.336,0 0.462,0.224 0.462,0.84 v 3.248 c -0.028,1.036 -0.154,1.176 -1.106,1.218 z m 1.568,-9.562 c -0.378,0 -0.7,0.322 -0.7,0.714 0,0.406 0.308,0.714 0.7,0.714 0.42,0 0.728,-0.308 0.728,-0.714 0,-0.406 -0.322,-0.714 -0.728,-0.714 z m 5.6,3.122 c -1.834,0 -3.094,1.344 -3.094,3.276 0,1.904 1.302,3.304 3.066,3.304 1.764,0 3.108,-1.47 3.108,-3.416 0,-1.848 -1.288,-3.164 -3.08,-3.164 z m -0.182,0.392 c 1.176,0 2.002,1.344 2.002,3.262 0,1.596 -0.63,2.534 -1.68,2.534 -0.546,0 -1.064,-0.336 -1.358,-0.896 -0.392,-0.728 -0.616,-1.708 -0.616,-2.702 0,-1.33 0.644,-2.198 1.652,-2.198 z m 3.934,6.048 h 2.968 v -0.21 c -0.7,-0.042 -0.924,-0.224 -0.924,-0.728 v -3.934 c 0.672,-0.63 0.98,-0.798 1.442,-0.798 0.686,0 1.022,0.434 1.022,1.358 v 2.926 c -0.028,0.91 -0.196,1.134 -0.882,1.176 v 0.21 h 2.912 v -0.21 c -0.686,-0.07 -0.84,-0.238 -0.854,-0.924 v -3.206 c 0,-1.316 -0.616,-2.1 -1.652,-2.1 -0.644,0 -1.078,0.238 -2.03,1.134 v -1.106 l -0.098,-0.028 c -0.728,0.266 -1.204,0.42 -1.932,0.63 v 0.238 c 0.098,-0.042 0.224,-0.056 0.378,-0.056 0.392,0 0.518,0.21 0.518,0.896 v 3.472 c -0.014,0.826 -0.168,1.008 -0.868,1.05 z"
         id="text9"
         style="font-size:14px;font-family:Times, serif"
         aria-label="Selection" />
      <path
         d="m 350.224,-109.402 c 1.036,0.112 1.162,0.238 1.176,1.26 v 6.062 c -0.014,1.19 -0.112,1.316 -1.176,1.414 v 0.266 h 3.92 v -0.266 c -1.106,-0.028 -1.302,-0.224 -1.316,-1.26 v -2.548 c 0.364,0.028 0.602,0.042 0.966,0.042 1.106,0 1.848,-0.14 2.45,-0.476 0.84,-0.448 1.344,-1.302 1.344,-2.226 0,-0.588 -0.196,-1.12 -0.574,-1.526 -0.56,-0.616 -1.778,-1.008 -3.094,-1.008 h -3.696 z m 2.604,0.728 c 0,-0.378 0.098,-0.476 0.476,-0.476 1.89,0 2.758,0.658 2.758,2.1 0,1.358 -0.826,2.058 -2.436,2.058 -0.28,0 -0.476,-0.014 -0.798,-0.042 z m 8.09201,1.834 c -1.834,0 -3.094,1.344 -3.094,3.276 0,1.904 1.302,3.304 3.066,3.304 1.764,0 3.108,-1.47 3.108,-3.416 0,-1.848 -1.288,-3.164 -3.08,-3.164 z m -0.182,0.392 c 1.176,0 2.002,1.344 2.002,3.262 0,1.596 -0.63,2.534 -1.68,2.534 -0.546,0 -1.064,-0.336 -1.358,-0.896 -0.392,-0.728 -0.616,-1.708 -0.616,-2.702 0,-1.33 0.644,-2.198 1.652,-2.198 z m 8.092,1.652 -0.056,-1.918 h -0.154 c -0.07,0.112 -0.14,0.154 -0.224,0.154 -0.084,0 -0.224,-0.028 -0.378,-0.098 -0.322,-0.112 -0.644,-0.182 -0.98,-0.182 -1.106,0 -1.904,0.728 -1.904,1.736 0,0.784 0.448,1.344 1.638,2.016 l 0.812,0.462 c 0.49,0.28 0.728,0.616 0.728,1.05 0,0.616 -0.448,1.008 -1.162,1.008 -0.966,0 -1.456,-0.532 -1.778,-1.96 h -0.224 v 2.184 h 0.182 c 0.098,-0.14 0.154,-0.168 0.322,-0.168 0.154,0 0.322,0.028 0.644,0.112 0.378,0.084 0.742,0.14 1.022,0.14 1.092,0 1.974,-0.812 1.974,-1.792 0,-0.7 -0.336,-1.162 -1.176,-1.666 l -1.512,-0.896 c -0.392,-0.238 -0.602,-0.574 -0.602,-0.952 0,-0.574 0.434,-0.952 1.078,-0.952 0.798,0 1.218,0.462 1.54,1.722 z m 1.26,4.396 h 3.318 v -0.21 c -0.924,-0.07 -1.022,-0.196 -1.036,-1.218 v -4.97 l -0.056,-0.042 -2.17,0.77 v 0.21 l 0.112,-0.014 c 0.168,-0.028 0.336,-0.042 0.476,-0.042 0.336,0 0.462,0.224 0.462,0.84 v 3.248 c -0.028,1.036 -0.154,1.176 -1.106,1.218 z m 1.568,-9.562 c -0.378,0 -0.7,0.322 -0.7,0.714 0,0.406 0.308,0.714 0.7,0.714 0.42,0 0.728,-0.308 0.728,-0.714 0,-0.406 -0.322,-0.714 -0.728,-0.714 z m 5.67,3.262 h -1.414 v -1.624 c 0,-0.14 -0.028,-0.182 -0.098,-0.182 -0.812,1.176 -1.232,1.652 -1.638,1.89 -0.154,0.098 -0.238,0.182 -0.238,0.266 0,0.042 0.014,0.07 0.056,0.098 h 0.742 v 4.214 c 0,1.176 0.42,1.778 1.246,1.778 0.686,0 1.218,-0.336 1.68,-1.064 l -0.182,-0.154 c -0.308,0.364 -0.532,0.49 -0.84,0.49 -0.518,0 -0.728,-0.378 -0.728,-1.26 v -4.004 h 1.414 z m 0.63,6.3 h 3.318 v -0.21 c -0.924,-0.07 -1.022,-0.196 -1.036,-1.218 v -4.97 l -0.056,-0.042 -2.17,0.77 v 0.21 l 0.112,-0.014 c 0.168,-0.028 0.336,-0.042 0.476,-0.042 0.336,0 0.462,0.224 0.462,0.84 v 3.248 c -0.028,1.036 -0.154,1.176 -1.106,1.218 z m 1.568,-9.562 c -0.378,0 -0.7,0.322 -0.7,0.714 0,0.406 0.308,0.714 0.7,0.714 0.42,0 0.728,-0.308 0.728,-0.714 0,-0.406 -0.322,-0.714 -0.728,-0.714 z m 5.6,3.122 c -1.834,0 -3.094,1.344 -3.094,3.276 0,1.904 1.302,3.304 3.066,3.304 1.764,0 3.108,-1.47 3.108,-3.416 0,-1.848 -1.288,-3.164 -3.08,-3.164 z m -0.182,0.392 c 1.176,0 2.002,1.344 2.002,3.262 0,1.596 -0.63,2.534 -1.68,2.534 -0.546,0 -1.064,-0.336 -1.358,-0.896 -0.392,-0.728 -0.616,-1.708 -0.616,-2.702 0,-1.33 0.644,-2.198 1.652,-2.198 z m 3.934,6.048 h 2.968 v -0.21 c -0.7,-0.042 -0.924,-0.224 -0.924,-0.728 v -3.934 c 0.672,-0.63 0.98,-0.798 1.442,-0.798 0.686,0 1.022,0.434 1.022,1.358 v 2.926 c -0.028,0.91 -0.196,1.134 -0.882,1.176 v 0.21 h 2.912 v -0.21 c -0.686,-0.07 -0.84,-0.238 -0.854,-0.924 v -3.206 c 0,-1.316 -0.616,-2.1 -1.652,-2.1 -0.644,0 -1.078,0.238 -2.03,1.134 v -1.106 l -0.098,-0.028 c -0.728,0.266 -1.204,0.42 -1.932,0.63 v 0.238 c 0.098,-0.042 0.224,-0.056 0.378,-0.056 0.392,0 0.518,0.21 0.518,0.896 v 3.472 c -0.014,0.826 -0.168,1.008 -0.868,1.05 z"
         id="text10"
         style="font-size:14px;font-family:Times, serif"
         aria-label="Position" />
      <path
         d="m 355.054,-86.864002 c -2.674,0 -4.578,2.002 -4.578,4.83 0,1.316 0.448,2.604 1.204,3.402 0.812,0.882 2.058,1.428 3.29,1.428 2.758,0 4.662,-1.946 4.662,-4.774 0,-1.386 -0.406,-2.59 -1.176,-3.416 -0.882,-0.966 -2.058,-1.47 -3.402,-1.47 z m 0,0.504 c 0.644,0 1.288,0.252 1.792,0.7 0.756,0.686 1.19,2.002 1.19,3.668 0,0.826 -0.168,1.792 -0.462,2.52 -0.126,0.35 -0.364,0.7 -0.686,1.022 -0.49,0.49 -1.12,0.742 -1.862,0.742 -0.644,0 -1.274,-0.252 -1.778,-0.686 -0.714,-0.644 -1.176,-2.058 -1.176,-3.612 0,-1.428 0.392,-2.786 0.98,-3.444 0.546,-0.602 1.232,-0.91 2.002,-0.91 z m 12.516,8.96 v -0.21 c -1.148,-0.042 -1.302,-0.196 -1.302,-1.246 v -4.396 h 1.708 v -0.448 h -1.722 v -1.624 c 0,-0.812 0.266,-1.246 0.798,-1.246 0.308,0 0.49,0.14 0.742,0.546 0.224,0.364 0.392,0.504 0.63,0.504 0.336,0 0.588,-0.252 0.588,-0.574 0,-0.504 -0.602,-0.868 -1.442,-0.868 -0.714,0 -1.358,0.252 -1.764,0.686 -0.14,-0.42 -0.686,-0.686 -1.428,-0.686 -0.882,0 -1.61,0.378 -1.974,1.008 -0.364,0.63 -0.476,1.134 -0.49,2.254 h -1.148 v 0.448 h 1.148 v 4.396 c -0.028,1.05 -0.168,1.204 -1.162,1.246 v 0.21 z m -4.494,-6.3 v -1.624 c 0,-0.826 0.266,-1.246 0.798,-1.246 0.308,0 0.49,0.14 0.742,0.546 0.224,0.364 0.392,0.504 0.63,0.504 0.056,0 0.07,0 0.126,-0.014 -0.21,0.546 -0.28,1.036 -0.28,1.834 z m 2.016,0.448 v 4.396 c -0.028,1.036 -0.168,1.19 -1.092,1.246 -0.798,-0.056 -0.91,-0.21 -0.91,-1.246 v -4.396 z m 7.896,1.456 -0.056,-1.918 h -0.154 c -0.07,0.112 -0.14,0.154 -0.224,0.154 -0.084,0 -0.224,-0.028 -0.378,-0.098 -0.322,-0.112 -0.644,-0.182 -0.98,-0.182 -1.106,0 -1.904,0.728 -1.904,1.736 0,0.784 0.448,1.344 1.638,2.016 l 0.812,0.462 c 0.49,0.28 0.728,0.616 0.728,1.05 0,0.616 -0.448,1.008 -1.162,1.008 -0.966,0 -1.456,-0.532 -1.778,-1.96 h -0.224 v 2.184 h 0.182 c 0.098,-0.14 0.154,-0.168 0.322,-0.168 0.154,0 0.322,0.028 0.644,0.112 0.378,0.084 0.742,0.14 1.022,0.14 1.092,0 1.974,-0.812 1.974,-1.792 0,-0.7 -0.336,-1.162 -1.176,-1.666 l -1.512,-0.896 c -0.392,-0.238 -0.602,-0.574 -0.602,-0.952 0,-0.574 0.434,-0.952 1.078,-0.952 0.798,0 1.218,0.462 1.54,1.722 z m 6.74799,2.1 c -0.672,1.064 -1.274,1.47 -2.17,1.47 -0.798,0 -1.4,-0.406 -1.806,-1.204 -0.252,-0.532 -0.35,-0.98 -0.378,-1.848 h 4.312 c -0.112,-0.91 -0.252,-1.316 -0.602,-1.764 -0.42,-0.504 -1.064,-0.798 -1.792,-0.798 -0.7,0 -1.358,0.252 -1.89,0.728 -0.658,0.574 -1.036,1.568 -1.036,2.716 0,1.932 1.008,3.136 2.618,3.136 1.33,0 2.38,-0.826 2.968,-2.338 z m -4.326,-2.03 c 0.154,-1.092 0.63,-1.61 1.484,-1.61 0.854,0 1.19,0.392 1.372,1.61 z m 8.274,-1.974 h -1.414 v -1.624 c 0,-0.14 -0.028,-0.182 -0.098,-0.182 -0.812,1.176 -1.232,1.652 -1.638,1.89 -0.154,0.098 -0.238,0.182 -0.238,0.266 0,0.042 0.014,0.07 0.056,0.098 h 0.742 v 4.214 c 0,1.176 0.42,1.778 1.246,1.778 0.686,0 1.218,-0.336 1.68,-1.064 l -0.182,-0.154 c -0.308,0.364 -0.532,0.49 -0.84,0.49 -0.518,0 -0.728,-0.378 -0.728,-1.26 v -4.004 h 1.414 z"
         id="text11"
         style="font-size:14px;font-family:Times, serif"
         aria-label="Offset" />
    </g>
    <!-- 139766616398080&#45;&gt;139766616396544 -->
    <g
       id="edge1"
       class="edge">
      <title
         id="title11">139766616398080:e-&gt;139766616396544:w</title>
      <path
         fill="none"
         stroke="#000000"
         d="M290,-177C314.4975,-177 318.8801,-157.4476 338.0345,-152.254"
         id="path11" />
      <path
         id="polygon11"
         style="stroke:#000000"
         d="M 338.5153,-155.7212 348,-151 l -10.3588,2.224 z" />
    </g>
    <!-- 139766616397312 -->
    <g
       id="node3"
       class="node">
      <title
         id="title12">139766616397312</title>
      <path
         id="polygon12"
         style="fill:#ffffff;stroke:#000000"
         d="M 633,-191 H 523 v 80 h 110 z" />
      <path
         d="m 549.49249,-174.41799 h -4.802 v 0.35 c 1.176,0.056 1.386,0.196 1.414,0.98 v 1.47 c 0,0.714 -0.406,1.022 -1.344,1.022 -0.882,0 -1.47,-0.266 -1.932,-0.868 -0.616,-0.784 -0.91,-1.988 -0.91,-3.668 0,-2.94 0.882,-4.48 2.576,-4.48 0.658,0 1.26,0.252 1.862,0.784 0.602,0.532 0.938,1.022 1.414,2.072 h 0.35 v -3.276 h -0.378 c -0.21,0.504 -0.336,0.644 -0.63,0.644 -0.126,0 -0.322,-0.056 -0.63,-0.196 -0.798,-0.336 -1.484,-0.49 -2.156,-0.49 -2.8,0 -4.886,2.142 -4.886,5.04 0,2.884 2.044,4.9 4.984,4.9 1.442,0 2.954,-0.336 3.864,-0.868 v -1.778 c 0.028,-1.022 0.182,-1.19 1.204,-1.288 z m 4.45199,3.682 c -0.854,-0.042 -1.008,-0.224 -1.022,-1.106 v -2.646 c 0,-0.728 0.392,-1.33 0.854,-1.33 0.112,0 0.238,0.098 0.392,0.322 0.266,0.378 0.476,0.504 0.84,0.504 0.518,0 0.882,-0.392 0.882,-0.924 0,-0.644 -0.476,-1.106 -1.134,-1.106 -0.7,0 -1.232,0.364 -1.89,1.316 v -1.148 h -2.646 v 0.336 c 0.588,0.07 0.742,0.238 0.756,0.826 v 4.116 c -0.014,0.588 -0.154,0.742 -0.756,0.84 v 0.336 h 3.724 z m 5.44601,-6.286 c -1.792,0 -3.164,1.47 -3.164,3.374 0,2.002 1.316,3.444 3.164,3.444 1.82,0 3.15,-1.442 3.15,-3.402 0,-1.974 -1.344,-3.416 -3.15,-3.416 z m 0.014,0.434 c 0.812,0 1.078,0.77 1.078,3.066 0,2.156 -0.28,2.884 -1.092,2.884 -0.826,0 -1.106,-0.714 -1.106,-2.772 0,-2.45 0.252,-3.178 1.12,-3.178 z m 10.99,5.586 c -0.602,-0.028 -0.77,-0.21 -0.784,-0.812 v -5.04 h -2.814 v 0.336 c 0.686,0.042 0.854,0.21 0.868,0.826 v 3.962 c -0.462,0.462 -0.742,0.616 -1.148,0.616 -0.574,0 -0.784,-0.28 -0.784,-0.994 v -4.746 h -2.632 v 0.336 c 0.574,0.112 0.672,0.238 0.686,0.826 v 3.528 c 0,1.232 0.7,1.96 1.862,1.96 0.728,0 1.218,-0.224 2.03,-0.924 v 0.91 c 0.602,-0.21 0.938,-0.266 1.848,-0.364 l 0.868,-0.098 z m 4.354,3.178 c -0.84,-0.028 -1.064,-0.294 -1.092,-1.26 v -1.974 c 0.672,0.658 1.022,0.84 1.652,0.84 1.582,0 2.688,-1.456 2.688,-3.528 0,-1.96 -1.05,-3.276 -2.604,-3.276 -0.826,0 -1.33,0.322 -1.764,1.134 v -0.966 h -2.674 v 0.336 c 0.616,0.084 0.756,0.238 0.756,0.826 v 7.014 c -0.014,0.588 -0.126,0.7 -0.784,0.812 v 0.336 h 3.822 z m -1.092,-7.42 c 0,-0.098 0.126,-0.322 0.294,-0.504 0.28,-0.308 0.602,-0.476 0.91,-0.476 0.728,0 1.064,0.84 1.064,2.674 0,1.736 -0.378,2.562 -1.19,2.562 -0.462,0 -0.868,-0.322 -1.078,-0.854 z m 13.78999,-4.83 c -2.94,0 -5.012,2.058 -5.012,4.984 0,2.898 2.058,4.956 4.956,4.956 2.898,0 4.956,-2.058 4.956,-4.97 0,-2.856 -2.072,-4.97 -4.9,-4.97 z m -0.014,0.462 c 1.54,0 2.436,1.694 2.436,4.606 0,2.884 -0.854,4.41 -2.478,4.41 -1.61,0 -2.478,-1.526 -2.478,-4.368 0,-3.024 0.882,-4.648 2.52,-4.648 z m 12.922,8.61 c -0.602,-0.028 -0.77,-0.21 -0.784,-0.812 v -5.04 h -2.814 v 0.336 c 0.686,0.042 0.854,0.21 0.868,0.826 v 3.962 c -0.462,0.462 -0.742,0.616 -1.148,0.616 -0.574,0 -0.784,-0.28 -0.784,-0.994 v -4.746 h -2.632 v 0.336 c 0.574,0.112 0.672,0.238 0.686,0.826 v 3.528 c 0,1.232 0.7,1.96 1.862,1.96 0.728,0 1.218,-0.224 2.03,-0.924 v 0.91 c 0.602,-0.21 0.938,-0.266 1.848,-0.364 l 0.868,-0.098 z m 4.536,-5.852 h -1.316 v -2.366 h -0.35 c -0.854,1.204 -1.414,1.834 -2.324,2.604 v 0.378 h 0.728 v 4.536 c 0,0.91 0.602,1.47 1.568,1.47 0.938,0 1.498,-0.42 2.072,-1.568 l -0.35,-0.154 c -0.28,0.532 -0.504,0.728 -0.798,0.728 -0.392,0 -0.546,-0.238 -0.546,-0.798 v -4.214 h 1.316 z m 4.48001,9.03 c -0.84,-0.028 -1.064,-0.294 -1.092,-1.26 v -1.974 c 0.672,0.658 1.022,0.84 1.652,0.84 1.582,0 2.688,-1.456 2.688,-3.528 0,-1.96 -1.05,-3.276 -2.604,-3.276 -0.826,0 -1.33,0.322 -1.764,1.134 v -0.966 h -2.674 v 0.336 c 0.616,0.084 0.756,0.238 0.756,0.826 v 7.014 c -0.014,0.588 -0.126,0.7 -0.784,0.812 v 0.336 h 3.822 z m -1.092,-7.42 c 0,-0.098 0.126,-0.322 0.294,-0.504 0.28,-0.308 0.602,-0.476 0.91,-0.476 0.728,0 1.064,0.84 1.064,2.674 0,1.736 -0.378,2.562 -1.19,2.562 -0.462,0 -0.868,-0.322 -1.078,-0.854 z m 12.30599,4.242 c -0.602,-0.028 -0.77,-0.21 -0.784,-0.812 v -5.04 h -2.814 v 0.336 c 0.686,0.042 0.854,0.21 0.868,0.826 v 3.962 c -0.462,0.462 -0.742,0.616 -1.148,0.616 -0.574,0 -0.784,-0.28 -0.784,-0.994 v -4.746 h -2.632 v 0.336 c 0.574,0.112 0.672,0.238 0.686,0.826 v 3.528 c 0,1.232 0.7,1.96 1.862,1.96 0.728,0 1.218,-0.224 2.03,-0.924 v 0.91 c 0.602,-0.21 0.938,-0.266 1.848,-0.364 l 0.868,-0.098 z m 4.536,-5.852 h -1.316 v -2.366 h -0.35 c -0.854,1.204 -1.414,1.834 -2.324,2.604 v 0.378 h 0.728 v 4.536 c 0,0.91 0.602,1.47 1.568,1.47 0.938,0 1.498,-0.42 2.072,-1.568 l -0.35,-0.154 c -0.28,0.532 -0.504,0.728 -0.798,0.728 -0.392,0 -0.546,-0.238 -0.546,-0.798 v -4.214 h 1.316 z"
         id="text12"
         style="font-weight:bold;font-size:14px;font-family:Times, serif"
         aria-label="Group Output" />
      <path
         d="m 545.926,-151.35599 h -3.57 v 0.252 c 1.092,0.07 1.204,0.182 1.232,1.246 v 2.268 c 0,0.448 -0.84,0.826 -1.862,0.826 -2.282,0 -3.682,-1.596 -3.682,-4.2 0,-1.316 0.392,-2.59 1.008,-3.276 0.602,-0.686 1.484,-1.064 2.436,-1.064 0.784,0 1.484,0.266 2.016,0.77 0.42,0.406 0.644,0.77 0.994,1.624 h 0.322 l -0.112,-2.954 H 544.4 c -0.084,0.28 -0.336,0.462 -0.63,0.462 -0.14,0 -0.364,-0.042 -0.616,-0.14 -0.63,-0.21 -1.288,-0.322 -1.918,-0.322 -2.786,0 -4.788,2.058 -4.788,4.914 0,1.372 0.378,2.422 1.162,3.248 0.924,0.966 2.282,1.498 3.822,1.498 1.218,0 2.954,-0.49 3.514,-0.98 v -2.842 c 0.028,-0.854 0.182,-1.022 0.98,-1.078 z m 5.92201,2.66 c -0.672,1.064 -1.274,1.47 -2.17,1.47 -0.798,0 -1.4,-0.406 -1.806,-1.204 -0.252,-0.532 -0.35,-0.98 -0.378,-1.848 h 4.312 c -0.112,-0.91 -0.252,-1.316 -0.602,-1.764 -0.42,-0.504 -1.064,-0.798 -1.792,-0.798 -0.7,0 -1.358,0.252 -1.89,0.728 -0.658,0.574 -1.036,1.568 -1.036,2.716 0,1.932 1.008,3.136 2.618,3.136 1.33,0 2.38,-0.826 2.968,-2.338 z m -4.326,-2.03 c 0.154,-1.092 0.63,-1.61 1.484,-1.61 0.854,0 1.19,0.392 1.372,1.61 z m 8.33001,-2.114 c -1.834,0 -3.094,1.344 -3.094,3.276 0,1.904 1.302,3.304 3.066,3.304 1.764,0 3.108,-1.47 3.108,-3.416 0,-1.848 -1.288,-3.164 -3.08,-3.164 z m -0.182,0.392 c 1.176,0 2.002,1.344 2.002,3.262 0,1.596 -0.63,2.534 -1.68,2.534 -0.546,0 -1.064,-0.336 -1.358,-0.896 -0.392,-0.728 -0.616,-1.708 -0.616,-2.702 0,-1.33 0.644,-2.198 1.652,-2.198 z m 3.906,6.048 h 3.108 v -0.21 c -0.714,-0.014 -0.938,-0.168 -0.952,-0.728 v -3.948 c 0,-0.028 0.112,-0.168 0.21,-0.266 0.35,-0.322 0.952,-0.56 1.442,-0.56 0.616,0 0.924,0.49 0.924,1.47 v 3.038 c -0.028,0.798 -0.168,0.952 -0.952,0.994 v 0.21 h 3.136 v -0.21 c -0.784,0 -0.98,-0.224 -1.008,-1.12 v -3.528 c 0.42,-0.602 0.868,-0.854 1.526,-0.854 0.798,0 1.05,0.378 1.05,1.54 v 2.954 c -0.028,0.826 -0.112,0.924 -0.924,1.008 v 0.21 h 3.066 v -0.21 l -0.364,-0.028 c -0.448,-0.07 -0.602,-0.28 -0.602,-0.826 v -2.884 c 0,-1.652 -0.546,-2.492 -1.624,-2.492 -0.812,0 -1.526,0.364 -2.282,1.176 -0.252,-0.798 -0.728,-1.176 -1.484,-1.176 -0.63,0 -1.008,0.182 -2.17,1.078 v -1.05 l -0.098,-0.028 c -0.742,0.266 -1.218,0.42 -1.96,0.63 v 0.238 c 0.168,-0.042 0.294,-0.056 0.448,-0.056 0.364,0 0.49,0.224 0.49,0.896 v 3.542 c -0.028,0.784 -0.21,0.98 -0.98,0.98 z m 16.37999,-2.296 c -0.672,1.064 -1.274,1.47 -2.17,1.47 -0.798,0 -1.4,-0.406 -1.806,-1.204 -0.252,-0.532 -0.35,-0.98 -0.378,-1.848 h 4.312 c -0.112,-0.91 -0.252,-1.316 -0.602,-1.764 -0.42,-0.504 -1.064,-0.798 -1.792,-0.798 -0.7,0 -1.358,0.252 -1.89,0.728 -0.658,0.574 -1.036,1.568 -1.036,2.716 0,1.932 1.008,3.136 2.618,3.136 1.33,0 2.38,-0.826 2.968,-2.338 z m -4.326,-2.03 c 0.154,-1.092 0.63,-1.61 1.484,-1.61 0.854,0 1.19,0.392 1.372,1.61 z m 8.274,-1.974 h -1.414 v -1.624 c 0,-0.14 -0.028,-0.182 -0.098,-0.182 -0.812,1.176 -1.232,1.652 -1.638,1.89 -0.154,0.098 -0.238,0.182 -0.238,0.266 0,0.042 0.014,0.07 0.056,0.098 h 0.742 v 4.214 c 0,1.176 0.42,1.778 1.246,1.778 0.686,0 1.218,-0.336 1.68,-1.064 l -0.182,-0.154 c -0.308,0.364 -0.532,0.49 -0.84,0.49 -0.518,0 -0.728,-0.378 -0.728,-1.26 v -4.004 h 1.414 z m 0.54599,6.3 h 3.36 v -0.21 c -0.938,-0.028 -1.162,-0.224 -1.19,-1.05 v -3.15 c 0,-0.448 0.588,-1.148 0.98,-1.148 0.084,0 0.21,0.07 0.364,0.21 0.21,0.21 0.378,0.28 0.56,0.28 0.336,0 0.546,-0.238 0.546,-0.63 0,-0.462 -0.294,-0.742 -0.77,-0.742 -0.588,0 -0.98,0.308 -1.68,1.316 v -1.288 l -0.07,-0.028 c -0.784,0.308 -1.288,0.504 -2.072,0.756 v 0.224 c 0.196,-0.042 0.322,-0.056 0.49,-0.056 0.35,0 0.476,0.224 0.476,0.84 v 3.5 c -0.028,0.728 -0.112,0.812 -0.994,0.966 z m 11.50799,-6.3 h -1.89 v 0.21 c 0.448,0 0.672,0.126 0.672,0.35 0,0.056 -0.014,0.14 -0.056,0.238 l -1.358,3.864 -1.61,-3.542 c -0.084,-0.196 -0.14,-0.392 -0.14,-0.532 0,-0.252 0.21,-0.35 0.812,-0.378 v -0.21 h -2.884 v 0.196 c 0.364,0.056 0.602,0.21 0.714,0.448 l 1.596,3.444 c 0.168,0.378 0.182,0.392 0.252,0.532 0.392,0.7 0.616,1.218 0.616,1.428 0,0.224 -0.322,1.078 -0.56,1.512 -0.21,0.35 -0.504,0.616 -0.7,0.616 -0.084,0 -0.21,-0.028 -0.364,-0.098 -0.252,-0.098 -0.504,-0.154 -0.728,-0.154 -0.336,0 -0.602,0.266 -0.602,0.616 0,0.462 0.434,0.812 1.036,0.812 0.952,0 1.596,-0.77 2.366,-2.8 l 2.156,-5.712 c 0.182,-0.448 0.336,-0.588 0.672,-0.63 z"
         id="text13"
         style="font-size:14px;font-family:Times, serif"
         aria-label="Geometry" />
      <path
         d="m 545.898,-132.668 h -3.29 v 0.266 c 1.12,0.07 1.302,0.308 1.344,1.792 v 4.718 l -5.39,-6.776 h -2.394 v 0.266 c 0.602,0 0.798,0.112 1.358,0.77 v 6.174 c -0.028,1.484 -0.21,1.722 -1.358,1.792 v 0.266 h 3.29 v -0.266 c -1.078,-0.056 -1.288,-0.35 -1.316,-1.792 v -5.488 l 6.188,7.7 h 0.238 v -7.364 c 0.042,-1.456 0.224,-1.694 1.33,-1.792 z m 3.416,2.828 c -1.834,0 -3.094,1.344 -3.094,3.276 0,1.904 1.302,3.304 3.066,3.304 1.764,0 3.108,-1.47 3.108,-3.416 0,-1.848 -1.288,-3.164 -3.08,-3.164 z m -0.182,0.392 c 1.176,0 2.002,1.344 2.002,3.262 0,1.596 -0.63,2.534 -1.68,2.534 -0.546,0 -1.064,-0.336 -1.358,-0.896 -0.392,-0.728 -0.616,-1.708 -0.616,-2.702 0,-1.33 0.644,-2.198 1.652,-2.198 z m 17.08,-3.22 h -3.29 v 0.266 c 1.12,0.07 1.302,0.308 1.344,1.792 v 4.718 l -5.39,-6.776 h -2.394 v 0.266 c 0.602,0 0.798,0.112 1.358,0.77 v 6.174 c -0.028,1.484 -0.21,1.722 -1.358,1.792 v 0.266 h 3.29 v -0.266 c -1.078,-0.056 -1.288,-0.35 -1.316,-1.792 v -5.488 l 6.188,7.7 h 0.238 v -7.364 c 0.042,-1.456 0.224,-1.694 1.33,-1.792 z m 6.04801,8.344 c -0.238,0.196 -0.406,0.266 -0.616,0.266 -0.322,0 -0.42,-0.196 -0.42,-0.812 v -2.73 c 0,-0.728 -0.07,-1.134 -0.28,-1.47 -0.308,-0.504 -0.91,-0.77 -1.736,-0.77 -1.316,0 -2.352,0.686 -2.352,1.568 0,0.322 0.266,0.602 0.602,0.602 0.336,0 0.63,-0.28 0.63,-0.588 0,-0.056 -0.014,-0.126 -0.028,-0.224 -0.028,-0.126 -0.042,-0.238 -0.042,-0.336 0,-0.378 0.448,-0.686 1.008,-0.686 0.686,0 1.064,0.406 1.064,1.162 v 0.854 c -2.142,0.854 -2.394,0.98 -2.996,1.512 -0.308,0.28 -0.504,0.756 -0.504,1.218 0,0.882 0.616,1.498 1.47,1.498 0.616,0 1.19,-0.294 2.044,-1.022 0.07,0.742 0.322,1.022 0.896,1.022 0.476,0 0.77,-0.168 1.26,-0.7 z m -2.17,-0.798 c 0,0.42 -0.07,0.574 -0.364,0.742 -0.35,0.196 -0.728,0.308 -1.022,0.308 -0.49,0 -0.882,-0.476 -0.882,-1.078 v -0.056 c 0.014,-0.84 0.63,-1.372 2.268,-1.946 z m 2.422,1.722 h 3.108 v -0.21 c -0.714,-0.014 -0.938,-0.168 -0.952,-0.728 v -3.948 c 0,-0.028 0.112,-0.168 0.21,-0.266 0.35,-0.322 0.952,-0.56 1.442,-0.56 0.616,0 0.924,0.49 0.924,1.47 v 3.038 c -0.028,0.798 -0.168,0.952 -0.952,0.994 v 0.21 h 3.136 v -0.21 c -0.784,0 -0.98,-0.224 -1.008,-1.12 v -3.528 c 0.42,-0.602 0.868,-0.854 1.526,-0.854 0.798,0 1.05,0.378 1.05,1.54 v 2.954 c -0.028,0.826 -0.112,0.924 -0.924,1.008 v 0.21 h 3.066 v -0.21 l -0.364,-0.028 c -0.448,-0.07 -0.602,-0.28 -0.602,-0.826 v -2.884 c 0,-1.652 -0.546,-2.492 -1.624,-2.492 -0.812,0 -1.526,0.364 -2.282,1.176 -0.252,-0.798 -0.728,-1.176 -1.484,-1.176 -0.63,0 -1.008,0.182 -2.17,1.078 v -1.05 l -0.098,-0.028 c -0.742,0.266 -1.218,0.42 -1.96,0.63 v 0.238 c 0.168,-0.042 0.294,-0.056 0.448,-0.056 0.364,0 0.49,0.224 0.49,0.896 v 3.542 c -0.028,0.784 -0.21,0.98 -0.98,0.98 z m 16.38,-2.296 c -0.672,1.064 -1.274,1.47 -2.17,1.47 -0.798,0 -1.4,-0.406 -1.806,-1.204 -0.252,-0.532 -0.35,-0.98 -0.378,-1.848 h 4.312 c -0.112,-0.91 -0.252,-1.316 -0.602,-1.764 -0.42,-0.504 -1.064,-0.798 -1.792,-0.798 -0.7,0 -1.358,0.252 -1.89,0.728 -0.658,0.574 -1.036,1.568 -1.036,2.716 0,1.932 1.008,3.136 2.618,3.136 1.33,0 2.38,-0.826 2.968,-2.338 z m -4.326,-2.03 c 0.154,-1.092 0.63,-1.61 1.484,-1.61 0.854,0 1.19,0.392 1.372,1.61 z"
         id="text14"
         style="font-size:14px;font-family:Times, serif"
         aria-label="No Name" />
    </g>
    <!-- 139766616396544&#45;&gt;139766616397312 -->
    <g
       id="edge3"
       class="edge">
      <title
         id="title14">139766616396544:e-&gt;139766616397312:w</title>
      <path
         fill="none"
         stroke="#000000"
         d="M476,-151C497.9514,-151 505.883,-151 523.6723,-151"
         id="path14" />
      <path
         id="polygon14"
         style="stroke:#000000"
         d="m 524,-154.5001 10,3.5001 -10,3.4999 z" />
    </g>
    <!-- 139766616395776 -->
    <g
       id="node4"
       class="node">
      <title
         id="title15">139766616395776</title>
      <path
         id="polygon15"
         style="fill:#ffffff;stroke:#000000"
         d="M 165,-96 H 16 v 80 h 149 z" />
      <path
         d="m 46.034098,-84.864002 h -2.548 v 0.35 c 0.756,0.042 0.966,0.182 0.966,0.616 0,0.182 -0.042,0.392 -0.098,0.588 l -1.568,4.802 -1.512,-4.704 c -0.154,-0.476 -0.196,-0.644 -0.196,-0.784 0,-0.336 0.21,-0.462 0.826,-0.504 0.028,0 0.098,0 0.182,-0.014 v -0.35 h -4.368 v 0.35 c 0.574,0.028 0.854,0.154 1.008,0.49 l 0.49,1.344 -1.652,4.312 -1.68,-5.096 c -0.07,-0.238 -0.098,-0.336 -0.098,-0.462 0,-0.406 0.168,-0.532 0.896,-0.588 v -0.35 h -4.116 v 0.35 c 0.588,0.084 0.728,0.21 0.966,0.896 l 2.968,8.428 h 0.392 l 2.604,-6.678 2.394,6.678 h 0.378 l 2.8,-8.428 c 0.182,-0.56 0.49,-0.854 0.966,-0.896 z m 7.895996,9.128 c -0.49,-0.014 -0.686,-0.266 -0.686,-0.84 v -3.472 c 0,-1.204 -0.742,-1.974 -1.89,-1.974 -0.742,0 -1.26,0.28 -1.988,1.092 v -3.934 h -2.688 v 0.336 c 0.644,0.126 0.728,0.21 0.742,0.812 v 7.14 c -0.014,0.602 -0.126,0.728 -0.742,0.84 v 0.336 h 3.374 v -0.336 c -0.504,-0.056 -0.686,-0.28 -0.686,-0.798 v -3.738 c 0,-0.056 0.098,-0.196 0.238,-0.336 0.308,-0.308 0.644,-0.476 0.966,-0.476 0.49,0 0.728,0.378 0.728,1.162 v 3.388 c -0.014,0.532 -0.196,0.756 -0.658,0.798 v 0.336 h 3.29 z m 3.877997,0 c -0.476,-0.056 -0.658,-0.266 -0.658,-0.798 v -5.32 h -2.688 v 0.336 c 0.616,0.112 0.728,0.238 0.742,0.826 v 4.116 c -0.014,0.588 -0.112,0.7 -0.742,0.84 v 0.336 h 3.346 z m -1.638,-9.338 c -0.602,0 -1.092,0.49 -1.092,1.078 0,0.63 0.462,1.092 1.078,1.092 0.616,0 1.092,-0.462 1.092,-1.078 0,-0.616 -0.476,-1.092 -1.078,-1.092 z m 6.229998,3.22 h -1.316 v -2.366 h -0.35 c -0.854,1.204 -1.414,1.834 -2.324,2.604 v 0.378 h 0.728 v 4.536 c 0,0.91 0.602,1.47 1.568,1.47 0.938,0 1.498,-0.42 2.072,-1.568 l -0.35,-0.154 c -0.28,0.532 -0.504,0.728 -0.798,0.728 -0.392,0 -0.546,-0.238 -0.546,-0.798 v -4.214 h 1.316 z m 5.991991,4.704 c -0.574,0.686 -0.994,0.938 -1.596,0.938 -0.546,0 -0.952,-0.252 -1.246,-0.742 -0.252,-0.448 -0.364,-0.91 -0.42,-1.876 h 3.528 c -0.084,-1.176 -0.294,-1.834 -0.742,-2.366 -0.448,-0.546 -1.106,-0.826 -1.89,-0.826 -1.736,0 -2.912,1.386 -2.912,3.43 0,2.044 1.148,3.388 2.884,3.388 1.134,0 1.82,-0.434 2.73,-1.75 z m -3.332,-2.198 c 0.042,-1.68 0.294,-2.24 0.98,-2.24 0.658,0 0.868,0.476 0.896,2.03 v 0.21 z m 7.644003,3.948 h 3.178 v -0.35 c -1.064,-0.112 -1.316,-0.378 -1.33,-1.386 v -5.628 l 6.258,7.616 h 0.392 v -8.246 c 0,-0.798 0.182,-0.994 1.092,-1.12 v -0.35 h -3.01 v 0.35 c 1.022,0.098 1.302,0.392 1.302,1.386 v 4.27 l -4.886,-6.006 h -2.954 v 0.35 c 0.28,0 0.518,0.21 1.19,1.008 v 6.636 c -0.014,0.826 -0.238,1.008 -1.232,1.12 z m 13.159999,-6.622 c -1.792,0 -3.164,1.47 -3.164,3.374 0,2.002 1.316,3.444 3.164,3.444 1.82,0 3.15,-1.442 3.15,-3.402 0,-1.974 -1.344,-3.416 -3.15,-3.416 z m 0.014,0.434 c 0.812,0 1.078,0.77 1.078,3.066 0,2.156 -0.28,2.884 -1.092,2.884 -0.826,0 -1.106,-0.714 -1.106,-2.772 0,-2.45 0.252,-3.178 1.12,-3.178 z m 7.042,5.852 c -0.476,-0.056 -0.658,-0.266 -0.658,-0.798 v -5.32 h -2.688 v 0.336 c 0.616,0.112 0.728,0.238 0.742,0.826 v 4.116 c -0.014,0.588 -0.112,0.7 -0.742,0.84 v 0.336 h 3.346 z m -1.638,-9.338 c -0.602,0 -1.092,0.49 -1.092,1.078 0,0.63 0.462,1.092 1.078,1.092 0.616,0 1.092,-0.462 1.092,-1.078 0,-0.616 -0.476,-1.092 -1.078,-1.092 z m 6.719999,5.11 v -2.03 h -0.308 c -0.084,0.21 -0.168,0.28 -0.35,0.28 -0.084,0 -0.21,-0.028 -0.434,-0.098 -0.448,-0.154 -0.77,-0.21 -1.092,-0.21 -1.274,0 -2.198,0.868 -2.198,2.044 0,0.924 0.574,1.568 1.988,2.17 0.966,0.42 1.344,0.77 1.344,1.218 0,0.546 -0.42,0.91 -1.05,0.91 -0.98,0 -1.624,-0.63 -1.918,-1.848 h -0.392 v 2.31 h 0.35 c 0.154,-0.308 0.238,-0.392 0.364,-0.392 0.07,0 0.182,0.028 0.322,0.084 0.406,0.168 1.106,0.322 1.512,0.322 1.274,0 2.156,-0.868 2.156,-2.128 0,-0.994 -0.532,-1.596 -1.932,-2.184 -0.952,-0.406 -1.344,-0.756 -1.344,-1.232 0,-0.462 0.392,-0.812 0.924,-0.812 0.378,0 0.742,0.154 1.05,0.448 0.294,0.28 0.448,0.532 0.658,1.148 z m 6.313999,2.814 c -0.574,0.686 -0.994,0.938 -1.596,0.938 -0.546,0 -0.952,-0.252 -1.246,-0.742 -0.252,-0.448 -0.364,-0.91 -0.42,-1.876 h 3.528 c -0.084,-1.176 -0.294,-1.834 -0.742,-2.366 -0.448,-0.546 -1.106,-0.826 -1.89,-0.826 -1.736,0 -2.911996,1.386 -2.911996,3.43 0,2.044 1.147996,3.388 2.883996,3.388 1.134,0 1.82,-0.434 2.73,-1.75 z m -3.332,-2.198 c 0.042,-1.68 0.294,-2.24 0.98,-2.24 0.658,0 0.868,0.476 0.896,2.03 v 0.21 z m 14.60201,3.598 c -1.19,-0.056 -1.344,-0.21 -1.372,-1.288 v -7.378 c 1.722,0.056 2.45,0.7 2.688,2.366 h 0.406 l -0.028,-2.814 h -8.4 l -0.042,2.814 h 0.406 c 0.238,-1.666 0.966,-2.31 2.702,-2.366 v 7.378 c -0.028,1.064 -0.182,1.204 -1.358,1.288 v 0.35 h 4.998 z m 6.608,-1.4 c -0.574,0.686 -0.994,0.938 -1.596,0.938 -0.546,0 -0.952,-0.252 -1.246,-0.742 -0.252,-0.448 -0.364,-0.91 -0.42,-1.876 h 3.528 c -0.084,-1.176 -0.294,-1.834 -0.742,-2.366 -0.448,-0.546 -1.106,-0.826 -1.89,-0.826 -1.736,0 -2.912,1.386 -2.912,3.43 0,2.044 1.148,3.388 2.884,3.388 1.134,0 1.82,-0.434 2.73,-1.75 z m -3.332,-2.198 c 0.042,-1.68 0.294,-2.24 0.98,-2.24 0.658,0 0.868,0.476 0.896,2.03 v 0.21 z m 10.346,3.612 c -0.224,-0.07 -0.322,-0.126 -0.42,-0.28 l -2.072,-3.192 1.414,-1.764 c 0.266,-0.322 0.546,-0.476 0.98,-0.546 v -0.336 h -2.352 v 0.336 c 0.672,0.07 0.714,0.084 0.714,0.336 0,0.21 -0.14,0.448 -0.532,0.896 -0.084,0.084 -0.294,0.35 -0.504,0.644 -0.294,-0.392 -0.476,-0.644 -0.532,-0.728 -0.294,-0.448 -0.462,-0.756 -0.462,-0.868 0,-0.182 0.182,-0.266 0.658,-0.28 v -0.336 h -3.5 v 0.336 c 0.364,0.07 0.448,0.126 0.728,0.546 l 1.792,2.758 c -0.406,0.518 -0.784,0.98 -0.91,1.176 -0.392,0.546 -0.784,0.98 -1.05,1.148 -0.126,0.084 -0.28,0.126 -0.532,0.154 v 0.336 h 2.366 v -0.336 c -0.518,-0.028 -0.7,-0.126 -0.7,-0.336 0,-0.224 0.364,-0.798 0.896,-1.442 0.042,-0.042 0.126,-0.154 0.224,-0.28 0.252,0.392 0.448,0.686 0.588,0.882 l 0.21,0.308 c 0.14,0.21 0.252,0.476 0.252,0.588 0,0.168 -0.182,0.252 -0.63,0.28 v 0.336 h 3.374 z m 4.494,-6.118 h -1.316 v -2.366 h -0.35 c -0.854,1.204 -1.414,1.834 -2.324,2.604 v 0.378 h 0.728 v 4.536 c 0,0.91 0.602,1.47 1.568,1.47 0.938,0 1.498,-0.42 2.072,-1.568 l -0.35,-0.154 c -0.28,0.532 -0.504,0.728 -0.798,0.728 -0.392,0 -0.546,-0.238 -0.546,-0.798 v -4.214 h 1.316 z m 7.93801,5.852 c -0.602,-0.028 -0.77,-0.21 -0.784,-0.812 v -5.04 h -2.814 v 0.336 c 0.686,0.042 0.854,0.21 0.868,0.826 v 3.962 c -0.462,0.462 -0.742,0.616 -1.148,0.616 -0.574,0 -0.784,-0.28 -0.784,-0.994 v -4.746 h -2.632 v 0.336 c 0.574,0.112 0.672,0.238 0.686,0.826 v 3.528 c 0,1.232 0.7,1.96 1.862,1.96 0.728,0 1.218,-0.224 2.03,-0.924 v 0.91 c 0.602,-0.21 0.938,-0.266 1.848,-0.364 l 0.868,-0.098 z m 4.396,0.266 c -0.854,-0.042 -1.008,-0.224 -1.022,-1.106 v -2.646 c 0,-0.728 0.392,-1.33 0.854,-1.33 0.112,0 0.238,0.098 0.392,0.322 0.266,0.378 0.476,0.504 0.84,0.504 0.518,0 0.882,-0.392 0.882,-0.924 0,-0.644 -0.476,-1.106 -1.134,-1.106 -0.7,0 -1.232,0.364 -1.89,1.316 v -1.148 h -2.646 v 0.336 c 0.588,0.07 0.742,0.238 0.756,0.826 v 4.116 c -0.014,0.588 -0.154,0.742 -0.756,0.84 v 0.336 h 3.724 z m 7.60202,-1.414 c -0.574,0.686 -0.994,0.938 -1.596,0.938 -0.546,0 -0.952,-0.252 -1.246,-0.742 -0.252,-0.448 -0.364,-0.91 -0.42,-1.876 h 3.528 c -0.084,-1.176 -0.294,-1.834 -0.742,-2.366 -0.448,-0.546 -1.106,-0.826 -1.89,-0.826 -1.736,0 -2.912,1.386 -2.912,3.43 0,2.044 1.148,3.388 2.884,3.388 1.134,0 1.82,-0.434 2.73,-1.75 z m -3.332,-2.198 c 0.042,-1.68 0.294,-2.24 0.98,-2.24 0.658,0 0.868,0.476 0.896,2.03 v 0.21 z"
         id="text15"
         style="font-weight:bold;font-size:14px;font-family:Times, serif"
         aria-label="White Noise Texture" />
      <path
         d="m 39.258,-60.668002 h -2.87 v 0.266 c 0.77,0.056 1.022,0.196 1.022,0.588 0,0.224 -0.098,0.602 -0.266,1.022 l -2.058,5.138 -2.114,-4.732 c -0.462,-1.036 -0.574,-1.344 -0.574,-1.554 0,-0.28 0.196,-0.406 0.644,-0.434 0.07,0 0.224,-0.014 0.406,-0.028 v -0.266 h -3.724 v 0.266 c 0.686,0.028 0.882,0.224 1.484,1.47 l 3.444,7.686 h 0.21 l 3.108,-7.854 c 0.462,-1.106 0.616,-1.26 1.288,-1.302 z m 4.886007,6.972 c -0.672,1.064 -1.274,1.47 -2.17,1.47 -0.798,0 -1.4,-0.406 -1.806,-1.204 -0.252,-0.532 -0.35,-0.98 -0.378,-1.848 h 4.312 c -0.112,-0.91 -0.252,-1.316 -0.602,-1.764 -0.42,-0.504 -1.064,-0.798 -1.792,-0.798 -0.7,0 -1.358,0.252 -1.89,0.728 -0.658,0.574 -1.036,1.568 -1.036,2.716 0,1.932 1.008,3.136 2.618,3.136 1.33,0 2.38,-0.826 2.968,-2.338 z m -4.326,-2.03 c 0.154,-1.092 0.63,-1.61 1.484,-1.61 0.854,0 1.19,0.392 1.372,1.61 z m 10.402003,2.142 c -0.672,0.98 -1.176,1.316 -1.974,1.316 -1.288,0 -2.17,-1.12 -2.17,-2.73 0,-1.456 0.77,-2.436 1.904,-2.436 0.504,0 0.686,0.14 0.826,0.672 l 0.084,0.308 c 0.112,0.406 0.364,0.644 0.672,0.644 0.364,0 0.658,-0.266 0.658,-0.588 0,-0.784 -0.98,-1.442 -2.156,-1.442 -0.686,0 -1.4,0.28 -1.974,0.784 -0.7,0.616 -1.092,1.568 -1.092,2.688 0,1.806 1.106,3.108 2.66,3.108 0.63,0 1.19,-0.224 1.694,-0.658 0.378,-0.322 0.644,-0.714 1.064,-1.54 z m 4.018005,-4.116 h -1.414 v -1.624 c 0,-0.14 -0.028,-0.182 -0.098,-0.182 -0.812,1.176 -1.232,1.652 -1.638,1.89 -0.154,0.098 -0.238,0.182 -0.238,0.266 0,0.042 0.014,0.07 0.056,0.098 h 0.742 v 4.214 c 0,1.176 0.42,1.778 1.246,1.778 0.686,0 1.218,-0.336 1.68,-1.064 l -0.182,-0.154 c -0.308,0.364 -0.532,0.49 -0.84,0.49 -0.518,0 -0.728,-0.378 -0.728,-1.26 v -4.004 h 1.414 z m 3.710006,-0.14 c -1.834,0 -3.094,1.344 -3.094,3.276 0,1.904 1.302,3.304 3.066,3.304 1.764,0 3.108,-1.47 3.108,-3.416 0,-1.848 -1.288,-3.164 -3.08,-3.164 z m -0.182,0.392 c 1.176,0 2.002,1.344 2.002,3.262 0,1.596 -0.63,2.534 -1.68,2.534 -0.546,0 -1.064,-0.336 -1.358,-0.896 -0.392,-0.728 -0.616,-1.708 -0.616,-2.702 0,-1.33 0.644,-2.198 1.652,-2.198 z m 3.752,6.048 h 3.36 v -0.21 c -0.938,-0.028 -1.162,-0.224 -1.19,-1.05 v -3.15 c 0,-0.448 0.588,-1.148 0.98,-1.148 0.084,0 0.21,0.07 0.364,0.21 0.21,0.21 0.378,0.28 0.56,0.28 0.336,0 0.546,-0.238 0.546,-0.63 0,-0.462 -0.294,-0.742 -0.77,-0.742 -0.588,0 -0.98,0.308 -1.68,1.316 v -1.288 l -0.07,-0.028 c -0.784,0.308 -1.288,0.504 -2.072,0.756 v 0.224 c 0.196,-0.042 0.322,-0.056 0.49,-0.056 0.35,0 0.476,0.224 0.476,0.84 v 3.5 c -0.028,0.728 -0.112,0.812 -0.994,0.966 z"
         id="text16"
         style="font-size:14px;font-family:Times, serif"
         aria-label="Vector" />
      <path
         d="m 128.8316,-60.668002 h -2.87 v 0.266 c 0.77,0.056 1.022,0.196 1.022,0.588 0,0.224 -0.098,0.602 -0.266,1.022 l -2.058,5.138 -2.114,-4.732 c -0.462,-1.036 -0.574,-1.344 -0.574,-1.554 0,-0.28 0.196,-0.406 0.644,-0.434 0.07,0 0.224,-0.014 0.406,-0.028 v -0.266 h -3.724 v 0.266 c 0.686,0.028 0.882,0.224 1.484,1.47 l 3.444,7.686 h 0.21 l 3.108,-7.854 c 0.462,-1.106 0.616,-1.26 1.288,-1.302 z m 5.278,8.344 c -0.238,0.196 -0.406,0.266 -0.616,0.266 -0.322,0 -0.42,-0.196 -0.42,-0.812 v -2.73 c 0,-0.728 -0.07,-1.134 -0.28,-1.47 -0.308,-0.504 -0.91,-0.77 -1.736,-0.77 -1.316,0 -2.352,0.686 -2.352,1.568 0,0.322 0.266,0.602 0.602,0.602 0.336,0 0.63,-0.28 0.63,-0.588 0,-0.056 -0.014,-0.126 -0.028,-0.224 -0.028,-0.126 -0.042,-0.238 -0.042,-0.336 0,-0.378 0.448,-0.686 1.008,-0.686 0.686,0 1.064,0.406 1.064,1.162 v 0.854 c -2.142,0.854 -2.394,0.98 -2.996,1.512 -0.308,0.28 -0.504,0.756 -0.504,1.218 0,0.882 0.616,1.498 1.47,1.498 0.616,0 1.19,-0.294 2.044,-1.022 0.07,0.742 0.322,1.022 0.896,1.022 0.476,0 0.77,-0.168 1.26,-0.7 z m -2.17,-0.798 c 0,0.42 -0.07,0.574 -0.364,0.742 -0.35,0.196 -0.728,0.308 -1.022,0.308 -0.49,0 -0.882,-0.476 -0.882,-1.078 v -0.056 c 0.014,-0.84 0.63,-1.372 2.268,-1.946 z m 2.492,1.722 h 3.304 v -0.21 c -0.882,-0.042 -1.036,-0.182 -1.05,-0.966 v -8.358 l -0.056,-0.028 c -0.714,0.224 -1.232,0.378 -2.226,0.616 v 0.224 h 0.084 c 0.154,-0.014 0.322,-0.028 0.434,-0.028 0.448,0 0.588,0.196 0.588,0.854 v 6.678 c -0.014,0.756 -0.21,0.952 -1.078,1.008 z m 10.304,-0.7 h -0.07 c -0.686,-0.028 -0.784,-0.14 -0.798,-0.798 v -4.802 h -2.212 v 0.238 c 0.868,0.042 1.036,0.182 1.036,0.882 v 3.29 c 0,0.392 -0.07,0.588 -0.266,0.742 -0.378,0.308 -0.812,0.476 -1.232,0.476 -0.546,0 -0.994,-0.476 -0.994,-1.064 v -4.564 h -2.044 v 0.196 c 0.658,0.028 0.854,0.224 0.868,0.896 v 3.528 c 0,1.106 0.672,1.82 1.694,1.82 0.518,0 1.064,-0.224 1.442,-0.602 l 0.602,-0.602 v 1.162 l 0.056,0.028 c 0.7,-0.28 1.204,-0.434 1.918,-0.63 z m 6.006,-1.596 c -0.672,1.064 -1.274,1.47 -2.17,1.47 -0.798,0 -1.4,-0.406 -1.806,-1.204 -0.252,-0.532 -0.35,-0.98 -0.378,-1.848 h 4.312 c -0.112,-0.91 -0.252,-1.316 -0.602,-1.764 -0.42,-0.504 -1.064,-0.798 -1.792,-0.798 -0.7,0 -1.358,0.252 -1.89,0.728 -0.658,0.574 -1.036,1.568 -1.036,2.716 0,1.932 1.008,3.136 2.618,3.136 1.33,0 2.38,-0.826 2.968,-2.338 z m -4.326,-2.03 c 0.154,-1.092 0.63,-1.61 1.484,-1.61 0.854,0 1.19,0.392 1.372,1.61 z"
         id="text17"
         style="font-size:14px;font-family:Times, serif"
         aria-label="Value" />
      <path
         d="m 129.2922,-34.714 -0.126,-3.15 h -0.294 c -0.084,0.294 -0.308,0.462 -0.588,0.462 -0.126,0 -0.336,-0.042 -0.546,-0.112 -0.686,-0.238 -1.386,-0.35 -2.044,-0.35 -1.148,0 -2.31,0.434 -3.178,1.204 -0.98,0.868 -1.512,2.156 -1.512,3.696 0,2.856 1.862,4.76 4.648,4.76 1.582,0 2.982,-0.644 3.822,-1.778 l -0.252,-0.252 c -1.022,0.994 -1.96,1.414 -3.122,1.414 -0.882,0 -1.666,-0.28 -2.268,-0.812 -0.77,-0.686 -1.204,-1.946 -1.204,-3.514 0,-2.534 1.302,-4.158 3.332,-4.158 0.798,0 1.526,0.294 2.086,0.84 0.448,0.448 0.658,0.84 0.924,1.75 z m 4.01799,-0.126 c -1.834,0 -3.094,1.344 -3.094,3.276 0,1.904 1.302,3.304 3.066,3.304 1.764,0 3.108,-1.47 3.108,-3.416 0,-1.848 -1.288,-3.164 -3.08,-3.164 z m -0.182,0.392 c 1.176,0 2.002,1.344 2.002,3.262 0,1.596 -0.63,2.534 -1.68,2.534 -0.546,0 -1.064,-0.336 -1.358,-0.896 -0.392,-0.728 -0.616,-1.708 -0.616,-2.702 0,-1.33 0.644,-2.198 1.652,-2.198 z m 3.976,6.048 h 3.304 v -0.21 c -0.882,-0.042 -1.036,-0.182 -1.05,-0.966 v -8.358 l -0.056,-0.028 c -0.714,0.224 -1.232,0.378 -2.226,0.616 v 0.224 h 0.084 c 0.154,-0.014 0.322,-0.028 0.434,-0.028 0.448,0 0.588,0.196 0.588,0.854 v 6.678 c -0.014,0.756 -0.21,0.952 -1.078,1.008 z m 7.098,-6.44 c -1.834,0 -3.094,1.344 -3.094,3.276 0,1.904 1.302,3.304 3.066,3.304 1.764,0 3.108,-1.47 3.108,-3.416 0,-1.848 -1.288,-3.164 -3.08,-3.164 z m -0.182,0.392 c 1.176,0 2.002,1.344 2.002,3.262 0,1.596 -0.63,2.534 -1.68,2.534 -0.546,0 -1.064,-0.336 -1.358,-0.896 -0.392,-0.728 -0.616,-1.708 -0.616,-2.702 0,-1.33 0.644,-2.198 1.652,-2.198 z m 3.752,6.048 h 3.36 v -0.21 c -0.938,-0.028 -1.162,-0.224 -1.19,-1.05 v -3.15 c 0,-0.448 0.588,-1.148 0.98,-1.148 0.084,0 0.21,0.07 0.364,0.21 0.21,0.21 0.378,0.28 0.56,0.28 0.336,0 0.546,-0.238 0.546,-0.63 0,-0.462 -0.294,-0.742 -0.77,-0.742 -0.588,0 -0.98,0.308 -1.68,1.316 v -1.288 l -0.07,-0.028 c -0.784,0.308 -1.288,0.504 -2.072,0.756 v 0.224 c 0.196,-0.042 0.322,-0.056 0.49,-0.056 0.35,0 0.476,0.224 0.476,0.84 v 3.5 c -0.028,0.728 -0.112,0.812 -0.994,0.966 z"
         id="text18"
         style="font-size:14px;font-family:Times, serif"
         aria-label="Color" />
    </g>
    <!-- 139766616398848 -->
    <g
       id="node5"
       class="node">
      <title
         id="title18">139766616398848</title>
      <path
         id="polygon18"
         style="fill:#ffffff;stroke:#000000"
         d="M 301,-96 H 201 v 80 h 100 z" />
      <path
         d="m 225.78321,-77.528002 c -0.826,0.868 -1.274,1.204 -1.96,1.47 -0.406,0.168 -0.868,0.252 -1.26,0.252 -0.924,0 -1.806,-0.49 -2.212,-1.218 -0.406,-0.742 -0.602,-1.736 -0.602,-3.15 0,-2.898 0.896,-4.438 2.576,-4.438 0.658,0 1.246,0.252 1.862,0.784 0.602,0.532 0.938,1.022 1.414,2.072 h 0.35 v -3.276 h -0.378 c -0.21,0.504 -0.336,0.644 -0.63,0.644 -0.126,0 -0.322,-0.056 -0.63,-0.196 -0.798,-0.336 -1.484,-0.49 -2.156,-0.49 -2.8,0 -4.886,2.142 -4.886,5.012 0,2.898 2.044,4.928 4.956,4.928 1.61,0 2.562,-0.49 3.976,-2.044 z m 4.28399,-4.494 c -1.792,0 -3.164,1.47 -3.164,3.374 0,2.002 1.316,3.444 3.164,3.444 1.82,0 3.15,-1.442 3.15,-3.402 0,-1.974 -1.344,-3.416 -3.15,-3.416 z m 0.014,0.434 c 0.812,0 1.078,0.77 1.078,3.066 0,2.156 -0.28,2.884 -1.092,2.884 -0.826,0 -1.106,-0.714 -1.106,-2.772 0,-2.45 0.252,-3.178 1.12,-3.178 z m 7.042,5.852 c -0.448,0 -0.672,-0.28 -0.686,-0.84 v -8.288 h -2.66 v 0.336 c 0.462,0.014 0.7,0.28 0.714,0.812 v 7.14 c -0.014,0.532 -0.266,0.826 -0.714,0.84 v 0.336 h 3.346 z m 3.836,-6.286 c -1.792,0 -3.164,1.47 -3.164,3.374 0,2.002 1.316,3.444 3.164,3.444 1.82,0 3.15,-1.442 3.15,-3.402 0,-1.974 -1.344,-3.416 -3.15,-3.416 z m 0.014,0.434 c 0.812,0 1.078,0.77 1.078,3.066 0,2.156 -0.28,2.884 -1.092,2.884 -0.826,0 -1.106,-0.714 -1.106,-2.772 0,-2.45 0.252,-3.178 1.12,-3.178 z m 7.602,5.852 c -0.854,-0.042 -1.008,-0.224 -1.022,-1.106 v -2.646 c 0,-0.728 0.392,-1.33 0.854,-1.33 0.112,0 0.238,0.098 0.392,0.322 0.266,0.378 0.476,0.504 0.84,0.504 0.518,0 0.882,-0.392 0.882,-0.924 0,-0.644 -0.476,-1.106 -1.134,-1.106 -0.7,0 -1.232,0.364 -1.89,1.316 v -1.148 h -2.646 v 0.336 c 0.588,0.07 0.742,0.238 0.756,0.826 v 4.116 c -0.014,0.588 -0.154,0.742 -0.756,0.84 v 0.336 h 3.724 z m 15.59601,-0.014 c -0.252,0 -0.434,-0.07 -0.574,-0.266 l -2.814,-3.99 c 0.826,-0.266 1.176,-0.434 1.568,-0.798 0.406,-0.378 0.63,-0.938 0.63,-1.568 0,-1.624 -1.386,-2.492 -3.948,-2.492 h -4.508 v 0.35 c 1.008,0.056 1.204,0.252 1.232,1.288 v 6.188 c -0.028,1.036 -0.154,1.176 -1.232,1.288 v 0.35 h 4.732 v -0.35 c -1.064,-0.126 -1.204,-0.28 -1.232,-1.288 v -2.744 h 0.378 l 2.898,4.382 h 2.87 z m -6.146,-8.05 c 0,-0.084 0.056,-0.294 0.098,-0.378 0.084,-0.14 0.308,-0.21 0.658,-0.21 1.288,0 1.806,0.602 1.806,2.072 0,0.896 -0.21,1.442 -0.658,1.736 -0.364,0.238 -0.84,0.336 -1.904,0.35 z m 12.92199,7.504 -0.14,0.14 c -0.042,0.042 -0.084,0.056 -0.154,0.056 -0.196,0 -0.294,-0.112 -0.294,-0.35 v -3.654 c 0,-1.19 -1.064,-1.918 -2.772,-1.918 -1.582,0 -2.646,0.714 -2.646,1.764 0,0.588 0.336,0.924 0.91,0.924 0.56,0 0.952,-0.336 0.952,-0.812 0,-0.196 -0.07,-0.378 -0.252,-0.602 -0.126,-0.14 -0.168,-0.224 -0.168,-0.308 0,-0.294 0.378,-0.518 0.882,-0.518 0.826,0 1.176,0.378 1.176,1.232 v 1.022 c -1.666,0.504 -2.352,0.77 -2.87,1.134 -0.616,0.42 -0.896,0.896 -0.896,1.498 0,0.854 0.644,1.484 1.554,1.484 0.798,0 1.442,-0.28 2.212,-0.98 0.154,0.714 0.462,0.98 1.148,0.98 0.602,0 1.036,-0.224 1.568,-0.798 z m -2.52,-0.504 c -0.378,0.434 -0.658,0.602 -0.994,0.602 -0.42,0 -0.714,-0.378 -0.714,-0.938 0,-0.812 0.588,-1.4 1.708,-1.694 z m 14.294,1.064 c -0.532,-0.014 -0.714,-0.224 -0.7,-0.798 v -3.514 c 0,-1.204 -0.742,-1.974 -1.89,-1.974 -0.798,0 -1.344,0.322 -2.058,1.218 -0.42,-0.882 -0.91,-1.218 -1.792,-1.218 -0.896,0 -1.526,0.378 -2.058,1.218 v -1.05 h -2.674 v 0.336 c 0.588,0.07 0.756,0.238 0.77,0.826 v 4.116 c -0.014,0.588 -0.154,0.742 -0.77,0.84 v 0.336 h 3.36 v -0.336 c -0.476,-0.056 -0.644,-0.252 -0.644,-0.798 v -3.738 c 0,-0.084 0.224,-0.336 0.406,-0.49 0.294,-0.224 0.518,-0.322 0.77,-0.322 0.546,0 0.756,0.322 0.756,1.162 v 3.388 c 0.014,0.546 -0.168,0.756 -0.672,0.798 v 0.336 h 3.276 v -0.336 c -0.476,-0.042 -0.658,-0.266 -0.658,-0.798 v -3.738 c 0,-0.07 0.224,-0.336 0.406,-0.476 0.308,-0.238 0.532,-0.336 0.784,-0.336 0.532,0 0.742,0.336 0.742,1.162 v 3.388 c 0.014,0.56 -0.168,0.77 -0.686,0.798 v 0.336 h 3.332 z m 4.11601,2.912 c -0.84,-0.028 -1.064,-0.294 -1.092,-1.26 v -1.974 c 0.672,0.658 1.022,0.84 1.652,0.84 1.582,0 2.688,-1.456 2.688,-3.528 0,-1.96 -1.05,-3.276 -2.604,-3.276 -0.826,0 -1.33,0.322 -1.764,1.134 v -0.966 h -2.674 v 0.336 c 0.616,0.084 0.756,0.238 0.756,0.826 v 7.014 c -0.014,0.588 -0.126,0.7 -0.784,0.812 v 0.336 h 3.822 z m -1.092,-7.42 c 0,-0.098 0.126,-0.322 0.294,-0.504 0.28,-0.308 0.602,-0.476 0.91,-0.476 0.728,0 1.064,0.84 1.064,2.674 0,1.736 -0.378,2.562 -1.19,2.562 -0.462,0 -0.868,-0.322 -1.078,-0.854 z"
         id="text19"
         style="font-weight:bold;font-size:14px;font-family:Times, serif"
         aria-label="Color Ramp" />
      <path
         d="m 220.706,-54.634002 v -3.248 h -0.322 c -0.154,1.106 -0.392,1.302 -1.54,1.33 h -2.03 v -3.108 c 0.014,-0.42 0.056,-0.462 0.448,-0.476 h 1.904 c 1.624,0.028 1.904,0.224 2.128,1.47 h 0.35 l -0.042,-2.002 h -7.434 v 0.266 c 1.022,0.07 1.19,0.252 1.218,1.26 v 6.062 c -0.014,1.19 -0.154,1.344 -1.218,1.414 v 0.266 h 3.92 v -0.266 c -1.064,-0.042 -1.26,-0.238 -1.274,-1.26 v -3.052 h 2.03 c 1.148,0.014 1.372,0.21 1.54,1.344 z m 6.80398,2.31 c -0.238,0.196 -0.406,0.266 -0.616,0.266 -0.322,0 -0.42,-0.196 -0.42,-0.812 v -2.73 c 0,-0.728 -0.07,-1.134 -0.28,-1.47 -0.308,-0.504 -0.91,-0.77 -1.736,-0.77 -1.316,0 -2.352,0.686 -2.352,1.568 0,0.322 0.266,0.602 0.602,0.602 0.336,0 0.63,-0.28 0.63,-0.588 0,-0.056 -0.014,-0.126 -0.028,-0.224 -0.028,-0.126 -0.042,-0.238 -0.042,-0.336 0,-0.378 0.448,-0.686 1.008,-0.686 0.686,0 1.064,0.406 1.064,1.162 v 0.854 c -2.142,0.854 -2.394,0.98 -2.996,1.512 -0.308,0.28 -0.504,0.756 -0.504,1.218 0,0.882 0.616,1.498 1.47,1.498 0.616,0 1.19,-0.294 2.044,-1.022 0.07,0.742 0.322,1.022 0.896,1.022 0.476,0 0.77,-0.168 1.26,-0.7 z m -2.17,-0.798 c 0,0.42 -0.07,0.574 -0.364,0.742 -0.35,0.196 -0.728,0.308 -1.022,0.308 -0.49,0 -0.882,-0.476 -0.882,-1.078 v -0.056 c 0.014,-0.84 0.63,-1.372 2.268,-1.946 z m 7.77001,-0.462 c -0.672,0.98 -1.176,1.316 -1.974,1.316 -1.288,0 -2.17,-1.12 -2.17,-2.73 0,-1.456 0.77,-2.436 1.904,-2.436 0.504,0 0.686,0.14 0.826,0.672 l 0.084,0.308 c 0.112,0.406 0.364,0.644 0.672,0.644 0.364,0 0.658,-0.266 0.658,-0.588 0,-0.784 -0.98,-1.442 -2.156,-1.442 -0.686,0 -1.4,0.28 -1.974,0.784 -0.7,0.616 -1.092,1.568 -1.092,2.688 0,1.806 1.106,3.108 2.66,3.108 0.63,0 1.19,-0.224 1.694,-0.658 0.378,-0.322 0.644,-0.714 1.064,-1.54 z"
         id="text20"
         style="font-size:14px;font-family:Times, serif"
         aria-label="Fac" />
      <path
         d="m 264.79221,-57.714002 -0.126,-3.15 h -0.294 c -0.084,0.294 -0.308,0.462 -0.588,0.462 -0.126,0 -0.336,-0.042 -0.546,-0.112 -0.686,-0.238 -1.386,-0.35 -2.044,-0.35 -1.148,0 -2.31,0.434 -3.178,1.204 -0.98,0.868 -1.512,2.156 -1.512,3.696 0,2.856 1.862,4.76 4.648,4.76 1.582,0 2.982,-0.644 3.822,-1.778 l -0.252,-0.252 c -1.022,0.994 -1.96,1.414 -3.122,1.414 -0.882,0 -1.666,-0.28 -2.268,-0.812 -0.77,-0.686 -1.204,-1.946 -1.204,-3.514 0,-2.534 1.302,-4.158 3.332,-4.158 0.798,0 1.526,0.294 2.086,0.84 0.448,0.448 0.658,0.84 0.924,1.75 z m 4.018,-0.126 c -1.834,0 -3.094,1.344 -3.094,3.276 0,1.904 1.302,3.304 3.066,3.304 1.764,0 3.108,-1.47 3.108,-3.416 0,-1.848 -1.288,-3.164 -3.08,-3.164 z m -0.182,0.392 c 1.176,0 2.002,1.344 2.002,3.262 0,1.596 -0.63,2.534 -1.68,2.534 -0.546,0 -1.064,-0.336 -1.358,-0.896 -0.392,-0.728 -0.616,-1.708 -0.616,-2.702 0,-1.33 0.644,-2.198 1.652,-2.198 z m 3.976,6.048 h 3.304 v -0.21 c -0.882,-0.042 -1.036,-0.182 -1.05,-0.966 v -8.358 l -0.056,-0.028 c -0.714,0.224 -1.232,0.378 -2.226,0.616 v 0.224 h 0.084 c 0.154,-0.014 0.322,-0.028 0.434,-0.028 0.448,0 0.588,0.196 0.588,0.854 v 6.678 c -0.014,0.756 -0.21,0.952 -1.078,1.008 z m 7.098,-6.44 c -1.834,0 -3.094,1.344 -3.094,3.276 0,1.904 1.302,3.304 3.066,3.304 1.764,0 3.108,-1.47 3.108,-3.416 0,-1.848 -1.288,-3.164 -3.08,-3.164 z m -0.182,0.392 c 1.176,0 2.002,1.344 2.002,3.262 0,1.596 -0.63,2.534 -1.68,2.534 -0.546,0 -1.064,-0.336 -1.358,-0.896 -0.392,-0.728 -0.616,-1.708 -0.616,-2.702 0,-1.33 0.644,-2.198 1.652,-2.198 z m 3.752,6.048 h 3.36 v -0.21 c -0.938,-0.028 -1.162,-0.224 -1.19,-1.05 v -3.15 c 0,-0.448 0.588,-1.148 0.98,-1.148 0.084,0 0.21,0.07 0.364,0.21 0.21,0.21 0.378,0.28 0.56,0.28 0.336,0 0.546,-0.238 0.546,-0.63 0,-0.462 -0.294,-0.742 -0.77,-0.742 -0.588,0 -0.98,0.308 -1.68,1.316 v -1.288 l -0.07,-0.028 c -0.784,0.308 -1.288,0.504 -2.072,0.756 v 0.224 c 0.196,-0.042 0.322,-0.056 0.49,-0.056 0.35,0 0.476,0.224 0.476,0.84 v 3.5 c -0.028,0.728 -0.112,0.812 -0.994,0.966 z"
         id="text21"
         style="font-size:14px;font-family:Times, serif"
         aria-label="Color" />
      <path
         d="m 263.67219,-28.666 c -0.63,-0.042 -0.77,-0.182 -1.26,-1.218 l -3.486,-7.952 h -0.28 l -2.912,6.874 c -0.896,2.044 -1.064,2.268 -1.736,2.296 v 0.266 h 2.772 v -0.266 c -0.672,0 -0.952,-0.168 -0.952,-0.574 0,-0.168 0.042,-0.364 0.112,-0.546 l 0.644,-1.638 h 3.668 l 0.574,1.344 c 0.168,0.378 0.266,0.742 0.266,0.938 0,0.35 -0.238,0.462 -0.98,0.476 v 0.266 h 3.57 z m -6.86,-3.332 1.61,-3.85 1.624,3.85 z m 7.378,3.598 h 3.304 v -0.21 c -0.882,-0.042 -1.036,-0.182 -1.05,-0.966 v -8.358 l -0.056,-0.028 c -0.714,0.224 -1.232,0.378 -2.226,0.616 v 0.224 h 0.084 c 0.154,-0.014 0.322,-0.028 0.434,-0.028 0.448,0 0.588,0.196 0.588,0.854 v 6.678 c -0.014,0.756 -0.21,0.952 -1.078,1.008 z m 3.668,3.038 h 3.388 v -0.252 c -1.05,-0.014 -1.218,-0.154 -1.232,-1.05 v -2.198 c 0.504,0.462 0.826,0.602 1.414,0.602 1.666,0 2.94,-1.568 2.94,-3.598 0,-1.736 -0.98,-2.982 -2.338,-2.982 -0.784,0 -1.4,0.336 -2.016,1.106 v -1.078 l -0.084,-0.028 c -0.756,0.294 -1.246,0.476 -2.016,0.714 v 0.224 c 0.126,-0.014 0.21,-0.014 0.35,-0.014 0.476,0 0.574,0.14 0.574,0.798 v 6.552 c 0,0.742 -0.154,0.882 -0.98,0.966 z m 2.156,-7.714 c 0,-0.42 0.784,-0.924 1.428,-0.924 1.036,0 1.722,1.064 1.722,2.702 0,1.54 -0.686,2.59 -1.694,2.59 -0.658,0 -1.456,-0.504 -1.456,-0.924 z m 11.592,4.466 c -0.756,-0.126 -0.826,-0.224 -0.84,-1.218 v -2.786 c 0,-1.47 -0.574,-2.226 -1.722,-2.226 -0.826,0 -1.414,0.336 -2.058,1.176 v -4.256 l -0.07,-0.042 c -0.49,0.168 -0.84,0.28 -1.61,0.504 l -0.378,0.112 v 0.224 c 0.056,-0.014 0.084,-0.014 0.168,-0.014 0.602,0 0.714,0.112 0.714,0.714 v 6.594 c -0.028,1.008 -0.098,1.12 -0.896,1.218 v 0.21 h 3.024 v -0.21 c -0.812,-0.07 -0.924,-0.224 -0.952,-1.218 v -3.374 c 0.588,-0.644 1.008,-0.882 1.568,-0.882 0.686,0 1.036,0.504 1.036,1.484 v 2.772 c -0.028,0.994 -0.154,1.148 -0.952,1.218 v 0.21 h 2.968 z m 6.37,-0.714 c -0.238,0.196 -0.406,0.266 -0.616,0.266 -0.322,0 -0.42,-0.196 -0.42,-0.812 v -2.73 c 0,-0.728 -0.07,-1.134 -0.28,-1.47 -0.308,-0.504 -0.91,-0.77 -1.736,-0.77 -1.316,0 -2.352,0.686 -2.352,1.568 0,0.322 0.266,0.602 0.602,0.602 0.336,0 0.63,-0.28 0.63,-0.588 0,-0.056 -0.014,-0.126 -0.028,-0.224 -0.028,-0.126 -0.042,-0.238 -0.042,-0.336 0,-0.378 0.448,-0.686 1.008,-0.686 0.686,0 1.064,0.406 1.064,1.162 v 0.854 c -2.142,0.854 -2.394,0.98 -2.996,1.512 -0.308,0.28 -0.504,0.756 -0.504,1.218 0,0.882 0.616,1.498 1.47,1.498 0.616,0 1.19,-0.294 2.044,-1.022 0.07,0.742 0.322,1.022 0.896,1.022 0.476,0 0.77,-0.168 1.26,-0.7 z m -2.17,-0.798 c 0,0.42 -0.07,0.574 -0.364,0.742 -0.35,0.196 -0.728,0.308 -1.022,0.308 -0.49,0 -0.882,-0.476 -0.882,-1.078 v -0.056 c 0.014,-0.84 0.63,-1.372 2.268,-1.946 z"
         id="text22"
         style="font-size:14px;font-family:Times, serif"
         aria-label="Alpha" />
    </g>
    <!-- 139766616395776&#45;&gt;139766616398848 -->
    <g
       id="edge2"
       class="edge">
      <title
         id="title22">139766616395776:e-&gt;139766616398848:w</title>
      <path
         fill="none"
         stroke="#000000"
         d="M154.5,-56C176.2622,-56 184.1254,-56 201.7614,-56"
         id="path22" />
      <path
         id="polygon22"
         style="stroke:#000000"
         d="M 202,-59.5001 212,-56 202,-52.5001 Z" />
    </g>
    <!-- 139766616398848&#45;&gt;139766616396544 -->
    <g
       id="edge4"
       class="edge">
      <title
         id="title23">139766616398848:e-&gt;139766616396544:w</title>
      <path
         fill="none"
         stroke="#000000"
         d="M290,-56C314.4975,-56 318.8801,-75.5524 338.0345,-80.746"
         id="path23" />
      <path
         id="polygon23"
         style="stroke:#000000"
         d="M 337.6412,-84.224 348,-82 l -9.4847,4.7212 z" />
    </g>
  </g>
</svg>
