<svg xmlns="http://www.w3.org/2000/svg" xmlns:xlink="http://www.w3.org/1999/xlink" width="1136pt" height="388pt" viewBox="0.00 0.00 1136.00 387.54">
<g id="graph0" class="graph" transform="translate(4,383.5400085449219) scale(1)">
<polygon fill="white" stroke="none" points="-4,4 -4,-383.54 1132,-383.54 1132,4 -4,4"></polygon>
<!-- 139766273017344 -->
<g id="node1" class="node">
<title>139766273017344</title>
<ellipse fill="none" stroke="#000000" stroke-opacity="0.333333" cx="836" cy="-340.04" rx="27" ry="18"></ellipse>
<text text-anchor="middle" x="836" y="-335.84" font-family="Times,serif" font-size="14.00">1</text>
</g>
<!-- 139766272731648 -->
<g id="node8" class="node">
<title>139766272731648</title>
<polygon fill="lightblue" stroke="black" points="1128,-379.54 990,-379.54 990,-276.54 1128,-276.54 1128,-379.54"></polygon>
<text text-anchor="start" x="1031.79" y="-358.94" font-family="Times,serif" font-weight="bold" font-size="14.00">Interface</text>
<text text-anchor="start" x="1003" y="-334.94" font-family="Times,serif" font-size="14.00">Geometry</text>
<text text-anchor="start" x="1003" y="-311.94" font-family="Times,serif" font-size="14.00">Usage: Iterations</text>
<text text-anchor="start" x="1002.82" y="-288.94" font-family="Times,serif" font-size="14.00">Usage: Geometry</text>
</g>
<!-- 139766273017344&#45;&gt;139766272731648 -->
<g id="edge2" class="edge">
<title>139766273017344-&gt;139766272731648:w</title>
<path fill="none" stroke="black" d="M861.97,-334.17C891.39,-327.74 942.16,-318.14 988.61,-316.72"></path>
<polygon fill="black" stroke="black" points="988.54,-320.22 998.49,-316.56 988.43,-313.22 988.54,-320.22"></polygon>
</g>
<!-- 139766021742848 -->
<g id="node2" class="node">
<title>139766021742848</title>
<ellipse fill="none" stroke="#000000" stroke-opacity="0.333333" cx="564" cy="-248.04" rx="27" ry="18"></ellipse>
<text text-anchor="middle" x="564" y="-243.84" font-family="Times,serif" font-size="14.00">2</text>
</g>
<!-- 139767167826944 -->
<g id="node11" class="node">
<title>139767167826944</title>
<polygon fill="white" stroke="black" points="954,-189.04 718,-189.04 718,-63.04 954,-63.04 954,-189.04"></polygon>
<text text-anchor="start" x="797.69" y="-168.44" font-family="Times,serif" font-weight="bold" font-size="14.00">Repeat Body</text>
<text text-anchor="start" x="731" y="-144.44" font-family="Times,serif" font-size="14.00">Iteration</text>
<text text-anchor="start" x="851.2" y="-144.44" font-family="Times,serif" font-size="14.00">Usage: Iteration</text>
<text text-anchor="start" x="731" y="-121.44" font-family="Times,serif" font-size="14.00">Geometry</text>
<text text-anchor="start" x="842.82" y="-121.44" font-family="Times,serif" font-size="14.00">Usage: Geometry</text>
<text text-anchor="start" x="730.82" y="-98.44" font-family="Times,serif" font-size="14.00">Usage: Geometry</text>
<text text-anchor="start" x="885.02" y="-98.44" font-family="Times,serif" font-size="14.00">Geometry</text>
<text text-anchor="start" x="731" y="-75.44" font-family="Times,serif" font-size="14.00">Reference Set</text>
</g>
<!-- 139766021742848&#45;&gt;139767167826944 -->
<g id="edge12" class="edge">
<title>139766021742848-&gt;139767167826944:w</title>
<path fill="none" stroke="black" d="M591.48,-247.55C616.83,-245.87 655.09,-240.03 682,-221.04 709.27,-201.8 694.8,-160.76 716.68,-151.11"></path>
<polygon fill="black" stroke="black" points="717.3,-154.55 726.51,-149.31 716.05,-147.66 717.3,-154.55"></polygon>
</g>
<!-- 139766021742080 -->
<g id="node3" class="node">
<title>139766021742080</title>
<ellipse fill="none" stroke="#000000" stroke-opacity="0.333333" cx="292" cy="-111.04" rx="27" ry="18"></ellipse>
<text text-anchor="middle" x="292" y="-106.84" font-family="Times,serif" font-size="14.00">1</text>
</g>
<!-- 139766637705216 -->
<g id="node10" class="node">
<title>139766637705216</title>
<polygon fill="white" stroke="black" points="682,-212.04 446,-212.04 446,-86.04 682,-86.04 682,-212.04"></polygon>
<text text-anchor="start" x="525.69" y="-191.44" font-family="Times,serif" font-weight="bold" font-size="14.00">Repeat Body</text>
<text text-anchor="start" x="459" y="-167.44" font-family="Times,serif" font-size="14.00">Iteration</text>
<text text-anchor="start" x="579.2" y="-167.44" font-family="Times,serif" font-size="14.00">Usage: Iteration</text>
<text text-anchor="start" x="459" y="-144.44" font-family="Times,serif" font-size="14.00">Geometry</text>
<text text-anchor="start" x="570.82" y="-144.44" font-family="Times,serif" font-size="14.00">Usage: Geometry</text>
<text text-anchor="start" x="458.82" y="-121.44" font-family="Times,serif" font-size="14.00">Usage: Geometry</text>
<text text-anchor="start" x="613.02" y="-121.44" font-family="Times,serif" font-size="14.00">Geometry</text>
<text text-anchor="start" x="459" y="-98.44" font-family="Times,serif" font-size="14.00">Reference Set</text>
</g>
<!-- 139766021742080&#45;&gt;139766637705216 -->
<g id="edge10" class="edge">
<title>139766021742080-&gt;139766637705216:w</title>
<path fill="none" stroke="black" d="M318.62,-114.86C348.23,-118.97 398.78,-125.03 444.74,-125.93"></path>
<polygon fill="black" stroke="black" points="444.45,-129.42 454.49,-126.03 444.52,-122.43 444.45,-129.42"></polygon>
</g>
<!-- 139766273018880 -->
<g id="node4" class="node">
<title>139766273018880</title>
<ellipse fill="none" stroke="#000000" stroke-opacity="0.333333" cx="69" cy="-237.04" rx="27" ry="18"></ellipse>
<text text-anchor="middle" x="69" y="-232.84" font-family="Times,serif" font-size="14.00">1</text>
</g>
<!-- 139766644626944 -->
<g id="node5" class="node">
<title>139766644626944</title>
<polygon fill="white" stroke="black" points="410,-327.04 174,-327.04 174,-201.04 410,-201.04 410,-327.04"></polygon>
<text text-anchor="start" x="253.69" y="-306.44" font-family="Times,serif" font-weight="bold" font-size="14.00">Repeat Body</text>
<text text-anchor="start" x="187" y="-282.44" font-family="Times,serif" font-size="14.00">Iteration</text>
<text text-anchor="start" x="307.2" y="-282.44" font-family="Times,serif" font-size="14.00">Usage: Iteration</text>
<text text-anchor="start" x="187" y="-259.44" font-family="Times,serif" font-size="14.00">Geometry</text>
<text text-anchor="start" x="298.82" y="-259.44" font-family="Times,serif" font-size="14.00">Usage: Geometry</text>
<text text-anchor="start" x="186.82" y="-236.44" font-family="Times,serif" font-size="14.00">Usage: Geometry</text>
<text text-anchor="start" x="341.02" y="-236.44" font-family="Times,serif" font-size="14.00">Geometry</text>
<text text-anchor="start" x="187" y="-213.44" font-family="Times,serif" font-size="14.00">Reference Set</text>
</g>
<!-- 139766273018880&#45;&gt;139766644626944 -->
<g id="edge6" class="edge">
<title>139766273018880-&gt;139766644626944:w</title>
<path fill="none" stroke="black" d="M96.25,-238.48C116.47,-239.49 145.44,-240.69 172.53,-240.98"></path>
<polygon fill="black" stroke="black" points="172.47,-244.48 182.49,-241.03 172.51,-237.48 172.47,-244.48"></polygon>
</g>
<!-- 139766644626944&#45;&gt;139766272731648 -->
<g id="edge3" class="edge">
<title>139766644626944:e-&gt;139766272731648:w</title>
<path fill="none" stroke="black" d="M400,-264.04C421.02,-264.04 425.17,-272.23 446,-275.04 686.33,-307.45 751.61,-293.98 988.58,-293.55"></path>
<polygon fill="black" stroke="black" points="988.49,-297.05 998.49,-293.54 988.48,-290.05 988.49,-297.05"></polygon>
</g>
<!-- 139766644626944&#45;&gt;139766637705216 -->
<g id="edge9" class="edge">
<title>139766644626944:e-&gt;139766637705216:w</title>
<path fill="none" stroke="black" d="M400,-241.04C443.57,-241.04 414.56,-164.83 445.09,-151.14"></path>
<polygon fill="black" stroke="black" points="445.35,-154.65 454.51,-149.33 444.03,-147.77 445.35,-154.65"></polygon>
</g>
<!-- 139766272732416 -->
<g id="node6" class="node">
<title>139766272732416</title>
<polygon fill="lightblue" stroke="black" points="138,-148.04 0,-148.04 0,-22.04 138,-22.04 138,-148.04"></polygon>
<text text-anchor="start" x="41.79" y="-127.44" font-family="Times,serif" font-weight="bold" font-size="14.00">Interface</text>
<text text-anchor="start" x="72.13" y="-103.44" font-family="Times,serif" font-size="14.00">Iterations</text>
<text text-anchor="start" x="69.02" y="-80.44" font-family="Times,serif" font-size="14.00">Geometry</text>
<text text-anchor="start" x="26.82" y="-57.44" font-family="Times,serif" font-size="14.00">Usage: Geometry</text>
<text text-anchor="start" x="46.88" y="-34.44" font-family="Times,serif" font-size="14.00">Reference Set</text>
</g>
<!-- 139766272732416&#45;&gt;139766644626944 -->
<g id="edge5" class="edge">
<title>139766272732416:e-&gt;139766644626944:w</title>
<path fill="none" stroke="black" d="M128,-85.04C207.12,-85.04 111.39,-246.32 172.75,-262.7"></path>
<polygon fill="black" stroke="black" points="172.15,-266.16 182.5,-263.86 172.98,-259.21 172.15,-266.16"></polygon>
</g>
<!-- 139766272732416&#45;&gt;139766644626944 -->
<g id="edge7" class="edge">
<title>139766272732416:e-&gt;139766644626944:w</title>
<path fill="none" stroke="black" d="M128,-39.04C207.12,-39.04 111.39,-200.32 172.75,-216.7"></path>
<polygon fill="black" stroke="black" points="172.15,-220.16 182.5,-217.86 172.98,-213.21 172.15,-220.16"></polygon>
</g>
<!-- 139766272732416&#45;&gt;139766637705216 -->
<g id="edge11" class="edge">
<title>139766272732416:e-&gt;139766637705216:w</title>
<path fill="none" stroke="black" d="M128,-39.04C254.92,-39.04 287.85,-49.58 410,-84.04 426.96,-88.83 432.06,-98.05 444.62,-101.6"></path>
<polygon fill="black" stroke="black" points="444.14,-105.07 454.5,-102.85 445.02,-98.12 444.14,-105.07"></polygon>
</g>
<!-- 139766272732416&#45;&gt;139767167826944 -->
<g id="edge14" class="edge">
<title>139766272732416:e-&gt;139767167826944:w</title>
<path fill="none" stroke="black" d="M128,-62.04C374.31,-62.04 444.66,-11.16 682,-77.04 700.39,-82.14 703.76,-96.12 716.97,-101.18"></path>
<polygon fill="black" stroke="black" points="716.06,-104.58 726.51,-102.79 717.23,-97.67 716.06,-104.58"></polygon>
</g>
<!-- 139766272732416&#45;&gt;139767167826944 -->
<g id="edge15" class="edge">
<title>139766272732416:e-&gt;139767167826944:w</title>
<path fill="none" stroke="black" d="M128,-39.04C148.49,-39.04 153.52,-36.71 174,-36.04 399.66,-28.69 471.46,42.5 682,-39.04 703.35,-47.31 702.01,-70.4 717,-77.76"></path>
<polygon fill="black" stroke="black" points="716.02,-81.13 726.52,-79.73 717.44,-74.28 716.02,-81.13"></polygon>
</g>
<!-- 139766273018112 -->
<g id="node7" class="node">
<title>139766273018112</title>
<ellipse fill="none" stroke="#000000" stroke-opacity="0.333333" cx="69" cy="-291.04" rx="27" ry="18"></ellipse>
<text text-anchor="middle" x="69" y="-286.84" font-family="Times,serif" font-size="14.00">0</text>
</g>
<!-- 139766273018112&#45;&gt;139766644626944 -->
<g id="edge4" class="edge">
<title>139766273018112-&gt;139766644626944:w</title>
<path fill="none" stroke="black" d="M96.25,-289.6C116.47,-288.59 145.44,-287.39 172.53,-287.1"></path>
<polygon fill="black" stroke="black" points="172.51,-290.6 182.49,-287.05 172.47,-283.6 172.51,-290.6"></polygon>
</g>
<!-- 139766273019648 -->
<g id="node9" class="node">
<title>139766273019648</title>
<ellipse fill="none" stroke="#000000" stroke-opacity="0.333333" cx="292" cy="-165.04" rx="27" ry="18"></ellipse>
<text text-anchor="middle" x="292" y="-160.84" font-family="Times,serif" font-size="14.00">1</text>
</g>
<!-- 139766273019648&#45;&gt;139766637705216 -->
<g id="edge8" class="edge">
<title>139766273019648-&gt;139766637705216:w</title>
<path fill="none" stroke="black" d="M319.24,-166.86C348.92,-168.77 399.06,-171.56 444.55,-171.99"></path>
<polygon fill="black" stroke="black" points="444.47,-175.49 454.49,-172.03 444.5,-168.49 444.47,-175.49"></polygon>
</g>
<!-- 139766637705216&#45;&gt;139767167826944 -->
<g id="edge13" class="edge">
<title>139766637705216:e-&gt;139767167826944:w</title>
<path fill="none" stroke="black" d="M672,-126.04C692.61,-126.04 700.42,-126.04 716.63,-126.04"></path>
<polygon fill="black" stroke="black" points="716.49,-129.54 726.49,-126.04 716.49,-122.54 716.49,-129.54"></polygon>
</g>
<!-- 139767167826944&#45;&gt;139766272731648 -->
<g id="edge1" class="edge">
<title>139767167826944:e-&gt;139766272731648:w</title>
<path fill="none" stroke="black" d="M944,-103.04C1047.8,-103.04 904.08,-321.43 988.54,-338.49"></path>
<polygon fill="black" stroke="black" points="988.21,-341.97 998.49,-339.4 988.86,-335 988.21,-341.97"></polygon>
</g>
</g>
</svg>