<?xml version="1.0" encoding="UTF-8" standalone="no"?>
<!-- Created with Inkscape (http://www.inkscape.org/) -->

<svg
   width="281.42194mm"
   height="160.96881mm"
   viewBox="0 0 281.42194 160.96881"
   version="1.1"
   id="svg1"
   inkscape:version="1.3.2 (091e20ef0f, 2023-11-25)"
   sodipodi:docname="request_based_no_fonts.svg"
   xmlns:inkscape="http://www.inkscape.org/namespaces/inkscape"
   xmlns:sodipodi="http://sodipodi.sourceforge.net/DTD/sodipodi-0.dtd"
   xmlns="http://www.w3.org/2000/svg"
   xmlns:svg="http://www.w3.org/2000/svg">
  <sodipodi:namedview
     id="namedview1"
     pagecolor="#ffffff"
     bordercolor="#000000"
     borderopacity="0.25"
     inkscape:showpageshadow="2"
     inkscape:pageopacity="0.0"
     inkscape:pagecheckerboard="0"
     inkscape:deskcolor="#d1d1d1"
     inkscape:document-units="mm"
     inkscape:zoom="1.0141844"
     inkscape:cx="477.23077"
     inkscape:cy="335.73776"
     inkscape:window-width="2560"
     inkscape:window-height="1011"
     inkscape:window-x="0"
     inkscape:window-y="0"
     inkscape:window-maximized="1"
     inkscape:current-layer="layer1" />
  <defs
     id="defs1">
    <marker
       style="overflow:visible"
       id="marker6"
       refX="0"
       refY="0"
       orient="auto-start-reverse"
       inkscape:stockid="Triangle arrow"
       markerWidth="1"
       markerHeight="1"
       viewBox="0 0 1 1"
       inkscape:isstock="true"
       inkscape:collect="always"
       preserveAspectRatio="xMidYMid">
      <path
         transform="scale(0.5)"
         style="fill:context-stroke;fill-rule:evenodd;stroke:context-stroke;stroke-width:1pt"
         d="M 5.77,0 -2.88,5 V -5 Z"
         id="path6" />
    </marker>
    <marker
       style="overflow:visible"
       id="Triangle"
       refX="0"
       refY="0"
       orient="auto-start-reverse"
       inkscape:stockid="Triangle arrow"
       markerWidth="1"
       markerHeight="1"
       viewBox="0 0 1 1"
       inkscape:isstock="true"
       inkscape:collect="always"
       preserveAspectRatio="xMidYMid">
      <path
         transform="scale(0.5)"
         style="fill:context-stroke;fill-rule:evenodd;stroke:context-stroke;stroke-width:1pt"
         d="M 5.77,0 -2.88,5 V -5 Z"
         id="path135" />
    </marker>
    <marker
       style="overflow:visible"
       id="marker6-8"
       refX="0"
       refY="0"
       orient="auto-start-reverse"
       inkscape:stockid="Triangle arrow"
       markerWidth="1"
       markerHeight="1"
       viewBox="0 0 1 1"
       inkscape:isstock="true"
       inkscape:collect="always"
       preserveAspectRatio="xMidYMid">
      <path
         transform="scale(0.5)"
         style="fill:context-stroke;fill-rule:evenodd;stroke:context-stroke;stroke-width:1pt"
         d="M 5.77,0 -2.88,5 V -5 Z"
         id="path6-4" />
    </marker>
    <marker
       style="overflow:visible"
       id="marker6-8-1"
       refX="0"
       refY="0"
       orient="auto-start-reverse"
       inkscape:stockid="Triangle arrow"
       markerWidth="1"
       markerHeight="1"
       viewBox="0 0 1 1"
       inkscape:isstock="true"
       inkscape:collect="always"
       preserveAspectRatio="xMidYMid">
      <path
         transform="scale(0.5)"
         style="fill:context-stroke;fill-rule:evenodd;stroke:context-stroke;stroke-width:1pt"
         d="M 5.77,0 -2.88,5 V -5 Z"
         id="path6-4-0" />
    </marker>
    <marker
       style="overflow:visible"
       id="marker6-7"
       refX="0"
       refY="0"
       orient="auto-start-reverse"
       inkscape:stockid="Triangle arrow"
       markerWidth="1"
       markerHeight="1"
       viewBox="0 0 1 1"
       inkscape:isstock="true"
       inkscape:collect="always"
       preserveAspectRatio="xMidYMid">
      <path
         transform="scale(0.5)"
         style="fill:context-stroke;fill-rule:evenodd;stroke:context-stroke;stroke-width:1pt"
         d="M 5.77,0 -2.88,5 V -5 Z"
         id="path6-45" />
    </marker>
    <marker
       style="overflow:visible"
       id="marker6-8-1-8"
       refX="0"
       refY="0"
       orient="auto-start-reverse"
       inkscape:stockid="Triangle arrow"
       markerWidth="1"
       markerHeight="1"
       viewBox="0 0 1 1"
       inkscape:isstock="true"
       inkscape:collect="always"
       preserveAspectRatio="xMidYMid">
      <path
         transform="scale(0.5)"
         style="fill:context-stroke;fill-rule:evenodd;stroke:context-stroke;stroke-width:1pt"
         d="M 5.77,0 -2.88,5 V -5 Z"
         id="path6-4-0-6" />
    </marker>
    <marker
       style="overflow:visible"
       id="Triangle-6"
       refX="0"
       refY="0"
       orient="auto-start-reverse"
       inkscape:stockid="Triangle arrow"
       markerWidth="1"
       markerHeight="1"
       viewBox="0 0 1 1"
       inkscape:isstock="true"
       inkscape:collect="always"
       preserveAspectRatio="xMidYMid">
      <path
         transform="scale(0.5)"
         style="fill:context-stroke;fill-rule:evenodd;stroke:context-stroke;stroke-width:1pt"
         d="M 5.77,0 -2.88,5 V -5 Z"
         id="path135-4" />
    </marker>
    <marker
       style="overflow:visible"
       id="marker8"
       refX="0"
       refY="0"
       orient="auto-start-reverse"
       inkscape:stockid="Triangle arrow"
       markerWidth="1"
       markerHeight="1"
       viewBox="0 0 1 1"
       inkscape:isstock="true"
       inkscape:collect="always"
       preserveAspectRatio="xMidYMid">
      <path
         transform="scale(0.5)"
         style="fill:context-stroke;fill-rule:evenodd;stroke:context-stroke;stroke-width:1pt"
         d="M 5.77,0 -2.88,5 V -5 Z"
         id="path8" />
    </marker>
  </defs>
  <g
     inkscape:label="Layer 1"
     inkscape:groupmode="layer"
     id="layer1"
     transform="translate(-83.877016,-28.019302)">
    <path
       id="rect1"
       style="fill:#191919;stroke-width:1.28807;paint-order:markers stroke fill"
       d="M 83.877016,28.019302 H 365.29895 V 188.98812 H 83.877016 Z" />
    <path
       style="font-weight:bold;font-size:12.7px;font-family:'FiraCode Nerd Font';-inkscape-font-specification:'FiraCode Nerd Font Bold';text-align:center;text-anchor:middle;fill:#ffffff;stroke-width:1.243;stroke-linecap:round;stroke-linejoin:bevel;paint-order:markers stroke fill"
       d="m 326.36906,38.274543 q 0,0.840154 -0.44287,1.484923 -0.43636,0.644769 -1.25698,1.009487 -0.82061,0.364718 -1.97338,0.364718 -1.27651,0 -2.14272,-0.371231 -0.85969,-0.377743 -1.42631,-0.931333 l 1.08113,-1.198359 q 0.50149,0.436359 1.10718,0.677333 0.60569,0.234462 1.32862,0.234462 0.67082,0 1.08764,-0.286564 0.41682,-0.293077 0.41682,-0.820615 0,-0.494975 -0.35169,-0.775026 -0.34518,-0.280051 -1.28954,-0.566616 -1.58262,-0.481948 -2.25344,-1.13323 -0.66431,-0.657795 -0.66431,-1.686821 0,-0.827128 0.4559,-1.413282 0.46241,-0.586154 1.23744,-0.892256 0.77502,-0.312616 1.70636,-0.312616 1.04856,0 1.84964,0.306103 0.80108,0.29959 1.38723,0.859692 l -1.00949,1.159282 q -0.4559,-0.384256 -0.98343,-0.566615 -0.52754,-0.188872 -1.07462,-0.188872 -0.6122,0 -0.98344,0.227949 -0.37123,0.221436 -0.37123,0.657795 0,0.286564 0.16282,0.481948 0.16282,0.195385 0.56662,0.371231 0.40379,0.169334 1.1202,0.397282 0.85318,0.260513 1.45888,0.625231 0.6122,0.358205 0.93133,0.905282 0.32564,0.547077 0.32564,1.380718 z m 7.55488,2.233897 q -0.4038,0.260513 -0.97692,0.442872 -0.57313,0.182359 -1.28954,0.182359 -1.35467,0 -2.01246,-0.690359 -0.6578,-0.696872 -0.6578,-1.888718 v -3.139179 h -1.45236 V 33.99562 h 1.45236 v -1.497949 l 2.05805,-0.247487 v 1.745436 h 2.22739 l -0.2019,1.419795 h -2.02549 v 3.139179 q 0,0.514513 0.23446,0.735949 0.23446,0.221436 0.74898,0.221436 0.36472,0 0.66431,-0.08467 0.3061,-0.09118 0.54707,-0.227949 z m 7.41159,-1.589128 q 0,0.390769 0.10421,0.566616 0.11072,0.175846 0.35169,0.267025 l -0.42333,1.354667 q -0.61221,-0.05862 -1.03554,-0.267026 -0.41682,-0.214923 -0.6578,-0.644769 -0.39728,0.475436 -1.016,0.709897 -0.61871,0.227949 -1.26348,0.227949 -1.06811,0 -1.70636,-0.605692 -0.63175,-0.612205 -0.63175,-1.56959 0,-1.126718 0.87924,-1.738923 0.88574,-0.612205 2.48789,-0.612205 h 0.93134 v -0.260513 q 0,-1.06159 -1.3677,-1.06159 -0.33215,0 -0.85318,0.09769 -0.52102,0.09118 -1.04205,0.267025 l -0.47543,-1.367692 q 0.67082,-0.254 1.39374,-0.384256 0.72944,-0.130257 1.30256,-0.130257 1.54354,0 2.27949,0.631744 0.74246,0.625231 0.74246,1.810564 z m -3.23036,0.742462 q 0.33216,0 0.69688,-0.195385 0.36471,-0.201897 0.55359,-0.566615 v -1.120205 h -0.508 q -0.8597,0 -1.26349,0.267025 -0.4038,0.260513 -0.4038,0.768513 0,0.397282 0.24098,0.625231 0.24749,0.221436 0.68384,0.221436 z m 5.28842,1.250461 v -1.380718 h 0.9118 v -4.168205 h -0.9118 V 33.99562 h 2.48139 l 0.37774,1.556564 q 0.37123,-0.892256 0.94436,-1.328615 0.57964,-0.436359 1.41328,-0.436359 0.35169,0 0.62523,0.05861 0.27354,0.0521 0.51451,0.149795 l -0.38425,2.891692 h -1.28954 v -1.276513 q -0.58616,0.104206 -1.02903,0.638257 -0.44287,0.527538 -0.68384,1.302564 v 1.979897 h 1.36769 v 1.380718 z m 13.97652,-0.403795 q -0.4038,0.260513 -0.97692,0.442872 -0.57313,0.182359 -1.28954,0.182359 -1.35467,0 -2.01246,-0.690359 -0.6578,-0.696872 -0.6578,-1.888718 v -3.139179 h -1.45236 V 33.99562 h 1.45236 v -1.497949 l 2.05805,-0.247487 v 1.745436 h 2.22739 l -0.2019,1.419795 h -2.02549 v 3.139179 q 0,0.514513 0.23446,0.735949 0.23447,0.221436 0.74898,0.221436 0.36472,0 0.66431,-0.08467 0.3061,-0.09118 0.54707,-0.227949 z"
       id="text6"
       aria-label="Start" />
    <path
       style="fill:none;stroke:#ffffff;stroke-width:1.243;stroke-linecap:round;stroke-linejoin:bevel;stroke-dasharray:none;marker-end:url(#marker8);paint-order:markers stroke fill"
       d="M 337.74467,45.360519 V 74.24845"
       id="path7"
       sodipodi:nodetypes="cc" />
    <path
       id="rect2"
       style="fill:#ffffff;stroke-width:1.643;stroke-linecap:round;stroke-linejoin:bevel;paint-order:markers stroke fill"
       d="m 321.74876,81.821243 h 32.86732 c 3.11081,0 5.61518,2.504374 5.61518,5.615187 v 23.16167 c 0,3.11081 -2.50437,5.61519 -5.61518,5.61519 h -32.86732 c -3.11081,0 -5.61518,-2.50438 -5.61518,-5.61519 V 87.43643 c 0,-3.110813 2.50437,-5.615187 5.61518,-5.615187 z" />
    <path
       id="rect2-9"
       style="fill:#ffffff;stroke-width:1.643;stroke-linecap:round;stroke-linejoin:bevel;paint-order:markers stroke fill"
       d="m 94.923864,147.66725 h 32.867316 c 3.11081,0 5.61518,2.50437 5.61518,5.61519 v 23.16167 c 0,3.11081 -2.50437,5.61519 -5.61518,5.61519 H 94.923864 c -3.110813,0 -5.615186,-2.50438 -5.615186,-5.61519 v -23.16167 c 0,-3.11082 2.504373,-5.61519 5.615186,-5.61519 z" />
    <path
       id="rect2-9-9"
       style="fill:#ffffff;stroke-width:1.643;stroke-linecap:round;stroke-linejoin:bevel;paint-order:markers stroke fill"
       d="m 94.923864,99.356026 h 32.867316 c 3.11081,0 5.61518,2.504374 5.61518,5.615184 v 23.16167 c 0,3.11082 -2.50437,5.61519 -5.61518,5.61519 H 94.923864 c -3.110813,0 -5.615186,-2.50437 -5.615186,-5.61519 v -23.16167 c 0,-3.11081 2.504373,-5.615184 5.615186,-5.615184 z" />
    <path
       id="rect2-9-9-1"
       style="fill:#ffffff;stroke-width:1.643;stroke-linecap:round;stroke-linejoin:bevel;paint-order:markers stroke fill"
       d="m 94.923864,51.044788 h 32.867316 c 3.11081,0 5.61518,2.504374 5.61518,5.615187 v 23.161671 c 0,3.110813 -2.50437,5.615186 -5.61518,5.615186 H 94.923864 c -3.110813,0 -5.615186,-2.504373 -5.615186,-5.615186 V 56.659975 c 0,-3.110813 2.504373,-5.615187 5.615186,-5.615187 z" />
    <path
       style="font-weight:bold;font-size:8.46667px;font-family:'FiraCode Nerd Font';-inkscape-font-specification:'FiraCode Nerd Font Bold';text-align:center;text-anchor:middle;stroke-width:1.643;stroke-linecap:round;stroke-linejoin:bevel;paint-order:markers stroke fill"
       d="m 327.6946,90.188112 q 0,0.955214 -0.27354,1.667282 -0.27353,0.707727 -0.81193,1.102838 -0.53405,0.39077 -1.32427,0.39077 -0.78588,0 -1.32428,-0.382086 -0.53839,-0.386427 -0.81193,-1.094154 -0.27354,-0.707727 -0.27354,-1.68465 0,-0.955214 0.27354,-1.662941 0.27354,-0.707727 0.81193,-1.098496 0.5384,-0.395112 1.32428,-0.395112 0.79022,0 1.32427,0.382086 0.5384,0.382086 0.81193,1.089812 0.27354,0.707727 0.27354,1.684651 z m -1.45887,0 q 0,-1.111522 -0.22143,-1.61518 -0.22144,-0.503659 -0.72944,-0.503659 -0.508,0 -0.72944,0.508 -0.22143,0.503659 -0.22143,1.610839 0,1.111522 0.22577,1.61518 0.22578,0.503658 0.7251,0.503658 0.52102,0 0.73378,-0.508 0.21709,-0.512342 0.21709,-1.610838 z m 3.63416,-1.597813 v 3.156548 q 0,0.334325 0.12157,0.46024 0.12592,0.125914 0.34735,0.125914 0.21276,0 0.42551,-0.134598 0.21275,-0.134598 0.35603,-0.364718 v -3.243386 h 1.37204 v 4.611079 h -1.19836 l -0.0608,-0.538394 q -0.23446,0.338667 -0.61655,0.512343 -0.38208,0.173675 -0.7989,0.173675 -0.66865,0 -0.99429,-0.386428 -0.32564,-0.390769 -0.32564,-1.046393 v -3.325882 z m 7.98907,4.341882 q -0.2692,0.173675 -0.65129,0.295248 -0.38208,0.121573 -0.85969,0.121573 -0.90311,0 -1.34164,-0.46024 -0.43853,-0.464581 -0.43853,-1.259145 v -2.092788 h -0.96824 v -0.94653 h 0.96824 v -0.998633 l 1.37204,-0.164991 v 1.163624 h 1.48492 l -0.1346,0.94653 h -1.35032 v 2.092788 q 0,0.343008 0.1563,0.490632 0.15631,0.147624 0.49932,0.147624 0.24314,0 0.44287,-0.05644 0.20407,-0.06079 0.36472,-0.151966 z m 3.61245,-4.493848 q 0.60352,0 0.97258,0.29959 0.36906,0.29959 0.53839,0.846667 0.17368,0.547077 0.17368,1.298223 0,0.712069 -0.20841,1.272171 -0.20841,0.555761 -0.60352,0.87706 -0.39512,0.316958 -0.95956,0.316958 -0.67299,0 -1.09416,-0.481949 v 2.114497 l -1.37203,0.143282 v -6.534533 h 1.21573 l 0.0608,0.516684 q 0.28223,-0.360376 0.61655,-0.512342 0.33433,-0.156308 0.65997,-0.156308 z m -0.42551,1.011659 q -0.2388,0 -0.42116,0.143282 -0.18236,0.143282 -0.33433,0.390769 v 1.945163 q 0.14329,0.212753 0.29959,0.312616 0.16065,0.09986 0.37775,0.09986 0.36472,0 0.56878,-0.329983 0.20407,-0.334325 0.20407,-1.111522 0,-0.573128 -0.0825,-0.885744 -0.0825,-0.316957 -0.23881,-0.43853 -0.1563,-0.125914 -0.3734,-0.125914 z m 4.45478,-0.859693 v 3.156548 q 0,0.334325 0.12157,0.46024 0.12591,0.125914 0.34735,0.125914 0.21275,0 0.4255,-0.134598 0.21276,-0.134598 0.35604,-0.364718 v -3.243386 h 1.37203 v 4.611079 h -1.19836 l -0.0608,-0.538394 q -0.23446,0.338667 -0.61655,0.512343 -0.38208,0.173675 -0.79891,0.173675 -0.66865,0 -0.99429,-0.386428 -0.32564,-0.390769 -0.32564,-1.046393 v -3.325882 z m 7.98906,4.341882 q -0.26919,0.173675 -0.65128,0.295248 -0.38208,0.121573 -0.85969,0.121573 -0.90311,0 -1.34164,-0.46024 -0.43853,-0.464581 -0.43853,-1.259145 v -2.092788 h -0.96824 v -0.94653 h 0.96824 v -0.998633 l 1.37203,-0.164991 v 1.163624 h 1.48493 l -0.1346,0.94653 h -1.35033 v 2.092788 q 0,0.343008 0.15631,0.490632 0.15631,0.147624 0.49932,0.147624 0.24314,0 0.44287,-0.05644 0.20407,-0.06079 0.36472,-0.151966 z"
       id="text2"
       aria-label="Output" />
    <g
       id="g4"
       transform="translate(-26.637568,-1.7335645)">
      <path
         id="rect2-1"
         style="fill:#ffffff;stroke-width:1.643;stroke-linecap:round;stroke-linejoin:bevel;paint-order:markers stroke fill"
         d="m 241.05614,75.424515 h 32.86731 c 3.11081,0 5.61519,2.504373 5.61519,5.615186 v 54.791429 c 0,3.11082 -2.50438,5.61519 -5.61519,5.61519 h -32.86731 c -3.11082,0 -5.61519,-2.50437 -5.61519,-5.61519 V 81.039701 c 0,-3.110813 2.50437,-5.615186 5.61519,-5.615186 z" />
      <path
         style="font-weight:bold;font-size:8.46667px;font-family:'FiraCode Nerd Font';-inkscape-font-specification:'FiraCode Nerd Font Bold';text-align:center;text-anchor:middle;stroke-width:1.643;stroke-linecap:round;stroke-linejoin:bevel;paint-order:markers stroke fill"
         d="m 247.3907,85.235114 q 0,0.560103 -0.29525,0.989949 -0.2909,0.429846 -0.83798,0.672992 -0.54708,0.243145 -1.31559,0.243145 -0.85101,0 -1.42848,-0.247487 -0.57313,-0.251829 -0.95087,-0.620889 l 0.72075,-0.798907 q 0.33433,0.290906 0.73812,0.451556 0.4038,0.156308 0.88575,0.156308 0.44721,0 0.72509,-0.191043 0.27788,-0.195385 0.27788,-0.547077 0,-0.329983 -0.23446,-0.516684 -0.23012,-0.186701 -0.85969,-0.377744 -1.05508,-0.321299 -1.50229,-0.755487 -0.44288,-0.43853 -0.44288,-1.124548 0,-0.551419 0.30394,-0.942188 0.30827,-0.39077 0.82495,-0.594838 0.51669,-0.20841 1.13758,-0.20841 0.69904,0 1.23309,0.204068 0.53405,0.199727 0.92482,0.573129 l -0.67299,0.772855 q -0.30393,-0.256172 -0.65562,-0.377744 -0.3517,-0.125915 -0.71642,-0.125915 -0.40813,0 -0.65562,0.151966 -0.24749,0.147624 -0.24749,0.43853 0,0.191043 0.10855,0.321299 0.10855,0.130257 0.37774,0.247488 0.2692,0.112889 0.74681,0.264855 0.56878,0.173675 0.97258,0.41682 0.40814,0.238804 0.62089,0.603522 0.21709,0.364718 0.21709,0.920479 z m 4.80213,1.758462 h -1.51532 l -0.39511,-3.100104 -0.41248,3.100104 h -1.48926 l -0.68168,-4.611079 h 1.2548 l 0.29959,3.755728 0.48629,-3.173916 h 1.15495 l 0.43418,3.173916 0.30828,-3.755728 h 1.21138 z m 3.28246,-7.025165 q 0.35604,0 0.58182,0.221436 0.22577,0.221436 0.22577,0.551419 0,0.329983 -0.22577,0.555761 -0.22578,0.221436 -0.58182,0.221436 -0.36037,0 -0.59049,-0.221436 -0.22578,-0.225778 -0.22578,-0.555761 0,-0.329983 0.22578,-0.551419 0.23012,-0.221436 0.59049,-0.221436 z m 0.8293,2.414086 v 3.673233 h 1.17231 v 0.937846 h -3.85125 V 86.05573 h 1.30691 v -2.735386 h -1.26349 v -0.937847 z m 6.54322,4.341882 q -0.26919,0.173676 -0.65128,0.295248 -0.38208,0.121573 -0.85969,0.121573 -0.90311,0 -1.34164,-0.460239 -0.43853,-0.464582 -0.43853,-1.259146 v -2.092787 h -0.96824 v -0.946531 h 0.96824 v -0.998633 l 1.37203,-0.164991 v 1.163624 h 1.48493 l -0.1346,0.946531 h -1.35033 v 2.092787 q 0,0.343008 0.15631,0.490632 0.15631,0.147624 0.49932,0.147624 0.24314,0 0.44287,-0.05644 0.20407,-0.06079 0.36472,-0.151966 z m 3.50391,-0.664308 q 0.28222,0 0.52971,-0.108547 0.25183,-0.112889 0.49931,-0.286564 l 0.61221,0.868377 q -0.30393,0.260512 -0.74246,0.434188 -0.43419,0.173675 -0.97259,0.173675 -0.74246,0 -1.27651,-0.303932 -0.53405,-0.308273 -0.82061,-0.851009 -0.28657,-0.547077 -0.28657,-1.267829 0,-0.720753 0.29091,-1.280855 0.29525,-0.564445 0.83364,-0.885744 0.54273,-0.3213 1.2852,-0.3213 0.52536,0 0.9335,0.147624 0.41248,0.143283 0.75549,0.429847 l -0.59484,0.824957 q -0.23446,-0.164991 -0.49497,-0.256171 -0.26052,-0.09118 -0.54274,-0.09118 -0.46458,0 -0.75114,0.329983 -0.28223,0.325641 -0.28223,1.102838 0,0.508 0.1346,0.803248 0.1346,0.290906 0.36472,0.416821 0.23446,0.121572 0.52537,0.121572 z m 4.13781,-5.644446 v 2.42277 q 0.57747,-0.607864 1.35467,-0.607864 0.61655,0 0.94219,0.360377 0.32564,0.360376 0.32564,1.016 v 3.386668 H 271.74 v -3.004582 q 0,-0.416821 -0.0955,-0.581813 -0.0912,-0.164991 -0.34736,-0.164991 -0.21709,0 -0.41682,0.151966 -0.19538,0.147624 -0.39077,0.408137 v 3.191283 h -1.37203 v -6.443353 z"
         id="text2-8"
         aria-label="Switch" />
      <path
         style="font-weight:bold;font-size:7.05556px;font-family:'FiraCode Nerd Font';-inkscape-font-specification:'FiraCode Nerd Font Bold';text-align:center;text-anchor:middle;stroke-width:1.643;stroke-linecap:round;stroke-linejoin:bevel;paint-order:markers stroke fill"
         d="m 241.0197,98.007054 q 0.53912,0 0.91541,0.144729 0.37992,0.141112 0.6947,0.401625 l -0.58253,0.701937 q -0.20624,-0.170057 -0.4559,-0.267749 -0.24966,-0.101311 -0.54274,-0.101311 -0.31478,0 -0.5753,0.180912 -0.26051,0.177294 -0.41609,0.564445 -0.15559,0.383528 -0.15559,0.998628 0,0.90456 0.32564,1.31704 0.32926,0.40886 0.84305,0.40886 0.3763,0 0.62596,-0.14111 0.24966,-0.14111 0.45951,-0.30755 l 0.53912,0.68747 q -0.28222,0.2786 -0.6947,0.4776 -0.41248,0.19901 -0.99501,0.19901 -0.68023,0 -1.2085,-0.30032 -0.52464,-0.30393 -0.82495,-0.89008 -0.2967,-0.58977 -0.2967,-1.45092 0,-0.839426 0.30755,-1.42558 0.31117,-0.586154 0.84305,-0.890086 0.53188,-0.30755 1.19402,-0.30755 z m 3.92217,1.172308 q 0.59339,0 1.00949,0.253277 0.41609,0.253276 0.63681,0.712791 0.22071,0.4559 0.22071,1.071 0,0.96245 -0.49208,1.5088 -0.49208,0.54636 -1.37493,0.54636 -0.88285,0 -1.37493,-0.53912 -0.49208,-0.53912 -0.49208,-1.5088 0,-0.61149 0.22071,-1.071 0.22433,-0.459518 0.64043,-0.716413 0.41971,-0.256895 1.00587,-0.256895 z m 0,0.843048 q -0.35097,0 -0.52103,0.28946 -0.16644,0.28584 -0.16644,0.9118 0,0.63681 0.16644,0.92265 0.17006,0.28584 0.52103,0.28584 0.35097,0 0.51741,-0.28584 0.17005,-0.28584 0.17005,-0.92989 0,-0.62234 -0.17005,-0.90818 -0.16644,-0.28584 -0.51741,-0.28584 z m 2.6775,3.12616 v -3.842569 h 0.99863 l 0.0796,0.445043 q 0.2569,-0.289459 0.54274,-0.43057 0.28584,-0.141112 0.65128,-0.141112 0.49208,0 0.7743,0.300314 0.28222,0.300314 0.28222,0.846664 v 2.82223 h -1.14336 v -2.49297 q 0,-0.35458 -0.0796,-0.49208 -0.076,-0.14111 -0.28946,-0.14111 -0.18091,0 -0.34735,0.11578 -0.16282,0.11579 -0.32564,0.32203 v 2.68835 z m 6.5273,-5.488867 1.14336,0.119402 v 5.369465 h -1.01311 l -0.0579,-0.42334 q -0.1592,0.22433 -0.42333,0.38715 -0.26413,0.15921 -0.64043,0.15921 -0.47761,0 -0.79239,-0.2569 -0.31117,-0.25689 -0.46676,-0.71641 -0.15196,-0.46313 -0.15196,-1.08185 0,-0.59339 0.18453,-1.05291 0.18453,-0.459513 0.52826,-0.720026 0.34373,-0.264132 0.81772,-0.264132 0.51741,0 0.872,0.354587 z m -0.56445,2.355467 q -0.29669,0 -0.47761,0.28223 -0.18091,0.2786 -0.18091,0.92627 0,0.47398 0.076,0.73812 0.076,0.26051 0.20985,0.36544 0.13388,0.10493 0.30755,0.10493 0.19177,0 0.34735,-0.11941 0.15921,-0.1194 0.28223,-0.32564 v -1.65715 q -0.11941,-0.14835 -0.25328,-0.23157 -0.13387,-0.0832 -0.31117,-0.0832 z m 4.37807,-2.720909 q 0.2967,0 0.48484,0.18453 0.18815,0.18453 0.18815,0.459516 0,0.274986 -0.18815,0.463135 -0.18814,0.18453 -0.48484,0.18453 -0.30031,0 -0.49208,-0.18453 -0.18815,-0.188149 -0.18815,-0.463135 0,-0.274986 0.18815,-0.459516 0.19177,-0.18453 0.49208,-0.18453 z m 0.69108,2.01174 v 3.061029 h 0.97693 v 0.78154 h -3.20938 v -0.78154 h 1.08909 v -2.27949 h -1.05291 v -0.781539 z m 5.45269,3.618239 q -0.22433,0.14473 -0.54274,0.24604 -0.3184,0.10131 -0.71641,0.10131 -0.75259,0 -1.11803,-0.38354 -0.36544,-0.38715 -0.36544,-1.04928 v -1.74399 h -0.80687 v -0.788779 h 0.80687 v -0.832195 l 1.14336,-0.137493 v 0.969688 h 1.23743 l -0.11216,0.788779 h -1.12527 v 1.74399 q 0,0.28584 0.13025,0.40886 0.13026,0.12302 0.4161,0.12302 0.20262,0 0.36906,-0.047 0.17006,-0.0507 0.30393,-0.12664 z m 2.54,-5.629979 q 0.2967,0 0.48485,0.18453 0.18814,0.18453 0.18814,0.459516 0,0.274986 -0.18814,0.463135 -0.18815,0.18453 -0.48485,0.18453 -0.30031,0 -0.49208,-0.18453 -0.18815,-0.188149 -0.18815,-0.463135 0,-0.274986 0.18815,-0.459516 0.19177,-0.18453 0.49208,-0.18453 z m 0.69108,2.01174 v 3.061029 h 0.97693 v 0.78154 h -3.20938 v -0.78154 h 1.08909 v -2.27949 h -1.0529 v -0.781539 z m 3.65804,-0.126639 q 0.5934,0 1.00949,0.253277 0.4161,0.253276 0.63681,0.712791 0.22071,0.4559 0.22071,1.071 0,0.96245 -0.49208,1.5088 -0.49208,0.54636 -1.37493,0.54636 -0.88285,0 -1.37493,-0.53912 -0.49208,-0.53912 -0.49208,-1.5088 0,-0.61149 0.22072,-1.071 0.22433,-0.459518 0.64042,-0.716413 0.41972,-0.256895 1.00587,-0.256895 z m 0,0.843048 q -0.35096,0 -0.52102,0.28946 -0.16644,0.28584 -0.16644,0.9118 0,0.63681 0.16644,0.92265 0.17006,0.28584 0.52102,0.28584 0.35097,0 0.51741,-0.28584 0.17006,-0.28584 0.17006,-0.92989 0,-0.62234 -0.17006,-0.90818 -0.16644,-0.28584 -0.51741,-0.28584 z m 2.6775,3.12616 v -3.842569 h 0.99864 l 0.0796,0.445043 q 0.25689,-0.289459 0.54273,-0.43057 0.28584,-0.141112 0.65128,-0.141112 0.49208,0 0.77431,0.300314 0.28222,0.300314 0.28222,0.846664 v 2.82223 h -1.14336 v -2.49297 q 0,-0.35458 -0.0796,-0.49208 -0.076,-0.14111 -0.28946,-0.14111 -0.18091,0 -0.34735,0.11578 -0.16282,0.11579 -0.32564,0.32203 v 2.68835 z"
         id="text2-8-5"
         aria-label="Condition" />
      <path
         style="font-weight:bold;font-size:7.05556px;font-family:'FiraCode Nerd Font';-inkscape-font-specification:'FiraCode Nerd Font Bold';text-align:center;text-anchor:middle;stroke-width:1.643;stroke-linecap:round;stroke-linejoin:bevel;paint-order:markers stroke fill"
         d="m 239.86548,115.23797 v 1.32789 h 1.75847 v 0.85028 h -1.75847 v 1.99003 h -1.1904 v -5.01487 h 3.29622 l -0.12302,0.84667 z m 6.11121,3.06102 q 0,0.2171 0.0579,0.31479 0.0615,0.0977 0.19538,0.14835 l -0.23518,0.75259 q -0.34012,-0.0326 -0.5753,-0.14835 -0.23157,-0.1194 -0.36544,-0.3582 -0.22072,0.26413 -0.56445,0.39439 -0.34373,0.12663 -0.70194,0.12663 -0.59339,0 -0.94797,-0.33649 -0.35097,-0.34012 -0.35097,-0.872 0,-0.62595 0.48846,-0.96607 0.49208,-0.34011 1.38217,-0.34011 h 0.5174 v -0.14473 q 0,-0.58977 -0.75983,-0.58977 -0.18453,0 -0.47399,0.0543 -0.28945,0.0507 -0.57891,0.14835 l -0.26413,-0.75983 q 0.37267,-0.14111 0.7743,-0.21348 0.40524,-0.0724 0.72365,-0.0724 0.85752,0 1.26638,0.35097 0.41248,0.34735 0.41248,1.00587 z m -1.79465,0.41248 q 0.18453,0 0.38715,-0.10854 0.20262,-0.11217 0.30755,-0.31479 v -0.62234 h -0.28222 q -0.47761,0 -0.70194,0.14835 -0.22433,0.14473 -0.22433,0.42695 0,0.22071 0.13388,0.34735 0.13749,0.12302 0.37991,0.12302 z m 4.90633,-4.67476 v 4.16097 q 0,0.23157 0.13026,0.33288 0.13387,0.0977 0.36544,0.0977 0.14835,0 0.28584,-0.0326 0.13749,-0.0362 0.2569,-0.0832 l 0.27498,0.76345 q -0.19538,0.10131 -0.47037,0.17729 -0.27498,0.076 -0.64043,0.076 -0.6947,0 -1.02034,-0.398 -0.32564,-0.40163 -0.32564,-1.07462 v -3.23832 h -1.13251 v -0.78154 z m 3.87875,4.67476 q 0.28584,0 0.45952,-0.0905 0.17729,-0.0905 0.17729,-0.27137 0,-0.12302 -0.0687,-0.20624 -0.0687,-0.0832 -0.26413,-0.1592 -0.19539,-0.076 -0.57892,-0.18091 -0.52826,-0.14112 -0.86114,-0.40525 -0.32926,-0.26413 -0.32926,-0.7743 0,-0.51379 0.42695,-0.85029 0.43057,-0.33649 1.24106,-0.33649 0.51378,0 0.8937,0.13387 0.38353,0.13026 0.66214,0.33288 l -0.4559,0.67299 q -0.2388,-0.14834 -0.51379,-0.23518 -0.27499,-0.0905 -0.55359,-0.0905 -0.54997,0 -0.54997,0.2967 0,0.0977 0.0687,0.17005 0.0724,0.0687 0.26775,0.14473 0.19539,0.0724 0.57168,0.18092 0.37268,0.10492 0.64767,0.24242 0.2786,0.13749 0.43057,0.36906 0.15196,0.22795 0.15196,0.60424 0,0.41972 -0.24965,0.70556 -0.24966,0.28222 -0.66214,0.42333 -0.41248,0.14111 -0.90456,0.14111 -0.55721,0 -0.98416,-0.1592 -0.42695,-0.1592 -0.72727,-0.41971 l 0.5753,-0.64405 q 0.22434,0.17368 0.50656,0.28946 0.28584,0.11578 0.62233,0.11578 z m 3.79192,-0.8937 q 0.0579,0.47037 0.30755,0.67661 0.24966,0.20262 0.6151,0.20262 0.26413,0 0.51017,-0.0868 0.24604,-0.0868 0.47399,-0.23157 l 0.45952,0.62234 q -0.27137,0.23157 -0.65852,0.37992 -0.38354,0.14834 -0.87562,0.14834 -0.65852,0 -1.10356,-0.26051 -0.44504,-0.26413 -0.66937,-0.72365 -0.22433,-0.45951 -0.22433,-1.05652 0,-0.56806 0.21709,-1.0312 0.2171,-0.46675 0.63319,-0.74174 0.41972,-0.2786 1.02396,-0.2786 0.54997,0 0.9516,0.23518 0.40524,0.23519 0.62595,0.67661 0.22433,0.44143 0.22433,1.06015 0,0.0977 -0.007,0.20986 -0.004,0.11216 -0.0145,0.199 z m 0.70917,-1.61374 q -0.30755,0 -0.4957,0.22072 -0.18814,0.22071 -0.22794,0.70555 h 1.41111 q -0.004,-0.41971 -0.16282,-0.67299 -0.15921,-0.25328 -0.52465,-0.25328 z"
         id="text2-8-5-9"
         aria-label="False" />
      <path
         style="font-weight:bold;font-size:7.05556px;font-family:'FiraCode Nerd Font';-inkscape-font-specification:'FiraCode Nerd Font Bold';text-align:center;text-anchor:middle;stroke-width:1.643;stroke-linecap:round;stroke-linejoin:bevel;paint-order:markers stroke fill"
         d="m 241.26935,131.20248 v 4.10669 h -1.18678 v -4.10669 h -1.40749 v -0.90818 h 4.05966 l -0.12302,0.90818 z m 2.12753,4.10669 v -0.76706 h 0.50655 v -2.31567 h -0.50655 v -0.75983 h 1.37855 l 0.20985,0.86476 q 0.20624,-0.4957 0.52465,-0.73812 0.32202,-0.24243 0.78516,-0.24243 0.19538,0 0.34735,0.0326 0.15196,0.0289 0.28584,0.0832 l -0.21348,1.60649 h -0.71641 v -0.70917 q -0.32564,0.0579 -0.57168,0.35459 -0.24604,0.29307 -0.37992,0.72364 v 1.09995 h 0.75983 v 0.76706 z m 5.44906,-3.84256 v 2.63045 q 0,0.27861 0.10132,0.38354 0.10492,0.10493 0.28945,0.10493 0.1773,0 0.35459,-0.11217 0.1773,-0.11216 0.2967,-0.30393 v -2.70282 h 1.14336 v 3.84256 h -0.99863 l -0.0507,-0.44866 q -0.19538,0.28222 -0.51379,0.42695 -0.3184,0.14473 -0.66575,0.14473 -0.55721,0 -0.82858,-0.32202 -0.27137,-0.32564 -0.27137,-0.87199 v -2.77157 z m 4.18992,2.25416 q 0.0579,0.47037 0.30755,0.67661 0.24966,0.20262 0.6151,0.20262 0.26414,0 0.51018,-0.0868 0.24604,-0.0868 0.47398,-0.23157 l 0.45952,0.62234 q -0.27137,0.23157 -0.65852,0.37992 -0.38353,0.14834 -0.87561,0.14834 -0.65852,0 -1.10356,-0.26051 -0.44505,-0.26413 -0.66938,-0.72365 -0.22433,-0.45951 -0.22433,-1.05652 0,-0.56806 0.2171,-1.0312 0.21709,-0.46675 0.63319,-0.74174 0.41971,-0.2786 1.02396,-0.2786 0.54997,0 0.95159,0.23518 0.40525,0.23519 0.62596,0.67661 0.22433,0.44143 0.22433,1.06015 0,0.0977 -0.007,0.20986 -0.004,0.11216 -0.0145,0.199 z m 0.70918,-1.61374 q -0.30755,0 -0.4957,0.22072 -0.18815,0.22071 -0.22795,0.70555 h 1.41111 q -0.004,-0.41971 -0.16282,-0.67299 -0.1592,-0.25328 -0.52464,-0.25328 z"
         id="text2-8-5-9-1"
         aria-label="True" />
    </g>
    <path
       style="fill:#000000;stroke:#ffffff;stroke-width:1.243;stroke-linecap:round;stroke-linejoin:bevel;stroke-dasharray:none;marker-end:url(#Triangle);paint-order:markers stroke fill"
       d="M 313.09914,98.423406 H 259.86565"
       id="path4"
       sodipodi:nodetypes="cc" />
    <path
       style="fill:#000000;stroke:#ffffff;stroke-width:1.243;stroke-linecap:round;stroke-linejoin:bevel;stroke-dasharray:none;marker-end:url(#Triangle-6);paint-order:markers stroke fill"
       d="m 256.38654,105.14936 h 52.31924"
       id="path4-5"
       sodipodi:nodetypes="cc" />
    <path
       d="m 272.06494,90.723887 q 0,0.64694 -0.35169,1.050735 -0.35169,0.399454 -0.85535,0.59918 l 1.5761,2.540001 h -1.61084 l -1.30256,-2.301197 h -0.4038 v 2.301197 h -1.42413 v -6.017848 h 1.89306 q 1.22875,0 1.85398,0.447213 0.62523,0.447214 0.62523,1.380719 z m -1.46755,0 q 0,-0.434188 -0.25617,-0.629573 -0.25183,-0.199727 -0.75115,-0.199727 h -0.47327 v 1.741095 h 0.52971 q 0.46459,0 0.70773,-0.217094 0.24315,-0.217094 0.24315,-0.694701 z m 3.59942,2.28383 q 0.0695,0.564445 0.36906,0.811932 0.29959,0.243145 0.73812,0.243145 0.31696,0 0.61221,-0.104205 0.29524,-0.104205 0.56878,-0.27788 l 0.55142,0.746803 q -0.32564,0.277881 -0.79022,0.455898 -0.46024,0.178017 -1.05074,0.178017 -0.79022,0 -1.32427,-0.312615 -0.53405,-0.316958 -0.80325,-0.868377 -0.2692,-0.551419 -0.2692,-1.267829 0,-0.681676 0.26052,-1.237437 0.26051,-0.560103 0.75983,-0.890086 0.50366,-0.334325 1.22875,-0.334325 0.65997,0 1.14191,0.282223 0.4863,0.282222 0.75115,0.811932 0.2692,0.529709 0.2692,1.272171 0,0.117231 -0.009,0.251829 -0.004,0.134599 -0.0174,0.238804 z m 0.85101,-1.93648 q -0.36906,0 -0.59484,0.264855 -0.22578,0.264855 -0.27354,0.846667 h 1.69334 q -0.004,-0.503658 -0.19539,-0.80759 -0.19104,-0.303932 -0.62957,-0.303932 z m 4.77173,-0.920479 q 0.70773,0 1.13323,0.521026 l 0.0608,-0.36906 h 1.19836 v 6.534533 l -1.37204,-0.143282 v -2.166599 q -0.19972,0.238803 -0.48629,0.386427 -0.28656,0.147624 -0.6947,0.147624 -0.59049,0 -0.9639,-0.303932 -0.3734,-0.308273 -0.54707,-0.859692 -0.17368,-0.555761 -0.17368,-1.302565 0,-0.712069 0.21275,-1.263488 0.2171,-0.551419 0.62958,-0.864034 0.41248,-0.316958 1.00297,-0.316958 z m 0.36038,1.002975 q -0.37775,0 -0.58616,0.338667 -0.20406,0.334325 -0.20406,1.111522 0,0.568786 0.0868,0.881402 0.0868,0.312615 0.24315,0.43853 0.16065,0.121573 0.3734,0.121573 0.2388,0 0.42116,-0.138941 0.18236,-0.13894 0.32564,-0.386427 v -1.988582 q -0.13459,-0.178017 -0.2909,-0.27788 -0.15631,-0.09986 -0.36906,-0.09986 z m 4.61976,-0.851009 v 3.156549 q 0,0.334325 0.12158,0.460239 0.12591,0.125915 0.34735,0.125915 0.21275,0 0.4255,-0.134599 0.21275,-0.134598 0.35604,-0.364718 v -3.243386 h 1.37203 v 4.611079 h -1.19836 l -0.0608,-0.538393 q -0.23447,0.338667 -0.61655,0.512342 -0.38209,0.173675 -0.79891,0.173675 -0.66865,0 -0.99429,-0.386427 -0.32564,-0.39077 -0.32564,-1.046394 v -3.325882 z m 5.02791,2.704993 q 0.0695,0.564445 0.36906,0.811932 0.29959,0.243145 0.73812,0.243145 0.31695,0 0.6122,-0.104205 0.29525,-0.104205 0.56879,-0.27788 l 0.55142,0.746803 q -0.32564,0.277881 -0.79022,0.455898 -0.46024,0.178017 -1.05074,0.178017 -0.79022,0 -1.32427,-0.312615 -0.53406,-0.316958 -0.80325,-0.868377 -0.2692,-0.551419 -0.2692,-1.267829 0,-0.681676 0.26051,-1.237437 0.26052,-0.560103 0.75983,-0.890086 0.50366,-0.334325 1.22876,-0.334325 0.65996,0 1.14191,0.282223 0.48629,0.282222 0.75115,0.811932 0.26919,0.529709 0.26919,1.272171 0,0.117231 -0.009,0.251829 -0.004,0.134599 -0.0174,0.238804 z m 0.85101,-1.93648 q -0.36906,0 -0.59484,0.264855 -0.22578,0.264855 -0.27354,0.846667 h 1.69333 q -0.004,-0.503658 -0.19538,-0.80759 -0.19104,-0.303932 -0.62957,-0.303932 z m 5.01922,3.008925 q 0.343,0 0.55141,-0.108547 0.21276,-0.108547 0.21276,-0.325641 0,-0.147624 -0.0825,-0.247488 -0.0825,-0.09986 -0.31696,-0.191043 -0.23446,-0.09118 -0.6947,-0.217094 -0.63391,-0.169333 -1.03337,-0.48629 -0.39511,-0.316958 -0.39511,-0.929163 0,-0.616547 0.51235,-1.020342 0.51668,-0.403796 1.48926,-0.403796 0.61655,0 1.07245,0.16065 0.46024,0.156308 0.79456,0.399453 l -0.54708,0.80759 q -0.28656,-0.178017 -0.61654,-0.282222 -0.32999,-0.108547 -0.66431,-0.108547 -0.65997,0 -0.65997,0.356034 0,0.117231 0.0825,0.204069 0.0868,0.08249 0.3213,0.173675 0.23446,0.08684 0.68601,0.217094 0.44722,0.125915 0.7772,0.290906 0.33433,0.164992 0.51669,0.442872 0.18235,0.273539 0.18235,0.725094 0,0.503659 -0.29959,0.846667 -0.29959,0.338667 -0.79456,0.508001 -0.49497,0.169333 -1.08547,0.169333 -0.66865,0 -1.18099,-0.191043 -0.51234,-0.191043 -0.87272,-0.503658 l 0.69036,-0.772855 q 0.2692,0.20841 0.60786,0.347351 0.34301,0.13894 0.74681,0.13894 z m 7.51146,0.564444 q -0.2692,0.173676 -0.65129,0.295248 -0.38208,0.121573 -0.85969,0.121573 -0.90311,0 -1.34164,-0.460239 -0.43853,-0.464582 -0.43853,-1.259146 v -2.092787 h -0.96824 v -0.946531 h 0.96824 v -0.998633 l 1.37203,-0.164991 v 1.163624 h 1.48493 l -0.1346,0.946531 h -1.35033 v 2.092787 q 0,0.343008 0.15631,0.490632 0.15631,0.147624 0.49932,0.147624 0.24314,0 0.44287,-0.05644 0.20407,-0.06079 0.36472,-0.151966 z"
       id="text4"
       style="font-weight:bold;font-size:8.46667px;font-family:'FiraCode Nerd Font';-inkscape-font-specification:'FiraCode Nerd Font Bold';text-align:center;text-anchor:middle;fill:#ffffff;stroke-width:1.643;stroke-linecap:round;stroke-linejoin:bevel;paint-order:markers stroke fill"
       aria-label="Request" />
    <path
       d="m 162.78427,107.53157 v 4.00322 q 0,0.61655 -0.25183,1.10718 -0.24748,0.48629 -0.7468,0.77285 -0.49497,0.28223 -1.24178,0.28223 -0.75114,0 -1.25046,-0.27354 -0.49497,-0.27354 -0.74246,-0.75983 -0.24749,-0.48629 -0.24749,-1.12889 v -4.00322 h 1.42848 v 3.47351 q 0,0.81193 0.14762,1.22441 0.14763,0.40814 0.66431,0.40814 0.51669,0 0.66431,-0.40814 0.14762,-0.41248 0.14762,-1.22441 v -3.47351 z m 0.97259,6.01785 v -4.61108 h 1.19836 l 0.0955,0.53406 q 0.30827,-0.34735 0.65128,-0.51669 0.34301,-0.16933 0.78154,-0.16933 0.5905,0 0.92916,0.36037 0.33867,0.36038 0.33867,1.01601 v 3.38666 h -1.37204 v -2.99155 q 0,-0.42551 -0.0955,-0.5905 -0.0912,-0.16933 -0.34735,-0.16933 -0.21709,0 -0.41682,0.13894 -0.19538,0.13894 -0.39077,0.38642 v 3.22602 z m 6.5823,-4.61108 v 3.15655 q 0,0.33433 0.12157,0.46024 0.12591,0.12592 0.34735,0.12592 0.21275,0 0.4255,-0.1346 0.21276,-0.1346 0.35604,-0.36472 v -3.24339 h 1.37203 v 4.61108 h -1.19836 l -0.0608,-0.53839 q -0.23447,0.33867 -0.61655,0.51234 -0.38209,0.17368 -0.79891,0.17368 -0.66865,0 -0.99429,-0.38643 -0.32564,-0.39077 -0.32564,-1.04639 v -3.32589 z m 5.68786,3.77744 q 0.34301,0 0.55142,-0.10855 0.21276,-0.10854 0.21276,-0.32564 0,-0.14762 -0.0825,-0.24748 -0.0825,-0.0999 -0.31696,-0.19105 -0.23446,-0.0912 -0.6947,-0.21709 -0.63391,-0.16933 -1.03337,-0.48629 -0.39511,-0.31696 -0.39511,-0.92916 0,-0.61655 0.51234,-1.02035 0.51669,-0.40379 1.48927,-0.40379 0.61655,0 1.07244,0.16065 0.46024,0.15631 0.79457,0.39945 l -0.54708,0.80759 q -0.28656,-0.17802 -0.61655,-0.28222 -0.32998,-0.10855 -0.6643,-0.10855 -0.65997,0 -0.65997,0.35604 0,0.11723 0.0825,0.20406 0.0868,0.0825 0.3213,0.17368 0.23446,0.0868 0.68601,0.21709 0.44722,0.12592 0.7772,0.29091 0.33433,0.16499 0.51668,0.44287 0.18236,0.27354 0.18236,0.7251 0,0.50365 -0.29959,0.84666 -0.29959,0.33867 -0.79456,0.508 -0.49498,0.16934 -1.08547,0.16934 -0.66865,0 -1.18099,-0.19105 -0.51235,-0.19104 -0.87272,-0.50365 l 0.69036,-0.77286 q 0.26919,0.20841 0.60786,0.34735 0.34301,0.13894 0.7468,0.13894 z m 4.5503,-1.07244 q 0.0695,0.56444 0.36906,0.81193 0.29959,0.24314 0.73812,0.24314 0.31696,0 0.61221,-0.1042 0.29524,-0.10421 0.56878,-0.27788 l 0.55142,0.7468 q -0.32564,0.27788 -0.79022,0.4559 -0.46024,0.17802 -1.05074,0.17802 -0.79022,0 -1.32427,-0.31262 -0.53405,-0.31696 -0.80325,-0.86837 -0.2692,-0.55142 -0.2692,-1.26783 0,-0.68168 0.26052,-1.23744 0.26051,-0.5601 0.75983,-0.89009 0.50366,-0.33432 1.22875,-0.33432 0.65997,0 1.14191,0.28222 0.4863,0.28222 0.75115,0.81193 0.2692,0.52971 0.2692,1.27217 0,0.11724 -0.009,0.25183 -0.004,0.1346 -0.0174,0.23881 z m 0.85101,-1.93648 q -0.36906,0 -0.59484,0.26485 -0.22578,0.26486 -0.27354,0.84667 h 1.69334 q -0.004,-0.50366 -0.19539,-0.80759 -0.19104,-0.30393 -0.62957,-0.30393 z m 5.79207,-2.74407 1.37204,0.14328 v 6.44335 h -1.21573 l -0.0695,-0.508 q -0.19104,0.2692 -0.508,0.46458 -0.31696,0.19105 -0.76851,0.19105 -0.57313,0 -0.95087,-0.30828 -0.37341,-0.30827 -0.56011,-0.85969 -0.18236,-0.55576 -0.18236,-1.29822 0,-0.71207 0.22144,-1.26349 0.22144,-0.55142 0.63392,-0.86403 0.41247,-0.31696 0.98126,-0.31696 0.62089,0 1.04639,0.4255 z m -0.67733,2.82656 q -0.35603,0 -0.57313,0.33867 -0.21709,0.33433 -0.21709,1.11152 0,0.56879 0.0912,0.88575 0.0912,0.31261 0.25183,0.43853 0.16065,0.12591 0.36906,0.12591 0.23012,0 0.41682,-0.14328 0.19104,-0.14328 0.33866,-0.39077 v -1.98858 q -0.14328,-0.17802 -0.30393,-0.27788 -0.16065,-0.0999 -0.3734,-0.0999 z"
       id="text4-15"
       style="font-weight:bold;font-size:8.46667px;font-family:'FiraCode Nerd Font';-inkscape-font-specification:'FiraCode Nerd Font Bold';text-align:center;text-anchor:middle;fill:#ffffff;stroke-width:1.643;stroke-linecap:round;stroke-linejoin:bevel;paint-order:markers stroke fill"
       aria-label="Unused" />
    <path
       d="m 84.530664,194.58322 q 0,0.64694 -0.351693,1.05073 -0.351692,0.39945 -0.85535,0.59918 l 1.576103,2.54 h -1.610839 l -1.302564,-2.3012 h -0.403795 v 2.3012 h -1.424138 v -6.01785 h 1.893061 q 1.228753,0 1.853984,0.44722 0.625231,0.44721 0.625231,1.38072 z m -1.467556,0 q 0,-0.43419 -0.256171,-0.62958 -0.25183,-0.19972 -0.751146,-0.19972 h -0.473265 v 1.74109 h 0.529709 q 0.464582,0 0.707727,-0.21709 0.243146,-0.2171 0.243146,-0.6947 z m 3.599424,2.28383 q 0.06947,0.56444 0.36906,0.81193 0.299589,0.24314 0.73812,0.24314 0.316957,0 0.612205,-0.1042 0.295248,-0.10421 0.568786,-0.27788 l 0.55142,0.7468 q -0.325642,0.27788 -0.790223,0.4559 -0.46024,0.17802 -1.050735,0.17802 -0.790223,0 -1.324275,-0.31262 -0.534051,-0.31696 -0.803248,-0.86838 -0.269196,-0.55141 -0.269196,-1.26783 0,-0.68167 0.260513,-1.23743 0.260512,-0.5601 0.759829,-0.89009 0.503658,-0.33432 1.228753,-0.33432 0.659966,0 1.141914,0.28222 0.486291,0.28222 0.751146,0.81193 0.269197,0.52971 0.269197,1.27217 0,0.11723 -0.0087,0.25183 -0.0043,0.1346 -0.01737,0.23881 z m 0.851009,-1.93648 q -0.36906,0 -0.594838,0.26485 -0.225778,0.26486 -0.273539,0.84667 h 1.693334 q -0.0043,-0.50366 -0.195385,-0.80759 -0.191042,-0.30393 -0.629572,-0.30393 z m 4.771732,-0.92048 q 0.707726,0 1.133231,0.52102 l 0.06079,-0.36906 h 1.19836 v 6.53454 l -1.372035,-0.14329 v -2.1666 q -0.199727,0.23881 -0.486291,0.38643 -0.286564,0.14763 -0.694701,0.14763 -0.590496,0 -0.963898,-0.30394 -0.373402,-0.30827 -0.547077,-0.85969 -0.173675,-0.55576 -0.173675,-1.30256 0,-0.71207 0.212752,-1.26349 0.217094,-0.55142 0.629573,-0.86403 0.412479,-0.31696 1.002975,-0.31696 z m 0.360376,1.00297 q -0.377744,0 -0.586154,0.33867 -0.204069,0.33432 -0.204069,1.11152 0,0.56879 0.08684,0.8814 0.08684,0.31262 0.243145,0.43853 0.16065,0.12158 0.373402,0.12158 0.238804,0 0.421163,-0.13894 0.182359,-0.13894 0.325641,-0.38643 v -1.98858 q -0.134598,-0.17802 -0.290906,-0.27788 -0.156308,-0.0999 -0.36906,-0.0999 z m 4.619766,-0.85101 v 3.15655 q 0,0.33433 0.121573,0.46024 0.125915,0.12592 0.347351,0.12592 0.212752,0 0.425504,-0.1346 0.212752,-0.1346 0.356034,-0.36472 v -3.24339 h 1.372035 v 4.61108 h -1.198359 l -0.06079,-0.53839 q -0.234461,0.33867 -0.616547,0.51234 -0.382086,0.17368 -0.798906,0.17368 -0.66865,0 -0.994291,-0.38643 -0.325641,-0.39077 -0.325641,-1.04639 v -3.32589 z m 5.027905,2.705 q 0.0695,0.56444 0.36906,0.81193 0.29959,0.24314 0.73812,0.24314 0.31696,0 0.6122,-0.1042 0.29525,-0.10421 0.56879,-0.27788 l 0.55142,0.7468 q -0.32564,0.27788 -0.79022,0.4559 -0.46024,0.17802 -1.05074,0.17802 -0.79022,0 -1.32427,-0.31262 -0.53405,-0.31696 -0.80325,-0.86838 -0.2692,-0.55141 -0.2692,-1.26783 0,-0.68167 0.26052,-1.23743 0.26051,-0.5601 0.75982,-0.89009 0.50366,-0.33432 1.22876,-0.33432 0.65996,0 1.14191,0.28222 0.48629,0.28222 0.75115,0.81193 0.26919,0.52971 0.26919,1.27217 0,0.11723 -0.009,0.25183 -0.004,0.1346 -0.0174,0.23881 z m 0.85101,-1.93648 q -0.36906,0 -0.59484,0.26485 -0.22578,0.26486 -0.27354,0.84667 h 1.69334 q -0.004,-0.50366 -0.19539,-0.80759 -0.19104,-0.30393 -0.62957,-0.30393 z m 5.01922,3.00892 q 0.34301,0 0.55142,-0.10855 0.21275,-0.10854 0.21275,-0.32564 0,-0.14762 -0.0825,-0.24748 -0.0825,-0.0999 -0.31696,-0.19105 -0.23446,-0.0912 -0.6947,-0.21709 -0.63391,-0.16933 -1.03336,-0.48629 -0.39512,-0.31696 -0.39512,-0.92916 0,-0.61655 0.51235,-1.02035 0.51668,-0.40379 1.48926,-0.40379 0.61655,0 1.07245,0.16065 0.46024,0.15631 0.79456,0.39945 l -0.54708,0.80759 q -0.28656,-0.17802 -0.61654,-0.28222 -0.32999,-0.10855 -0.66431,-0.10855 -0.65997,0 -0.65997,0.35604 0,0.11723 0.0825,0.20406 0.0868,0.0825 0.3213,0.17368 0.23446,0.0868 0.68602,0.21709 0.44721,0.12592 0.77719,0.29091 0.33433,0.16499 0.51669,0.44287 0.18236,0.27354 0.18236,0.7251 0,0.50365 -0.29959,0.84666 -0.29959,0.33867 -0.79457,0.508 -0.49497,0.16934 -1.08547,0.16934 -0.66865,0 -1.18099,-0.19105 -0.51234,-0.19104 -0.87272,-0.50365 l 0.69036,-0.77286 q 0.2692,0.20841 0.60786,0.34735 0.34301,0.13894 0.74681,0.13894 z m 7.51146,0.56445 q -0.2692,0.17367 -0.65129,0.29524 -0.38208,0.12158 -0.85969,0.12158 -0.90311,0 -1.34164,-0.46024 -0.43853,-0.46458 -0.43853,-1.25915 v -2.09279 h -0.96824 v -0.94653 h 0.96824 v -0.99863 l 1.37203,-0.16499 v 1.16362 h 1.48493 l -0.1346,0.94653 h -1.35033 v 2.09279 q 0,0.34301 0.15631,0.49063 0.15631,0.14763 0.49932,0.14763 0.24314,0 0.44287,-0.0565 0.20407,-0.0608 0.36472,-0.15196 z"
       id="text4-15-5"
       style="font-weight:bold;font-size:8.46667px;font-family:'FiraCode Nerd Font';-inkscape-font-specification:'FiraCode Nerd Font Bold';text-align:center;text-anchor:middle;fill:#ffffff;stroke-width:1.643;stroke-linecap:round;stroke-linejoin:bevel;paint-order:markers stroke fill"
       transform="rotate(-24.202387)"
       aria-label="Request" />
    <path
       d="m 177.50565,-8.9708639 q 0,0.6469404 -0.3517,1.0507355 -0.35169,0.3994531 -0.85535,0.5991797 l 1.57611,2.540001 h -1.61084 l -1.30257,-2.3011975 h -0.40379 v 2.3011975 h -1.42414 v -6.0178483 h 1.89306 q 1.22875,0 1.85399,0.447214 0.62523,0.4472135 0.62523,1.3807181 z m -1.46756,0 q 0,-0.4341882 -0.25617,-0.6295729 -0.25183,-0.1997266 -0.75115,-0.1997266 h -0.47326 v 1.7410948 h 0.52971 q 0.46458,0 0.70773,-0.2170942 0.24314,-0.2170941 0.24314,-0.6947011 z m 3.59942,2.28383 q 0.0695,0.5644447 0.36906,0.8119319 0.29959,0.2431454 0.73812,0.2431454 0.31696,0 0.61221,-0.1042051 0.29525,-0.1042052 0.56879,-0.2778805 l 0.55142,0.7468037 q -0.32565,0.2778805 -0.79023,0.4558976 -0.46024,0.1780172 -1.05073,0.1780172 -0.79022,0 -1.32428,-0.3126155 -0.53405,-0.3169574 -0.80324,-0.8683764 -0.2692,-0.551419 -0.2692,-1.2678296 0,-0.6816755 0.26051,-1.2374364 0.26051,-0.5601028 0.75983,-0.8900858 0.50366,-0.3343249 1.22875,-0.3343249 0.65997,0 1.14192,0.2822223 0.48629,0.2822224 0.75114,0.811932 0.2692,0.5297096 0.2692,1.2721714 0,0.1172308 -0.009,0.2518292 -0.004,0.1345983 -0.0174,0.2388035 z m 0.85101,-1.9364794 q -0.36906,0 -0.59483,0.2648548 -0.22578,0.2648548 -0.27354,0.846667 h 1.69333 q -0.004,-0.5036583 -0.19538,-0.8075901 -0.19105,-0.3039317 -0.62958,-0.3039317 z m 4.77174,-0.920479 q 0.70772,0 1.13323,0.5210258 l 0.0608,-0.3690599 h 1.19836 v 6.5345325 L 186.2806,-3.000776 v -2.1665992 q -0.19973,0.2388035 -0.48629,0.3864275 -0.28657,0.147624 -0.6947,0.147624 -0.5905,0 -0.9639,-0.3039317 -0.3734,-0.3082737 -0.54708,-0.8596927 -0.17367,-0.5557609 -0.17367,-1.3025646 0,-0.7120687 0.21275,-1.2634877 0.21709,-0.551419 0.62957,-0.8640345 0.41248,-0.3169574 1.00298,-0.3169574 z m 0.36037,1.0029747 q -0.37774,0 -0.58615,0.3386668 -0.20407,0.334325 -0.20407,1.1115219 0,0.5687865 0.0868,0.881402 0.0868,0.3126155 0.24314,0.4385301 0.16065,0.1215727 0.3734,0.1215727 0.23881,0 0.42117,-0.1389402 0.18236,-0.1389403 0.32564,-0.3864275 v -1.988582 q -0.1346,-0.1780172 -0.29091,-0.2778805 -0.15631,-0.099863 -0.36906,-0.099863 z m 4.61977,-0.8510088 v 3.1565482 q 0,0.3343249 0.12157,0.4602395 0.12592,0.1259146 0.34735,0.1259146 0.21275,0 0.42551,-0.1345983 0.21275,-0.1345984 0.35603,-0.3647181 v -3.2433859 h 1.37204 v 4.6110787 h -1.19836 l -0.0608,-0.5383934 q -0.23446,0.3386668 -0.61655,0.5123421 -0.38208,0.1736753 -0.7989,0.1736753 -0.66865,0 -0.9943,-0.3864275 -0.32564,-0.3907694 -0.32564,-1.0463936 v -3.3258816 z m 5.0279,2.7049925 q 0.0695,0.5644447 0.36906,0.8119319 0.29959,0.2431454 0.73812,0.2431454 0.31696,0 0.61221,-0.1042051 0.29525,-0.1042052 0.56878,-0.2778805 l 0.55142,0.7468037 q -0.32564,0.2778805 -0.79022,0.4558976 -0.46024,0.1780172 -1.05074,0.1780172 -0.79022,0 -1.32427,-0.3126155 -0.53405,-0.3169574 -0.80325,-0.8683764 -0.26919,-0.551419 -0.26919,-1.2678296 0,-0.6816755 0.26051,-1.2374364 0.26051,-0.5601028 0.75983,-0.8900858 0.50366,-0.3343249 1.22875,-0.3343249 0.65997,0 1.14192,0.2822223 0.48629,0.2822224 0.75114,0.811932 0.2692,0.5297096 0.2692,1.2721714 0,0.1172308 -0.009,0.2518292 -0.004,0.1345983 -0.0174,0.2388035 z m 0.85101,-1.9364794 q -0.36906,0 -0.59484,0.2648548 -0.22578,0.2648548 -0.27354,0.846667 h 1.69334 q -0.004,-0.5036583 -0.19539,-0.8075901 -0.19104,-0.3039317 -0.62957,-0.3039317 z m 5.01922,3.0089243 q 0.34301,0 0.55142,-0.1085471 0.21275,-0.108547 0.21275,-0.3256411 0,-0.147624 -0.0825,-0.2474873 -0.0825,-0.099863 -0.31696,-0.1910428 -0.23446,-0.09118 -0.6947,-0.2170941 -0.63392,-0.1693334 -1.03337,-0.4862908 -0.39511,-0.3169574 -0.39511,-0.9291628 0,-0.6165473 0.51234,-1.0203423 0.51668,-0.403795 1.48927,-0.403795 0.61654,0 1.07244,0.1606496 0.46024,0.1563078 0.79456,0.3994532 l -0.54707,0.80759 q -0.28657,-0.1780171 -0.61655,-0.2822223 -0.32998,-0.1085471 -0.66431,-0.1085471 -0.65996,0 -0.65996,0.3560344 0,0.1172308 0.0825,0.2040684 0.0868,0.082496 0.3213,0.1736753 0.23446,0.086838 0.68602,0.2170941 0.44721,0.1259146 0.7772,0.2909061 0.33432,0.1649915 0.51668,0.442872 0.18236,0.2735386 0.18236,0.7250943 0,0.5036583 -0.29959,0.846667 -0.29959,0.3386668 -0.79457,0.5080002 -0.49497,0.1693334 -1.08547,0.1693334 -0.66865,0 -1.18099,-0.1910428 -0.51234,-0.1910428 -0.87272,-0.5036583 l 0.69036,-0.772855 q 0.2692,0.2084103 0.60787,0.3473505 0.34301,0.1389403 0.7468,0.1389403 z m 7.51146,0.5644446 q -0.2692,0.1736753 -0.65128,0.295248 -0.38209,0.1215727 -0.8597,0.1215727 -0.90311,0 -1.34164,-0.4602395 -0.43853,-0.4645814 -0.43853,-1.2591458 v -2.0927872 h -0.96824 v -0.9465302 h 0.96824 v -0.9986326 l 1.37204,-0.164992 v 1.1636246 h 1.48492 l -0.1346,0.9465302 h -1.35032 v 2.0927872 q 0,0.3430087 0.15631,0.4906327 0.1563,0.147624 0.49931,0.147624 0.24315,0 0.44287,-0.056445 0.20407,-0.060786 0.36472,-0.1519659 z"
       id="text4-1"
       style="font-weight:bold;font-size:8.46667px;font-family:'FiraCode Nerd Font';-inkscape-font-specification:'FiraCode Nerd Font Bold';text-align:center;text-anchor:middle;fill:#ffffff;stroke-width:1.643;stroke-linecap:round;stroke-linejoin:bevel;paint-order:markers stroke fill"
       transform="rotate(25.530894)"
       aria-label="Request" />
    <path
       style="fill:#ffffff;stroke:#ffffff;stroke-width:1.243;stroke-linecap:round;stroke-linejoin:bevel;stroke-dasharray:none;marker-end:url(#marker6);paint-order:markers stroke fill"
       d="M 205.16195,95.603518 142.13175,67.600836"
       id="path5"
       sodipodi:nodetypes="cc" />
    <path
       style="fill:#ffffff;stroke:#ffffff;stroke-width:1.243;stroke-linecap:round;stroke-linejoin:bevel;stroke-dasharray:none;marker-end:url(#marker6-7);paint-order:markers stroke fill"
       d="m 137.14989,72.498943 64.314,28.573037"
       id="path5-5"
       sodipodi:nodetypes="cc" />
    <path
       style="fill:#ffffff;stroke:#ffffff;stroke-width:1.243;stroke-linecap:round;stroke-linejoin:bevel;stroke-dasharray:none;marker-end:url(#marker6-8);paint-order:markers stroke fill"
       d="m 204.97023,116.17833 -63.24107,1e-5"
       id="path5-0"
       sodipodi:nodetypes="cc" />
    <path
       style="fill:#ffffff;stroke:#ffffff;stroke-width:1.243;stroke-linecap:round;stroke-linejoin:bevel;stroke-dasharray:none;marker-end:url(#marker6-8-1);paint-order:markers stroke fill"
       d="M 204.79945,129.15988 140.8402,158.36167"
       id="path5-0-3"
       sodipodi:nodetypes="cc" />
    <path
       style="fill:#ffffff;stroke:#ffffff;stroke-width:1.243;stroke-linecap:round;stroke-linejoin:bevel;stroke-dasharray:none;marker-end:url(#marker6-8-1-8);paint-order:markers stroke fill"
       d="m 137.01756,168.66177 66.42705,-30.32851"
       id="path5-0-3-8"
       sodipodi:nodetypes="cc" />
  </g>
</svg>
