<svg xmlns="http://www.w3.org/2000/svg" xmlns:xlink="http://www.w3.org/1999/xlink" width="865pt" height="386pt" viewBox="0.00 0.00 865.00 386.39">
<g id="graph0" class="graph" transform="translate(4,382.3900146484375) scale(1)">
<polygon fill="white" stroke="none" points="-4,4 -4,-382.39 861,-382.39 861,4 -4,4"></polygon>
<!-- 140734753128960 -->
<g id="node1" class="node">
<title>140734753128960</title>
<polygon fill="white" stroke="black" points="301,-211.5 90,-211.5 90,-62.5 301,-62.5 301,-211.5"></polygon>
<text text-anchor="start" x="181.11" y="-190.9" font-family="Times,serif" font-weight="bold" font-size="14.00">Grid</text>
<text text-anchor="start" x="103" y="-166.9" font-family="Times,serif" font-size="14.00">Size X</text>
<text text-anchor="start" x="256.89" y="-166.9" font-family="Times,serif" font-size="14.00">Mesh</text>
<text text-anchor="start" x="103" y="-143.9" font-family="Times,serif" font-size="14.00">Size Y</text>
<text text-anchor="start" x="238.81" y="-143.9" font-family="Times,serif" font-size="14.00">UV Map</text>
<text text-anchor="start" x="103" y="-120.9" font-family="Times,serif" font-size="14.00">Vertices X</text>
<text text-anchor="start" x="103" y="-97.9" font-family="Times,serif" font-size="14.00">Vertices Y</text>
<text text-anchor="start" x="102.96" y="-74.9" font-family="Times,serif" font-size="14.00">Use Output 'UV Map'</text>
</g>
<!-- 140734753125888 -->
<g id="node12" class="node">
<title>140734753125888</title>
<polygon fill="white" stroke="black" points="466,-355.5 337,-355.5 337,-252.5 466,-252.5 466,-355.5"></polygon>
<text text-anchor="start" x="381.28" y="-334.9" font-family="Times,serif" font-weight="bold" font-size="14.00">Switch</text>
<text text-anchor="start" x="350" y="-310.9" font-family="Times,serif" font-size="14.00">Condition</text>
<text text-anchor="start" x="419.79" y="-310.9" font-family="Times,serif" font-size="14.00">Value</text>
<text text-anchor="start" x="350" y="-287.9" font-family="Times,serif" font-size="14.00">False</text>
<text text-anchor="start" x="350" y="-264.9" font-family="Times,serif" font-size="14.00">True</text>
</g>
<!-- 140734753128960&#45;&gt;140734753125888 -->
<g id="edge9" class="edge">
<title>140734753128960:e-&gt;140734753125888:w</title>
<path fill="none" stroke="black" d="M291,-171.5C336.85,-171.5 303.76,-253.38 336.04,-267.45"></path>
<polygon fill="black" stroke="black" points="335.04,-270.83 345.51,-269.22 336.32,-263.95 335.04,-270.83"></polygon>
</g>
<!-- 140735196766976 -->
<g id="node2" class="node">
<title>140735196766976</title>
<ellipse fill="none" stroke="#000000" stroke-opacity="0.333333" cx="27" cy="-18" rx="27" ry="18"></ellipse>
<text text-anchor="middle" x="27" y="-13.8" font-family="Times,serif" font-size="14.00">0</text>
</g>
<!-- 140735196766976&#45;&gt;140734753128960 -->
<g id="edge15" class="edge">
<title>140735196766976-&gt;140734753128960:w</title>
<path fill="none" stroke="black" d="M43.23,-32.89C57.13,-46.25 77.37,-65.13 89.98,-74.21"></path>
<polygon fill="black" stroke="black" points="88.18,-77.22 98.66,-78.79 91.45,-71.03 88.18,-77.22"></polygon>
</g>
<!-- 140734753135104 -->
<g id="node3" class="node">
<title>140734753135104</title>
<ellipse fill="none" stroke="#000000" stroke-opacity="0.333333" cx="27" cy="-126" rx="27" ry="18"></ellipse>
<text text-anchor="middle" x="27" y="-121.8" font-family="Times,serif" font-size="14.00">3</text>
</g>
<!-- 140734753135104&#45;&gt;140734753128960 -->
<g id="edge13" class="edge">
<title>140734753135104-&gt;140734753128960:w</title>
<path fill="none" stroke="black" d="M54.33,-125.73C64.66,-125.64 76.88,-125.55 88.77,-125.52"></path>
<polygon fill="black" stroke="black" points="88.49,-129.02 98.49,-125.5 88.48,-122.02 88.49,-129.02"></polygon>
</g>
<!-- 140735196696064 -->
<g id="node4" class="node">
<title>140735196696064</title>
<polygon fill="lightblue" stroke="black" points="857,-286.5 719,-286.5 719,-183.5 857,-183.5 857,-286.5"></polygon>
<text text-anchor="start" x="760.79" y="-265.9" font-family="Times,serif" font-weight="bold" font-size="14.00">Interface</text>
<text text-anchor="start" x="731.82" y="-241.9" font-family="Times,serif" font-size="14.00">Usage: Geometry</text>
<text text-anchor="start" x="732" y="-218.9" font-family="Times,serif" font-size="14.00">Usage: Switch</text>
<text text-anchor="start" x="732" y="-195.9" font-family="Times,serif" font-size="14.00">Geometry</text>
</g>
<!-- 140734753133568 -->
<g id="node5" class="node">
<title>140734753133568</title>
<ellipse fill="none" stroke="#000000" stroke-opacity="0.333333" cx="27" cy="-180" rx="27" ry="18"></ellipse>
<text text-anchor="middle" x="27" y="-175.8" font-family="Times,serif" font-size="14.00">1</text>
</g>
<!-- 140734753133568&#45;&gt;140734753128960 -->
<g id="edge12" class="edge">
<title>140734753133568-&gt;140734753128960:w</title>
<path fill="none" stroke="black" d="M46.3,-167.01C57.57,-160.02 72.84,-152.3 88.54,-149.54"></path>
<polygon fill="black" stroke="black" points="88.85,-153.03 98.49,-148.64 88.22,-146.06 88.85,-153.03"></polygon>
</g>
<!-- 140734753126656 -->
<g id="node6" class="node">
<title>140734753126656</title>
<polygon fill="white" stroke="black" points="669.5,-378 515.5,-378 515.5,-298 669.5,-298 669.5,-378"></polygon>
<text text-anchor="start" x="531.06" y="-357.4" font-family="Times,serif" font-weight="bold" font-size="14.00">Switch Socket Usage</text>
<text text-anchor="start" x="528.5" y="-333.4" font-family="Times,serif" font-size="14.00">Condition</text>
<text text-anchor="start" x="626.95" y="-333.4" font-family="Times,serif" font-size="14.00">False</text>
<text text-anchor="start" x="630.07" y="-310.4" font-family="Times,serif" font-size="14.00">True</text>
</g>
<!-- 140734753126656&#45;&gt;140735196696064 -->
<g id="edge1" class="edge">
<title>140734753126656:e-&gt;140735196696064:w</title>
<path fill="none" stroke="black" d="M659.5,-338C706.38,-338 682.72,-260.9 718.03,-248.25"></path>
<polygon fill="black" stroke="black" points="718.18,-251.77 727.51,-246.74 717.08,-244.85 718.18,-251.77"></polygon>
</g>
<!-- 140734753131264 -->
<g id="node7" class="node">
<title>140734753131264</title>
<ellipse fill="none" stroke="#000000" stroke-opacity="0.333333" cx="401.5" cy="-156" rx="27" ry="18"></ellipse>
<text text-anchor="middle" x="401.5" y="-151.8" font-family="Times,serif" font-size="14.00">1</text>
</g>
<!-- 140735196695296 -->
<g id="node10" class="node">
<title>140735196695296</title>
<polygon fill="white" stroke="black" points="683,-195.5 502,-195.5 502,-92.5 683,-92.5 683,-195.5"></polygon>
<text text-anchor="start" x="544.46" y="-174.9" font-family="Times,serif" font-weight="bold" font-size="14.00">Subdivide Mesh</text>
<text text-anchor="start" x="515" y="-150.9" font-family="Times,serif" font-size="14.00">Mesh</text>
<text text-anchor="start" x="638.94" y="-150.9" font-family="Times,serif" font-size="14.00">Mesh</text>
<text text-anchor="start" x="515" y="-127.9" font-family="Times,serif" font-size="14.00">Level</text>
<text text-anchor="start" x="514.99" y="-104.9" font-family="Times,serif" font-size="14.00">Propagate to 'Mesh'</text>
</g>
<!-- 140734753131264&#45;&gt;140735196695296 -->
<g id="edge5" class="edge">
<title>140734753131264-&gt;140735196695296:w</title>
<path fill="none" stroke="black" d="M426.11,-147.91C445.33,-141.96 473.6,-134.63 500.56,-132.88"></path>
<polygon fill="black" stroke="black" points="500.61,-136.38 510.49,-132.55 500.38,-129.39 500.61,-136.38"></polygon>
</g>
<!-- 140735725505280 -->
<g id="node8" class="node">
<title>140735725505280</title>
<polygon fill="lightblue" stroke="black" points="275,-356 116,-356 116,-230 275,-230 275,-356"></polygon>
<text text-anchor="start" x="168.29" y="-335.4" font-family="Times,serif" font-weight="bold" font-size="14.00">Interface</text>
<text text-anchor="start" x="206.02" y="-311.4" font-family="Times,serif" font-size="14.00">Geometry</text>
<text text-anchor="start" x="223.11" y="-288.4" font-family="Times,serif" font-size="14.00">Switch</text>
<text text-anchor="start" x="163.64" y="-265.4" font-family="Times,serif" font-size="14.00">Usage: Geometry</text>
<text text-anchor="start" x="142.83" y="-242.4" font-family="Times,serif" font-size="14.00">Propagate: Geometry</text>
</g>
<!-- 140735725505280&#45;&gt;140735196696064 -->
<g id="edge2" class="edge">
<title>140735725505280:e-&gt;140735196696064:w</title>
<path fill="none" stroke="black" d="M265,-270C299.02,-270 303.65,-250.74 337,-244 504.33,-210.19 552.48,-222.92 717.93,-223.48"></path>
<polygon fill="black" stroke="black" points="717.48,-226.98 727.49,-223.5 717.49,-219.98 717.48,-226.98"></polygon>
</g>
<!-- 140735725505280&#45;&gt;140734753126656 -->
<g id="edge10" class="edge">
<title>140735725505280:e-&gt;140734753126656:w</title>
<path fill="none" stroke="black" d="M265,-293C310.25,-293 295.19,-347.68 337,-365 389.97,-386.94 409.96,-377.12 466,-365 490.17,-359.77 495.26,-343.87 514.18,-339.26"></path>
<polygon fill="black" stroke="black" points="514.45,-342.75 524,-338.17 513.67,-335.8 514.45,-342.75"></polygon>
</g>
<!-- 140735725505280&#45;&gt;140735196695296 -->
<g id="edge6" class="edge">
<title>140735725505280:e-&gt;140735196695296:w</title>
<path fill="none" stroke="black" d="M265,-247C326.44,-247 288.26,-166.39 337,-129 396.06,-83.69 430.29,-106.93 500.84,-109.31"></path>
<polygon fill="black" stroke="black" points="500.43,-112.8 510.49,-109.47 500.55,-105.81 500.43,-112.8"></polygon>
</g>
<!-- 140735725505280&#45;&gt;140734753125888 -->
<g id="edge7" class="edge">
<title>140735725505280:e-&gt;140734753125888:w</title>
<path fill="none" stroke="black" d="M265,-293C298.66,-293 307.43,-310.85 335.64,-314.75"></path>
<polygon fill="black" stroke="black" points="335.28,-318.23 345.49,-315.4 335.74,-311.25 335.28,-318.23"></polygon>
</g>
<!-- 140735725505280&#45;&gt;140734753125888 -->
<g id="edge8" class="edge">
<title>140735725505280:e-&gt;140734753125888:w</title>
<path fill="none" stroke="black" d="M265,-316C298.76,-316 307.36,-297.36 335.62,-293.28"></path>
<polygon fill="black" stroke="black" points="335.75,-296.78 345.49,-292.6 335.27,-289.8 335.75,-296.78"></polygon>
</g>
<!-- 140735196766208 -->
<g id="node9" class="node">
<title>140735196766208</title>
<ellipse fill="none" stroke="#000000" stroke-opacity="0.333333" cx="27" cy="-72" rx="27" ry="18"></ellipse>
<text text-anchor="middle" x="27" y="-67.8" font-family="Times,serif" font-size="14.00">3</text>
</g>
<!-- 140735196766208&#45;&gt;140734753128960 -->
<g id="edge14" class="edge">
<title>140735196766208-&gt;140734753128960:w</title>
<path fill="none" stroke="black" d="M46.65,-84.76C57.94,-91.48 73.12,-98.87 88.67,-101.5"></path>
<polygon fill="black" stroke="black" points="88.22,-104.98 98.49,-102.37 88.84,-98 88.22,-104.98"></polygon>
</g>
<!-- 140735196695296&#45;&gt;140735196696064 -->
<g id="edge3" class="edge">
<title>140735196695296:e-&gt;140735196696064:w</title>
<path fill="none" stroke="black" d="M673,-155.5C700.56,-155.5 698.48,-189.04 717.93,-198.21"></path>
<polygon fill="black" stroke="black" points="717.02,-201.59 727.52,-200.19 718.44,-194.74 717.02,-201.59"></polygon>
</g>
<!-- 140734753132800 -->
<g id="node11" class="node">
<title>140734753132800</title>
<ellipse fill="none" stroke="#000000" stroke-opacity="0.333333" cx="27" cy="-234" rx="27" ry="18"></ellipse>
<text text-anchor="middle" x="27" y="-229.8" font-family="Times,serif" font-size="14.00">1</text>
</g>
<!-- 140734753132800&#45;&gt;140734753128960 -->
<g id="edge11" class="edge">
<title>140734753132800-&gt;140734753128960:w</title>
<path fill="none" stroke="black" d="M42.89,-219.19C56.76,-205.62 77.15,-186.26 89.88,-176.93"></path>
<polygon fill="black" stroke="black" points="91.51,-180.03 98.67,-172.22 88.2,-173.86 91.51,-180.03"></polygon>
</g>
<!-- 140734753125888&#45;&gt;140735196695296 -->
<g id="edge4" class="edge">
<title>140734753125888:e-&gt;140735196695296:w</title>
<path fill="none" stroke="black" d="M456,-315.5C527.07,-315.5 446.84,-173.11 500.77,-156.98"></path>
<polygon fill="black" stroke="black" points="501.04,-160.48 510.5,-155.7 500.13,-153.54 501.04,-160.48"></polygon>
</g>
</g>
</svg>