<?xml version="1.0" encoding="UTF-8" standalone="no"?>
<!-- Created with Inkscape (http://www.inkscape.org/) -->

<svg
   width="507.33029mm"
   height="98.504601mm"
   viewBox="0 0 507.33029 98.504603"
   version="1.1"
   id="svg1"
   inkscape:version="1.3.2 (091e20ef0f, 2023-11-25)"
   sodipodi:docname="two_pass_no_fonts.svg"
   xmlns:inkscape="http://www.inkscape.org/namespaces/inkscape"
   xmlns:sodipodi="http://sodipodi.sourceforge.net/DTD/sodipodi-0.dtd"
   xmlns="http://www.w3.org/2000/svg"
   xmlns:svg="http://www.w3.org/2000/svg">
  <sodipodi:namedview
     id="namedview1"
     pagecolor="#ffffff"
     bordercolor="#000000"
     borderopacity="0.25"
     inkscape:showpageshadow="2"
     inkscape:pageopacity="0.0"
     inkscape:pagecheckerboard="0"
     inkscape:deskcolor="#d1d1d1"
     inkscape:document-units="mm"
     inkscape:zoom="0.71713664"
     inkscape:cx="757.17788"
     inkscape:cy="257.27315"
     inkscape:window-width="2560"
     inkscape:window-height="1011"
     inkscape:window-x="0"
     inkscape:window-y="0"
     inkscape:window-maximized="1"
     inkscape:current-layer="layer1" />
  <defs
     id="defs1">
    <marker
       style="overflow:visible"
       id="Triangle"
       refX="0"
       refY="0"
       orient="auto-start-reverse"
       inkscape:stockid="Triangle arrow"
       markerWidth="1"
       markerHeight="1"
       viewBox="0 0 1 1"
       inkscape:isstock="true"
       inkscape:collect="always"
       preserveAspectRatio="xMidYMid">
      <path
         transform="scale(0.5)"
         style="fill:context-stroke;fill-rule:evenodd;stroke:context-stroke;stroke-width:1pt"
         d="M 5.77,0 -2.88,5 V -5 Z"
         id="path135" />
    </marker>
  </defs>
  <g
     inkscape:label="Layer 1"
     inkscape:groupmode="layer"
     id="layer1"
     transform="translate(82.661226,-105.87355)">
    <path
       id="rect1"
       style="fill:#191919;stroke-width:1.3529;paint-order:markers stroke fill"
       d="M -82.661226,105.87355 H 424.66906 v 98.5046 H -82.661226 Z" />
    <path
       style="font-weight:bold;font-size:40.469px;font-family:'FiraCode Nerd Font';-inkscape-font-specification:'FiraCode Nerd Font Bold';text-align:center;text-anchor:middle;fill:#ffffff;stroke:#000000;stroke-width:1.52202;stroke-linecap:round;stroke-linejoin:bevel;paint-order:markers stroke fill"
       d="m -68.661825,144.87144 v 7.61647 h 10.086121 v 4.87704 h -10.086121 v 11.41433 h -6.827846 v -28.76412 h 18.906287 l -0.705613,4.85628 z m 26.003946,-9.67105 q 1.701773,0 2.780946,1.05842 1.079174,1.05842 1.079174,2.63567 0,1.57725 -1.079174,2.65643 -1.079173,1.05842 -2.780946,1.05842 -1.722527,0 -2.822454,-1.05842 -1.079173,-1.07918 -1.079173,-2.65643 0,-1.57725 1.079173,-2.63567 1.099927,-1.05842 2.822454,-1.05842 z m 3.963886,11.53885 v 17.55732 h 5.603401 v 4.48272 H -51.4988 v -4.48272 h 6.246754 v -13.0746 h -6.03922 v -4.48272 z m 22.932452,-8.75791 v 23.86634 q 0,1.32821 0.74712,1.9093 0.767873,0.56034 2.096087,0.56034 0.850887,0 1.639513,-0.18678 0.788627,-0.20753 1.473487,-0.47732 l 1.5772534,4.37895 q -1.12068,0.58109 -2.6979334,1.01691 -1.577253,0.43582 -3.67334,0.43582 -3.98464,0 -5.85244,-2.28286 -1.867801,-2.30362 -1.867801,-6.16374 v -18.57424 h -6.495793 v -4.48272 z m 33.246855,29.51124 q -1.286707,0.83014 -3.113,1.41123 -1.826294,0.58109 -4.10916,0.58109 -4.3166938,0 -6.4127806,-2.19985 -2.0960867,-2.22061 -2.0960867,-6.01847 v -10.0031 h -4.6279935 v -4.52423 h 4.6279935 v -4.77327 l 6.5580536,-0.78862 v 5.56189 h 7.0976407 l -0.643354,4.52423 H 8.3123403 v 10.0031 q 0,1.63952 0.74712,2.34513 0.7471201,0.70561 2.3866337,0.70561 1.162186,0 2.11684,-0.26979 0.975407,-0.29055 1.74328,-0.72637 z m 10.750248,-7.824 q 0.332054,2.69793 1.764034,3.88087 1.43198,1.16219 3.528067,1.16219 1.514993,0 2.92622,-0.49808 1.411226,-0.49808 2.718686,-1.32822 l 2.635674,3.56958 q -1.5565,1.32821 -3.777107,2.1791 -2.199853,0.85088 -5.022307,0.85088 -3.777107,0 -6.329767,-1.49424 -2.55266,-1.51499 -3.839367,-4.15066 -1.286706,-2.63568 -1.286706,-6.05998 0,-3.25827 1.2452,-5.9147 1.2452,-2.67718 3.631833,-4.25443 2.407387,-1.59801 5.873194,-1.59801 3.154507,0 5.458127,1.34897 2.324373,1.34897 3.590327,3.88087 1.286706,2.53191 1.286706,6.08073 0,0.56034 -0.04151,1.20369 -0.02075,0.64336 -0.08301,1.14144 z m 4.067654,-9.25599 q -1.764034,0 -2.843207,1.26595 -1.079173,1.26596 -1.30746,4.0469 h 8.0938 q -0.02075,-2.40738 -0.9339,-3.86012 -0.913146,-1.45273 -3.009233,-1.45273 z m 15.357488,18.3667 v -4.39971 h 2.905467 v -13.28213 h -2.905467 v -4.3582 h 7.907021 l 1.203693,4.96005 q 1.18294,-2.84321 3.009233,-4.23368 1.847047,-1.39048 4.503474,-1.39048 1.12068,0 1.99232,0.18678 0.87164,0.16603 1.639514,0.47733 l -1.224447,9.21448 h -4.10916 v -4.06765 q -1.8678,0.33205 -3.279027,2.03382 -1.411227,1.68102 -2.1791,4.15067 v 6.30901 h 4.3582 v 4.39971 z"
       id="text1"
       aria-label="Filter" />
    <path
       d="m 225.786,146.26419 v 6.91086 h 9.9616 v 4.77326 h -9.9616 v 7.34668 h 12.01618 v 4.87704 h -18.82327 v -28.76412 h 18.80252 l -0.68486,4.85628 z m 37.93711,1.8678 -7.34668,22.04004 h -7.72024 l -7.42969,-22.04004 h 7.07689 l 4.29594,17.01773 4.48272,-17.01773 z m 22.66266,15.68952 q 0,1.2452 0.33206,1.80554 0.3528,0.56034 1.12068,0.85088 l -1.34897,4.3167 q -1.95081,-0.18678 -3.29978,-0.85089 -1.32821,-0.68486 -2.09609,-2.05458 -1.26595,1.51499 -3.23752,2.26211 -1.97157,0.72637 -4.02615,0.72637 -3.40354,0 -5.43737,-1.93006 -2.01307,-1.95081 -2.01307,-5.00155 0,-3.59033 2.8017,-5.54114 2.82245,-1.95082 7.92777,-1.95082 h 2.96773 v -0.83013 q 0,-3.38279 -4.3582,-3.38279 -1.05842,0 -2.71869,0.3113 -1.66027,0.29054 -3.32053,0.85088 l -1.515,-4.3582 q 2.1376,-0.80938 4.44122,-1.22444 2.32437,-0.41507 4.15066,-0.41507 4.91855,0 7.26367,2.01307 2.36588,1.99232 2.36588,5.76943 z m -10.29365,2.36588 q 1.05842,0 2.22061,-0.6226 1.16218,-0.64336 1.76403,-1.80554 v -3.56958 H 278.458 q -2.73944,0 -4.02615,0.85089 -1.28671,0.83013 -1.28671,2.44889 0,1.26596 0.76788,1.99232 0.78862,0.70562 2.1791,0.70562 z m 28.14153,-26.81331 v 23.86633 q 0,1.32822 0.74712,1.90931 0.76788,0.56034 2.09609,0.56034 0.85089,0 1.63951,-0.18678 0.78863,-0.20753 1.47349,-0.47733 l 1.57725,4.37896 q -1.12068,0.58109 -2.69793,1.01691 -1.57725,0.43582 -3.67334,0.43582 -3.98464,0 -5.85244,-2.28287 -1.8678,-2.30362 -1.8678,-6.16374 V 143.8568 h -6.49579 v -4.48272 z m 19.96473,8.75791 v 15.08767 q 0,1.59801 0.5811,2.19985 0.60184,0.60185 1.66026,0.60185 1.01692,0 2.03383,-0.64335 1.01691,-0.64336 1.70177,-1.74328 v -15.50274 h 6.55806 v 22.04004 h -5.72792 l -0.29055,-2.57342 q -1.12068,1.61876 -2.94697,2.4489 -1.8263,0.83013 -3.81862,0.83013 -3.19601,0 -4.75251,-1.84705 -1.5565,-1.8678 -1.5565,-5.00155 v -15.89705 z m 36.89945,15.68952 q 0,1.2452 0.33205,1.80554 0.35281,0.56034 1.12068,0.85088 l -1.34896,4.3167 q -1.95082,-0.18678 -3.29978,-0.85089 -1.32822,-0.68486 -2.09609,-2.05458 -1.26595,1.51499 -3.23752,2.26211 -1.97157,0.72637 -4.02615,0.72637 -3.40354,0 -5.43737,-1.93006 -2.01307,-1.95081 -2.01307,-5.00155 0,-3.59033 2.8017,-5.54114 2.82245,-1.95082 7.92777,-1.95082 h 2.96773 v -0.83013 q 0,-3.38279 -4.3582,-3.38279 -1.05842,0 -2.71869,0.3113 -1.66027,0.29054 -3.32053,0.85088 l -1.515,-4.3582 q 2.1376,-0.80938 4.44122,-1.22444 2.32437,-0.41507 4.15066,-0.41507 4.91854,0 7.26367,2.01307 2.36588,1.99232 2.36588,5.76943 z m -10.29365,2.36588 q 1.05842,0 2.2206,-0.6226 1.16219,-0.64336 1.76404,-1.80554 v -3.56958 h -1.61876 q -2.73944,0 -4.02615,0.85089 -1.28671,0.83013 -1.28671,2.44889 0,1.26596 0.76788,1.99232 0.78862,0.70562 2.1791,0.70562 z m 36.48436,2.69793 q -1.2867,0.83013 -3.113,1.41123 -1.82629,0.58109 -4.10916,0.58109 -4.31669,0 -6.41278,-2.19985 -2.09608,-2.22061 -2.09608,-6.01847 v -10.00311 h -4.628 v -4.52422 h 4.628 v -4.77327 l 6.55805,-0.78863 v 5.5619 h 7.09764 l -0.64335,4.52422 h -6.45429 v 10.00311 q 0,1.63951 0.74712,2.34513 0.74712,0.70561 2.38663,0.70561 1.16219,0 2.11684,-0.26979 0.97541,-0.29055 1.74328,-0.72637 z m 10.75025,-7.82401 q 0.33206,2.69794 1.76404,3.88088 1.43198,1.16218 3.52806,1.16218 1.515,0 2.92622,-0.49808 1.41123,-0.49808 2.71869,-1.32821 l 2.63567,3.56957 q -1.5565,1.32822 -3.7771,2.1791 -2.19986,0.85089 -5.02231,0.85089 -3.77711,0 -6.32977,-1.49424 -2.55266,-1.51499 -3.83936,-4.15067 -1.28671,-2.63567 -1.28671,-6.05997 0,-3.25827 1.2452,-5.9147 1.2452,-2.67718 3.63183,-4.25443 2.40739,-1.59801 5.8732,-1.59801 3.1545,0 5.45812,1.34897 2.32438,1.34896 3.59033,3.88087 1.28671,2.53191 1.28671,6.08073 0,0.56034 -0.0415,1.20369 -0.0208,0.64335 -0.083,1.14143 z m 4.06766,-9.25598 q -1.76404,0 -2.84321,1.26595 -1.07917,1.26595 -1.30746,4.0469 h 8.0938 q -0.0207,-2.40739 -0.9339,-3.86012 -0.91315,-1.45273 -3.00923,-1.45273 z"
       id="text3"
       style="font-weight:bold;font-size:40.469px;font-family:'FiraCode Nerd Font';-inkscape-font-specification:'FiraCode Nerd Font Bold';text-align:center;text-anchor:middle;fill:#ffffff;stroke:#000000;stroke-width:1.52202;stroke-linecap:round;stroke-linejoin:bevel;paint-order:markers stroke fill"
       aria-label="Evaluate" />
    <path
       style="fill:none;stroke:#ffffff;stroke-width:3.36565;stroke-linecap:round;stroke-linejoin:bevel;stroke-dasharray:none;marker-end:url(#Triangle);paint-order:markers stroke fill"
       d="m 85.835337,155.12584 104.955343,1e-5"
       id="path3" />
  </g>
</svg>
